<svg width="8" height="5" viewBox="0 0 8 5" fill="none" xmlns="http://www.w3.org/2000/svg">
<path d="M7.79688 0.648437C7.79688 0.710937 7.76563 0.78125 7.71875 0.828125L4.07813 4.46875C4.03125 4.51563 3.96094 4.54688 3.89844 4.54688C3.83594 4.54688 3.76563 4.51563 3.71875 4.46875L0.0781249 0.828125C0.03125 0.78125 0 0.710937 0 0.648437C0 0.585937 0.03125 0.515624 0.0781249 0.46875L0.46875 0.0781245C0.515625 0.0312497 0.578125 0 0.648437 0C0.710938 0 0.78125 0.0312497 0.828125 0.0781245L3.89844 3.14844L6.96875 0.0781245C7.01562 0.0312497 7.08594 0 7.14844 0C7.21094 0 7.28125 0.0312497 7.32812 0.0781245L7.71875 0.46875C7.76563 0.515624 7.79688 0.585937 7.79688 0.648437Z" fill="white"/>
</svg>
