<svg width="160" height="30" viewBox="0 0 160 30" fill="none" xmlns="http://www.w3.org/2000/svg">
<path fill-rule="evenodd" clip-rule="evenodd" d="M86.6044 13.4476C85.4954 13.0491 83.756 12.5725 82.3335 12.5725C80.6717 12.5725 79.4075 12.971 79.4075 14.4836C79.4075 17.9837 88.5022 15.8352 88.5022 23.1559C88.5022 28.0905 84.5481 30 80.0396 30C77.9834 30 75.9271 29.6812 74.0293 29.1234L74.3461 24.8279C74.3461 24.8279 77.2721 25.8623 79.802 25.8623C81.543 25.8623 82.9655 25.3044 82.9655 23.7934C82.9655 19.9729 73.8709 22.4402 73.8709 15.1992C73.8709 10.6631 77.6665 8.83328 81.8582 8.83328C84.3105 8.83328 86.3667 9.31145 87.5533 9.70832L86.6044 13.4476ZM70.0737 13.4476C68.8871 13.0491 67.2269 12.5725 65.8028 12.5725C64.1426 12.5725 62.8768 12.971 62.8768 14.4836C62.8768 17.9837 71.9731 15.8352 71.9731 23.1559C71.9731 28.0905 67.9382 30 63.5089 30C61.4527 30 59.3964 29.6812 57.4194 29.1234L57.8154 24.8279C57.8154 24.8279 60.8206 25.8623 63.2729 25.8623C64.9331 25.8623 66.4364 25.3044 66.4364 23.7934C66.4364 19.9729 57.3402 22.4402 57.3402 15.1992C57.3402 10.6631 61.2166 8.83328 65.3291 8.83328C67.7798 8.83328 69.8376 9.31145 71.1018 9.70832L70.0737 13.4476ZM153.752 8.5942C157.706 8.5942 160 10.7427 160 15.4383V29.5218H154.78V16.4727C154.78 14.3242 154.147 12.971 151.933 12.971C149.719 12.971 147.74 14.9602 147.74 18.4619V29.5234H142.6V16.4727C142.6 14.4836 141.966 12.971 139.753 12.971C137.38 12.971 135.561 15.1195 135.561 18.701V29.5234H130.262V9.07077C133.743 8.6723 135.086 10.1052 135.165 12.3334C136.432 10.0255 138.646 8.5926 141.492 8.5926C145.131 8.5926 146.634 10.6615 147.108 12.5709C148.059 10.5021 150.272 8.5926 153.752 8.5926V8.5942ZM46.663 8.99267C45.5556 15.0398 42.6297 24.6685 40.7319 29.4421H35.1952L31.3204 15.7555H31.2412L27.3648 29.4437H21.8297C20.0887 24.6685 16.8459 14.8008 15.897 8.99267H21.1168L24.5972 23.0762H24.6764L28.7889 8.99267H34.0087L38.042 22.9981H38.1212L41.6016 8.99267H46.663ZM12.7335 13.4476C11.6261 13.0491 9.88673 12.5725 8.46257 12.5725C6.80238 12.5725 5.61584 12.971 5.61584 14.4836C5.61584 17.9837 14.6313 15.8352 14.6313 23.1559C14.6313 28.0905 10.6772 30 6.16871 30C4.11248 30 2.05624 29.6812 0.158416 29.1234L0.475247 24.8279C0.475247 24.8279 3.4804 25.8623 5.93109 25.8623C7.67208 25.8623 9.09465 25.3044 9.09465 23.7934C9.09465 19.9713 0 22.4402 0 15.1992C0 10.6631 3.79564 8.83328 7.98891 8.83328C10.4396 8.83328 12.4958 9.31145 13.6824 9.70832L12.7335 13.4476ZM117.212 29.9203C111.439 29.9203 107.406 26.7373 107.406 19.576C107.406 13.2101 111.675 8.5942 117.846 8.5942C123.618 8.5942 127.335 11.8569 127.335 18.7791C127.335 25.4638 123.301 29.9203 117.212 29.9203ZM117.45 13.1304C115.076 13.1304 112.862 14.8805 112.862 19.4166C112.862 23.3153 114.286 25.4638 117.37 25.4638C119.981 25.4638 121.958 23.3153 121.958 19.1776C121.958 15.1992 120.534 13.1304 117.45 13.1304ZM49.036 29.5218H54.2558V9.07236C51.8036 8.83328 49.036 9.47083 49.036 13.3695V29.5218ZM51.8828 6.44565C53.703 6.44565 55.2048 5.01275 55.2048 3.18298C55.2048 1.4329 53.703 0 51.8828 0C50.1434 0 48.64 1.3532 48.64 3.18298C48.64 5.01275 50.1434 6.44565 51.8828 6.44565ZM100.604 29.8406C94.5917 29.8406 90.6376 26.817 90.6376 19.576C90.6376 13.4476 94.0388 8.67389 101.473 8.67389C103.054 8.67389 105.11 8.99267 106.455 9.55053L105.348 13.846C104.162 13.4476 102.975 13.1288 101.632 13.1288C97.8345 13.1288 96.2535 15.5961 96.2535 19.4166C96.2535 23.0762 97.676 25.4638 101.394 25.4638C103.133 25.4638 104.32 25.0654 105.507 24.5888L106.14 28.8062C105.031 29.364 102.897 29.8406 100.604 29.8406Z" fill="#001155"/>
</svg>
