<svg width="86" height="78" viewBox="0 0 86 78" fill="none" xmlns="http://www.w3.org/2000/svg">
<g clip-path="url(#clip0_3063_11894)">
<mask id="mask0_3063_11894" style="mask-type:luminance" maskUnits="userSpaceOnUse" x="0" y="0" width="86" height="78">
<path d="M85.9034 0H0V77.3131H85.9034V0Z" fill="white"/>
</mask>
<g mask="url(#mask0_3063_11894)">
<path d="M42.9256 0.214844C37.9605 0.214419 33.1068 1.68639 28.9783 4.44459C24.8497 7.2028 21.6319 11.1234 19.7316 15.7105C17.8314 20.2976 17.334 25.3451 18.3025 30.2148C19.2711 35.0846 21.662 39.5577 25.1729 43.0686C28.6837 46.5794 33.1569 48.9703 38.0266 49.9389C42.8964 50.9074 47.944 50.4102 52.531 48.5098C57.1181 46.6096 61.0386 43.3917 63.7969 39.2632C66.555 35.1346 68.027 30.2809 68.0266 25.3159C68.0197 18.6607 65.373 12.2802 60.6672 7.57429C55.9613 2.86842 49.5807 0.221666 42.9256 0.214844ZM42.9256 5.36905C46.2748 5.3673 49.5704 6.20935 52.5082 7.81743C55.4461 9.4255 57.9314 11.7479 59.7349 14.57C61.5383 17.3921 62.6017 20.6231 62.8269 23.9646C63.0522 27.3062 62.4318 30.6507 61.0233 33.6893H24.8258C23.4172 30.6506 22.7969 27.3059 23.0222 23.9641C23.2474 20.6224 24.3111 17.3913 26.1147 14.5691C27.9185 11.7469 30.4041 9.42464 33.3423 7.81666C36.2804 6.20872 39.5762 5.36695 42.9256 5.36905Z" fill="#DA291C"/>
<path d="M6.76705 76.9461C4.16203 76.9461 1.53982 76.0098 0 74.3948L2.62865 71.4032C3.76034 72.478 5.25794 73.0828 6.81858 73.0955C8.30042 73.0955 9.21312 72.5371 9.21312 71.5922C9.21312 70.6794 8.6333 70.3036 6.68973 69.6272C3.62513 68.5663 0.891247 67.6277 0.891247 64.0713C0.891247 60.7147 3.49412 58.5284 7.68407 58.5284C9.81164 58.5039 11.8717 59.2743 13.4611 60.6889L10.884 63.6805C9.99416 62.8485 8.82273 62.3835 7.60461 62.379C6.21726 62.379 5.39474 62.9246 5.39474 63.8115C5.39474 65.1516 7.62823 65.4307 9.8338 66.4015C12.297 67.4753 13.7982 68.7231 13.7982 71.4354C13.7918 74.8715 11.2061 76.9461 6.76705 76.9461ZM19.4378 76.9461C16.4312 76.9461 15.0138 74.9338 15.0138 71.3774V63.1028H19.4571V70.8062C19.4571 72.3668 20.0641 73.1478 21.2783 73.1492C22.4165 73.1492 23.2304 72.4019 23.2304 70.5979V63.1028H27.6803V76.5295H23.3228L23.2713 74.8909C22.6506 76.0549 21.3899 76.9461 19.4399 76.9461H19.4378ZM29.5593 63.1028H33.9061L33.9577 64.7929C34.6169 63.5968 35.9162 62.6861 37.731 62.6861C40.6946 62.6861 42.2409 64.6189 42.2409 68.3579V76.5187H37.7847V68.8519C37.7847 67.2769 37.1861 66.4896 35.9893 66.4896C34.7136 66.4896 34.0114 67.3636 34.0114 69.0387V76.5338H29.5615L29.5593 63.1028ZM44.0298 63.1028H48.3486L48.3744 65.521C48.8683 64.0456 49.9636 62.8407 51.7826 62.8407C52.2409 62.8327 52.6978 62.8942 53.1378 63.0233V67.0823C52.5931 66.9402 52.0339 66.8617 51.4712 66.8482C49.2892 66.8482 48.4796 68.0122 48.4796 70.3874V76.5295H44.032L44.0298 63.1028ZM56.808 62.0011C55.3412 62.0011 54.2845 60.9273 54.2845 59.6388C54.2845 58.3502 55.3004 57.2441 56.808 57.2441C58.2726 57.2441 59.3056 58.275 59.3056 59.6388C59.2975 59.9581 59.2265 60.2727 59.0964 60.5645C58.9664 60.8563 58.78 61.1195 58.5478 61.3391C58.3157 61.5586 58.0425 61.7301 57.744 61.8438C57.4454 61.9573 57.1273 62.0108 56.808 62.0011ZM54.5701 63.0942H59.02V76.5209H54.5701V63.0942ZM66.0211 76.9375C63.7232 76.9375 61.741 76.2932 60.2226 74.9854L62.4346 72.2537C63.3492 72.9898 64.4822 73.4015 65.656 73.4241C66.6782 73.4241 67.1915 73.1556 67.1915 72.6166C67.1915 72.0776 66.4291 71.8542 65.2136 71.4719C63.7103 71.0016 62.5528 70.5828 61.7388 69.7689C61.028 69.058 60.7123 68.1753 60.7123 66.9964C60.7123 64.3591 62.7911 62.6776 66.2552 62.6776C68.188 62.6776 69.9877 63.2746 71.2762 64.4192L69.1437 67.0222C68.5316 66.5196 67.3784 66.1631 66.515 66.1631C65.4412 66.1631 64.9022 66.4165 64.9022 66.9191C64.9022 67.4216 65.5465 67.6707 67.0863 68.0895C69.7515 68.811 71.4846 69.9987 71.4846 72.5994C71.4846 75.3698 69.3048 76.9461 66.0211 76.9461V76.9375ZM79.7656 76.9375C74.4826 76.9375 72.3758 73.4048 72.3758 69.8075C72.3758 65.3234 75.4941 62.6776 79.4027 62.6776C82.9806 62.6776 85.8455 64.8252 85.8455 69.3909C85.8638 69.8879 85.8285 70.3855 85.7403 70.8749H76.7633C77.006 72.5092 78.1636 73.452 80.0427 73.452C81.2558 73.4844 82.4365 73.0572 83.3478 72.2558L85.4288 74.9102C83.8697 76.3405 82.1516 76.9461 79.7592 76.9461L79.7656 76.9375ZM81.458 68.3235C81.4278 66.9727 80.833 65.8517 79.2717 65.8517C77.9016 65.8517 77.0604 66.6756 76.7483 68.3235H81.458Z" fill="#DA291C"/>
</g>
</g>
<defs>
<clipPath id="clip0_3063_11894">
<rect width="86" height="77.3131" fill="white"/>
</clipPath>
</defs>
</svg>
