<svg width="171" height="51" viewBox="0 0 171 51" fill="none" xmlns="http://www.w3.org/2000/svg">
<path d="M31 0H0V51H31V0Z" fill="#DB0613"/>
<path d="M20.7 29.7L22.5 31.8C25.3732 29.8716 27.4926 27.0105 28.5 23.7C25.4178 22.5591 22.4401 21.1539 19.6 19.5L15.6 26.9L11.6 19.5C8.73878 21.1133 5.76431 22.517 2.7 23.7C3.71702 27.0056 5.83423 29.8638 8.7 31.8L10.5 29.7C8.4 28 8.2 25.3 11.2 23.7L14.2 29.3L7.7 41.9L9.7 43L15.7 31.8L21.7 43L23.7 41.9L17 29.3L20 23.7C23 25.3 22.8 27.9 20.7 29.7Z" fill="white"/>
<path d="M50.4 10C51.1865 10.2749 51.9032 10.7187 52.5 11.3L50.9 13.2C50.0828 12.5206 49.0622 12.1335 48 12.1C47.5791 12.0793 47.1616 12.1837 46.8 12.4C46.67 12.4876 46.5649 12.6072 46.4948 12.7474C46.4247 12.8876 46.3921 13.0435 46.4 13.2C46.3865 13.4183 46.4582 13.6334 46.6 13.8C46.7 14 47 14.1 47.3 14.3C47.8059 14.5668 48.3435 14.7684 48.9 14.9C50.043 15.1657 51.0848 15.756 51.9 16.6C52.5686 17.3773 52.925 18.375 52.9 19.4C52.9299 20.2233 52.6835 21.0329 52.2 21.7C51.76 22.4054 51.0883 22.9357 50.3 23.2C49.3838 23.5846 48.3921 23.7556 47.4 23.7C46.4436 23.7306 45.4908 23.5694 44.5977 23.2259C43.7047 22.8824 42.8894 22.3636 42.2 21.7L44 19.7C44.9394 20.5293 46.147 20.991 47.4 21C47.9008 21.0519 48.4022 20.9086 48.8 20.6C48.9584 20.4641 49.0852 20.2953 49.1716 20.1053C49.258 19.9153 49.3018 19.7087 49.3 19.5C49.2932 19.2218 49.2249 18.9486 49.1 18.7C48.9316 18.4573 48.6842 18.2805 48.4 18.2C47.9519 17.9853 47.4827 17.8177 47 17.7C45.8232 17.3709 44.7315 16.7909 43.8 16C43.1971 15.309 42.8758 14.4167 42.9 13.5C42.8769 12.7374 43.097 11.9873 43.5285 11.3581C43.9599 10.7289 44.5803 10.2532 45.3 10C46.1275 9.67137 47.0096 9.50174 47.9 9.5C48.7559 9.52114 49.6018 9.6903 50.4 10ZM60.7 22.8C60.2829 23.1002 59.805 23.305 59.3 23.4C58.8078 23.5156 58.3053 23.5826 57.8 23.6C55.4 23.6 54.2 22.3 54.2 19.6V15.2H52.9V13H54.2V10.8L57.7 10.4V13H60L59.6 15.4H57.6V19.7C57.5855 20.0445 57.6541 20.3875 57.8 20.7C57.888 20.7977 57.9962 20.8751 58.117 20.9269C58.2379 20.9787 58.3686 21.0037 58.5 21C58.8567 21.0081 59.2067 20.9031 59.5 20.7L60.7 22.8ZM70.1 21C70.2183 21.1845 70.394 21.3251 70.6 21.4L69.9 23.6C69.342 23.5997 68.7925 23.4623 68.3 23.2C67.8742 22.9742 67.5258 22.6258 67.3 22.2C66.9564 22.696 66.4904 23.0948 65.9473 23.3577C65.4041 23.6205 64.8022 23.7384 64.2 23.7C63.2833 23.7242 62.391 23.4029 61.7 22.8C61.4036 22.4964 61.1712 22.1364 61.0166 21.7413C60.862 21.3462 60.7884 20.9241 60.8 20.5C60.7719 19.991 60.877 19.4834 61.105 19.0275C61.333 18.5715 61.6759 18.1829 62.1 17.9C63.1848 17.2511 64.4374 16.9379 65.7 17H66.6V16.6C66.6 16 66.5 15.7 66.2 15.5C65.8119 15.2587 65.3546 15.1532 64.9 15.2C64.4976 15.1912 64.0954 15.2247 63.7 15.3C63.1886 15.3864 62.6865 15.5203 62.2 15.7L61.4 13.5C62.0308 13.1957 62.7059 12.9932 63.4 12.9C64.0615 12.7888 64.7296 12.722 65.4 12.7C66.6026 12.6055 67.8016 12.9228 68.8 13.6C69.182 13.954 69.4793 14.3896 69.6697 14.8744C69.8602 15.3592 69.9389 15.8806 69.9 16.4V20.2C69.9068 20.4782 69.9751 20.7514 70.1 21ZM66 21.1L66.6 20.5V18.8H66C65.5146 18.7696 65.0303 18.8734 64.6 19.1C64.4574 19.2219 64.3465 19.3765 64.2768 19.5507C64.2071 19.7249 64.1808 19.9134 64.2 20.1C64.1899 20.247 64.2115 20.3945 64.2632 20.5326C64.315 20.6706 64.3956 20.7959 64.4999 20.9001C64.6041 21.0044 64.7294 21.085 64.8674 21.1368C65.0055 21.1885 65.153 21.2101 65.3 21.2C65.5 21.3 65.7 21.2 66 21.1ZM81.3 9V23.4H78.2L78.1 22.2C77.7744 22.6403 77.3669 23.0138 76.9 23.3C76.3798 23.5842 75.7924 23.7224 75.2 23.7C74.6259 23.7377 74.0523 23.6179 73.5413 23.3536C73.0302 23.0892 72.601 22.6904 72.3 22.2C71.5475 20.971 71.1978 19.5375 71.3 18.1C71.2932 17.1439 71.4627 16.1947 71.8 15.3C72.1327 14.5508 72.6485 13.8975 73.3 13.4C73.9296 12.9178 74.7076 12.6703 75.5 12.7C75.9241 12.6884 76.3462 12.762 76.7413 12.9166C77.1364 13.0712 77.4964 13.3036 77.8 13.6V8.6L81.3 9ZM77.8 20.2V15.9C77.6258 15.7046 77.4236 15.5361 77.2 15.4C76.9876 15.2747 76.7466 15.2058 76.5 15.2C76.2544 15.192 76.0115 15.2534 75.7992 15.3772C75.5869 15.501 75.4139 15.6822 75.3 15.9C74.9374 16.6106 74.7652 17.403 74.8 18.2C74.7086 19.0216 74.8471 19.8525 75.2 20.6C75.3147 20.7876 75.4767 20.9418 75.6698 21.0471C75.8628 21.1524 76.0802 21.2051 76.3 21.2C76.6192 21.193 76.9297 21.0952 77.1954 20.9181C77.461 20.741 77.6707 20.4919 77.8 20.2ZM90 22.8C89.5829 23.1002 89.105 23.305 88.6 23.4C88.1078 23.5156 87.6053 23.5826 87.1 23.6C84.7 23.6 83.5 22.3 83.5 19.6V15.2H82.2V13H83.5V10.8L87 10.4V13H89.3L88.9 15.4H86.9V19.7C86.8855 20.0445 86.9541 20.3875 87.1 20.7C87.188 20.7977 87.2962 20.8751 87.417 20.9269C87.5379 20.9787 87.6686 21.0037 87.8 21C88.1567 21.0081 88.5067 20.9031 88.8 20.7L90 22.8ZM104.5 17.2C104.796 17.479 105.022 17.8232 105.161 18.2052C105.3 18.5872 105.347 18.9963 105.3 19.4C105.366 20.0166 105.249 20.639 104.965 21.19C104.681 21.741 104.241 22.1965 103.7 22.5C102.333 23.1662 100.819 23.4758 99.3 23.4H94.8V9.9H98.8C100.308 9.83639 101.811 10.1097 103.2 10.7C103.692 10.9481 104.097 11.3381 104.365 11.8195C104.632 12.3009 104.749 12.8515 104.7 13.4C104.723 13.7481 104.673 14.0971 104.552 14.4244C104.431 14.7517 104.243 15.05 104 15.3C103.52 15.7621 102.937 16.1047 102.3 16.3C103.108 16.3688 103.876 16.6828 104.5 17.2ZM98.4 12.4V15.2H99.3C99.8008 15.2519 100.302 15.1086 100.7 14.8C100.852 14.6634 100.967 14.4917 101.037 14.2999C101.107 14.1081 101.129 13.9021 101.1 13.7C101.114 13.5038 101.074 13.3076 100.987 13.1317C100.899 12.9559 100.765 12.8068 100.6 12.7C100.137 12.4632 99.6181 12.3594 99.1 12.4H98.4ZM101.1 20.5C101.5 20.3 101.7 19.9 101.7 19.2C101.711 18.9605 101.673 18.7212 101.587 18.4974C101.501 18.2736 101.369 18.0701 101.2 17.9C100.726 17.5922 100.163 17.4514 99.6 17.5H98.4V20.8H99.4C99.9818 20.8254 100.562 20.723 101.1 20.5ZM109.7 8C109.886 8.16255 110.035 8.36227 110.138 8.58623C110.242 8.81018 110.297 9.05337 110.3 9.3C110.307 9.54827 110.256 9.79477 110.152 10.0203C110.048 10.2458 109.893 10.4442 109.7 10.6C109.518 10.7815 109.298 10.9205 109.056 11.0069C108.814 11.0934 108.556 11.1252 108.3 11.1C107.786 11.1217 107.284 10.9424 106.9 10.6C106.714 10.4375 106.565 10.2377 106.462 10.0138C106.358 9.78981 106.303 9.54663 106.3 9.3C106.293 9.05173 106.344 8.80523 106.448 8.57973C106.552 8.35423 106.707 8.15582 106.9 8C107.295 7.67667 107.79 7.5 108.3 7.5C108.81 7.5 109.305 7.67667 109.7 8ZM110 13V23.3H106.5V13H110ZM121 19.2H114.7C114.701 19.5005 114.763 19.7976 114.883 20.0729C115.004 20.3482 115.18 20.5957 115.4 20.8C115.842 21.0951 116.37 21.2358 116.9 21.2C117.307 21.1822 117.71 21.1151 118.1 21C118.562 20.8248 118.999 20.5895 119.4 20.3L120.8 22.2C120.241 22.6818 119.596 23.0549 118.9 23.3C118.168 23.5861 117.386 23.7221 116.6 23.7C115.864 23.7568 115.125 23.6519 114.434 23.3928C113.743 23.1337 113.117 22.7266 112.6 22.2C111.638 21.095 111.137 19.6634 111.2 18.2C111.186 17.2333 111.391 16.2759 111.8 15.4C112.197 14.6061 112.78 13.92 113.5 13.4C114.314 12.9128 115.252 12.6699 116.2 12.7C116.864 12.6773 117.525 12.7896 118.144 13.0303C118.763 13.271 119.326 13.6349 119.8 14.1C120.729 15.1787 121.196 16.5797 121.1 18C121.096 18.4019 121.062 18.8029 121 19.2ZM117.7 17C117.749 16.437 117.608 15.8739 117.3 15.4C117.194 15.2043 117.034 15.0434 116.839 14.9369C116.644 14.8304 116.422 14.7828 116.2 14.8C115.991 14.7982 115.785 14.842 115.595 14.9284C115.405 15.0148 115.236 15.1416 115.1 15.3C114.805 15.8568 114.635 16.4709 114.6 17.1H117.6V17H117.7ZM123 22.9C122.441 22.2687 122.153 21.4421 122.2 20.6V8.9L125.7 8.5V20.3C125.7 20.7 125.9 20.9 126.2 20.9C126.341 20.915 126.483 20.8795 126.6 20.8L127.2 23.2C126.565 23.4582 125.886 23.594 125.2 23.6C124.804 23.6544 124.401 23.6197 124.021 23.4986C123.64 23.3775 123.292 23.173 123 22.9ZM53.5 29.5L49.9 43H45.3L41.6 29.5H45.4L47.7 40.4L49.8 29.5H53.5ZM57.4 27.7C57.5882 27.8603 57.7393 28.0596 57.8429 28.2841C57.9465 28.5085 58.0002 28.7528 58.0002 29C58.0002 29.2472 57.9465 29.4915 57.8429 29.7159C57.7393 29.9404 57.5882 30.1397 57.4 30.3C57.218 30.4815 56.9981 30.6205 56.7561 30.7069C56.514 30.7934 56.2558 30.8252 56 30.8C55.4861 30.8217 54.9839 30.6424 54.6 30.3C54.4118 30.1397 54.2607 29.9404 54.1571 29.7159C54.0535 29.4915 53.9998 29.2472 53.9998 29C53.9998 28.7528 54.0535 28.5085 54.1571 28.2841C54.2607 28.0596 54.4118 27.8603 54.6 27.7C54.9949 27.3767 55.4896 27.2 56 27.2C56.5104 27.2 57.0051 27.3767 57.4 27.7ZM57.7 32.7V43H54.2V32.7H57.7ZM60.1 42.6C59.5406 41.9687 59.2531 41.1421 59.3 40.3V28.6L62.8 28.2V40C62.8 40.4 63 40.6 63.3 40.6C63.441 40.615 63.5827 40.5795 63.7 40.5L64.3 42.9C63.6645 43.1582 62.9859 43.294 62.3 43.3C61.9046 43.3464 61.5039 43.308 61.1245 43.1873C60.7451 43.0666 60.3959 42.8664 60.1 42.6ZM65.7 42.6C65.1406 41.9687 64.8531 41.1421 64.9 40.3V28.6L68.4 28.2V40C68.4 40.4 68.6 40.6 68.9 40.6C69.041 40.615 69.1827 40.5795 69.3 40.5L69.9 42.9C69.2645 43.1582 68.5859 43.294 67.9 43.3C67.5041 43.3628 67.099 43.3322 66.717 43.2107C66.3351 43.0892 65.9868 42.88 65.7 42.6ZM79.7 38.9H73.4C73.4005 39.2005 73.4629 39.4976 73.5834 39.7729C73.7038 40.0482 73.8797 40.2957 74.1 40.5C74.5422 40.7951 75.0696 40.9358 75.6 40.9C76.0066 40.8822 76.4096 40.8151 76.8 40.7C77.2 40.5 77.6 40.3 78.1 40L79.5 41.9C78.9161 42.3461 78.2776 42.7158 77.6 43C76.8679 43.2861 76.0857 43.4221 75.3 43.4C74.5642 43.4568 73.8249 43.3519 73.1339 43.0928C72.443 42.8337 71.817 42.4266 71.3 41.9C70.3385 40.795 69.8374 39.3634 69.9 37.9C69.8855 36.9333 70.0907 35.9759 70.5 35.1C70.8973 34.3061 71.4805 33.62 72.2 33.1C73.0144 32.6128 73.9515 32.3699 74.9 32.4C75.5636 32.3773 76.2249 32.4896 76.8438 32.7303C77.4626 32.971 78.0261 33.3349 78.5 33.8C79.4288 34.8787 79.8958 36.2797 79.8 37.7C79.7957 38.1019 79.7622 38.5029 79.7 38.9ZM76.4 36.7C76.4486 36.137 76.3078 35.5739 76 35.1C75.8944 34.9043 75.7342 34.7434 75.539 34.6369C75.3437 34.5304 75.1217 34.4828 74.9 34.5C74.6913 34.4982 74.4847 34.542 74.2947 34.6284C74.1047 34.7148 73.9359 34.8416 73.8 35C73.5052 35.5568 73.3346 36.1709 73.3 36.8H76.3V36.7H76.4ZM94.8 28.6V43H91.7L91.6 41.8C91.2744 42.2403 90.8669 42.6138 90.4 42.9C89.8798 43.1842 89.2924 43.3224 88.7 43.3C88.1259 43.3377 87.5523 43.2179 87.0413 42.9536C86.5302 42.6892 86.101 42.2904 85.8 41.8C85.2412 40.748 84.9081 39.5909 84.822 38.4028C84.7359 37.2146 84.8987 36.0216 85.3 34.9C85.6327 34.1508 86.1485 33.4975 86.8 33C87.4296 32.5178 88.2076 32.2703 89 32.3C89.4241 32.2884 89.8462 32.362 90.2413 32.5166C90.6364 32.6712 90.9964 32.9036 91.3 33.2V28.2L94.8 28.6ZM91.3 39.9V35.6C91.1258 35.4046 90.9236 35.2361 90.7 35.1C90.4876 34.9747 90.2466 34.9058 90 34.9C89.7544 34.892 89.5115 34.9534 89.2992 35.0772C89.0869 35.201 88.9139 35.3822 88.8 35.6C88.4374 36.3106 88.2652 37.103 88.3 37.9C88.2086 38.7216 88.3471 39.5525 88.7 40.3C88.8147 40.4876 88.9767 40.6418 89.1698 40.7471C89.3628 40.8524 89.5802 40.9051 89.8 40.9C90.1137 40.8722 90.4155 40.766 90.6775 40.5913C90.9396 40.4166 91.1536 40.1789 91.3 39.9ZM105.8 38.9H99.5C99.5005 39.2005 99.5629 39.4976 99.6834 39.7729C99.8038 40.0482 99.9797 40.2957 100.2 40.5C100.642 40.7951 101.17 40.9358 101.7 40.9C102.107 40.8822 102.51 40.8151 102.9 40.7C103.3 40.5 103.7 40.3 104.2 40L105.6 41.9C105.016 42.3461 104.378 42.7158 103.7 43C102.968 43.2861 102.186 43.4221 101.4 43.4C100.664 43.4568 99.9249 43.3519 99.2339 43.0928C98.543 42.8337 97.917 42.4266 97.4 41.9C96.4385 40.795 95.9374 39.3634 96 37.9C95.9855 36.9333 96.1907 35.9759 96.6 35.1C96.9973 34.3061 97.5805 33.62 98.3 33.1C99.1144 32.6128 100.052 32.3699 101 32.4C101.664 32.3773 102.325 32.4896 102.944 32.7303C103.563 32.971 104.126 33.3349 104.6 33.8C105.529 34.8787 105.996 36.2797 105.9 37.7C105.896 38.1019 105.862 38.5029 105.8 38.9ZM102.5 36.7C102.549 36.137 102.408 35.5739 102.1 35.1C101.994 34.9043 101.834 34.7434 101.639 34.6369C101.444 34.5304 101.222 34.4828 101 34.5C100.791 34.4982 100.585 34.542 100.395 34.6284C100.205 34.7148 100.036 34.8416 99.9 35C99.6052 35.5568 99.4346 36.1709 99.4 36.8H102.4V36.7H102.5ZM121 36.9C121.296 37.179 121.522 37.5232 121.661 37.9052C121.8 38.2872 121.847 38.6963 121.8 39.1C121.866 39.7166 121.749 40.339 121.465 40.89C121.181 41.441 120.741 41.8965 120.2 42.2C118.833 42.8662 117.319 43.1758 115.8 43.1H111.3V29.6H115.3C116.808 29.5364 118.311 29.8097 119.7 30.4C120.192 30.6481 120.597 31.0381 120.865 31.5195C121.132 32.0009 121.249 32.5515 121.2 33.1C121.223 33.4481 121.173 33.7971 121.052 34.1244C120.931 34.4517 120.743 34.75 120.5 35C120.02 35.4621 119.437 35.8047 118.8 36C119.612 36.0493 120.386 36.3657 121 36.9ZM114.9 32V34.8H115.8C116.301 34.8519 116.802 34.7086 117.2 34.4C117.352 34.2634 117.467 34.0917 117.537 33.8999C117.607 33.7081 117.629 33.5021 117.6 33.3C117.614 33.1038 117.574 32.9076 117.487 32.7317C117.399 32.5559 117.265 32.4068 117.1 32.3C116.637 32.0632 116.118 31.9594 115.6 32H114.9ZM117.6 40.1C118 39.9 118.2 39.5 118.2 38.8C118.211 38.5605 118.173 38.3212 118.087 38.0974C118.001 37.8736 117.869 37.6701 117.7 37.5C117.226 37.1922 116.663 37.0514 116.1 37.1H114.9V40.4H115.9C116.484 40.4753 117.077 40.3707 117.6 40.1ZM126.2 27.7C126.386 27.8625 126.535 28.0623 126.638 28.2862C126.742 28.5102 126.797 28.7534 126.8 29C126.807 29.2483 126.756 29.4948 126.652 29.7203C126.548 29.9458 126.393 30.1442 126.2 30.3C126.018 30.4815 125.798 30.6205 125.556 30.7069C125.314 30.7934 125.056 30.8252 124.8 30.8C124.286 30.8217 123.784 30.6424 123.4 30.3C123.214 30.1375 123.065 29.9377 122.962 29.7138C122.858 29.4898 122.803 29.2466 122.8 29C122.793 28.7517 122.844 28.5052 122.948 28.2797C123.052 28.0542 123.207 27.8558 123.4 27.7C123.582 27.5185 123.802 27.3795 124.044 27.2931C124.286 27.2066 124.544 27.1748 124.8 27.2C125.057 27.1425 125.325 27.159 125.572 27.2475C125.82 27.336 126.038 27.4929 126.2 27.7ZM126.5 32.7V43H123V32.7H126.5ZM137.6 38.9H131.3C131.301 39.2005 131.363 39.4976 131.483 39.7729C131.604 40.0482 131.78 40.2957 132 40.5C132.442 40.7951 132.97 40.9358 133.5 40.9C133.907 40.8822 134.31 40.8151 134.7 40.7C135.1 40.5 135.5 40.3 136 40L137.4 41.9C136.816 42.3461 136.178 42.7158 135.5 43C134.768 43.2861 133.986 43.4221 133.2 43.4C132.464 43.4568 131.725 43.3519 131.034 43.0928C130.343 42.8337 129.717 42.4266 129.2 41.9C128.238 40.795 127.737 39.3634 127.8 37.9C127.786 36.9333 127.991 35.9759 128.4 35.1C128.797 34.3061 129.38 33.62 130.1 33.1C130.914 32.6128 131.852 32.3699 132.8 32.4C133.464 32.3773 134.125 32.4896 134.744 32.7303C135.363 32.971 135.926 33.3349 136.4 33.8C137.329 34.8787 137.796 36.2797 137.7 37.7C137.6 37.8 137.6 38.2 137.6 38.9ZM134.2 36.7C134.249 36.137 134.108 35.5739 133.8 35.1C133.694 34.9043 133.534 34.7434 133.339 34.6369C133.144 34.5304 132.922 34.4828 132.7 34.5C132.491 34.4982 132.285 34.542 132.095 34.6284C131.905 34.7148 131.736 34.8416 131.6 35C131.305 35.5568 131.135 36.1709 131.1 36.8H134.1V36.7H134.2ZM147.3 33.2C147.859 33.8313 148.147 34.6579 148.1 35.5V43H144.6V36C144.618 35.6873 144.549 35.3757 144.4 35.1C144.341 34.9959 144.253 34.9118 144.146 34.8583C144.039 34.8049 143.919 34.7846 143.8 34.8C143.465 34.8464 143.149 34.9823 142.885 35.1936C142.621 35.4048 142.419 35.6834 142.3 36V43H138.8V32.7H141.8L142 33.9C142.449 33.4404 142.953 33.0374 143.5 32.7C144.037 32.4619 144.613 32.3262 145.2 32.3C145.596 32.2789 145.991 32.3491 146.355 32.5052C146.719 32.6613 147.042 32.899 147.3 33.2ZM158.2 33.2C158.759 33.8313 159.047 34.6579 159 35.5V43H155.5V36C155.518 35.6873 155.449 35.3757 155.3 35.1C155.241 34.9959 155.153 34.9118 155.046 34.8583C154.939 34.8049 154.819 34.7846 154.7 34.8C154.365 34.8464 154.049 34.9823 153.785 35.1936C153.521 35.4048 153.319 35.6834 153.2 36V43H149.7V32.7H152.7L152.9 33.9C153.349 33.4404 153.853 33.0374 154.4 32.7C154.937 32.4619 155.513 32.3262 156.1 32.3C156.496 32.2789 156.891 32.3491 157.255 32.5052C157.619 32.6613 157.942 32.899 158.2 33.2ZM169.9 38.9H163.6C163.601 39.2005 163.663 39.4976 163.783 39.7729C163.904 40.0482 164.08 40.2957 164.3 40.5C164.742 40.7951 165.27 40.9358 165.8 40.9C166.207 40.8822 166.61 40.8151 167 40.7C167.4 40.5 167.8 40.3 168.3 40L169.7 41.9C169.116 42.3461 168.478 42.7158 167.8 43C167.068 43.2861 166.286 43.4221 165.5 43.4C164.764 43.4568 164.025 43.3519 163.334 43.0928C162.643 42.8337 162.017 42.4266 161.5 41.9C160.538 40.795 160.037 39.3634 160.1 37.9C160.086 36.9333 160.291 35.9759 160.7 35.1C161.097 34.3061 161.68 33.62 162.4 33.1C163.214 32.6128 164.152 32.3699 165.1 32.4C165.764 32.3773 166.425 32.4896 167.044 32.7303C167.663 32.971 168.226 33.3349 168.7 33.8C169.629 34.8787 170.096 36.2797 170 37.7C169.996 38.1019 169.962 38.5029 169.9 38.9ZM166.6 36.7C166.649 36.137 166.508 35.5739 166.2 35.1C166.094 34.9043 165.934 34.7434 165.739 34.6369C165.544 34.5304 165.322 34.4828 165.1 34.5C164.891 34.4982 164.685 34.542 164.495 34.6284C164.305 34.7148 164.136 34.8416 164 35C163.705 35.5568 163.535 36.1709 163.5 36.8H166.5V36.7H166.6Z" fill="#DB0613"/>
</svg>
