<svg width="163" height="40" viewBox="0 0 163 40" fill="none" xmlns="http://www.w3.org/2000/svg">
<path fill-rule="evenodd" clip-rule="evenodd" d="M32.4662 7.13956C32.8162 7.13956 33.1088 7.04881 33.3439 6.86521C33.5738 6.68369 33.6919 6.40203 33.6971 6.02023C33.6919 5.75421 33.5613 5.52993 33.3053 5.34737C33.1903 5.25348 33.0566 5.16481 32.905 5.08136C32.7535 4.9979 32.5999 4.91445 32.4421 4.83099C32.2854 4.74232 32.1339 4.64739 31.9876 4.54933C31.8361 4.4544 31.7002 4.35008 31.58 4.23533C31.324 4.01105 31.1934 3.7273 31.1882 3.38201C31.1934 2.93865 31.3627 2.58919 31.6971 2.33361C32.0221 2.08846 32.4296 1.96328 32.9207 1.95806C33.0618 1.95806 33.229 1.96849 33.4223 1.98936C33.6156 2.02065 33.8068 2.06968 33.9949 2.13749L33.9092 2.63091C33.6417 2.4953 33.3105 2.42749 32.9134 2.42749C32.7723 2.42749 32.6334 2.44105 32.4975 2.46713C32.3617 2.49739 32.2331 2.55268 32.113 2.63091C32.0033 2.69872 31.9123 2.79261 31.8392 2.91258C31.765 3.03776 31.7295 3.18902 31.7295 3.36636C31.7295 3.49676 31.765 3.61777 31.8392 3.7273C31.9123 3.83684 32.0064 3.93281 32.1213 4.01627C32.2415 4.10494 32.3773 4.18839 32.5289 4.26663C32.6752 4.35009 32.8267 4.43667 32.9834 4.52534C33.3126 4.68182 33.5999 4.88002 33.8465 5.11996C33.9667 5.23471 34.0628 5.37032 34.136 5.52784C34.2039 5.68432 34.2384 5.86375 34.2384 6.06717C34.2279 6.61067 34.0367 7.00395 33.6658 7.2491C33.3 7.48903 32.8915 7.609 32.4421 7.609C31.9092 7.59857 31.4965 7.52033 31.2039 7.37428L31.2593 6.81826C31.5665 7.03212 31.9698 7.13956 32.4662 7.13956Z" fill="black"/>
<path fill-rule="evenodd" clip-rule="evenodd" d="M38.4882 4.05486C38.2061 3.92551 37.9208 3.8577 37.6334 3.85249C37.1528 3.8577 36.7839 4.01105 36.5279 4.31462C36.2614 4.62131 36.1277 5.02398 36.1277 5.5195C36.1277 5.98371 36.2583 6.37282 36.5206 6.68578C36.7766 7.01438 37.1287 7.18129 37.578 7.18651C37.8874 7.18651 38.1873 7.12705 38.4809 7.00708L38.5279 7.46817C38.2029 7.56727 37.8612 7.61421 37.5007 7.609C36.857 7.59857 36.3785 7.38784 36.066 6.97578C35.7463 6.57416 35.5874 6.08803 35.5874 5.5195C35.5916 4.88837 35.7755 4.38451 36.136 4.00896C36.4913 3.6282 36.9668 3.43417 37.5634 3.42895C37.809 3.42895 38.0127 3.44773 38.1747 3.48424C38.2583 3.49989 38.3315 3.51554 38.3942 3.53118C38.4516 3.55205 38.4955 3.57083 38.5279 3.58543L38.4882 4.05486Z" fill="black"/>
<path fill-rule="evenodd" clip-rule="evenodd" d="M39.9773 1.64406H40.4715V4.19674H40.4872C40.5969 3.97245 40.7589 3.78676 40.9731 3.64072C41.1873 3.5051 41.4412 3.43417 41.7338 3.42895C42.2667 3.43417 42.6304 3.59169 42.8237 3.89943C43.0118 4.21238 43.1027 4.62131 43.0985 5.1283V7.51511H42.6043V5.1356C42.6043 4.95826 42.5938 4.79135 42.5729 4.63487C42.552 4.48361 42.5081 4.35008 42.4391 4.23533C42.3148 3.98497 42.0525 3.8577 41.6554 3.85249C41.227 3.86292 40.9208 4.0267 40.738 4.34487C40.5551 4.66304 40.4663 5.00834 40.4715 5.37867V7.51511H39.9773V1.64406Z" fill="black"/>
<path fill-rule="evenodd" clip-rule="evenodd" d="M49.0578 7.51511H48.4612L47.3713 4.06321H47.3556L46.2657 7.51511H45.6701L44.3848 3.52284H44.9251L45.9753 6.97578H45.992L47.1048 3.52284H47.7005L48.76 6.97578H48.7747L49.8802 3.52284H50.3745L49.0578 7.51511Z" fill="black"/>
<path fill-rule="evenodd" clip-rule="evenodd" d="M54.0987 5.23784C54.0987 4.87272 54.0234 4.55455 53.8719 4.28228C53.71 4.00583 53.4456 3.86292 53.0798 3.85249C52.7193 3.86292 52.4341 4.00896 52.2251 4.29062C52.0109 4.57228 51.9032 4.88837 51.9032 5.23784H54.0987ZM54.3421 7.38993C53.966 7.5318 53.5793 7.60378 53.1823 7.609C52.5281 7.59857 52.061 7.39827 51.7789 7.00708C51.4957 6.62527 51.3578 6.12976 51.363 5.5195C51.3682 4.8988 51.525 4.39494 51.8332 4.00896C52.131 3.6282 52.5365 3.43417 53.0485 3.42895C53.6076 3.44043 54.0151 3.6355 54.2711 4.01627C54.5177 4.39181 54.64 4.85707 54.64 5.40996V5.66033H51.9032C51.9032 6.09325 52.0161 6.45106 52.2408 6.73272C52.4612 7.03003 52.7873 7.18129 53.2209 7.18651C53.4142 7.18651 53.618 7.15312 53.8333 7.08532C54.0475 7.02794 54.2168 6.96222 54.3421 6.8892V7.38993Z" fill="black"/>
<path fill-rule="evenodd" clip-rule="evenodd" d="M56.1927 7.51511H56.687V3.52284H56.1927V7.51511ZM56.1927 2.45879H56.687V1.80158H56.1927V2.45879Z" fill="black"/>
<path fill-rule="evenodd" clip-rule="evenodd" d="M58.1761 7.10097L60.5836 3.94637H58.2701V3.52284H61.1552V3.94637L58.7487 7.09262H61.1552V7.51511H58.1761V7.10097Z" fill="black"/>
<path fill-rule="evenodd" clip-rule="evenodd" d="M65.0759 5.23784C65.0759 4.87272 65.0006 4.55455 64.8491 4.28228C64.6871 4.00583 64.4228 3.86292 64.057 3.85249C63.6965 3.86292 63.4113 4.00896 63.2023 4.29062C62.988 4.57228 62.8804 4.88837 62.8804 5.23784H65.0759ZM65.3193 7.38993C64.9431 7.5318 64.5565 7.60378 64.1584 7.609C63.5053 7.59857 63.0382 7.39827 62.7561 7.00708C62.4729 6.62527 62.335 6.12976 62.3402 5.5195C62.3454 4.8988 62.5021 4.39494 62.8104 4.00896C63.1082 3.6282 63.5137 3.43417 64.0257 3.42895C64.5847 3.44043 64.9923 3.6355 65.2483 4.01627C65.4949 4.39181 65.6171 4.85707 65.6171 5.40996V5.66033H62.8804C62.8804 6.09325 62.9933 6.45106 63.2179 6.73272C63.4374 7.03003 63.7644 7.18129 64.1981 7.18651C64.3914 7.18651 64.5952 7.15312 64.8094 7.08532C65.0247 7.02794 65.1939 6.96222 65.3193 6.8892V7.38993Z" fill="black"/>
<path fill-rule="evenodd" clip-rule="evenodd" d="M67.1699 4.41581C67.1699 4.04547 67.1584 3.74817 67.1386 3.52284H67.6328V4.29062H67.6475C67.7426 4.05486 67.8753 3.85457 68.0477 3.68766C68.2149 3.52075 68.4239 3.43417 68.6757 3.42895C68.8063 3.43417 68.9202 3.44982 69.0205 3.4759V3.99332C68.9108 3.96202 68.7896 3.94637 68.659 3.94637C68.4657 3.95159 68.3068 3.99853 68.1804 4.0872C68.056 4.18109 67.9536 4.3094 67.8753 4.47005C67.8021 4.62653 67.7499 4.79657 67.7185 4.97913C67.682 5.17212 67.6631 5.35989 67.6631 5.54245V7.51511H67.1699V4.41581Z" fill="black"/>
<path fill-rule="evenodd" clip-rule="evenodd" d="M70.3926 7.51511H70.8868V3.52284H70.3926V7.51511ZM70.3926 2.45879H70.8868V1.80158H70.3926V2.45879Z" fill="black"/>
<path fill-rule="evenodd" clip-rule="evenodd" d="M73.4814 7.18651C73.727 7.18651 73.936 7.12183 74.1084 6.99039C74.2756 6.87147 74.3623 6.69934 74.3675 6.47401C74.3623 6.23929 74.2651 6.05465 74.0781 5.91904C73.8889 5.78864 73.6664 5.67076 73.4104 5.56644C73.2912 5.50906 73.1752 5.44856 73.0655 5.38597C72.9558 5.32338 72.8513 5.25348 72.752 5.17524C72.6632 5.09179 72.5901 4.99477 72.5326 4.88524C72.4751 4.78092 72.4469 4.65887 72.4469 4.51699C72.4511 4.12058 72.588 3.83892 72.8544 3.67201C73.1105 3.51032 73.4083 3.42895 73.7479 3.42895C73.8628 3.42895 74.0123 3.44043 74.1951 3.46129C74.378 3.49154 74.5588 3.54162 74.7354 3.60942L74.6894 4.04026C74.402 3.92029 74.1063 3.8577 73.8033 3.85249C73.5472 3.85249 73.3424 3.89943 73.192 3.99332C73.1125 4.04026 73.053 4.10494 73.0112 4.18839C72.9642 4.27185 72.9401 4.38138 72.9401 4.51699C72.9401 4.60045 72.9694 4.67973 73.0269 4.75171C73.0843 4.81952 73.1606 4.88211 73.2536 4.94053C73.3477 4.99269 73.4553 5.04693 73.5755 5.10431C73.6956 5.15647 73.8137 5.21384 73.9286 5.27643C74.1899 5.38597 74.4166 5.53306 74.611 5.71457C74.8033 5.89817 74.9036 6.15062 74.9088 6.47401C74.9088 6.68369 74.866 6.8579 74.7834 6.99873C74.6936 7.14478 74.5817 7.26266 74.4459 7.35133C74.1533 7.52346 73.8419 7.609 73.5128 7.609C73.1261 7.609 72.752 7.54641 72.3915 7.42227L72.4386 6.93614C72.7416 7.09784 73.0896 7.18129 73.4814 7.18651Z" fill="black"/>
<path fill-rule="evenodd" clip-rule="evenodd" d="M79.0092 4.05486C78.7271 3.92551 78.4418 3.8577 78.1544 3.85249C77.6727 3.8577 77.3049 4.01105 77.0489 4.31462C76.7824 4.62131 76.6487 5.02398 76.6487 5.5195C76.6487 5.98371 76.7793 6.37282 77.0405 6.68578C77.2976 7.01438 77.6497 7.18129 78.099 7.18651C78.4083 7.18651 78.7082 7.12705 79.0019 7.00708L79.0479 7.46817C78.7239 7.56727 78.3822 7.61421 78.0207 7.609C77.378 7.59857 76.8994 7.38784 76.586 6.97578C76.2672 6.57416 76.1074 6.08803 76.1074 5.5195C76.1126 4.88837 76.2965 4.38451 76.657 4.00896C77.0123 3.6282 77.4877 3.43417 78.0844 3.42895C78.3289 3.42895 78.5337 3.44773 78.6947 3.48424C78.7793 3.49989 78.8524 3.51554 78.9151 3.53118C78.9726 3.55205 79.0165 3.57083 79.0479 3.58543L79.0092 4.05486Z" fill="black"/>
<path fill-rule="evenodd" clip-rule="evenodd" d="M80.4993 1.64406H80.9925V4.19674H81.0082C81.1179 3.97245 81.2809 3.78676 81.4951 3.64072C81.7093 3.5051 81.9622 3.43417 82.2548 3.42895C82.7877 3.43417 83.1514 3.59169 83.3457 3.89943C83.5328 4.21238 83.6247 4.62131 83.6195 5.1283V7.51511H83.1252V5.1356C83.1252 4.95826 83.1148 4.79135 83.0949 4.63487C83.073 4.48361 83.0291 4.35008 82.9612 4.23533C82.8358 3.98497 82.5735 3.8577 82.1775 3.85249C81.748 3.86292 81.4418 4.0267 81.26 4.34487C81.0761 4.66304 80.9873 5.00834 80.9925 5.37867V7.51511H80.4993V1.64406Z" fill="black"/>
<path fill-rule="evenodd" clip-rule="evenodd" d="M87.908 5.23784C87.908 4.87272 87.8327 4.55455 87.6812 4.28228C87.5192 4.00583 87.2549 3.86292 86.8891 3.85249C86.5286 3.86292 86.2434 4.00896 86.0354 4.29062C85.8202 4.57228 85.7125 4.88837 85.7125 5.23784H87.908ZM88.1514 7.38993C87.7753 7.5318 87.3886 7.60378 86.9905 7.609C86.3374 7.59857 85.8703 7.39827 85.5882 7.00708C85.305 6.62527 85.1671 6.12976 85.1723 5.5195C85.1775 4.8988 85.3343 4.39494 85.6425 4.00896C85.9403 3.6282 86.3458 3.43417 86.8578 3.42895C87.4168 3.44043 87.8244 3.6355 88.0804 4.01627C88.327 4.39181 88.4492 4.85707 88.4492 5.40996V5.66033H85.7125C85.7125 6.09325 85.8254 6.45106 86.05 6.73272C86.2705 7.03003 86.5966 7.18129 87.0302 7.18651C87.2235 7.18651 87.4273 7.15312 87.6425 7.08532C87.8568 7.02794 88.026 6.96222 88.1514 6.8892V7.38993Z" fill="black"/>
<path fill-rule="evenodd" clip-rule="evenodd" d="M92.6134 2.05195H95.2947V2.52138H93.1536V4.47005H95.185V4.94053H93.1536V7.04568H95.3887V7.51511H92.6134V2.05195Z" fill="black"/>
<path fill-rule="evenodd" clip-rule="evenodd" d="M97.091 7.51511H97.5852V3.52284H97.091V7.51511ZM97.091 2.45879H97.5852V1.80158H97.091V2.45879Z" fill="black"/>
<path fill-rule="evenodd" clip-rule="evenodd" d="M99.8026 6.09116C99.8444 6.28937 99.9071 6.47193 99.9907 6.63883C100.085 6.79531 100.208 6.92362 100.36 7.02273C100.506 7.13226 100.697 7.18651 100.932 7.18651C101.152 7.18651 101.34 7.13226 101.496 7.02273C101.643 6.92362 101.763 6.7901 101.857 6.62319C102.035 6.2685 102.121 5.90026 102.116 5.5195C102.116 5.33172 102.097 5.13873 102.061 4.94053C102.019 4.75171 101.951 4.57541 101.857 4.40746C101.763 4.24055 101.643 4.10494 101.496 4.00062C101.34 3.90152 101.152 3.85249 100.932 3.85249C100.697 3.85249 100.506 3.90152 100.36 4.00062C100.208 4.0945 100.085 4.22595 99.9907 4.39181C99.9071 4.54933 99.8444 4.72667 99.8026 4.92384C99.766 5.12309 99.7472 5.32129 99.7472 5.5195C99.7472 5.70727 99.766 5.89817 99.8026 6.09116ZM102.61 7.51511H102.116V6.88085H102.1C101.838 7.37219 101.423 7.61421 100.854 7.609C100.304 7.59857 99.8946 7.39827 99.6229 7.00708C99.3449 6.61588 99.207 6.11933 99.207 5.5195C99.2018 4.8988 99.3303 4.39807 99.5915 4.01627C99.8528 3.63029 100.273 3.43417 100.854 3.42895C101.052 3.42895 101.225 3.45816 101.371 3.51554C101.523 3.57291 101.648 3.64593 101.747 3.73461C101.951 3.91716 102.069 4.07155 102.1 4.19674H102.116V1.64406H102.61V7.51511Z" fill="black"/>
<path fill-rule="evenodd" clip-rule="evenodd" d="M104.986 6.59189C105.163 6.91528 105.459 7.08219 105.872 7.09262C106.316 7.08219 106.632 6.91006 106.82 6.57624C106.998 6.25286 107.087 5.90026 107.087 5.5195C107.087 5.02398 107.003 4.62444 106.836 4.32192C106.664 4.01418 106.352 3.8577 105.903 3.85249C105.668 3.85249 105.477 3.90152 105.33 4.00062C105.179 4.0945 105.057 4.22595 104.963 4.39181C104.879 4.54933 104.816 4.72667 104.774 4.92384C104.737 5.12309 104.719 5.32129 104.719 5.5195C104.714 5.92634 104.803 6.28415 104.986 6.59189ZM107.581 7.18651C107.581 7.75504 107.442 8.23074 107.165 8.6115C106.878 8.99748 106.392 9.19568 105.708 9.20611C105.445 9.2009 105.205 9.17273 104.986 9.11953C104.771 9.06841 104.609 9.02669 104.5 8.99435L104.538 8.50196C104.867 8.67931 105.26 8.77319 105.715 8.78362C106.034 8.77841 106.284 8.72103 106.467 8.6115C106.655 8.50718 106.794 8.36113 106.883 8.17336C106.977 7.98559 107.038 7.7686 107.063 7.52346C107.085 7.27831 107.095 7.01438 107.095 6.73272H107.08C106.797 7.26475 106.392 7.52554 105.864 7.51511C105.236 7.49946 104.797 7.27518 104.547 6.84226C104.416 6.64405 104.324 6.4302 104.272 6.2007C104.209 5.9712 104.178 5.74378 104.178 5.5195C104.173 4.8988 104.301 4.39807 104.562 4.01627C104.824 3.63029 105.245 3.43417 105.825 3.42895C106.086 3.42895 106.316 3.45816 106.515 3.51554C106.708 3.58856 106.894 3.74295 107.071 3.97767H107.087V3.52284H107.581V7.18651Z" fill="black"/>
<path fill-rule="evenodd" clip-rule="evenodd" d="M111.823 5.23784C111.823 4.87272 111.747 4.55455 111.596 4.28228C111.434 4.00583 111.17 3.86292 110.804 3.85249C110.443 3.86292 110.158 4.00896 109.949 4.29062C109.735 4.57228 109.627 4.88837 109.627 5.23784H111.823ZM112.066 7.38993C111.69 7.5318 111.303 7.60378 110.905 7.609C110.252 7.59857 109.785 7.39827 109.502 7.00708C109.22 6.62527 109.082 6.12976 109.087 5.5195C109.091 4.8988 109.249 4.39494 109.557 4.00896C109.855 3.6282 110.26 3.43417 110.772 3.42895C111.332 3.44043 111.739 3.6355 111.995 4.01627C112.242 4.39181 112.364 4.85707 112.364 5.40996V5.66033H109.627C109.627 6.09325 109.74 6.45106 109.965 6.73272C110.184 7.03003 110.511 7.18129 110.945 7.18651C111.138 7.18651 111.342 7.15312 111.556 7.08532C111.77 7.02794 111.941 6.96222 112.066 6.8892V7.38993Z" fill="black"/>
<path fill-rule="evenodd" clip-rule="evenodd" d="M113.917 4.46275C113.917 4.15501 113.905 3.84205 113.885 3.52284H114.363V4.23533H114.379C114.426 4.14145 114.481 4.04756 114.544 3.95367C114.606 3.85979 114.685 3.7732 114.779 3.69601C114.878 3.61255 115.001 3.54683 115.148 3.49989C115.293 3.45295 115.468 3.42895 115.672 3.42895C116.163 3.43417 116.517 3.58021 116.731 3.86813C116.936 4.14979 117.037 4.51491 117.037 4.96348V7.51511H116.543V5.08866C116.543 4.7079 116.473 4.40537 116.332 4.18109C116.18 3.96724 115.935 3.8577 115.595 3.85249C115.155 3.86292 114.847 4.0194 114.669 4.32192C114.575 4.46275 114.509 4.61714 114.473 4.78405C114.431 4.95618 114.41 5.13039 114.41 5.30773V7.51511H113.917V4.46275Z" fill="black"/>
<path fill-rule="evenodd" clip-rule="evenodd" d="M119.467 6.69308C119.688 7.01751 120.014 7.18129 120.448 7.18651C120.881 7.18129 121.214 7.01751 121.443 6.69308C121.663 6.38534 121.773 5.99415 121.773 5.5195C121.773 5.04485 121.663 4.64739 121.443 4.32922C121.214 4.01627 120.881 3.8577 120.448 3.85249C120.014 3.8577 119.688 4.01627 119.467 4.32922C119.238 4.64739 119.123 5.04485 119.123 5.5195C119.123 5.99415 119.238 6.38534 119.467 6.69308ZM119.037 4.06321C119.34 3.65115 119.81 3.44043 120.448 3.42895C121.096 3.44043 121.572 3.65115 121.875 4.06321C122.168 4.46588 122.314 4.95096 122.314 5.5195C122.314 6.0776 122.168 6.5606 121.875 6.96744C121.572 7.38471 121.096 7.59857 120.448 7.609C119.81 7.59857 119.34 7.38471 119.037 6.96744C118.733 6.5606 118.581 6.0776 118.581 5.5195C118.581 4.95096 118.733 4.46588 119.037 4.06321Z" fill="black"/>
<path fill-rule="evenodd" clip-rule="evenodd" d="M124.596 7.18651C124.842 7.18651 125.051 7.12183 125.223 6.99039C125.39 6.87147 125.477 6.69934 125.481 6.47401C125.477 6.23929 125.38 6.05465 125.192 5.91904C125.004 5.78864 124.781 5.67076 124.525 5.56644C124.405 5.50906 124.29 5.44856 124.18 5.38597C124.07 5.32338 123.966 5.25348 123.867 5.17524C123.778 5.09179 123.705 4.99477 123.647 4.88524C123.589 4.78092 123.561 4.65887 123.561 4.51699C123.566 4.12058 123.702 3.83892 123.968 3.67201C124.224 3.51032 124.523 3.42895 124.863 3.42895C124.977 3.42895 125.126 3.44043 125.309 3.46129C125.493 3.49154 125.672 3.54162 125.85 3.60942L125.803 4.04026C125.516 3.92029 125.22 3.8577 124.917 3.85249C124.661 3.85249 124.457 3.89943 124.306 3.99332C124.227 4.04026 124.167 4.10494 124.126 4.18839C124.078 4.27185 124.055 4.38138 124.055 4.51699C124.055 4.60045 124.083 4.67973 124.14 4.75171C124.198 4.81952 124.274 4.88211 124.368 4.94053C124.462 4.99269 124.569 5.04693 124.69 5.10431C124.81 5.15647 124.927 5.21384 125.043 5.27643C125.305 5.38597 125.531 5.53306 125.725 5.71457C125.918 5.89817 126.017 6.15062 126.023 6.47401C126.023 6.68369 125.981 6.8579 125.897 6.99873C125.808 7.14478 125.696 7.26266 125.561 7.35133C125.267 7.52346 124.957 7.609 124.627 7.609C124.24 7.609 123.867 7.54641 123.506 7.42227L123.553 6.93614C123.856 7.09784 124.203 7.18129 124.596 7.18651Z" fill="black"/>
<path fill-rule="evenodd" clip-rule="evenodd" d="M128.258 7.18651C128.503 7.18651 128.712 7.12183 128.885 6.99039C129.052 6.87147 129.137 6.69934 129.143 6.47401C129.137 6.23929 129.041 6.05465 128.853 5.91904C128.665 5.78864 128.443 5.67076 128.187 5.56644C128.066 5.50906 127.951 5.44856 127.842 5.38597C127.732 5.32338 127.627 5.25348 127.527 5.17524C127.439 5.09179 127.366 4.99477 127.309 4.88524C127.25 4.78092 127.222 4.65887 127.222 4.51699C127.227 4.12058 127.363 3.83892 127.63 3.67201C127.886 3.51032 128.183 3.42895 128.524 3.42895C128.638 3.42895 128.787 3.44043 128.97 3.46129C129.154 3.49154 129.334 3.54162 129.512 3.60942L129.464 4.04026C129.177 3.92029 128.881 3.8577 128.578 3.85249C128.322 3.85249 128.119 3.89943 127.967 3.99332C127.889 4.04026 127.828 4.10494 127.787 4.18839C127.739 4.27185 127.716 4.38138 127.716 4.51699C127.716 4.60045 127.745 4.67973 127.802 4.75171C127.859 4.81952 127.936 4.88211 128.03 4.94053C128.124 4.99269 128.23 5.04693 128.352 5.10431C128.472 5.15647 128.589 5.21384 128.704 5.27643C128.965 5.38597 129.193 5.53306 129.386 5.71457C129.579 5.89817 129.679 6.15062 129.684 6.47401C129.684 6.68369 129.642 6.8579 129.559 6.99873C129.47 7.14478 129.357 7.26266 129.222 7.35133C128.928 7.52346 128.618 7.609 128.289 7.609C127.901 7.609 127.527 7.54641 127.168 7.42227L127.215 6.93614C127.518 7.09784 127.865 7.18129 128.258 7.18651Z" fill="black"/>
<path fill-rule="evenodd" clip-rule="evenodd" d="M133.62 5.23784C133.62 4.87272 133.545 4.55455 133.394 4.28228C133.23 4.00583 132.967 3.86292 132.601 3.85249C132.241 3.86292 131.956 4.00896 131.747 4.29062C131.532 4.57228 131.425 4.88837 131.425 5.23784H133.62ZM133.864 7.38993C133.488 7.5318 133.1 7.60378 132.703 7.609C132.05 7.59857 131.582 7.39827 131.299 7.00708C131.017 6.62527 130.879 6.12976 130.884 5.5195C130.889 4.8988 131.047 4.39494 131.355 4.00896C131.653 3.6282 132.057 3.43417 132.57 3.42895C133.129 3.44043 133.537 3.6355 133.793 4.01627C134.038 4.39181 134.162 4.85707 134.162 5.40996V5.66033H131.425C131.425 6.09325 131.538 6.45106 131.762 6.73272C131.982 7.03003 132.309 7.18129 132.742 7.18651C132.936 7.18651 133.14 7.15312 133.354 7.08532C133.568 7.02794 133.738 6.96222 133.864 6.8892V7.38993Z" fill="black"/>
<path fill-rule="evenodd" clip-rule="evenodd" d="M135.714 4.46275C135.714 4.15501 135.704 3.84205 135.683 3.52284H136.162V4.23533H136.177C136.224 4.14145 136.279 4.04756 136.341 3.95367C136.404 3.85979 136.482 3.7732 136.576 3.69601C136.676 3.61255 136.799 3.54683 136.945 3.49989C137.092 3.45295 137.267 3.42895 137.471 3.42895C137.962 3.43417 138.315 3.58021 138.529 3.86813C138.733 4.14979 138.835 4.51491 138.835 4.96348V7.51511H138.341V5.08866C138.341 4.7079 138.27 4.40537 138.129 4.18109C137.978 3.96724 137.732 3.8577 137.393 3.85249C136.954 3.86292 136.645 4.0194 136.467 4.32192C136.373 4.46275 136.308 4.61714 136.271 4.78405C136.229 4.95618 136.209 5.13039 136.209 5.30773V7.51511H135.714V4.46275Z" fill="black"/>
<path fill-rule="evenodd" clip-rule="evenodd" d="M141.422 7.18651C141.667 7.18651 141.876 7.12183 142.049 6.99039C142.217 6.87147 142.303 6.69934 142.308 6.47401C142.303 6.23929 142.206 6.05465 142.018 5.91904C141.829 5.78864 141.608 5.67076 141.351 5.56644C141.232 5.50906 141.116 5.44856 141.006 5.38597C140.896 5.32338 140.792 5.25348 140.692 5.17524C140.604 5.09179 140.53 4.99477 140.473 4.88524C140.416 4.78092 140.387 4.65887 140.387 4.51699C140.393 4.12058 140.528 3.83892 140.795 3.67201C141.051 3.51032 141.349 3.42895 141.688 3.42895C141.803 3.42895 141.953 3.44043 142.136 3.46129C142.318 3.49154 142.499 3.54162 142.677 3.60942L142.63 4.04026C142.342 3.92029 142.047 3.8577 141.744 3.85249C141.488 3.85249 141.284 3.89943 141.132 3.99332C141.053 4.04026 140.993 4.10494 140.952 4.18839C140.905 4.27185 140.881 4.38138 140.881 4.51699C140.881 4.60045 140.91 4.67973 140.967 4.75171C141.025 4.81952 141.101 4.88211 141.195 4.94053C141.288 4.99269 141.396 5.04693 141.516 5.10431C141.636 5.15647 141.754 5.21384 141.869 5.27643C142.13 5.38597 142.357 5.53306 142.551 5.71457C142.744 5.89817 142.844 6.15062 142.849 6.47401C142.849 6.68369 142.807 6.8579 142.724 6.99873C142.635 7.14478 142.522 7.26266 142.386 7.35133C142.094 7.52346 141.783 7.609 141.453 7.609C141.067 7.609 140.692 7.54641 140.332 7.42227L140.379 6.93614C140.682 7.09784 141.03 7.18129 141.422 7.18651Z" fill="black"/>
<path fill-rule="evenodd" clip-rule="evenodd" d="M146.95 4.05486C146.667 3.92551 146.382 3.8577 146.096 3.85249C145.614 3.8577 145.246 4.01105 144.989 4.31462C144.724 4.62131 144.59 5.02398 144.59 5.5195C144.59 5.98371 144.721 6.37282 144.982 6.68578C145.238 7.01438 145.591 7.18129 146.04 7.18651C146.349 7.18651 146.65 7.12705 146.942 7.00708L146.989 7.46817C146.665 7.56727 146.323 7.61421 145.962 7.609C145.319 7.59857 144.841 7.38784 144.527 6.97578C144.208 6.57416 144.049 6.08803 144.049 5.5195C144.054 4.88837 144.237 4.38451 144.597 4.00896C144.953 3.6282 145.429 3.43417 146.025 3.42895C146.27 3.42895 146.474 3.44773 146.636 3.48424C146.72 3.49989 146.793 3.51554 146.857 3.53118C146.913 3.55205 146.958 3.57083 146.989 3.58543L146.95 4.05486Z" fill="black"/>
<path fill-rule="evenodd" clip-rule="evenodd" d="M148.44 1.64406H148.934V4.19674H148.95C149.059 3.97245 149.221 3.78676 149.436 3.64072C149.65 3.5051 149.904 3.43417 150.196 3.42895C150.73 3.43417 151.093 3.59169 151.286 3.89943C151.474 4.21238 151.565 4.62131 151.561 5.1283V7.51511H151.067V5.1356C151.067 4.95826 151.056 4.79135 151.035 4.63487C151.014 4.48361 150.97 4.35008 150.903 4.23533C150.777 3.98497 150.515 3.8577 150.118 3.85249C149.689 3.86292 149.383 4.0267 149.2 4.34487C149.018 4.66304 148.929 5.00834 148.934 5.37867V7.51511H148.44V1.64406Z" fill="black"/>
<path fill-rule="evenodd" clip-rule="evenodd" d="M155.66 5.50385H155.52C155.305 5.50385 155.091 5.50906 154.877 5.5195C154.652 5.54036 154.448 5.58417 154.265 5.65198C154.082 5.71457 153.936 5.81159 153.825 5.94199C153.705 6.07238 153.647 6.24764 153.647 6.46671C153.647 6.72229 153.729 6.90485 153.896 7.01438C154.053 7.12913 154.248 7.18651 154.477 7.18651C154.765 7.18651 154.993 7.12913 155.16 7.01438C155.321 6.90485 155.438 6.77445 155.512 6.62319C155.59 6.46149 155.635 6.30189 155.646 6.14541C155.655 5.98371 155.66 5.85123 155.66 5.74691V5.50385ZM155.707 6.87355H155.693C155.577 7.10827 155.402 7.28874 155.167 7.41392C154.932 7.5391 154.683 7.60378 154.422 7.609C154.145 7.60378 153.919 7.55997 153.747 7.47651C153.569 7.39827 153.434 7.29917 153.341 7.1792C153.172 6.91841 153.094 6.68578 153.104 6.48236C153.104 6.14854 153.186 5.88461 153.348 5.69162C153.505 5.49863 153.705 5.35989 153.952 5.27643C154.197 5.18776 154.464 5.13039 154.751 5.10431C155.034 5.08866 155.305 5.08136 155.566 5.08136H155.66V4.87794C155.677 4.19361 155.374 3.85249 154.751 3.85249C154.338 3.84727 153.947 3.9568 153.575 4.18109V3.70331C153.947 3.53118 154.338 3.44043 154.751 3.42895C155.697 3.41956 156.166 3.91508 156.155 4.91653V6.67848C156.149 6.981 156.163 7.25953 156.194 7.51511H155.707V6.87355Z" fill="black"/>
<path fill-rule="evenodd" clip-rule="evenodd" d="M158.28 3.94637H157.473V3.52284H158.28V3.23388C158.28 3.02002 158.291 2.81139 158.311 2.60692C158.322 2.40872 158.361 2.23137 158.429 2.0749C158.497 1.9132 158.605 1.78593 158.75 1.691C158.892 1.59816 159.089 1.55122 159.34 1.55122C159.423 1.55122 159.509 1.5533 159.598 1.55852C159.686 1.57417 159.754 1.59816 159.801 1.62946L159.77 2.05195C159.66 1.99979 159.53 1.97371 159.378 1.97371C159.216 1.97371 159.093 2.01022 159.009 2.08324C158.921 2.1667 158.861 2.26893 158.83 2.38785C158.798 2.50886 158.783 2.63613 158.783 2.77174C158.777 2.91258 158.775 3.04819 158.775 3.17859V3.52284H159.676V3.94637H158.775V7.51511H158.28V3.94637Z" fill="black"/>
<path fill-rule="evenodd" clip-rule="evenodd" d="M162.889 3.94637H161.98V6.5293C161.98 6.71186 162.022 6.86521 162.106 6.99039C162.184 7.12183 162.32 7.18651 162.514 7.18651C162.692 7.18651 162.842 7.15521 162.968 7.09262L163 7.49946C162.943 7.52033 162.861 7.54432 162.757 7.5704C162.647 7.59648 162.527 7.609 162.396 7.609C162.182 7.609 162.011 7.57353 161.886 7.49946C161.766 7.42644 161.674 7.33047 161.612 7.2105C161.56 7.08532 161.526 6.94449 161.51 6.78801C161.494 6.63049 161.487 6.46149 161.487 6.27894V3.94637H160.703V3.52284H161.487V2.55998L161.98 2.38785V3.52284H162.889V3.94637Z" fill="black"/>
<path fill-rule="evenodd" clip-rule="evenodd" d="M34.5122 13.2641C34.2875 13.238 34.0764 13.2245 33.8768 13.2245C33.1663 13.2349 32.6198 13.4571 32.2384 13.89C31.8517 14.3229 31.6584 14.8863 31.6584 15.581C31.6584 16.28 31.8486 16.8433 32.2311 17.271C32.6072 17.7102 33.1558 17.9313 33.8768 17.9365C34.066 17.9365 34.2771 17.9188 34.5122 17.8823C34.7421 17.851 34.9385 17.7905 35.1005 17.7018L35.1318 18.1713C34.9699 18.2547 34.7682 18.3152 34.5278 18.3517C34.2823 18.3882 34.066 18.406 33.8768 18.406C33.0095 18.3966 32.3355 18.1358 31.8549 17.6236C31.3627 17.1176 31.1171 16.4364 31.1171 15.581C31.1224 14.735 31.3711 14.0538 31.8622 13.5374C32.3481 13.0263 33.02 12.7655 33.8768 12.755C34.0555 12.755 34.2718 12.7676 34.5278 12.7936C34.7797 12.8249 34.9803 12.8802 35.1318 12.9585L35.1005 13.4592C34.9228 13.3653 34.7264 13.3006 34.5122 13.2641Z" fill="black"/>
<path fill-rule="evenodd" clip-rule="evenodd" d="M37.5154 17.4901C37.7348 17.8145 38.0619 17.9783 38.4955 17.9835C38.9292 17.9783 39.2615 17.8145 39.4914 17.4901C39.7108 17.1823 39.8205 16.7911 39.8205 16.3165C39.8205 15.8418 39.7108 15.4444 39.4914 15.1262C39.2615 14.8132 38.9292 14.6547 38.4955 14.6495C38.0619 14.6547 37.7348 14.8132 37.5154 15.1262C37.2855 15.4444 37.1705 15.8418 37.1705 16.3165C37.1705 16.7911 37.2855 17.1823 37.5154 17.4901ZM37.0838 14.8602C37.3868 14.4481 37.8571 14.2374 38.4955 14.2259C39.1434 14.2374 39.6188 14.4481 39.9229 14.8602C40.2155 15.2629 40.3618 15.7479 40.3618 16.3165C40.3618 16.8756 40.2155 17.3576 39.9229 17.7644C39.6188 18.1817 39.1434 18.3966 38.4955 18.406C37.8571 18.3966 37.3868 18.1817 37.0838 17.7644C36.7808 17.3576 36.6292 16.8756 36.6292 16.3165C36.6292 15.7479 36.7808 15.2629 37.0838 14.8602Z" fill="black"/>
<path fill-rule="evenodd" clip-rule="evenodd" d="M41.9062 15.2597C41.9062 14.952 41.8958 14.639 41.8749 14.3198H42.3535V15.0323H42.3691C42.4162 14.9395 42.4705 14.8445 42.5332 14.7506C42.5959 14.6568 42.6743 14.5712 42.7683 14.493C42.8676 14.4095 42.9909 14.3438 43.1372 14.2969C43.2835 14.2499 43.459 14.2259 43.6628 14.2259C44.1539 14.2311 44.5071 14.3772 44.7213 14.6651C44.9251 14.9468 45.0264 15.3119 45.0264 15.7605V18.3121H44.5332V15.8856C44.5332 15.5049 44.4622 15.2023 44.3211 14.9781C44.1696 14.7642 43.924 14.6547 43.5844 14.6495C43.1455 14.6599 42.8373 14.8164 42.6586 15.1189C42.5645 15.2597 42.4998 15.4141 42.4632 15.581C42.4214 15.7531 42.4005 15.9274 42.4005 16.1047V18.3121H41.9062V15.2597Z" fill="black"/>
<path fill-rule="evenodd" clip-rule="evenodd" d="M47.2146 14.7433H46.4068V14.3198H47.2146V14.0308C47.2146 13.817 47.225 13.6084 47.2459 13.4039C47.2564 13.2057 47.2961 13.0283 47.364 12.8719C47.4319 12.7102 47.5385 12.5829 47.6848 12.488C47.8259 12.3951 48.0223 12.3482 48.2731 12.3482C48.3567 12.3482 48.4424 12.3503 48.5322 12.3555C48.6211 12.3711 48.689 12.3951 48.736 12.4264L48.7047 12.8489C48.5949 12.7968 48.4633 12.7707 48.3118 12.7707C48.1508 12.7707 48.0275 12.8072 47.9439 12.8802C47.8551 12.9637 47.7945 13.0659 47.7632 13.1848C47.7318 13.3058 47.7161 13.4331 47.7161 13.5687C47.7109 13.7095 47.7088 13.8452 47.7088 13.9756V14.3198H48.6096V14.7433H47.7088V18.3121H47.2146V14.7433Z" fill="black"/>
<path fill-rule="evenodd" clip-rule="evenodd" d="M51.7392 12.755H52.3578L51.3703 13.8817H51.0098L51.7392 12.755ZM52.5386 16.0348C52.5386 15.6697 52.4623 15.3515 52.3118 15.0793C52.1488 14.8028 51.8855 14.6599 51.5197 14.6495C51.1582 14.6599 50.874 14.8059 50.665 15.0876C50.4497 15.3693 50.3431 15.6853 50.3431 16.0348H52.5386ZM52.782 18.1869C52.4048 18.3288 52.0182 18.4008 51.6211 18.406C50.968 18.3966 50.4999 18.1952 50.2177 17.8041C49.9356 17.4222 49.7966 16.9267 49.8019 16.3165C49.8071 15.6958 49.9638 15.1919 50.2721 14.8059C50.5699 14.4252 50.9753 14.2311 51.4874 14.2259C52.0474 14.2374 52.455 14.4325 52.711 14.8132C52.9566 15.1888 53.0798 15.654 53.0798 16.2069V16.4573H50.3431C50.3431 16.8902 50.456 17.248 50.6796 17.5297C50.9001 17.827 51.2261 17.9783 51.6598 17.9835C51.8531 17.9835 52.0579 17.9501 52.2721 17.8823C52.4863 17.8249 52.6566 17.7592 52.782 17.6862V18.1869Z" fill="black"/>
<path fill-rule="evenodd" clip-rule="evenodd" d="M54.9921 16.8881C55.0339 17.0863 55.0966 17.2689 55.1812 17.4358C55.2742 17.5923 55.3975 17.7206 55.5491 17.8197C55.6954 17.9292 55.8866 17.9835 56.1217 17.9835C56.3411 17.9835 56.5292 17.9292 56.686 17.8197C56.8323 17.7206 56.9524 17.5871 57.0465 17.4202C57.2241 17.0655 57.3108 16.6972 57.3056 16.3165C57.3056 16.1287 57.2868 15.9357 57.2513 15.7375C57.2084 15.5497 57.1416 15.3724 57.0465 15.2044C56.9524 15.0375 56.8323 14.9019 56.686 14.7976C56.5292 14.6985 56.3411 14.6495 56.1217 14.6495C55.8866 14.6495 55.6954 14.6985 55.5491 14.7976C55.3975 14.8915 55.2742 15.0229 55.1812 15.1888C55.0966 15.3463 55.0339 15.5236 54.9921 15.7219C54.9555 15.9201 54.9378 16.1183 54.9378 16.3165C54.9378 16.5042 54.9555 16.6951 54.9921 16.8881ZM57.7999 18.3121H57.3056V17.6789H57.2899C57.0287 18.1692 56.6128 18.4112 56.0433 18.406C55.4937 18.3966 55.0841 18.1952 54.8124 17.8041C54.5344 17.4129 54.3965 16.9173 54.3965 16.3165C54.3913 15.6958 54.5198 15.195 54.781 14.8132C55.0423 14.4273 55.4634 14.2311 56.0433 14.2259C56.2419 14.2259 56.4143 14.2551 56.5606 14.3125C56.7121 14.3699 56.8375 14.4429 56.9368 14.5316C57.1416 14.7141 57.2586 14.8685 57.2899 14.9937H57.3056V12.4421H57.7999V18.3121Z" fill="black"/>
<path fill-rule="evenodd" clip-rule="evenodd" d="M61.2419 12.755H61.8616L60.8731 13.8817H60.5126L61.2419 12.755ZM62.0413 16.0348C62.0413 15.6697 61.9661 15.3515 61.8146 15.0793C61.6516 14.8028 61.3882 14.6599 61.0225 14.6495C60.662 14.6599 60.3767 14.8059 60.1677 15.0876C59.9525 15.3693 59.8459 15.6853 59.8459 16.0348H62.0413ZM62.2848 18.1869C61.9086 18.3288 61.5209 18.4008 61.1239 18.406C60.4708 18.3966 60.0026 18.1952 59.7205 17.8041C59.4384 17.4222 59.2994 16.9267 59.3046 16.3165C59.3098 15.6958 59.4676 15.1919 59.7759 14.8059C60.0737 14.4252 60.4781 14.2311 60.9912 14.2259C61.5502 14.2374 61.9577 14.4325 62.2137 14.8132C62.4593 15.1888 62.5826 15.654 62.5826 16.2069V16.4573H59.8459C59.8459 16.8902 59.9587 17.248 60.1834 17.5297C60.4028 17.827 60.7299 17.9783 61.1636 17.9835C61.3569 17.9835 61.5606 17.9501 61.7749 17.8823C61.9891 17.8249 62.1594 17.7592 62.2848 17.6862V18.1869Z" fill="black"/>
<path fill-rule="evenodd" clip-rule="evenodd" d="M64.1354 15.2128C64.1354 14.8424 64.125 14.5451 64.1041 14.3198H64.5983V15.0876H64.6129C64.708 14.8529 64.8407 14.6515 65.0132 14.4846C65.1804 14.3177 65.3904 14.2311 65.6412 14.2259C65.7718 14.2311 65.8867 14.2468 65.986 14.2729V14.7903C65.8763 14.759 65.7561 14.7433 65.6255 14.7433C65.4322 14.7486 65.2723 14.7955 65.1469 14.8842C65.0215 14.9781 64.9191 15.1064 64.8407 15.267C64.7676 15.4235 64.7153 15.5935 64.684 15.7761C64.6474 15.9691 64.6297 16.1579 64.6297 16.3394V18.3121H64.1354V15.2128Z" fill="black"/>
<path fill-rule="evenodd" clip-rule="evenodd" d="M69.6078 16.3008H69.4667C69.2525 16.3008 69.0383 16.306 68.8241 16.3165C68.5984 16.3373 68.3957 16.3811 68.2117 16.449C68.0289 16.5115 67.8826 16.6086 67.7729 16.739C67.6527 16.8694 67.5931 17.0446 67.5931 17.2637C67.5931 17.5193 67.6767 17.7018 67.8439 17.8114C68.0007 17.9261 68.194 17.9835 68.4239 17.9835C68.7112 17.9835 68.939 17.9261 69.1062 17.8114C69.2682 17.7018 69.3852 17.5714 69.4594 17.4202C69.5367 17.2585 69.5817 17.0989 69.5921 16.9424C69.6026 16.7807 69.6078 16.6482 69.6078 16.5439V16.3008ZM69.6548 17.6705H69.6391C69.5242 17.9052 69.3486 18.0857 69.1135 18.2109C68.8784 18.3361 68.6308 18.4008 68.3685 18.406C68.0916 18.4008 67.8669 18.3569 67.6945 18.2735C67.5169 18.1952 67.381 18.0961 67.287 17.9762C67.1198 17.7154 67.0414 17.4827 67.0518 17.2793C67.0518 16.9455 67.1323 16.6816 67.2943 16.4886C67.451 16.2956 67.6527 16.1579 67.8983 16.0734C68.1438 15.9847 68.4103 15.9274 68.6987 15.9013C68.9808 15.8856 69.2525 15.8783 69.5137 15.8783H69.6078V15.6749C69.6235 14.9906 69.3204 14.6495 68.6987 14.6495C68.2849 14.6442 67.893 14.7538 67.5221 14.9781V14.5003C67.893 14.3282 68.2849 14.2374 68.6987 14.2259C69.6444 14.2165 70.1125 14.712 70.1021 15.7135V17.4755C70.0958 17.778 70.1094 18.0565 70.1407 18.3121H69.6548V17.6705Z" fill="black"/>
<path fill-rule="evenodd" clip-rule="evenodd" d="M73.6152 14.7433H72.705V17.3263C72.705 17.5088 72.7468 17.6622 72.8304 17.7884C72.9088 17.9188 73.0446 17.9835 73.2379 17.9835C73.4156 17.9835 73.5681 17.9522 73.6935 17.8896L73.7249 18.2964C73.6664 18.3173 73.5859 18.3413 73.4814 18.3674C73.3717 18.3935 73.2515 18.406 73.1209 18.406C72.9067 18.406 72.7364 18.3705 72.611 18.2964C72.4908 18.2234 72.3999 18.1274 72.3372 18.0075C72.2839 17.8823 72.2505 17.7415 72.2348 17.585C72.2191 17.4275 72.2108 17.2585 72.2108 17.0759V14.7433H71.427V14.3198H72.2108V13.357L72.705 13.1848V14.3198H73.6152V14.7433Z" fill="black"/>
<path fill-rule="evenodd" clip-rule="evenodd" d="M75.1126 18.3121H75.6068V14.3198H75.1126V18.3121ZM75.1126 13.2558H75.6068V12.5986H75.1126V13.2558Z" fill="black"/>
<path fill-rule="evenodd" clip-rule="evenodd" d="M78.0437 17.4901C78.2641 17.8145 78.5902 17.9783 79.0249 17.9835C79.4575 17.9783 79.7898 17.8145 80.0207 17.4901C80.2401 17.1823 80.3499 16.7911 80.3499 16.3165C80.3499 15.8418 80.2401 15.4444 80.0207 15.1262C79.7898 14.8132 79.4575 14.6547 79.0249 14.6495C78.5902 14.6547 78.2641 14.8132 78.0437 15.1262C77.8138 15.4444 77.6988 15.8418 77.6988 16.3165C77.6988 16.7911 77.8138 17.1823 78.0437 17.4901ZM77.6131 14.8602C77.9162 14.4481 78.3864 14.2374 79.0249 14.2259C79.6727 14.2374 80.1482 14.4481 80.4512 14.8602C80.7438 15.2629 80.8911 15.7479 80.8911 16.3165C80.8911 16.8756 80.7438 17.3576 80.4512 17.7644C80.1482 18.1817 79.6727 18.3966 79.0249 18.406C78.3864 18.3966 77.9162 18.1817 77.6131 17.7644C77.3101 17.3576 77.1586 16.8756 77.1586 16.3165C77.1586 15.7479 77.3101 15.2629 77.6131 14.8602Z" fill="black"/>
<path fill-rule="evenodd" clip-rule="evenodd" d="M82.4356 15.2597C82.4356 14.952 82.4241 14.639 82.4042 14.3198H82.8818V15.0323H82.8974C82.9445 14.9395 82.9998 14.8445 83.0625 14.7506C83.1252 14.6568 83.2036 14.5712 83.2977 14.493C83.3969 14.4095 83.5202 14.3438 83.6665 14.2969C83.8118 14.2499 83.9884 14.2259 84.1911 14.2259C84.6822 14.2311 85.0354 14.3772 85.2496 14.6651C85.4544 14.9468 85.5558 15.3119 85.5558 15.7605V18.3121H85.0615V15.8856C85.0615 15.5049 84.9915 15.2023 84.8504 14.9781C84.6989 14.7642 84.4534 14.6547 84.1138 14.6495C83.6738 14.6599 83.3656 14.8164 83.1879 15.1189C83.0939 15.2597 83.0281 15.4141 82.9915 15.581C82.9497 15.7531 82.9288 15.9274 82.9288 16.1047V18.3121H82.4356V15.2597Z" fill="black"/>
<path fill-rule="evenodd" clip-rule="evenodd" d="M90.8568 17.9835C91.1024 17.9835 91.3114 17.9188 91.4838 17.7884C91.651 17.6684 91.7367 17.4963 91.7419 17.271C91.7367 17.0363 91.6405 16.8516 91.4524 16.716C91.2643 16.5856 91.0418 16.4677 90.7858 16.3634C90.6656 16.306 90.5506 16.2455 90.4409 16.1829C90.3312 16.1203 90.2267 16.0505 90.1264 15.9722C90.0376 15.8888 89.9655 15.7917 89.907 15.6822C89.8495 15.5779 89.8213 15.4558 89.8213 15.314C89.8265 14.9186 89.9623 14.6359 90.2288 14.469C90.4848 14.3073 90.7826 14.2259 91.1233 14.2259C91.2372 14.2259 91.3866 14.2374 91.5695 14.2583C91.7534 14.2896 91.9331 14.3386 92.1107 14.4064L92.0637 14.8372C91.7764 14.7173 91.4806 14.6547 91.1776 14.6495C90.9216 14.6495 90.7178 14.6964 90.5663 14.7903C90.4879 14.8372 90.4273 14.9019 90.3855 14.9854C90.3385 15.0699 90.3155 15.1794 90.3155 15.314C90.3155 15.3974 90.3437 15.4767 90.4012 15.5497C90.4587 15.6165 90.535 15.6801 90.629 15.7375C90.7231 15.7897 90.8296 15.8439 90.9509 15.9013C91.071 15.9534 91.188 16.0108 91.303 16.0734C91.5642 16.1829 91.792 16.33 91.9854 16.5115C92.1787 16.6951 92.2779 16.9476 92.2832 17.271C92.2832 17.4807 92.2414 17.6549 92.1578 17.7957C92.0689 17.9418 91.9561 18.0596 91.8213 18.1483C91.5277 18.3204 91.2173 18.406 90.8871 18.406C90.5005 18.406 90.1264 18.3434 89.7669 18.2192L89.8139 17.7331C90.117 17.8948 90.4639 17.9783 90.8568 17.9835Z" fill="black"/>
<path fill-rule="evenodd" clip-rule="evenodd" d="M96.9008 17.3732C96.8966 17.6757 96.906 17.9887 96.9332 18.3121H96.4546V17.6006H96.4389C96.4023 17.6893 96.3522 17.778 96.2895 17.8666C96.2268 17.9605 96.1463 18.0492 96.046 18.1327C95.9478 18.2109 95.8245 18.2735 95.6782 18.3204C95.5319 18.3778 95.3543 18.406 95.1453 18.406C94.6583 18.4008 94.3083 18.2547 94.0941 17.9678C93.8798 17.6862 93.7753 17.3211 93.7806 16.8725V14.3198H94.2748V16.7463C94.2748 17.1281 94.3501 17.4254 94.5016 17.6392C94.6489 17.8687 94.8893 17.9835 95.2236 17.9835C95.4483 17.9835 95.6385 17.9365 95.7963 17.8427C95.953 17.754 96.0721 17.6392 96.1557 17.4984C96.2508 17.3524 96.3156 17.1959 96.3522 17.029C96.3888 16.8621 96.4076 16.6951 96.4076 16.5282V14.3198H96.9008V17.3732Z" fill="black"/>
<path fill-rule="evenodd" clip-rule="evenodd" d="M98.7514 18.3121H99.2457V14.3198H98.7514V18.3121ZM98.7514 13.2558H99.2457V12.5986H98.7514V13.2558Z" fill="black"/>
<path fill-rule="evenodd" clip-rule="evenodd" d="M101.841 17.9835C102.087 17.9835 102.296 17.9188 102.468 17.7884C102.635 17.6684 102.722 17.4963 102.727 17.271C102.722 17.0363 102.625 16.8516 102.437 16.716C102.249 16.5856 102.026 16.4677 101.77 16.3634C101.65 16.306 101.535 16.2455 101.425 16.1829C101.316 16.1203 101.211 16.0505 101.112 15.9722C101.023 15.8888 100.95 15.7917 100.892 15.6822C100.835 15.5779 100.806 15.4558 100.806 15.314C100.811 14.9186 100.947 14.6359 101.213 14.469C101.469 14.3073 101.768 14.2259 102.108 14.2259C102.223 14.2259 102.371 14.2374 102.555 14.2583C102.738 14.2896 102.918 14.3386 103.095 14.4064L103.048 14.8372C102.761 14.7173 102.466 14.6547 102.163 14.6495C101.906 14.6495 101.702 14.6964 101.551 14.7903C101.472 14.8372 101.412 14.9019 101.371 14.9854C101.323 15.0699 101.3 15.1794 101.3 15.314C101.3 15.3974 101.328 15.4767 101.386 15.5497C101.444 15.6165 101.519 15.6801 101.614 15.7375C101.708 15.7897 101.814 15.8439 101.935 15.9013C102.056 15.9534 102.173 16.0108 102.289 16.0734C102.55 16.1829 102.777 16.33 102.97 16.5115C103.163 16.6951 103.262 16.9476 103.269 17.271C103.269 17.4807 103.226 17.6549 103.142 17.7957C103.053 17.9418 102.942 18.0596 102.806 18.1483C102.512 18.3204 102.202 18.406 101.873 18.406C101.486 18.406 101.112 18.3434 100.751 18.2192L100.798 17.7331C101.101 17.8948 101.448 17.9783 101.841 17.9835Z" fill="black"/>
<path fill-rule="evenodd" clip-rule="evenodd" d="M105.503 17.9835C105.748 17.9835 105.957 17.9188 106.13 17.7884C106.297 17.6684 106.384 17.4963 106.389 17.271C106.384 17.0363 106.287 16.8516 106.098 16.716C105.91 16.5856 105.688 16.4677 105.432 16.3634C105.312 16.306 105.197 16.2455 105.087 16.1829C104.977 16.1203 104.873 16.0505 104.773 15.9722C104.685 15.8888 104.611 15.7917 104.554 15.6822C104.495 15.5779 104.467 15.4558 104.467 15.314C104.472 14.9186 104.608 14.6359 104.875 14.469C105.131 14.3073 105.43 14.2259 105.769 14.2259C105.884 14.2259 106.033 14.2374 106.215 14.2583C106.399 14.2896 106.579 14.3386 106.757 14.4064L106.71 14.8372C106.422 14.7173 106.128 14.6547 105.824 14.6495C105.568 14.6495 105.364 14.6964 105.212 14.7903C105.134 14.8372 105.073 14.9019 105.033 14.9854C104.984 15.0699 104.962 15.1794 104.962 15.314C104.962 15.3974 104.99 15.4767 105.047 15.5497C105.105 15.6165 105.181 15.6801 105.275 15.7375C105.369 15.7897 105.476 15.8439 105.597 15.9013C105.717 15.9534 105.834 16.0108 105.95 16.0734C106.211 16.1829 106.438 16.33 106.631 16.5115C106.825 16.6951 106.924 16.9476 106.93 17.271C106.93 17.4807 106.887 17.6549 106.804 17.7957C106.715 17.9418 106.603 18.0596 106.467 18.1483C106.174 18.3204 105.863 18.406 105.534 18.406C105.148 18.406 104.773 18.3434 104.413 18.2192L104.46 17.7331C104.763 17.8948 105.11 17.9783 105.503 17.9835Z" fill="black"/>
<path fill-rule="evenodd" clip-rule="evenodd" d="M110.865 16.0348C110.865 15.6697 110.79 15.3515 110.639 15.0793C110.477 14.8028 110.212 14.6599 109.847 14.6495C109.486 14.6599 109.201 14.8059 108.992 15.0876C108.778 15.3693 108.67 15.6853 108.67 16.0348H110.865ZM111.109 18.1869C110.733 18.3288 110.346 18.4008 109.948 18.406C109.295 18.3966 108.827 18.1952 108.545 17.8041C108.263 17.4222 108.125 16.9267 108.13 16.3165C108.134 15.6958 108.292 15.1919 108.6 14.8059C108.898 14.4252 109.303 14.2311 109.815 14.2259C110.374 14.2374 110.782 14.4325 111.038 14.8132C111.284 15.1888 111.407 15.654 111.407 16.2069V16.4573H108.67C108.67 16.8902 108.783 17.248 109.008 17.5297C109.227 17.827 109.554 17.9783 109.988 17.9835C110.181 17.9835 110.385 17.9501 110.599 17.8823C110.813 17.8249 110.984 17.7592 111.109 17.6862V18.1869Z" fill="black"/>
<path fill-rule="evenodd" clip-rule="evenodd" d="M34.5122 24.0611C34.2875 24.035 34.0764 24.0214 33.8768 24.0214C33.1663 24.0319 32.6198 24.2541 32.2384 24.687C31.8517 25.1199 31.6584 25.6832 31.6584 26.378C31.6584 27.0769 31.8486 27.6403 32.2311 28.068C32.6072 28.5071 33.1558 28.7283 33.8768 28.7335C34.066 28.7335 34.2771 28.7158 34.5122 28.6793C34.7421 28.648 34.9385 28.5885 35.1005 28.4988L35.1318 28.9682C34.9699 29.0517 34.7682 29.1122 34.5278 29.1487C34.2823 29.1852 34.066 29.2029 33.8768 29.2029C33.0095 29.1936 32.3355 28.9328 31.8549 28.4206C31.3627 27.9146 31.1171 27.2334 31.1171 26.378C31.1224 25.532 31.3711 24.8518 31.8622 24.3344C32.3481 23.8232 33.02 23.5624 33.8768 23.552C34.0555 23.552 34.2718 23.5656 34.5278 23.5906C34.7797 23.6219 34.9803 23.6772 35.1318 23.7554L35.1005 24.2562C34.9228 24.1623 34.7264 24.0976 34.5122 24.0611Z" fill="black"/>
<path fill-rule="evenodd" clip-rule="evenodd" d="M37.5154 28.287C37.7348 28.6115 38.0619 28.7752 38.4955 28.7815C38.9292 28.7752 39.2615 28.6115 39.4914 28.287C39.7108 27.9803 39.8205 27.5891 39.8205 27.1134C39.8205 26.6388 39.7108 26.2424 39.4914 25.9232C39.2615 25.6113 38.9292 25.4516 38.4955 25.4464C38.0619 25.4516 37.7348 25.6113 37.5154 25.9232C37.2855 26.2424 37.1705 26.6388 37.1705 27.1134C37.1705 27.5891 37.2855 27.9803 37.5154 28.287ZM37.0838 25.6572C37.3868 25.2451 37.8571 25.0344 38.4955 25.0239C39.1434 25.0344 39.6188 25.2451 39.9229 25.6572C40.2155 26.0598 40.3618 26.5449 40.3618 27.1134C40.3618 27.6726 40.2155 28.1545 39.9229 28.5614C39.6188 28.9797 39.1434 29.1936 38.4955 29.2029C37.8571 29.1936 37.3868 28.9797 37.0838 28.5614C36.7808 28.1545 36.6292 27.6726 36.6292 27.1134C36.6292 26.5449 36.7808 26.0598 37.0838 25.6572Z" fill="black"/>
<path fill-rule="evenodd" clip-rule="evenodd" d="M41.9062 26.0567C41.9062 25.749 41.8958 25.436 41.8749 25.1168H42.3535V25.8293H42.3691C42.4162 25.7364 42.4705 25.6415 42.5332 25.5476C42.5959 25.4537 42.6743 25.3682 42.7683 25.29C42.8676 25.2065 42.9909 25.1408 43.1372 25.0938C43.2835 25.0469 43.459 25.0239 43.6628 25.0239C44.1539 25.0281 44.5071 25.1752 44.7213 25.4621C44.9251 25.7437 45.0264 26.1089 45.0264 26.5574V29.1101H44.5332V26.6826C44.5332 26.3018 44.4622 25.9993 44.3211 25.775C44.1696 25.5612 43.924 25.4516 43.5844 25.4464C43.1455 25.4569 42.8373 25.6133 42.6586 25.9159C42.5645 26.0567 42.4998 26.2111 42.4632 26.378C42.4214 26.5501 42.4005 26.7243 42.4005 26.9017V29.1101H41.9062V26.0567Z" fill="black"/>
<path fill-rule="evenodd" clip-rule="evenodd" d="M47.2146 25.5403H46.4068V25.1168H47.2146V24.8278C47.2146 24.614 47.225 24.4053 47.2459 24.2009C47.2564 24.0037 47.2961 23.8264 47.364 23.6688C47.4319 23.5071 47.5385 23.3799 47.6848 23.286C47.8259 23.1921 48.0223 23.1452 48.2731 23.1452C48.3567 23.1452 48.4424 23.1473 48.5322 23.1525C48.6211 23.1681 48.689 23.1921 48.736 23.2234L48.7047 23.6459C48.5949 23.5937 48.4633 23.5677 48.3118 23.5677C48.1508 23.5677 48.0275 23.6042 47.9439 23.6772C47.8551 23.7606 47.7945 23.8629 47.7632 23.9818C47.7318 24.1028 47.7161 24.2301 47.7161 24.3657C47.7109 24.5065 47.7088 24.6421 47.7088 24.7725V25.1168H48.6096V25.5403H47.7088V29.1101H47.2146V25.5403Z" fill="black"/>
<path fill-rule="evenodd" clip-rule="evenodd" d="M52.5386 26.8318C52.5386 26.4667 52.4623 26.1485 52.3118 25.8762C52.1488 25.5998 51.8855 25.4569 51.5197 25.4464C51.1582 25.4569 50.874 25.6029 50.665 25.8846C50.4497 26.1662 50.3431 26.4823 50.3431 26.8318H52.5386ZM52.782 28.9839C52.4048 29.1257 52.0182 29.1977 51.6211 29.2029C50.968 29.1936 50.4999 28.9922 50.2177 28.601C49.9356 28.2203 49.7966 27.7237 49.8019 27.1134C49.8071 26.4927 49.9638 25.9889 50.2721 25.6029C50.5699 25.2221 50.9753 25.0281 51.4874 25.0239C52.0474 25.0344 52.455 25.2295 52.711 25.6113C52.9566 25.9858 53.0798 26.451 53.0798 27.0039V27.2543H50.3431C50.3431 27.6872 50.456 28.045 50.6796 28.3267C50.9001 28.624 51.2261 28.7752 51.6598 28.7815C51.8531 28.7815 52.0579 28.7471 52.2721 28.6793C52.4863 28.6219 52.6566 28.5562 52.782 28.4831V28.9839Z" fill="black"/>
<path fill-rule="evenodd" clip-rule="evenodd" d="M54.9921 27.6851C55.0339 27.8833 55.0966 28.0659 55.1812 28.2328C55.2742 28.3893 55.3975 28.5176 55.5491 28.6167C55.6954 28.7262 55.8866 28.7815 56.1217 28.7815C56.3411 28.7815 56.5292 28.7262 56.686 28.6167C56.8323 28.5176 56.9524 28.384 57.0465 28.2171C57.2241 27.8624 57.3108 27.4942 57.3056 27.1134C57.3056 26.9257 57.2868 26.7327 57.2513 26.5345C57.2084 26.3467 57.1416 26.1694 57.0465 26.0025C56.9524 25.8345 56.8323 25.6989 56.686 25.5946C56.5292 25.4955 56.3411 25.4464 56.1217 25.4464C55.8866 25.4464 55.6954 25.4955 55.5491 25.5946C55.3975 25.6885 55.2742 25.8199 55.1812 25.9858C55.0966 26.1433 55.0339 26.3206 54.9921 26.5188C54.9555 26.717 54.9378 26.9152 54.9378 27.1134C54.9378 27.3012 54.9555 27.4921 54.9921 27.6851ZM57.7999 29.1101H57.3056V28.4758H57.2899C57.0287 28.9661 56.6128 29.2082 56.0433 29.2029C55.4937 29.1936 55.0841 28.9922 54.8124 28.601C54.5344 28.2098 54.3965 27.7143 54.3965 27.1134C54.3913 26.4927 54.5198 25.992 54.781 25.6113C55.0423 25.2242 55.4634 25.0281 56.0433 25.0239C56.2419 25.0239 56.4143 25.0521 56.5606 25.1095C56.7121 25.1669 56.8375 25.2399 56.9368 25.3286C57.1416 25.5111 57.2586 25.6655 57.2899 25.7907H57.3056V23.2391H57.7999V29.1101Z" fill="black"/>
<path fill-rule="evenodd" clip-rule="evenodd" d="M62.0413 26.8318C62.0413 26.4667 61.9661 26.1485 61.8146 25.8762C61.6516 25.5998 61.3882 25.4569 61.0225 25.4464C60.662 25.4569 60.3767 25.6029 60.1677 25.8846C59.9525 26.1662 59.8459 26.4823 59.8459 26.8318H62.0413ZM62.2848 28.9839C61.9086 29.1257 61.5209 29.1977 61.1239 29.2029C60.4708 29.1936 60.0026 28.9922 59.7205 28.601C59.4384 28.2203 59.2994 27.7237 59.3046 27.1134C59.3098 26.4927 59.4676 25.9889 59.7759 25.6029C60.0737 25.2221 60.4781 25.0281 60.9912 25.0239C61.5502 25.0344 61.9577 25.2295 62.2137 25.6113C62.4593 25.9858 62.5826 26.451 62.5826 27.0039V27.2543H59.8459C59.8459 27.6872 59.9587 28.045 60.1834 28.3267C60.4028 28.624 60.7299 28.7752 61.1636 28.7815C61.3569 28.7815 61.5606 28.7471 61.7749 28.6793C61.9891 28.6219 62.1594 28.5562 62.2848 28.4831V28.9839Z" fill="black"/>
<path fill-rule="evenodd" clip-rule="evenodd" d="M64.1354 26.0098C64.1354 25.6394 64.125 25.3421 64.1041 25.1168H64.5983V25.8846H64.6129C64.708 25.6499 64.8407 25.4485 65.0132 25.2816C65.1804 25.1147 65.3904 25.0281 65.6412 25.0239C65.7718 25.0281 65.8867 25.0448 65.986 25.0698V25.5873C65.8763 25.556 65.7561 25.5403 65.6255 25.5403C65.4322 25.5455 65.2723 25.5925 65.1469 25.6811C65.0215 25.775 64.9191 25.9033 64.8407 26.065C64.7676 26.2205 64.7153 26.3905 64.684 26.5731C64.6474 26.7661 64.6297 26.9549 64.6297 27.1364V29.1101H64.1354V26.0098Z" fill="black"/>
<path fill-rule="evenodd" clip-rule="evenodd" d="M69.6078 27.0978H69.4667C69.2525 27.0978 69.0383 27.103 68.8241 27.1134C68.5984 27.1343 68.3957 27.1781 68.2117 27.2459C68.0289 27.3085 67.8826 27.4055 67.7729 27.5359C67.6527 27.6663 67.5931 27.8416 67.5931 28.0607C67.5931 28.3162 67.6767 28.4988 67.8439 28.6083C68.0007 28.7231 68.194 28.7815 68.4239 28.7815C68.7112 28.7815 68.939 28.7231 69.1062 28.6083C69.2682 28.4988 69.3852 28.3684 69.4594 28.2171C69.5367 28.0554 69.5817 27.8958 69.5921 27.7404C69.6026 27.5777 69.6078 27.4452 69.6078 27.3409V27.0978ZM69.6548 28.4675H69.6391C69.5242 28.7022 69.3486 28.8827 69.1135 29.0079C68.8784 29.133 68.6308 29.1977 68.3685 29.2029C68.0916 29.1977 67.8669 29.1539 67.6945 29.0705C67.5169 28.9922 67.381 28.8931 67.287 28.7732C67.1198 28.5124 67.0414 28.2797 67.0518 28.0763C67.0518 27.7425 67.1323 27.4786 67.2943 27.2856C67.451 27.0926 67.6527 26.9549 67.8983 26.8714C68.1438 26.7828 68.4103 26.7243 68.6987 26.6993C68.9808 26.6826 69.2525 26.6753 69.5137 26.6753H69.6078V26.4719C69.6235 25.7876 69.3204 25.4464 68.6987 25.4464C68.2849 25.4412 67.893 25.5508 67.5221 25.775V25.2973C67.893 25.1251 68.2849 25.0344 68.6987 25.0239C69.6444 25.0135 70.1125 25.509 70.1021 26.5105V28.2724C70.0958 28.5749 70.1094 28.8535 70.1407 29.1101H69.6548V28.4675Z" fill="black"/>
<path fill-rule="evenodd" clip-rule="evenodd" d="M71.5211 28.6949L73.9286 25.5403H71.6151V25.1168H74.5002V25.5403L72.0937 28.6866H74.5002V29.1101H71.5211V28.6949Z" fill="black"/>
<path fill-rule="evenodd" clip-rule="evenodd" d="M75.983 29.1091H76.4773V25.1168H75.983V29.1091ZM75.983 24.0527H76.4773V23.3955H75.983V24.0527Z" fill="black"/>
<path fill-rule="evenodd" clip-rule="evenodd" d="M78.9141 28.287C79.1346 28.6115 79.4616 28.7752 79.8943 28.7815C80.3279 28.7752 80.6602 28.6115 80.8911 28.287C81.1106 27.9803 81.2203 27.5891 81.2203 27.1134C81.2203 26.6388 81.1106 26.2424 80.8911 25.9232C80.6602 25.6113 80.3279 25.4516 79.8943 25.4464C79.4616 25.4516 79.1346 25.6113 78.9141 25.9232C78.6842 26.2424 78.5693 26.6388 78.5693 27.1134C78.5693 27.5891 78.6842 27.9803 78.9141 28.287ZM78.4836 25.6572C78.7866 25.2451 79.2568 25.0344 79.8943 25.0239C80.5432 25.0344 81.0186 25.2451 81.3217 25.6572C81.6143 26.0598 81.7616 26.5449 81.7616 27.1134C81.7616 27.6726 81.6143 28.1545 81.3217 28.5614C81.0186 28.9797 80.5432 29.1936 79.8943 29.2029C79.2568 29.1936 78.7866 28.9797 78.4836 28.5614C78.1805 28.1545 78.029 27.6726 78.029 27.1134C78.029 26.5449 78.1805 26.0598 78.4836 25.6572Z" fill="black"/>
<path fill-rule="evenodd" clip-rule="evenodd" d="M83.306 26.0567C83.306 25.749 83.2945 25.436 83.2747 25.1168H83.7522V25.8293H83.7679C83.8149 25.7364 83.8703 25.6415 83.933 25.5476C83.9957 25.4537 84.0741 25.3682 84.1681 25.29C84.2674 25.2065 84.3907 25.1408 84.537 25.0938C84.6822 25.0469 84.8578 25.0239 85.0615 25.0239C85.5527 25.0281 85.9058 25.1752 86.1201 25.4621C86.3249 25.7437 86.4262 26.1089 86.4262 26.5574V29.1101H85.932V26.6826C85.932 26.3018 85.862 25.9993 85.7209 25.775C85.5694 25.5612 85.3238 25.4516 84.9842 25.4464C84.5443 25.4569 84.236 25.6133 84.0584 25.9159C83.9643 26.0567 83.8985 26.2111 83.8619 26.378C83.8201 26.5501 83.7992 26.7243 83.7992 26.9017V29.1101H83.306V26.0567Z" fill="black"/>
<path fill-rule="evenodd" clip-rule="evenodd" d="M90.7147 26.8318C90.7147 26.4667 90.6395 26.1485 90.4879 25.8762C90.326 25.5998 90.0616 25.4569 89.6959 25.4464C89.3354 25.4569 89.0501 25.6029 88.8411 25.8846C88.6269 26.1662 88.5193 26.4823 88.5193 26.8318H90.7147ZM90.9582 28.9839C90.582 29.1257 90.1954 29.1977 89.7983 29.2029C89.1452 29.1936 88.677 28.9922 88.3949 28.601C88.1117 28.2203 87.9738 27.7237 87.979 27.1134C87.9842 26.4927 88.141 25.9889 88.4492 25.6029C88.7471 25.2221 89.1525 25.0281 89.6645 25.0239C90.2236 25.0344 90.6311 25.2295 90.8871 25.6113C91.1337 25.9858 91.256 26.451 91.256 27.0039V27.2543H88.5193C88.5193 27.6872 88.6321 28.045 88.8568 28.3267C89.0773 28.624 89.4033 28.7752 89.8369 28.7815C90.0303 28.7815 90.2351 28.7471 90.4493 28.6793C90.6635 28.6219 90.8328 28.5562 90.9582 28.4831V28.9839Z" fill="black"/>
<path fill-rule="evenodd" clip-rule="evenodd" d="M96.6343 28.7335C96.9854 28.7335 97.278 28.6428 97.5131 28.4592C97.743 28.2776 97.8611 27.996 97.8663 27.6142C97.8611 27.3482 97.7294 27.1239 97.4745 26.9413C97.3585 26.8474 97.2258 26.7588 97.0742 26.6753C96.9227 26.5918 96.7681 26.5084 96.6113 26.4249C96.4546 26.3363 96.3031 26.2424 96.1568 26.1433C96.0053 26.0484 95.8694 25.944 95.7493 25.8293C95.4932 25.606 95.3616 25.3213 95.3564 24.977C95.3616 24.5326 95.5319 24.1831 95.8663 23.9276C96.1902 23.6824 96.5977 23.5572 97.0899 23.552C97.231 23.552 97.3982 23.5624 97.5915 23.5833C97.7848 23.6146 97.976 23.6636 98.1641 23.7314L98.0774 24.2249C97.8109 24.0892 97.4797 24.0214 97.0816 24.0214C96.9405 24.0214 96.8026 24.035 96.6667 24.0611C96.5298 24.0913 96.4024 24.1466 96.2822 24.2249C96.1725 24.2927 96.0805 24.3866 96.0074 24.5065C95.9342 24.6327 95.8976 24.784 95.8976 24.9603C95.8976 25.0907 95.9342 25.2117 96.0074 25.3213C96.0805 25.4308 96.1756 25.5268 96.2895 25.6113C96.4107 25.6989 96.5465 25.7834 96.6981 25.8606C96.8444 25.944 96.9959 26.0306 97.1526 26.1193C97.4818 26.2758 97.7691 26.474 98.0147 26.7139C98.1359 26.8297 98.232 26.9643 98.3052 27.1218C98.3731 27.2783 98.4066 27.4577 98.4066 27.6611C98.3972 28.2046 98.2059 28.5979 97.835 28.843C97.4682 29.084 97.0607 29.2029 96.6113 29.2029C96.0784 29.1936 95.6657 29.1143 95.372 28.9682L95.4274 28.4133C95.7357 28.6271 96.138 28.7335 96.6343 28.7335Z" fill="black"/>
<path fill-rule="evenodd" clip-rule="evenodd" d="M101.442 29.1101H100.861L99.5048 25.1168H100.046L101.152 28.5697H101.167L102.328 25.1168H102.845L101.442 29.1101Z" fill="black"/>
<path fill-rule="evenodd" clip-rule="evenodd" d="M104.146 29.1091H104.64V25.1168H104.146V29.1091ZM104.146 24.0527H104.64V23.3955H104.146V24.0527Z" fill="black"/>
<path fill-rule="evenodd" clip-rule="evenodd" d="M106.13 28.6949L108.537 25.5403H106.224V25.1168H109.11V25.5403L106.702 28.6866H109.11V29.1101H106.13V28.6949Z" fill="black"/>
<path fill-rule="evenodd" clip-rule="evenodd" d="M110.223 28.6949L112.63 25.5403H110.317V25.1168H113.202V25.5403L110.795 28.6866H113.202V29.1101H110.223V28.6949Z" fill="black"/>
<path fill-rule="evenodd" clip-rule="evenodd" d="M117.123 26.8318C117.123 26.4667 117.047 26.1485 116.896 25.8762C116.734 25.5998 116.47 25.4569 116.104 25.4464C115.743 25.4569 115.458 25.6029 115.249 25.8846C115.035 26.1662 114.927 26.4823 114.927 26.8318H117.123ZM117.366 28.9839C116.99 29.1257 116.603 29.1977 116.206 29.2029C115.553 29.1936 115.085 28.9922 114.803 28.601C114.52 28.2203 114.382 27.7237 114.387 27.1134C114.392 26.4927 114.549 25.9889 114.857 25.6029C115.155 25.2221 115.56 25.0281 116.072 25.0239C116.631 25.0344 117.039 25.2295 117.295 25.6113C117.542 25.9858 117.665 26.451 117.665 27.0039V27.2543H114.927C114.927 27.6872 115.04 28.045 115.265 28.3267C115.485 28.624 115.811 28.7752 116.245 28.7815C116.438 28.7815 116.642 28.7471 116.857 28.6793C117.071 28.6219 117.241 28.5562 117.366 28.4831V28.9839Z" fill="black"/>
<path fill-rule="evenodd" clip-rule="evenodd" d="M119.217 26.0098C119.217 25.6394 119.206 25.3421 119.185 25.1168H119.68V25.8846H119.694C119.789 25.6499 119.922 25.4485 120.094 25.2816C120.262 25.1147 120.472 25.0281 120.722 25.0239C120.853 25.0281 120.968 25.0448 121.067 25.0698V25.5873C120.958 25.556 120.837 25.5403 120.707 25.5403C120.513 25.5455 120.354 25.5925 120.228 25.6811C120.103 25.775 120 25.9033 119.922 26.065C119.849 26.2205 119.797 26.3905 119.765 26.5731C119.729 26.7661 119.711 26.9549 119.711 27.1364V29.1101H119.217V26.0098Z" fill="black"/>
<path fill-rule="evenodd" clip-rule="evenodd" d="M124.69 27.0978H124.548C124.334 27.0978 124.12 27.103 123.905 27.1134C123.681 27.1343 123.477 27.1781 123.294 27.2459C123.11 27.3085 122.965 27.4055 122.855 27.5359C122.735 27.6663 122.674 27.8416 122.674 28.0607C122.674 28.3162 122.758 28.4988 122.925 28.6083C123.082 28.7231 123.275 28.7815 123.505 28.7815C123.793 28.7815 124.02 28.7231 124.188 28.6083C124.349 28.4988 124.468 28.3684 124.541 28.2171C124.619 28.0554 124.663 27.8958 124.674 27.7404C124.684 27.5777 124.69 27.4452 124.69 27.3409V27.0978ZM124.737 28.4675H124.72C124.607 28.7022 124.431 28.8827 124.196 29.0079C123.96 29.133 123.712 29.1977 123.451 29.2029C123.173 29.1977 122.949 29.1539 122.777 29.0705C122.598 28.9922 122.462 28.8931 122.368 28.7732C122.201 28.5124 122.123 28.2797 122.133 28.0763C122.133 27.7425 122.215 27.4786 122.377 27.2856C122.533 27.0926 122.735 26.9549 122.98 26.8714C123.226 26.7828 123.493 26.7243 123.78 26.6993C124.062 26.6826 124.334 26.6753 124.595 26.6753H124.69V26.4719C124.705 25.7876 124.402 25.4464 123.78 25.4464C123.367 25.4412 122.975 25.5508 122.604 25.775V25.2973C122.975 25.1251 123.367 25.0344 123.78 25.0239C124.726 25.0135 125.194 25.509 125.183 26.5105V28.2724C125.178 28.5749 125.192 28.8535 125.223 29.1101H124.737V28.4675Z" fill="black"/>
<path fill-rule="evenodd" clip-rule="evenodd" d="M34.5122 34.857C34.2875 34.8309 34.0764 34.8184 33.8768 34.8184C33.1663 34.8288 32.6198 35.05 32.2384 35.4829C31.8517 35.9169 31.6584 36.4802 31.6584 37.175C31.6584 37.8739 31.8486 38.4372 32.2311 38.8649C32.6072 39.3041 33.1558 39.5253 33.8768 39.5305C34.066 39.5305 34.2771 39.5127 34.5122 39.4762C34.7421 39.4439 34.9385 39.3844 35.1005 39.2958L35.1318 39.7652C34.9699 39.8487 34.7682 39.9092 34.5278 39.9457C34.2823 39.9811 34.066 39.9999 33.8768 39.9999C33.0095 39.9895 32.3355 39.7287 31.8549 39.2175C31.3627 38.7116 31.1171 38.0304 31.1171 37.175C31.1224 36.3289 31.3711 35.6477 31.8622 35.1314C32.3481 34.6202 33.02 34.3594 33.8768 34.349C34.0555 34.349 34.2718 34.3615 34.5278 34.3876C34.7797 34.4189 34.9803 34.4742 35.1318 34.5524L35.1005 35.0531C34.9228 34.9592 34.7264 34.8935 34.5122 34.857Z" fill="black"/>
<path fill-rule="evenodd" clip-rule="evenodd" d="M37.5154 39.084C37.7348 39.4084 38.0619 39.5722 38.4955 39.5774C38.9292 39.5722 39.2615 39.4084 39.4914 39.084C39.7108 38.7763 39.8205 38.3851 39.8205 37.9104C39.8205 37.4347 39.7108 37.0383 39.4914 36.7201C39.2615 36.4072 38.9292 36.2476 38.4955 36.2424C38.0619 36.2476 37.7348 36.4072 37.5154 36.7201C37.2855 37.0383 37.1705 37.4347 37.1705 37.9104C37.1705 38.3851 37.2855 38.7763 37.5154 39.084ZM37.0838 36.4541C37.3868 36.0421 37.8571 35.8303 38.4955 35.8199C39.1434 35.8303 39.6188 36.0421 39.9229 36.4541C40.2155 36.8558 40.3618 37.3419 40.3618 37.9104C40.3618 38.4685 40.2155 38.9515 39.9229 39.3584C39.6188 39.7756 39.1434 39.9895 38.4955 39.9999C37.8571 39.9895 37.3868 39.7756 37.0838 39.3584C36.7808 38.9515 36.6292 38.4685 36.6292 37.9104C36.6292 37.3419 36.7808 36.8558 37.0838 36.4541Z" fill="black"/>
<path fill-rule="evenodd" clip-rule="evenodd" d="M41.9062 36.8537C41.9062 36.5449 41.8958 36.233 41.8749 35.9138H42.3535V36.6263H42.3691C42.4162 36.5324 42.4705 36.4385 42.5332 36.3446C42.5959 36.2507 42.6743 36.1641 42.7683 36.0869C42.8676 36.0024 42.9909 35.9378 43.1372 35.8908C43.2835 35.8439 43.459 35.8199 43.6628 35.8199C44.1539 35.8251 44.5071 35.9711 44.7213 36.2591C44.9251 36.5407 45.0264 36.9058 45.0264 37.3544V39.906H44.5332V37.4796C44.5332 37.0988 44.4622 36.7963 44.3211 36.571C44.1696 36.3571 43.924 36.2476 43.5844 36.2424C43.1455 36.2538 42.8373 36.4103 42.6586 36.7128C42.5645 36.8537 42.4998 37.007 42.4632 37.175C42.4214 37.3471 42.4005 37.5213 42.4005 37.6987V39.906H41.9062V36.8537Z" fill="black"/>
<path fill-rule="evenodd" clip-rule="evenodd" d="M47.2146 36.3363H46.4068V35.9138H47.2146V35.6248C47.2146 35.4109 47.225 35.2013 47.2459 34.9978C47.2564 34.7996 47.2961 34.6223 47.364 34.4658C47.4319 34.3041 47.5385 34.1758 47.6848 34.0819C47.8259 33.988 48.0223 33.9411 48.2731 33.9411C48.3567 33.9411 48.4424 33.9442 48.5322 33.9494C48.6211 33.9651 48.689 33.988 48.736 34.0204L48.7047 34.4418C48.5949 34.3907 48.4633 34.3646 48.3118 34.3646C48.1508 34.3646 48.0275 34.4001 47.9439 34.4742C47.8551 34.5576 47.7945 34.6588 47.7632 34.7788C47.7318 34.8987 47.7161 35.0271 47.7161 35.1627C47.7109 35.3035 47.7088 35.4391 47.7088 35.5695V35.9138H48.6096V36.3363H47.7088V39.906H47.2146V36.3363Z" fill="black"/>
<path d="M49.8017 34.035H57.7999V39.9999H49.8017V34.035Z" fill="white"/>
<path fill-rule="evenodd" clip-rule="evenodd" d="M52.5386 37.6288C52.5386 37.2626 52.4623 36.9444 52.3118 36.6732C52.1488 36.3968 51.8855 36.2538 51.5197 36.2424C51.1582 36.2538 50.874 36.3988 50.665 36.6815C50.4497 36.9632 50.3431 37.2793 50.3431 37.6288H52.5386ZM52.782 39.7808C52.4048 39.9217 52.0182 39.9947 51.6211 39.9999C50.968 39.9895 50.4999 39.7882 50.2177 39.397C49.9356 39.0162 49.7966 38.5207 49.8019 37.9104C49.8071 37.2887 49.9638 36.7859 50.2721 36.3988C50.5699 36.0191 50.9753 35.8251 51.4874 35.8199C52.0474 35.8303 52.455 36.0264 52.711 36.4072C52.9566 36.7827 53.0798 37.2469 53.0798 37.8009V38.0512H50.3431C50.3431 38.4842 50.456 38.842 50.6796 39.1236C50.9001 39.4209 51.2261 39.5722 51.6598 39.5774C51.8531 39.5774 52.0579 39.543 52.2721 39.4762C52.4863 39.4178 52.6566 39.3531 52.782 39.2801V39.7808Z" fill="black"/>
<path d="M49.8017 34.035H57.7999V39.9999H49.8017V34.035Z" fill="white"/>
<path fill-rule="evenodd" clip-rule="evenodd" d="M54.9921 38.481C55.0339 38.6803 55.0966 38.8628 55.1812 39.0298C55.2742 39.1862 55.3975 39.3135 55.5491 39.4136C55.6954 39.5221 55.8866 39.5774 56.1217 39.5774C56.3411 39.5774 56.5292 39.5221 56.686 39.4136C56.8323 39.3135 56.9524 39.181 57.0465 39.0141C57.2241 38.6584 57.3108 38.2912 57.3056 37.9104C57.3056 37.7216 57.2868 37.5297 57.2513 37.3304C57.2084 37.1426 57.1416 36.9653 57.0465 36.7984C56.9524 36.6315 56.8323 36.4959 56.686 36.3915C56.5292 36.2924 56.3411 36.2424 56.1217 36.2424C55.8866 36.2424 55.6954 36.2924 55.5491 36.3915C55.3975 36.4854 55.2742 36.6158 55.1812 36.7827C55.0966 36.9392 55.0339 37.1166 54.9921 37.3148C54.9555 37.514 54.9378 37.7122 54.9378 37.9104C54.9378 38.0982 54.9555 38.2881 54.9921 38.481ZM57.7999 39.906H57.3056V39.2718H57.2899C57.0287 39.7621 56.6128 40.0051 56.0433 39.9999C55.4937 39.9895 55.0841 39.7882 54.8124 39.397C54.5344 39.0058 54.3965 38.5102 54.3965 37.9104C54.3913 37.2887 54.5198 36.7879 54.781 36.4072C55.0423 36.0212 55.4634 35.8251 56.0433 35.8199C56.2419 35.8199 56.4143 35.848 56.5606 35.9065C56.7121 35.9638 56.8375 36.0369 56.9368 36.1255C57.1416 36.3081 57.2586 36.4614 57.2899 36.5877H57.3056V34.035H57.7999V39.906Z" fill="black"/>
<path fill-rule="evenodd" clip-rule="evenodd" d="M62.0413 37.6288C62.0413 37.2626 61.9661 36.9444 61.8146 36.6732C61.6516 36.3968 61.3882 36.2538 61.0225 36.2424C60.662 36.2538 60.3767 36.3988 60.1677 36.6815C59.9525 36.9632 59.8459 37.2793 59.8459 37.6288H62.0413ZM62.2848 39.7808C61.9086 39.9217 61.5209 39.9947 61.1239 39.9999C60.4708 39.9895 60.0026 39.7882 59.7205 39.397C59.4384 39.0162 59.2994 38.5207 59.3046 37.9104C59.3098 37.2887 59.4676 36.7859 59.7759 36.3988C60.0737 36.0191 60.4781 35.8251 60.9912 35.8199C61.5502 35.8303 61.9577 36.0264 62.2137 36.4072C62.4593 36.7827 62.5826 37.2469 62.5826 37.8009V38.0512H59.8459C59.8459 38.4842 59.9587 38.842 60.1834 39.1236C60.4028 39.421 60.7299 39.5722 61.1636 39.5774C61.3569 39.5774 61.5606 39.543 61.7749 39.4762C61.9891 39.4178 62.1594 39.3531 62.2848 39.2801V39.7808Z" fill="black"/>
<path fill-rule="evenodd" clip-rule="evenodd" d="M64.1354 36.8057C64.1354 36.4354 64.125 36.138 64.1041 35.9138H64.5983V36.6815H64.6129C64.708 36.4458 64.8407 36.2455 65.0132 36.0786C65.1804 35.9117 65.3904 35.8251 65.6412 35.8199C65.7718 35.8251 65.8867 35.8407 65.986 35.8668V36.3842C65.8763 36.3519 65.7561 36.3363 65.6255 36.3363C65.4322 36.3425 65.2723 36.3895 65.1469 36.4781C65.0215 36.571 64.9191 36.6993 64.8407 36.861C64.7676 37.0174 64.7153 37.1875 64.684 37.37C64.6474 37.563 64.6297 37.7508 64.6297 37.9334V39.906H64.1354V36.8057Z" fill="black"/>
<path fill-rule="evenodd" clip-rule="evenodd" d="M69.6078 37.8948H69.4667C69.2525 37.8948 69.0383 37.9 68.8241 37.9104C68.5984 37.9313 68.3957 37.9751 68.2117 38.0429C68.0289 38.1055 67.8826 38.2025 67.7729 38.3329C67.6527 38.4633 67.5931 38.6375 67.5931 38.8576C67.5931 39.1132 67.6767 39.2958 67.8439 39.4053C68.0007 39.5201 68.194 39.5774 68.4239 39.5774C68.7112 39.5774 68.939 39.5201 69.1062 39.4053C69.2682 39.2958 69.3852 39.1654 69.4594 39.0141C69.5367 38.8524 69.5817 38.6928 69.5921 38.5363C69.6026 38.3746 69.6078 38.2411 69.6078 38.1368V37.8948ZM69.6548 39.2645H69.6391C69.5242 39.4992 69.3486 39.6786 69.1135 39.8048C68.8784 39.93 68.6308 39.9947 68.3685 39.9999C68.0916 39.9947 67.8669 39.9509 67.6945 39.8674C67.5169 39.7882 67.381 39.6901 67.287 39.5691C67.1198 39.3083 67.0414 39.0767 67.0518 38.8722C67.0518 38.5395 67.1323 38.2755 67.2943 38.0825C67.451 37.8896 67.6527 37.7508 67.8983 37.6674C68.1438 37.5787 68.4103 37.5213 68.6987 37.4952C68.9808 37.4796 69.2525 37.4723 69.5137 37.4723H69.6078V37.2678C69.6235 36.5845 69.3204 36.2424 68.6987 36.2424C68.2849 36.2382 67.893 36.3477 67.5221 36.571V36.0942C67.893 35.9221 68.2849 35.8303 68.6987 35.8199C69.6444 35.8094 70.1125 36.305 70.1021 37.3075V39.0684C70.0958 39.3709 70.1094 39.6505 70.1407 39.906H69.6548V39.2645Z" fill="black"/>
<path fill-rule="evenodd" clip-rule="evenodd" d="M71.5211 39.4919L73.9286 36.3363H71.6151V35.9138H74.5002V36.3363L72.0937 39.4835H74.5002V39.906H71.5211V39.4919Z" fill="black"/>
<path fill-rule="evenodd" clip-rule="evenodd" d="M75.983 39.906H76.4773V35.9138H75.983V39.906ZM75.983 34.8497H76.4773V34.1925H75.983V34.8497Z" fill="black"/>
<path fill-rule="evenodd" clip-rule="evenodd" d="M81.4554 38.9672C81.4502 39.2697 81.4596 39.5826 81.4868 39.906H81.0082V39.1946H80.9925C80.9559 39.2822 80.9068 39.3709 80.8441 39.4595C80.7814 39.5534 80.6999 39.6432 80.6006 39.7266C80.5014 39.8048 80.3781 39.8674 80.2318 39.9133C80.0855 39.9718 79.9078 39.9999 79.6989 39.9999C79.213 39.9947 78.8629 39.8487 78.6487 39.5618C78.4345 39.2801 78.3289 38.915 78.3342 38.4654V35.9138H78.8284V38.3402C78.8284 38.721 78.9047 39.0193 79.0562 39.2332C79.2025 39.4627 79.4428 39.5774 79.7772 39.5774C80.0019 39.5774 80.1931 39.5305 80.3499 39.4366C80.5066 39.3479 80.6268 39.2332 80.7104 39.0923C80.8044 38.9463 80.8702 38.7898 80.9068 38.6229C80.9423 38.456 80.9612 38.288 80.9612 38.1211V35.9138H81.4554V38.9672Z" fill="black"/>
<path fill-rule="evenodd" clip-rule="evenodd" d="M83.306 36.8537C83.306 36.5449 83.2945 36.233 83.2747 35.9138H83.7522V36.6263H83.7679C83.8149 36.5324 83.8703 36.4385 83.933 36.3446C83.9957 36.2507 84.0741 36.1641 84.1681 36.0869C84.2674 36.0024 84.3907 35.9378 84.537 35.8908C84.6822 35.8439 84.8578 35.8199 85.0615 35.8199C85.5527 35.8251 85.9058 35.9711 86.1201 36.2591C86.3249 36.5407 86.4262 36.9058 86.4262 37.3544V39.906H85.932V37.4796C85.932 37.0988 85.862 36.7963 85.7209 36.571C85.5694 36.3571 85.3238 36.2476 84.9842 36.2424C84.5443 36.2538 84.236 36.4103 84.0584 36.7128C83.9643 36.8537 83.8985 37.007 83.8619 37.175C83.8201 37.3471 83.7992 37.5213 83.7992 37.6987V39.906H83.306V36.8537Z" fill="black"/>
<path fill-rule="evenodd" clip-rule="evenodd" d="M91.7272 39.5774C91.9728 39.5774 92.1818 39.5127 92.3542 39.3813C92.5214 39.2613 92.6071 39.0892 92.6123 38.8649C92.6071 38.6302 92.511 38.4456 92.3229 38.3089C92.1348 38.1785 91.9122 38.0617 91.6562 37.9563C91.536 37.9 91.4211 37.8395 91.3114 37.7769C91.2016 37.7143 91.0971 37.6444 90.9968 37.5651C90.908 37.4817 90.8359 37.3857 90.7774 37.2762C90.7199 37.1718 90.6917 37.0487 90.6917 36.9079C90.6969 36.5115 90.8328 36.2298 91.0992 36.0629C91.3552 35.9012 91.6531 35.8199 91.9937 35.8199C92.1076 35.8199 92.257 35.8303 92.4399 35.8512C92.6238 35.8825 92.8035 35.9325 92.9812 36.0003L92.9342 36.4312C92.6468 36.3102 92.3511 36.2476 92.048 36.2424C91.792 36.2424 91.5883 36.2893 91.4368 36.3842C91.3584 36.4312 91.2978 36.4959 91.256 36.5793C91.209 36.6628 91.186 36.7723 91.186 36.9079C91.186 36.9914 91.2142 37.0696 91.2717 37.1426C91.3291 37.2104 91.4054 37.273 91.4995 37.3304C91.5935 37.3836 91.7001 37.4379 91.8213 37.4952C91.9415 37.5474 92.0585 37.6048 92.1745 37.6674C92.4347 37.7769 92.6625 37.9229 92.8558 38.1055C93.0491 38.288 93.1484 38.5415 93.1536 38.8649C93.1536 39.0736 93.1118 39.2488 93.0282 39.3897C92.9394 39.5357 92.8265 39.6525 92.6917 39.7412C92.3981 39.9133 92.0878 39.9999 91.7576 39.9999C91.3709 39.9999 90.9968 39.9373 90.6374 39.8121L90.6844 39.3271C90.9874 39.4888 91.3344 39.5722 91.7272 39.5774Z" fill="black"/>
<path fill-rule="evenodd" clip-rule="evenodd" d="M96.0387 39.906H95.4588L94.1024 35.9138H94.6437L95.7493 39.3667H95.7639L96.9248 35.9138H97.4421L96.0387 39.906Z" fill="black"/>
<path fill-rule="evenodd" clip-rule="evenodd" d="M98.7441 39.906H99.2383V35.9138H98.7441V39.906ZM98.7441 34.8497H99.2383V34.1925H98.7441V34.8497Z" fill="black"/>
<path fill-rule="evenodd" clip-rule="evenodd" d="M100.727 39.4919L103.135 36.3363H100.821V35.9138H103.708V36.3363L101.3 39.4835H103.708V39.906H100.727V39.4919Z" fill="black"/>
<path fill-rule="evenodd" clip-rule="evenodd" d="M105.189 36.8057C105.189 36.4354 105.178 36.138 105.158 35.9138H105.651V36.6815H105.667C105.761 36.4458 105.895 36.2455 106.067 36.0786C106.234 35.9117 106.443 35.8251 106.694 35.8199C106.825 35.8251 106.94 35.8407 107.04 35.8668V36.3842C106.93 36.3519 106.809 36.3363 106.678 36.3363C106.485 36.3425 106.325 36.3895 106.2 36.4781C106.075 36.571 105.973 36.6993 105.895 36.861C105.822 37.0174 105.769 37.1875 105.738 37.37C105.701 37.563 105.683 37.7508 105.683 37.9334V39.906H105.189V36.8057Z" fill="black"/>
<path fill-rule="evenodd" clip-rule="evenodd" d="M110.662 37.8948H110.521C110.306 37.8948 110.092 37.9 109.878 37.9104C109.653 37.9313 109.45 37.9751 109.266 38.0429C109.083 38.1055 108.937 38.2025 108.827 38.3329C108.707 38.4633 108.647 38.6375 108.647 38.8576C108.647 39.1132 108.731 39.2958 108.898 39.4053C109.055 39.5201 109.248 39.5774 109.478 39.5774C109.765 39.5774 109.993 39.5201 110.16 39.4053C110.322 39.2958 110.439 39.1654 110.513 39.0141C110.591 38.8524 110.636 38.6928 110.646 38.5363C110.656 38.3746 110.662 38.2411 110.662 38.1368V37.8948ZM110.709 39.2645H110.693C110.578 39.4992 110.403 39.6786 110.167 39.8048C109.932 39.93 109.685 39.9947 109.422 39.9999C109.145 39.9947 108.921 39.9509 108.748 39.8674C108.571 39.7882 108.435 39.6901 108.341 39.5691C108.174 39.3083 108.095 39.0767 108.106 38.8722C108.106 38.5395 108.186 38.2755 108.348 38.0825C108.505 37.8896 108.707 37.7508 108.952 37.6674C109.198 37.5787 109.464 37.5213 109.753 37.4952C110.035 37.4796 110.306 37.4723 110.568 37.4723H110.662V37.2678C110.677 36.5845 110.374 36.2424 109.753 36.2424C109.339 36.2382 108.947 36.3477 108.576 36.571V36.0942C108.947 35.9221 109.339 35.8303 109.753 35.8199C110.698 35.8094 111.166 36.305 111.156 37.3075V39.0684C111.151 39.3709 111.163 39.6505 111.196 39.906H110.709V39.2645Z" fill="black"/>
<path fill-rule="evenodd" clip-rule="evenodd" d="M22.2215 1.81306C22.2215 1.81306 18.0741 0 11.1315 0H11.1294C4.1857 0 0.0382992 1.81306 0.0382992 1.81306C0.0382992 1.81306 -0.333702 9.84142 1.24103 14.3814C4.02164 22.3628 11.1283 24.6056 11.1283 24.6056H11.1325C11.1325 24.6056 18.2382 22.3628 21.0198 14.3814C22.5945 9.84142 22.2215 1.81306 22.2215 1.81306Z" fill="#D8232A"/>
<path fill-rule="evenodd" clip-rule="evenodd" d="M18.5015 8.7346V13.1577H13.3311V18.3183H8.9005V13.1577H3.73114V8.7346H8.9005V3.575H13.33L13.3311 8.7346H18.5015Z" fill="#FFFFFE"/>
</svg>
