<svg width="153" height="21" viewBox="0 0 153 21" fill="none" xmlns="http://www.w3.org/2000/svg">
<path d="M89.6984 19.9864H103.799V16.0546H96.7485L103.202 9.93857V5.7884H90.2408V9.72014H96.2604L89.6984 15.7816V19.9864ZM119.634 12.8328C119.634 8.90103 117.248 5.35154 111.933 5.35154C106.619 5.35154 104.232 8.84642 104.232 12.8328C104.232 16.7645 106.619 20.314 111.933 20.314C117.248 20.314 119.634 16.7645 119.634 12.8328ZM114.211 12.8328C114.211 14.3618 113.94 16.3823 111.879 16.3823C109.818 16.3823 109.547 14.3618 109.547 12.8328C109.547 11.3038 109.818 9.33789 111.879 9.33789C113.94 9.33789 114.211 11.3038 114.211 12.8328ZM121.044 19.9864H126.467V12.4505C126.467 10.157 127.715 9.72014 128.636 9.72014C130.209 9.72014 130.426 10.8669 130.426 12.5051V19.9864H135.849V10.2116C135.849 6.93516 133.517 5.40615 131.023 5.40615C128.853 5.40615 127.443 6.17065 126.413 7.59045H126.359V5.7884H121.153V19.9864H121.044ZM142.249 11.2491C142.52 9.72014 143.442 8.84642 145.014 8.84642C146.424 8.84642 147.4 9.93857 147.4 11.2491H142.249ZM152.607 14.0887C152.607 8.51877 150.166 5.40615 144.58 5.40615C140.133 5.40615 137.097 8.79181 137.097 12.942C137.097 17.6928 140.513 20.3686 145.014 20.3686C148.214 20.3686 151.197 18.9488 152.281 15.8908H147.238C146.804 16.6007 145.828 16.9283 144.96 16.9283C143.279 16.9283 142.357 15.7816 142.194 14.1433H152.607V14.0887Z" fill="#FF0000"/>
<path d="M0 19.9864H5.42312V12.2321C5.42312 10.7577 5.9112 9.66553 7.26698 9.66553C8.89392 9.66553 9.05661 10.8669 9.05661 12.2321V19.9317H14.4797V12.2321C14.4797 10.7577 14.9678 9.66553 16.3236 9.66553C17.9505 9.66553 18.1132 10.8669 18.1132 12.2321V19.9317H23.5364V10.2116C23.5364 7.91809 22.289 5.40615 18.7098 5.40615C15.1847 5.40615 14.1001 7.48123 13.8832 7.64505C13.2324 6.22526 11.6055 5.40615 10.087 5.40615C8.13468 5.40615 6.56198 6.00683 5.47735 7.64505H5.42312V5.73379H0.216925V19.9864H0ZM40.1853 12.8328C40.1853 8.90103 37.7992 5.35154 32.4845 5.35154C27.1698 5.35154 24.7837 8.84642 24.7837 12.8328C24.7837 16.7645 27.1698 20.314 32.4845 20.314C37.7992 20.314 40.1853 16.7645 40.1853 12.8328ZM34.8164 12.8328C34.8164 14.3618 34.5453 16.3823 32.4845 16.3823C30.4237 16.3823 30.1526 14.3618 30.1526 12.8328C30.1526 11.3038 30.4237 9.33789 32.4845 9.33789C34.5453 9.33789 34.8164 11.3038 34.8164 12.8328ZM51.5739 12.8874C51.5739 14.5802 51.14 16.3823 49.1877 16.3823C47.2354 16.3823 46.8015 14.5802 46.8015 12.8874C46.8015 11.2491 47.2354 9.39249 49.1877 9.39249C51.14 9.4471 51.5739 11.2491 51.5739 12.8874ZM41.5954 19.9864H46.8015V18.4573H46.8558C47.5608 19.3311 48.3742 20.3686 50.9773 20.3686C54.9905 20.3686 56.9428 16.4369 56.9428 12.8874C56.9428 9.55632 55.6412 5.56997 50.9231 5.56997C49.2962 5.56997 47.8862 6.27987 47.0727 7.48123H47.0185V0.546076H41.5954V19.9864ZM58.4613 19.9864H63.8844V5.46075H58.4613V19.9864ZM63.8844 0H58.4613V3.87713H63.8844V0ZM66.0536 19.9864H71.4768V0.382256H66.0536V19.9864ZM78.0387 11.2491C78.3099 9.72014 79.2318 8.84642 80.8045 8.84642C82.2145 8.84642 83.1907 9.93857 83.1907 11.2491H78.0387ZM88.3969 14.0887C88.3969 8.51877 85.9565 5.40615 80.3707 5.40615C75.9237 5.40615 72.8868 8.79181 72.8868 12.942C72.8868 17.6928 76.3033 20.3686 80.8045 20.3686C84.0042 20.3686 86.9869 18.9488 88.0715 15.8908H83.028C82.5942 16.6007 81.618 16.9283 80.7503 16.9283C79.0691 16.9283 78.1472 15.7816 77.9845 14.1433H88.3969V14.0887Z" fill="black"/>
<path d="M0 19.9864H5.42312V12.2321C5.42312 10.7577 5.9112 9.66553 7.26698 9.66553C8.89392 9.66553 9.05661 10.8669 9.05661 12.2321V19.9317H14.4797V12.2321C14.4797 10.7577 14.9678 9.66553 16.3236 9.66553C17.9505 9.66553 18.1132 10.8669 18.1132 12.2321V19.9317H23.5364V10.2116C23.5364 7.91809 22.289 5.40615 18.7098 5.40615C15.1847 5.40615 14.1001 7.48123 13.8832 7.64505C13.2324 6.22526 11.6055 5.40615 10.087 5.40615C8.13468 5.40615 6.56198 6.00683 5.47735 7.64505H5.42312V5.73379H0.216925V19.9864H0ZM40.1853 12.8328C40.1853 8.90103 37.7992 5.35154 32.4845 5.35154C27.1698 5.35154 24.7837 8.84642 24.7837 12.8328C24.7837 16.7645 27.1698 20.314 32.4845 20.314C37.7992 20.314 40.1853 16.7645 40.1853 12.8328ZM34.8164 12.8328C34.8164 14.3618 34.5453 16.3823 32.4845 16.3823C30.4237 16.3823 30.1526 14.3618 30.1526 12.8328C30.1526 11.3038 30.4237 9.33789 32.4845 9.33789C34.5453 9.33789 34.8164 11.3038 34.8164 12.8328ZM51.5739 12.8874C51.5739 14.5802 51.14 16.3823 49.1877 16.3823C47.2354 16.3823 46.8015 14.5802 46.8015 12.8874C46.8015 11.2491 47.2354 9.39249 49.1877 9.39249C51.14 9.4471 51.5739 11.2491 51.5739 12.8874ZM41.5954 19.9864H46.8015V18.4573H46.8558C47.5608 19.3311 48.3742 20.3686 50.9773 20.3686C54.9905 20.3686 56.9428 16.4369 56.9428 12.8874C56.9428 9.55632 55.6412 5.56997 50.9231 5.56997C49.2962 5.56997 47.8862 6.27987 47.0727 7.48123H47.0185V0.546076H41.5954V19.9864ZM58.4613 19.9864H63.8844V5.46075H58.4613V19.9864ZM63.8844 0H58.4613V3.87713H63.8844V0ZM66.0536 19.9864H71.4768V0.382256H66.0536V19.9864ZM78.0387 11.2491C78.3099 9.72014 79.2318 8.84642 80.8045 8.84642C82.2145 8.84642 83.1907 9.93857 83.1907 11.2491H78.0387ZM88.3969 14.0887C88.3969 8.51877 85.9565 5.40615 80.3707 5.40615C75.9237 5.40615 72.8868 8.79181 72.8868 12.942C72.8868 17.6928 76.3033 20.3686 80.8045 20.3686C84.0042 20.3686 86.9869 18.9488 88.0715 15.8908H83.028C82.5942 16.6007 81.618 16.9283 80.7503 16.9283C79.0691 16.9283 78.1472 15.7816 77.9845 14.1433H88.3969V14.0887Z" fill="black"/>
</svg>
