<svg width="138" height="44" viewBox="0 0 138 44" fill="none" xmlns="http://www.w3.org/2000/svg">
<path d="M113.753 17.7636C110.964 17.7636 108.763 19.9622 108.763 22.8936C108.763 25.8251 110.964 28.0237 113.753 28.0237C116.542 28.0237 118.744 25.8251 118.744 22.8936C118.744 19.9622 116.542 17.7636 113.753 17.7636ZM122.707 14.9787C125.055 17.0308 126.229 19.9622 126.229 23.0402C126.229 26.1182 124.908 28.9031 122.56 30.9551C120.211 33.0071 116.982 34.0331 113.313 34.0331C109.937 34.0331 106.855 32.8605 104.653 30.8085C102.451 28.7565 101.13 25.9716 101.13 23.0402C101.13 19.8156 102.451 17.0308 104.653 14.8322C107.001 12.7802 110.084 11.6076 113.606 11.6076C117.129 11.6076 120.358 12.9267 122.707 14.9787ZM86.5992 27.7305C89.5347 27.7305 91.7364 25.5319 91.7364 22.7471C91.7364 19.9622 89.5347 17.7636 86.5992 17.7636C83.5168 17.7636 81.4619 19.8156 81.4619 22.7471C81.4619 25.6785 83.6636 27.7305 86.5992 27.7305ZM98.4882 12.1939C98.635 12.1939 98.7818 12.3405 98.7818 12.487V31.9811C98.7818 35.2057 98.3414 37.1111 97.314 38.87C95.4059 42.2411 91.7364 44 86.5992 44C82.1958 44 78.8199 42.974 76.765 40.922C75.2972 39.4563 74.7101 37.9905 74.4166 35.4988C74.4166 35.3523 74.4166 35.3523 74.5633 35.2057C74.5633 35.2057 74.7101 35.0591 74.8569 35.0591H82.1958C82.3426 35.0591 82.4894 35.2057 82.4894 35.3523C82.9297 37.4043 84.2507 38.2837 86.4524 38.2837C88.3605 38.2837 89.8283 37.5508 90.7089 36.5248C91.4428 35.6454 91.5896 34.4728 91.5896 32.1277V31.1017C89.6815 32.8605 87.7734 33.5934 84.9846 33.5934C81.9023 33.5934 79.1135 32.5674 77.0586 30.5154C75.0037 28.6099 73.9762 25.8251 73.9762 22.7471C73.9762 16.4445 78.5264 11.6076 84.691 11.6076C87.4798 11.6076 89.5347 12.3405 91.5896 13.9527V12.3405C91.5896 12.1939 91.7364 12.0473 91.8832 12.0473H98.4882V12.1939ZM63.2614 11.7542C66.7841 11.7542 69.4261 13.2199 70.6003 15.7116C71.1874 17.1773 71.481 18.7896 71.481 21.5745V33.4468C71.481 33.5934 71.3342 33.74 71.1874 33.74H64.5824C64.4356 33.74 64.2889 33.5934 64.2889 33.4468V22.1608C64.2889 19.0828 63.2614 17.7636 60.913 17.7636C59.592 17.7636 58.271 18.3499 57.5371 19.0828C56.8032 19.8156 56.6564 20.5485 56.6564 22.0142V33.3002C56.6564 33.4468 56.5096 33.5934 56.3628 33.5934H49.7578C49.611 33.5934 49.4643 33.4468 49.4643 33.3002V12.487C49.4643 12.3405 49.611 12.1939 49.7578 12.1939H56.3628C56.5096 12.1939 56.6564 12.3405 56.6564 12.487V14.3925C58.7113 12.487 60.6194 11.7542 63.2614 11.7542ZM45.7948 12.1939C45.9416 12.1939 46.0884 12.3405 46.0884 12.487V33.3002C46.0884 33.4468 45.9416 33.5934 45.7948 33.5934H39.1898C39.043 33.5934 38.8962 33.4468 38.8962 33.3002V12.487C38.8962 12.3405 39.043 12.1939 39.1898 12.1939H45.7948ZM35.9607 12.1939C36.1074 12.1939 36.1074 12.1939 36.2542 12.3405C36.2542 12.3405 36.401 12.487 36.2542 12.6336L28.475 33.4468C28.475 33.5934 28.3282 33.5934 28.1814 33.5934H21.7232C21.5764 33.5934 21.4296 33.5934 21.4296 33.4468L18.0537 23.6265L14.3843 33.4468C14.3843 33.5934 14.2375 33.5934 14.0907 33.5934H7.92602C7.77925 33.5934 7.63247 33.4468 7.63247 33.4468L0 12.6336V12.3405C0 12.1939 0.146778 12.1939 0.293556 12.1939H6.89858C7.04535 12.1939 7.19213 12.3405 7.19213 12.3405L11.1551 24.0662L15.5585 12.3405C15.5585 12.1939 15.7053 12.1939 15.852 12.1939H20.1086C20.2554 12.1939 20.4022 12.3405 20.4022 12.3405L24.8055 24.2128L29.0621 12.3405C29.0621 12.1939 29.2089 12.1939 29.3556 12.1939H35.9607Z" fill="#4E4E51"/>
<path d="M136.357 6.62415C136.357 5.59814 137.678 4.71871 137.972 3.39956C138.118 2.52013 137.678 1.6407 137.091 1.05441C136.504 0.468123 135.476 0.0284084 134.742 0.17498C133.275 0.468124 132.394 1.78727 131.513 1.78727C130.633 1.78727 129.458 0.321552 128.137 0.0284078C127.257 -0.118164 126.376 0.321552 125.789 0.90784C125.202 1.49413 124.762 2.52013 124.908 3.25299C125.202 4.71871 126.523 5.59814 126.523 6.47758C126.523 7.35701 125.202 8.38301 124.908 9.70216C124.762 10.5816 125.202 11.461 125.789 12.0473C126.376 12.6336 127.404 13.0733 128.137 12.9267C129.605 12.6336 130.486 11.3145 131.367 11.3145C132.247 11.3145 133.275 12.6336 134.596 12.9267C135.476 13.0733 136.357 12.6336 136.944 12.0473C137.531 11.461 137.972 10.435 137.825 9.70216C137.678 8.52958 136.357 7.65015 136.357 6.62415Z" fill="#FF565A"/>
</svg>
