<svg width="138" height="32" viewBox="0 0 138 32" fill="none" xmlns="http://www.w3.org/2000/svg">
<path d="M95.3937 0.973168V31.0268H99.9672V0.973168H95.3937ZM46.5321 0.459784C37.6223 0.459745 30.7093 6.85066 30.7093 16C30.7093 25.5614 37.6223 31.5404 46.5321 31.5402C55.4418 31.5401 62.369 25.5614 62.3548 16C62.3419 7.33134 55.4418 0.459823 46.5321 0.459784ZM57.7896 16C57.7896 22.7733 52.7494 27.2619 46.5321 27.2619C40.3147 27.2619 35.2745 22.7733 35.2745 16C35.2745 9.3496 40.3147 4.73812 46.5321 4.73812C52.7494 4.73812 57.7896 9.3496 57.7896 16ZM0 2.71201e-06V31.0268H4.66758V10.5225L28.923 32V25.5673L0 2.71201e-06ZM65.7946 16L82.7683 31.0269H89.5742L72.5749 16L89.5742 0.973152H82.7683L65.7946 16ZM138 31.0268H132.969L129.29 24.3715H112.626L108.946 31.0268H103.915L110.008 19.9341H126.897L118.475 4.51831L120.958 0L138 31.0268Z" fill="#005AFF"/>
</svg>
