<svg width="183" height="175" viewBox="0 0 183 175" fill="none" xmlns="http://www.w3.org/2000/svg">
<path d="M113.306 92.013C122.598 92.013 129.935 98.6161 130.057 107.013C130.22 115.409 122.15 122.827 112.98 122.624C103.769 122.461 96.1473 115.409 96.2288 107.053C96.3103 98.6976 103.81 91.9722 113.347 92.013" fill="#161F32"/>
<path d="M86.4879 68.7391C87.5476 76.565 78.6626 84.1463 70.1037 83.7387C60.1998 83.3311 53.9232 77.5432 53.4341 68.4945C52.9858 60.261 61.667 53.2911 70.1852 53.2911C78.7034 53.2911 87.6291 60.3425 86.4471 68.7391" fill="#161F32"/>
<path d="M143.221 75.0976C143.221 81.4154 136.904 87.5701 130.179 87.6924C123.495 87.8147 116.526 81.2523 116.974 75.1791C117.83 67.9239 124.351 62.7474 131.606 63.6033C137.678 64.2962 142.488 69.1059 143.181 75.1791V75.0976H143.221Z" fill="#161F32"/>
<path d="M92.846 124.499C92.846 131.672 87.5883 136.482 79.763 136.441C71.9377 136.441 66.5578 131.265 66.5578 124.009C66.5578 117.773 72.8344 112.067 79.9261 112.23C87.6699 112.434 93.5388 118.059 92.846 124.499Z" fill="#161F32"/>
<path d="M40.7588 100.98C40.7588 94.377 46.424 89.2005 53.8417 89.282C61.2187 89.3636 67.4137 94.7846 67.0469 101.062C66.5986 108.317 62.0746 113.412 53.8417 113.453C47.1984 114.023 41.3701 109.091 40.7995 102.447C40.7995 101.958 40.7588 101.428 40.7995 100.939" fill="#161F32"/>
<path d="M104.38 39.9626C112.246 39.9626 117.585 44.8538 117.585 52.2721C117.585 58.6714 111.676 64.0924 104.502 64.2147C97.3292 64.337 91.1749 58.5491 91.2972 52.3944C91.2972 45.0168 96.6364 40.0034 104.38 40.0034" fill="#161F32"/>
<path d="M48.6656 121.564C53.3119 121.319 57.2245 124.906 57.4691 129.512V129.594C57.2245 134.036 53.5972 137.542 49.1139 137.623C44.7122 137.786 40.3105 133.955 40.3105 129.96C40.3105 125.355 44.0193 121.605 48.6248 121.605L48.6656 121.564Z" fill="#161F32"/>
<path d="M134.214 53.5764C129.731 53.7802 125.94 50.3564 125.696 45.8728C125.696 45.7505 125.696 45.6282 125.696 45.5467C125.696 41.5115 129.731 37.8839 134.377 37.9246C138.86 37.9246 142.61 41.2669 143.018 45.7098C142.814 50.2749 138.983 53.821 134.459 53.6172C134.377 53.6172 134.296 53.6172 134.255 53.6172" fill="#161F32"/>
<path d="M19.1577 130.327C18.9131 126.455 21.8476 123.113 25.7603 122.868C25.9641 122.868 26.2086 122.868 26.4124 122.868C31.7108 122.868 33.6671 125.762 34.1562 130.205C34.5637 133.751 30.4881 137.012 26.4939 137.012C22.6628 137.134 19.4022 134.159 19.1577 130.327Z" fill="#161F32"/>
<path d="M133.358 31.4438C129.242 31.5253 125.818 28.3461 125.655 24.2293C125.859 20.3164 129.12 17.2186 133.032 17.1779C136.986 16.9741 140.409 19.9903 140.654 23.944C140.694 28.02 137.434 31.403 133.358 31.4438Z" fill="#161F32"/>
<path d="M165.556 46.8918C165.556 50.8047 162.377 53.984 158.464 53.984C154.226 53.984 150.761 50.6417 150.598 46.4027C151.006 42.449 154.511 39.5958 158.464 39.9219C162.173 39.6773 165.352 42.4897 165.597 46.1989C165.597 46.4027 165.597 46.6472 165.597 46.8918" fill="#161F32"/>
<path d="M57.6728 152.011C57.6728 155.924 54.5346 159.104 50.6219 159.144C46.6685 159.144 43.3672 156.169 42.8374 152.297C42.7151 149.118 47.0353 144.96 50.4589 144.96C54.2085 145.368 57.1838 148.302 57.6728 152.052" fill="#161F32"/>
<path d="M0.00197987 128.248C0.0834935 125.191 2.65117 122.787 5.70793 122.909C5.78944 122.909 5.87096 122.909 5.95247 122.909C9.1315 122.909 11.6584 125.518 11.6584 128.656C11.6584 128.778 11.6584 128.901 11.6584 128.982C11.0878 131.917 8.52015 134.036 5.50415 134.036C2.36587 133.955 -0.0795337 131.387 0.00197987 128.248Z" fill="#161F32"/>
<path d="M132.951 11.0231C129.894 10.697 127.489 8.29221 127.122 5.27598C127.082 2.42279 129.364 0.0587187 132.217 0.0179589C132.38 0.0179589 132.584 0.0179589 132.747 0.0179589C135.763 -0.2266 138.371 2.05595 138.616 5.07218C138.168 8.04765 135.885 10.4525 132.951 11.0231Z" fill="#161F32"/>
<path d="M183 46.3619C182.878 49.6227 180.147 52.1906 176.886 52.0683C173.87 51.946 171.425 49.6227 171.181 46.6065C171.425 43.631 173.952 41.3077 176.927 41.3892C179.943 41.2262 182.552 43.3864 183 46.3619Z" fill="#161F32"/>
<path d="M45.5681 169.783C45.5681 166.726 48.0135 164.239 51.0702 164.199H51.1925C54.2493 164.402 56.6947 166.848 56.8577 169.946C56.8577 172.717 54.6161 175 51.8446 175C51.6001 175 51.3555 175 51.111 174.959C48.4211 175.285 45.9757 173.41 45.6088 170.72C45.6088 170.394 45.5681 170.109 45.6088 169.783" fill="#161F32"/>
</svg>
