<svg width="206" height="208" viewBox="0 0 206 208" fill="none" xmlns="http://www.w3.org/2000/svg">
<g opacity="0.3" filter="url(#filter0_i_1505_56837)">
<path d="M19.9782 95.2501C18.9241 87.6381 18.9241 79.9172 19.9782 72.3051L36.4044 68.1715C38.0832 60.9427 40.9398 54.0391 44.8599 47.7371L36.1797 33.1983C40.8208 27.075 46.2803 21.6173 52.4055 16.9779L66.9369 25.6566C73.2414 21.7393 80.1465 18.8834 87.3766 17.203L91.5195 0.781524C99.1345 -0.260508 106.856 -0.260508 114.471 0.781524L118.616 17.203C125.841 18.8887 132.741 21.7443 139.045 25.6566L153.589 16.9779C159.706 21.6257 165.165 27.0823 169.814 33.1983L161.133 47.7375C165.054 54.0394 167.91 60.943 169.589 68.1719L186.015 72.3055C187.063 79.918 187.063 87.6381 186.015 95.2505L169.589 99.3963C167.908 106.625 165.052 113.528 161.133 119.831L169.601 133.991L169.128 135.258C167.671 137.129 166.127 138.944 164.495 140.704H159.843L160.553 128.936H148.474C146.37 125.322 143.797 122.001 140.823 119.061C147.699 111.693 152.273 102.478 153.982 92.5469C155.691 82.6159 154.461 72.4021 150.443 63.1605C146.425 53.9188 139.794 46.0518 131.365 40.5261C122.936 35.0004 113.076 32.0567 102.997 32.0567C92.9173 32.0567 83.0573 35.0004 74.6283 40.5261C66.1993 46.0518 59.5684 53.9188 55.5505 63.1605C51.5326 72.4021 50.3027 82.6159 52.0117 92.5469C53.7208 102.478 58.2945 111.693 65.1708 119.061C62.1966 122.001 59.6242 125.322 57.5203 128.936H45.4409L46.1513 140.704H41.4972C39.8629 138.94 38.3187 137.125 36.8648 135.258L36.395 133.99L44.8623 119.829C40.9442 113.527 38.0877 106.623 36.4068 99.3951L19.9782 95.2501ZM128.163 75.2651C128.163 68.5924 125.511 62.1929 120.792 57.4746C116.072 52.7563 109.671 50.1056 102.997 50.1056C96.3221 50.1056 89.921 52.7563 85.2015 57.4746C80.4819 62.1929 77.8305 68.5924 77.8305 75.2651C77.8309 121.085 128.163 121.085 128.163 75.2651H128.163ZM64.4365 128.934H141.558C135.079 119.687 125.321 113.566 113.123 113.566H92.8714C80.6612 113.566 70.9147 119.687 64.4365 128.934ZM178.803 131.468C178.21 131.468 177.631 131.65 177.144 131.988C176.658 132.327 176.286 132.807 176.08 133.363L171.166 146.552H159.499L159.144 152.402H173.178C173.819 152.403 174.443 152.193 174.953 151.804C175.462 151.414 175.829 150.868 175.996 150.249L180.828 137.308H193.441C194.101 138.648 195.196 139.726 196.547 140.365C197.898 141.005 199.426 141.168 200.882 140.829C202.337 140.49 203.636 139.668 204.565 138.498C205.494 137.328 206 135.877 206 134.383C206 132.889 205.494 131.438 204.565 130.268C203.636 129.098 202.337 128.276 200.882 127.937C199.426 127.598 197.898 127.761 196.547 128.401C195.196 129.04 194.101 130.118 193.441 131.458H178.803V131.468ZM193.713 158.084C192.478 158.083 191.267 158.429 190.218 159.082C189.169 159.735 188.325 160.669 187.78 161.778H158.575L158.22 167.628H187.78C188.302 168.686 189.097 169.585 190.084 170.232C191.071 170.88 192.213 171.252 193.391 171.309C194.57 171.367 195.743 171.109 196.788 170.561C197.833 170.013 198.713 169.196 199.336 168.194C199.959 167.192 200.302 166.041 200.331 164.862C200.36 163.682 200.072 162.517 199.499 161.485C198.925 160.454 198.086 159.595 197.069 158.997C196.052 158.399 194.893 158.084 193.713 158.085L193.713 158.084ZM48.4013 208H157.592V194.609H48.4013V208ZM199.374 188.405C198.139 188.405 196.928 188.75 195.879 189.403C194.83 190.056 193.985 190.99 193.441 192.099H180.828L175.996 179.146C175.827 178.53 175.459 177.986 174.95 177.598C174.44 177.211 173.818 177.002 173.178 177.004H157.652L157.297 182.854H171.165L176.08 196.031C176.285 196.589 176.656 197.07 177.142 197.411C177.629 197.751 178.208 197.935 178.802 197.938H193.44C193.961 198.997 194.755 199.897 195.741 200.546C196.727 201.195 197.869 201.568 199.047 201.627C200.226 201.686 201.399 201.428 202.445 200.881C203.491 200.334 204.371 199.517 204.995 198.515C205.619 197.513 205.963 196.363 205.992 195.183C206.021 194.004 205.734 192.838 205.16 191.807C204.586 190.775 203.747 189.916 202.73 189.318C201.712 188.72 200.553 188.406 199.373 188.407L199.374 188.405ZM48.3419 177.003H32.8162C32.1763 177.002 31.5538 177.211 31.0444 177.598C30.5351 177.985 30.1673 178.529 29.9977 179.146L25.1657 192.099H12.5532C11.894 190.759 10.8004 189.682 9.45063 189.042C8.10084 188.403 6.57426 188.239 5.11941 188.577C3.66455 188.916 2.36708 189.736 1.4382 190.906C0.509321 192.075 0.00373125 193.525 0.00373125 195.018C0.00373125 196.511 0.509321 197.961 1.4382 199.13C2.36708 200.299 3.66455 201.12 5.11941 201.458C6.57426 201.797 8.10084 201.633 9.45063 200.993C10.8004 200.354 11.894 199.276 12.5532 197.936H27.191C27.7851 197.934 28.3642 197.75 28.8508 197.409C29.3374 197.069 29.7082 196.588 29.9136 196.03L34.8305 182.852H48.6983L48.3419 177.003ZM51.646 134.783H154.348L151.079 188.76H54.903L51.646 134.783ZM94.151 161.777C94.1509 163.527 94.6696 165.237 95.6416 166.691C96.6137 168.146 97.9954 169.28 99.6119 169.949C101.229 170.619 103.007 170.794 104.724 170.453C106.44 170.111 108.016 169.269 109.253 168.032C110.491 166.795 111.333 165.219 111.675 163.503C112.016 161.788 111.841 160.009 111.171 158.393C110.501 156.777 109.367 155.396 107.912 154.424C106.457 153.452 104.747 152.933 102.997 152.934C100.652 152.938 98.4044 153.871 96.7463 155.529C95.0881 157.186 94.1546 159.433 94.1502 161.778L94.151 161.777ZM12.281 158.084C11.102 158.084 9.94456 158.4 8.92858 158.998C7.9126 159.596 7.07497 160.455 6.50242 161.485C5.92986 162.515 5.64319 163.68 5.67209 164.858C5.70099 166.037 6.0444 167.186 6.66677 168.187C7.28914 169.188 8.16785 170.004 9.21192 170.552C10.256 171.1 11.4275 171.358 12.6051 171.301C13.7827 171.244 14.9236 170.873 15.9097 170.227C16.8958 169.581 17.6913 168.683 18.2138 167.626H47.773L47.4179 161.776H18.2142C17.6696 160.668 16.825 159.734 15.7762 159.081C14.7273 158.428 13.5164 158.083 12.281 158.084ZM6.61998 140.999C7.85551 141 9.06644 140.654 10.1152 140.001C11.1639 139.348 12.0085 138.414 12.5528 137.305H25.1657L29.9977 150.246C30.1649 150.865 30.5318 151.411 31.0414 151.801C31.551 152.19 32.1749 152.4 32.8162 152.399H46.8502L46.4946 146.549H34.8297L29.9148 133.363C29.7088 132.807 29.3375 132.327 28.8508 131.988C28.364 131.65 27.7853 131.468 27.1922 131.468V131.456H12.5532C12.0312 130.398 11.2356 129.499 10.249 128.852C9.26233 128.204 8.12048 127.832 6.94175 127.775C5.76302 127.717 4.59029 127.975 3.54508 128.523C2.49987 129.071 1.6202 129.888 0.997218 130.89C0.374238 131.892 0.0306148 133.043 0.00195257 134.222C-0.0267096 135.402 0.260632 136.567 0.834205 137.599C1.40778 138.63 2.24671 139.489 3.26408 140.087C4.28146 140.685 5.43984 141 6.61998 140.999Z" fill="black"/>
</g>
<defs>
<filter id="filter0_i_1505_56837" x="0" y="0" width="206" height="212" filterUnits="userSpaceOnUse" color-interpolation-filters="sRGB">
<feFlood flood-opacity="0" result="BackgroundImageFix"/>
<feBlend mode="normal" in="SourceGraphic" in2="BackgroundImageFix" result="shape"/>
<feColorMatrix in="SourceAlpha" type="matrix" values="0 0 0 0 0 0 0 0 0 0 0 0 0 0 0 0 0 0 127 0" result="hardAlpha"/>
<feOffset dy="4"/>
<feGaussianBlur stdDeviation="2"/>
<feComposite in2="hardAlpha" operator="arithmetic" k2="-1" k3="1"/>
<feColorMatrix type="matrix" values="0 0 0 0 0.0627451 0 0 0 0 0.713726 0 0 0 0 0.756863 0 0 0 1 0"/>
<feBlend mode="normal" in2="shape" result="effect1_innerShadow_1505_56837"/>
</filter>
</defs>
</svg>
