<svg width="146" height="26" viewBox="0 0 146 26" fill="none" xmlns="http://www.w3.org/2000/svg">
<path d="M26.7602 0.530753C25.5812 -0.103393 24.1336 0.379109 23.5266 1.60604L14.8655 20.0308C14.6632 20.4271 14.4888 20.6994 14.0283 20.6994C13.5679 20.6994 13.39 20.4271 13.1912 20.0308L4.53352 1.6026C3.92657 0.375663 2.47898 -0.103393 1.29998 0.527306C0.120973 1.16145 -0.339466 2.66755 0.267477 3.89104L9.68904 22.881C10.5297 24.5801 12.1936 25.6347 14.0318 25.6347C15.8666 25.6347 17.5305 24.5801 18.3746 22.881L27.7962 3.89104C28.3996 2.671 27.9357 1.1649 26.7602 0.530753Z" fill="#F5F5F5"/>
<path d="M141.678 0.251591C140.049 0.244698 138.623 1.25106 137.939 2.63309C135.738 7.06866 129.267 20.2651 129.239 20.3099C129.19 20.3926 129.054 20.6994 128.775 20.6994C128.514 20.6994 128.36 20.4099 128.311 20.3065C126.166 15.926 121.935 7.27545 119.713 2.79852C118.858 1.07184 117.425 0.248144 115.876 0.248144H115.873C113.49 0.248144 111.561 2.23674 111.561 4.94221V23.0809C111.561 24.1837 112.2 25.2039 113.18 25.5244C114.777 26.0414 116.148 24.6628 116.148 23.0326L115.813 5.35233C115.813 5.16967 116.037 5.10419 116.12 5.26272L124.956 22.9327C125.776 24.6249 127.199 25.6347 128.775 25.6347C130.349 25.6347 131.772 24.6249 132.595 22.9327L141.434 5.26617C141.521 5.10074 141.751 5.16622 141.751 5.35923L141.413 23.1394C141.413 24.5456 142.477 25.6795 143.778 25.6347C145.034 25.5933 146 24.4008 146 23.0326C146 23.0326 146 9.46739 146 4.9491C146.003 2.21607 144.068 0.26193 141.678 0.251591Z" fill="#F5F5F5"/>
<path d="M108.628 21.9504L98.8922 2.97428C98.048 1.28552 96.3877 0.237805 94.5599 0.237805C93.4123 0.237805 92.3344 0.647932 91.4798 1.37169C90.967 1.80249 90.5345 2.34703 90.2206 2.97773L80.5339 21.8643C80.5234 21.8849 80.5165 21.9056 80.506 21.9229L80.492 21.9504C80.0421 22.8293 80.1502 23.8632 80.6839 24.6145C80.6978 24.6352 80.7118 24.6524 80.7258 24.6731C80.7397 24.6938 80.7571 24.7145 80.7746 24.7352C80.949 24.9592 81.1583 25.1522 81.4129 25.3038C82.2326 25.7932 83.2024 25.7208 83.9349 25.2177C83.9453 25.2108 83.9558 25.2039 83.9628 25.197C84.0151 25.1591 84.0674 25.1212 84.1163 25.0798C84.1581 25.0453 84.1965 25.0074 84.2349 24.9695C84.2523 24.9523 84.2697 24.9385 84.2872 24.9213C84.4616 24.7455 84.6116 24.5422 84.7302 24.3078L85.0895 23.5565L87.1161 19.3587C87.1684 19.2519 87.2731 19.1829 87.3882 19.1829H96.3354C96.3354 19.1829 96.3354 19.1829 96.3388 19.1829C97.5353 19.1829 98.5085 18.1697 98.5085 16.9255C98.5085 15.6779 97.5353 14.6681 96.3388 14.6681H89.6555C89.5125 14.6681 89.4218 14.5164 89.4741 14.382L89.9729 13.3378L93.632 6.05196L93.646 6.02094C93.6529 6.00716 93.6599 5.99337 93.6669 5.97959C93.7262 5.85896 93.9215 5.33855 94.2773 5.23171C94.4727 5.17312 94.6785 5.18001 94.818 5.22137C95.1877 5.33165 95.3552 5.78314 95.5156 6.114L104.39 24.3181C104.822 25.1591 105.652 25.6416 106.51 25.6416C106.782 25.6416 107.058 25.5899 107.327 25.4899C107.344 25.483 107.361 25.4796 107.375 25.4727C107.442 25.4451 107.504 25.4141 107.567 25.3796C107.592 25.3693 107.616 25.359 107.637 25.3452C107.651 25.3383 107.661 25.3279 107.675 25.321C107.693 25.3107 107.714 25.3038 107.731 25.29C107.759 25.2728 107.784 25.2521 107.811 25.2349C107.836 25.2177 107.857 25.2039 107.878 25.1866C107.913 25.1591 107.947 25.1349 107.982 25.1074C108.021 25.0763 108.059 25.0419 108.097 25.0074C108.108 24.9971 108.118 24.9902 108.125 24.9799C108.921 24.2147 109.154 22.9775 108.628 21.9504Z" fill="#F5F5F5"/>
<path d="M33.2935 15.6917H49.6775C49.9879 15.6882 52.5238 15.4849 52.5238 12.6519C52.5273 5.6763 47.0683 0 40.3606 0C33.6563 0 28.2008 5.6763 28.2008 12.6554C28.2008 12.8139 28.2113 13.255 28.2113 13.3205C28.2008 21.2887 33.3842 25.5761 40.242 25.9724C40.5699 25.9897 40.8908 26 41.2047 26C43.8418 26 46.0672 25.3245 48.4845 23.815C48.7322 23.6633 49.6984 23.0257 50.6856 21.7678C51.4704 20.7683 51.5402 19.2691 50.6856 18.4902C49.4543 17.3666 48.188 17.9732 47.0579 18.9244C45.2824 20.4168 43.9081 21.5817 40.3676 21.5851C37.0294 21.5851 33.8726 19.7033 33.1226 15.9433C33.0947 15.8123 33.1714 15.6917 33.2935 15.6917ZM33.1121 11.0217C33.5691 7.3685 36.112 4.12884 40.3536 4.12884C44.5952 4.12884 47.2811 7.30302 47.7067 11.0217C47.7206 11.1561 47.6334 11.2837 47.5009 11.2837H33.3179C33.1854 11.2837 33.0947 11.1596 33.1121 11.0217Z" fill="#F5F5F5"/>
<path d="M60.2467 15.6917H76.6306C76.9411 15.6882 79.477 15.4849 79.477 12.6519C79.477 5.6763 74.018 0 67.3137 0C60.606 0 55.1504 5.6763 55.1504 12.6554C55.1504 12.8139 55.1609 13.255 55.1609 13.3205C55.1504 21.2887 60.3339 25.5761 67.1916 25.9724C67.5195 25.9897 67.8404 26 68.1544 26C70.7914 26 73.0169 25.3245 75.4342 23.815C75.6818 23.6633 76.6481 23.0257 77.6352 21.7678C78.4201 20.7683 78.4898 19.2691 77.6352 18.4902C76.4039 17.3666 75.1377 17.9732 74.0075 18.9244C72.232 20.4168 70.8577 21.5817 67.3172 21.5851C63.979 21.5851 60.8222 19.7033 60.0723 15.9433C60.0444 15.8123 60.1211 15.6917 60.2467 15.6917ZM60.0618 11.0217C60.5187 7.3685 63.0616 4.12884 67.3033 4.12884C71.5449 4.12884 74.2308 7.30302 74.6563 11.0217C74.6703 11.1561 74.5831 11.2837 74.4505 11.2837H60.2641C60.1351 11.2837 60.0444 11.1596 60.0618 11.0217Z" fill="#F5F5F5"/>
</svg>
