<svg width="153" height="17" viewBox="0 0 153 17" fill="none" xmlns="http://www.w3.org/2000/svg">
<path d="M99.2057 16.8345H94.9944V0.178897L108.539 0.189707C108.539 0.189707 111.018 0.100068 112.596 1.61036C112.596 1.61036 114.206 2.91334 114.206 6.09809V16.8319H110.006V5.82066C110.006 5.82066 110.057 4.69753 109.663 4.30338C109.663 4.30338 109.313 3.87527 108.65 3.87527H99.1954L99.2042 16.8286L99.2057 16.8345ZM117.133 16.8316V0.191334H134.034V3.89268L121.319 3.89173V6.72155H130.152V10.2957H121.319V13.1351H134.113V16.8374H117.123L117.133 16.8316ZM87.6556 0.191334H91.8492V16.8374H87.6556V0.191334ZM140.07 16.8316V3.8879H136.112V0.18655H151.858V3.8879H144.267V16.8316H140.07ZM73.8053 16.8316V3.8879H69.8467V0.18655H85.5924V3.8879H78.0019V16.8316H73.8053ZM61.1594 6.71007C62.1841 6.70242 62.7972 6.71103 63.0439 6.56542C63.0439 6.56542 63.4746 6.33468 63.4795 5.8395L63.4805 4.75082C63.4805 4.25335 63.0449 4.0249 63.0449 4.0249C62.718 3.8527 62.1639 3.88503 60.8484 3.88379H52.6785V6.70979H61.347L61.1594 6.71007ZM63.4191 16.8316V11.1509C63.4191 10.6403 62.9786 10.4263 62.9786 10.4263C62.78 10.3067 62.1851 10.2851 61.3093 10.2851H61.5128H52.6785V16.8307H48.4849V0.190377H61.575C63.8357 0.197074 65.3964 0.51928 66.4715 1.53067C67.5278 2.57344 67.6679 3.93765 67.6739 5.35734V6.54266C67.6875 7.74902 67.0334 8.84918 66.2533 9.49015L66.4101 9.56554C66.7284 9.71497 66.9025 9.92668 66.9025 9.92668C67.496 10.6609 67.4887 11.2928 67.4874 12.0696V16.8348H63.4192L63.4191 16.8316ZM0.00197438 0.185594V16.8268H4.19556V10.2871H16.9007V6.71103H4.19556V3.88312H18.9639V0.181767H0L0.00197438 0.185594Z" fill="#F5F5F5"/>
<path d="M150.441 13.888V14.6521H151.175C151.374 14.6521 151.566 14.5995 151.596 14.3137C151.638 13.9346 151.355 13.888 151.175 13.888H150.441ZM150.146 13.6368H151.169C151.524 13.6368 151.867 13.7014 151.897 14.2024C151.909 14.4894 151.819 14.5935 151.596 14.7573C151.831 14.9032 151.838 14.9379 151.873 15.3229C151.897 15.6146 151.855 15.6613 151.982 15.8538H151.633L151.585 15.574C151.536 15.3109 151.668 14.9032 151.193 14.9032H150.441V15.8539H150.146L150.146 13.6368ZM150.916 13.0246C149.905 13.0246 149.081 13.8234 149.088 14.8097C149.088 15.7893 149.906 16.5882 150.923 16.5834C151.935 16.5834 152.759 15.7893 152.759 14.804C152.759 13.8234 151.934 13.0246 150.916 13.0246ZM150.923 16.8149C149.774 16.8149 148.846 15.9168 148.846 14.804C148.841 13.6952 149.774 12.7911 150.923 12.7911C152.067 12.7911 153 13.6952 153 14.804C153 15.9175 152.067 16.8111 150.923 16.8149Z" fill="#F5F5F5"/>
<path d="M42.7187 16.9971C44.081 16.5486 45.1413 15.0283 45.3959 13.1169V12.5644H38.4116V16.9976H42.7177L42.7187 16.9971ZM45.3969 4.43607V3.93621C45.1292 1.94156 43.9902 0.369752 42.538 0.000478334H38.4126V4.43559L45.3969 4.43607ZM20.8159 12.5649V13.1126C21.0688 15.0259 22.1289 16.5489 23.4951 16.9976H27.7795V12.5644L20.8159 12.5649ZM23.6738 0.00382667C22.2236 0.373292 21.0815 1.94586 20.8159 3.94339V4.43971H27.7795V0.00459201L23.6738 0.00382667ZM45.4019 6.28531H38.4175V10.7204H45.4019V6.28531ZM29.6858 17H36.5181V12.5668H29.6858V17ZM36.5181 0H29.6858V4.43512H36.5181V0ZM20.8218 10.7147H27.7855V6.27957H20.8218V10.7147Z" fill="#F5F5F5"/>
</svg>
