<svg width="159" height="27" viewBox="0 0 159 27" fill="none" xmlns="http://www.w3.org/2000/svg">
<path d="M12.6142 0H8.99265V21.7447H12.6142V0Z" fill="#F5F5F5"/>
<path fill-rule="evenodd" clip-rule="evenodd" d="M13.4915 26.9887L17.1102 24.7369V5.91118C16.0374 5.1123 14.8015 4.56239 13.4915 4.30108V26.9887Z" fill="#F5F5F5"/>
<path fill-rule="evenodd" clip-rule="evenodd" d="M4.48536 24.7481L8.10689 27V4.31234C6.7968 4.5697 5.5599 5.11577 4.48536 5.91118V24.7481Z" fill="#F5F5F5"/>
<path fill-rule="evenodd" clip-rule="evenodd" d="M17.9876 1.03305V24.3428L19.6694 23.2957C20.2716 22.8979 20.7643 22.354 21.1018 21.7144C21.4394 21.0749 21.611 20.3602 21.6007 19.6364V8.6275C21.6091 5.45236 17.9876 1.03305 17.9876 1.03305Z" fill="#F5F5F5"/>
<path fill-rule="evenodd" clip-rule="evenodd" d="M0.000501399 19.6279C-0.0105326 20.3518 0.160709 21.0668 0.498336 21.7066C0.835963 22.3463 1.32903 22.89 1.93179 23.2872L3.61362 24.3343V1.03305C3.61362 1.03305 0.000501399 5.45236 0.000501399 8.6275V19.6279Z" fill="#F5F5F5"/>
<path fill-rule="evenodd" clip-rule="evenodd" d="M108.388 22.0008V4.85279L111.001 3.74937V22.0008H108.388ZM104.274 14.8173C104.287 14.3547 104.202 13.8945 104.023 13.4677C103.845 13.041 103.577 12.6575 103.239 12.3431C102.568 11.7294 101.688 11.3988 100.781 11.4198C99.8831 11.3948 99.0118 11.7266 98.3563 12.3431C97.6857 12.9967 97.2853 13.8803 97.2351 14.8173H104.274ZM100.73 22.2063C98.8935 22.2063 97.3986 21.6133 96.2456 20.4273C95.0926 19.2413 94.5199 17.6678 94.5273 15.7068C94.5273 13.7477 95.1094 12.178 96.2736 10.9976C97.4378 9.81724 98.9431 9.22894 100.789 9.23269C102.637 9.23269 104.132 9.79566 105.274 10.9216C106.416 12.0475 106.991 13.5263 106.998 15.3578C107 15.7697 106.969 16.181 106.906 16.5879H97.207C97.2219 17.5289 97.6056 18.426 98.275 19.0847C98.9376 19.7044 99.817 20.0362 100.722 20.0079C102.148 20.0079 103.151 19.4224 103.733 18.2515H106.561C106.191 19.405 105.461 20.408 104.478 21.1113C103.379 21.8716 102.064 22.2556 100.73 22.2063ZM84.2963 9.43818V11.4086C85.1372 9.95048 86.4854 9.22143 88.341 9.22143C88.9936 9.19981 89.6436 9.31364 90.2503 9.55582C90.8571 9.79799 91.4075 10.1633 91.8673 10.6289C92.8016 11.5671 93.2688 12.8807 93.2688 14.5696V22.0008H90.6732V14.9778C90.6732 13.8519 90.3929 12.9896 89.8323 12.391C89.5307 12.0847 89.168 11.8461 88.7679 11.6908C88.3679 11.5356 87.9396 11.4672 87.5113 11.4902C87.0783 11.4647 86.6447 11.5312 86.2389 11.6854C85.8332 11.8397 85.4644 12.0782 85.1568 12.3853C84.5831 12.9839 84.2963 13.8462 84.2963 14.9722V22.0008H81.6754V9.43818H84.2963ZM76.8037 22.0008V9.43818H79.4246V22.0008H76.8037ZM74.9061 11.5578H71.8227V18.5104C71.8052 18.6938 71.8257 18.8788 71.8832 19.0537C71.9406 19.2286 72.0336 19.3897 72.1563 19.5266C72.3777 19.7321 72.7561 19.8334 73.2943 19.8334H74.9033V22.0008H72.8346C70.4053 22.0008 69.1907 20.8374 69.1907 18.5104V7.4143L71.8339 6.3137V9.43818H74.9173L74.9061 11.5578ZM59.0157 9.43818V11.4086C59.8491 9.95799 61.2002 9.23269 63.0689 9.23269C63.7217 9.21186 64.3719 9.32605 64.979 9.56816C65.5861 9.81028 66.1371 10.1751 66.5979 10.6401C67.5322 11.5784 67.9994 12.892 67.9994 14.5809V22.0008H65.401V14.9778C65.401 13.8519 65.1207 12.9896 64.5601 12.391C64.2585 12.0847 63.8958 11.8461 63.4957 11.6908C63.0957 11.5356 62.6674 11.4672 62.2391 11.4902C61.8042 11.463 61.3685 11.5288 60.9607 11.6831C60.5529 11.8374 60.1823 12.0767 59.8734 12.3853C59.2997 12.9839 59.0119 13.8462 59.0101 14.9722V22.0008H56.392V9.43818H59.0157ZM52.2884 14.8173C52.3018 14.3547 52.2164 13.8945 52.038 13.4677C51.8596 13.041 51.5923 12.6575 51.254 12.3431C50.5777 11.724 49.6882 11.3929 48.7734 11.4198C47.8756 11.3948 47.0042 11.7266 46.3487 12.3431C45.677 12.9959 45.2763 13.8799 45.2275 14.8173H52.2884ZM48.7341 22.2063C46.8953 22.2063 45.4004 21.6133 44.2493 20.4273C43.0981 19.2413 42.5245 17.6678 42.5282 15.7068C42.5282 13.7477 43.1103 12.178 44.2745 10.9976C45.4387 9.81724 46.9439 9.22894 48.7902 9.23269C50.6364 9.23269 52.1314 9.79566 53.275 10.9216C54.4187 12.0475 54.9933 13.5263 54.9989 15.3578C55.001 15.7697 54.9701 16.181 54.9064 16.5879H45.2079C45.2223 17.5295 45.6072 18.4272 46.2787 19.0847C46.9406 19.7054 47.8205 20.0374 48.7257 20.0079C50.1497 20.0079 51.1531 19.4224 51.7362 18.2515H54.5616C54.192 19.405 53.4616 20.408 52.479 21.1113C51.3804 21.8712 50.0672 22.2552 48.7341 22.2063ZM35.6748 8.07016C34.9904 8.03932 34.3166 8.24828 33.7687 8.66128C33.5201 8.87043 33.3239 9.13527 33.1959 9.43448C33.0678 9.73369 33.0115 10.0589 33.0315 10.384C33.0167 10.7234 33.0907 11.0607 33.2461 11.3624C33.4015 11.6642 33.6329 11.9198 33.9173 12.1038C34.5605 12.525 35.2778 12.8193 36.0307 12.9708C36.8567 13.1585 37.6836 13.3677 38.5114 13.5985C39.3232 13.8301 40.0531 14.2878 40.6165 14.9187C41.1958 15.5548 41.4864 16.4593 41.4883 17.6322C41.4901 18.805 40.9921 19.8531 39.9942 20.7764C38.9982 21.7053 37.6659 22.1744 35.9971 22.1838C34.3284 22.1932 32.9726 21.8047 31.9299 21.0185C31.4248 20.6544 31.0175 20.1701 30.7445 19.6091C30.4715 19.0481 30.3414 18.4278 30.3658 17.8039H33.1688C33.2007 18.4412 33.4817 19.04 33.9509 19.4703C34.4106 19.8794 35.0852 20.0839 35.9747 20.0839C36.7359 20.127 37.4856 19.8831 38.077 19.3999C38.5081 19.022 38.779 18.4929 38.8342 17.9209C38.8894 17.3489 38.7248 16.7774 38.3741 16.3233C38.0421 15.9608 37.6233 15.6895 37.1576 15.5351C36.6189 15.3496 36.0705 15.1936 35.515 15.0679C34.917 14.9328 34.3153 14.7732 33.7098 14.5893C33.1331 14.4192 32.5781 14.1821 32.056 13.8828C31.5427 13.5795 31.1212 13.1416 30.8367 12.6161C30.5054 11.9897 30.343 11.2871 30.3658 10.5782C30.3446 9.94261 30.4693 9.31065 30.7303 8.73125C30.9913 8.15184 31.3816 7.64055 31.871 7.23697C32.8745 6.39251 34.177 5.97029 35.7785 5.97029C37.3799 5.97029 38.6591 6.3259 39.6158 7.03711C40.5745 7.7671 41.107 8.8236 41.2136 10.2066H38.318C38.2647 9.61455 37.9842 9.06648 37.536 8.67817C37.0134 8.24832 36.3491 8.03132 35.6748 8.07016Z" fill="#F5F5F5"/>
<path fill-rule="evenodd" clip-rule="evenodd" d="M149.363 10.1531C148.505 10.1421 147.656 10.335 146.885 10.7161C146.126 11.1008 145.492 11.6969 145.061 12.4332C144.569 13.3004 144.32 14.2843 144.337 15.2818H154.168C154.256 14.2927 154.056 13.2991 153.593 12.4219C153.184 11.6796 152.559 11.0805 151.802 10.7049C151.042 10.3339 150.208 10.145 149.363 10.1531ZM149.318 21.0494C150.448 21.088 151.559 20.7582 152.486 20.1093C152.904 19.8094 153.259 19.4277 153.527 18.987C153.795 18.5464 153.972 18.0559 154.047 17.5449H155.126C154.929 18.8015 154.258 19.934 153.254 20.7088C152.237 21.5082 150.94 21.9079 149.363 21.9079C148.272 21.9288 147.194 21.6681 146.232 21.1508C145.319 20.6477 144.57 19.8901 144.077 18.9692C143.534 17.9288 143.265 16.7658 143.297 15.5914C143.27 14.4311 143.538 13.2829 144.077 12.2558C144.569 11.3368 145.314 10.5794 146.224 10.0743C147.186 9.55697 148.264 9.29625 149.355 9.31714C150.447 9.28913 151.526 9.55028 152.486 10.0743C153.323 10.5375 154.014 11.2269 154.482 12.0644C154.929 12.8686 155.163 13.7751 155.16 14.6963C155.157 15.0986 155.119 15.4999 155.045 15.8954H144.337C144.319 16.9037 144.568 17.8987 145.061 18.7778C145.486 19.515 146.116 20.1116 146.874 20.4949C147.635 20.8684 148.472 21.0583 149.318 21.0494ZM136.55 9.22706C138.019 9.22706 139.213 9.67932 140.133 10.5838C141.052 11.4883 141.511 12.8216 141.509 14.5837V21.7503H140.478V14.6372C140.478 13.1622 140.102 12.0335 139.356 11.2594C138.611 10.4853 137.582 10.094 136.273 10.094C135.671 10.0684 135.07 10.171 134.51 10.3951C133.95 10.6192 133.444 10.9598 133.024 11.3945C132.206 12.2615 131.797 13.5385 131.797 15.2255V21.7503H130.765V9.47477H131.797V12.709C132.042 11.6537 132.668 10.727 133.554 10.1081C134.439 9.51327 135.485 9.20574 136.55 9.22706ZM121.008 6.87948C119.806 6.86228 118.622 7.1674 117.577 7.76334C116.554 8.35417 115.718 9.22368 115.166 10.2714C114.556 11.4435 114.252 12.752 114.283 14.0742C114.253 15.3946 114.557 16.701 115.166 17.8715C115.719 18.9186 116.554 19.7879 117.577 20.3795C118.627 20.9575 119.805 21.2605 121.002 21.2605C122.199 21.2605 123.377 20.9575 124.427 20.3795C125.455 19.7908 126.295 18.921 126.849 17.8715C127.458 16.701 127.762 15.3946 127.732 14.0742C127.762 12.7539 127.458 11.4474 126.849 10.277C126.296 9.22678 125.456 8.35676 124.427 7.76897C123.386 7.17376 122.206 6.86681 121.008 6.87948ZM121.008 5.9534C122.411 5.93183 123.795 6.28752 125.016 6.98363C126.192 7.65792 127.154 8.65226 127.791 9.85196C128.472 11.1525 128.816 12.6049 128.789 14.0742C128.813 15.5379 128.47 16.9841 127.791 18.2796C127.152 19.4821 126.191 20.4814 125.016 21.1648C123.79 21.8478 122.412 22.2061 121.01 22.2061C119.609 22.2061 118.23 21.8478 117.005 21.1648C115.821 20.4815 114.851 19.4804 114.202 18.274C113.52 16.9817 113.177 15.5365 113.204 14.0742C113.176 12.6034 113.524 11.1499 114.213 9.85196C114.859 8.64641 115.831 7.64833 117.016 6.97237C118.233 6.28285 119.611 5.93114 121.008 5.9534Z" fill="#F5F5F5"/>
<path d="M157.943 11.1327L157.663 10.7077H157.433V11.1327H157.153V9.80129H157.758C158.072 9.80129 158.26 9.96737 158.26 10.2404C158.264 10.3302 158.239 10.4188 158.188 10.493C158.138 10.5671 158.065 10.6227 157.98 10.6514L158.305 11.1271L157.943 11.1327ZM157.943 10.2573C157.943 10.1306 157.856 10.0659 157.713 10.0659H157.433V10.4487H157.727C157.87 10.4487 157.952 10.3727 157.952 10.2601L157.943 10.2573Z" fill="#F5F5F5"/>
<path d="M157.643 11.8674C157.374 11.8679 157.111 11.7883 156.887 11.6385C156.663 11.4887 156.488 11.2755 156.385 11.0259C156.282 10.7764 156.255 10.5016 156.307 10.2365C156.359 9.97146 156.489 9.72795 156.679 9.53685C156.87 9.34575 157.112 9.21567 157.376 9.16309C157.64 9.1105 157.914 9.13777 158.162 9.24145C158.411 9.34513 158.623 9.52055 158.772 9.74548C158.921 9.97042 159.001 10.2348 159 10.505C158.999 10.8661 158.856 11.2122 158.602 11.4675C158.348 11.7229 158.003 11.8666 157.643 11.8674ZM157.643 9.43818C157.433 9.43818 157.228 9.50075 157.053 9.61797C156.878 9.7352 156.742 9.90181 156.662 10.0967C156.581 10.2917 156.56 10.5062 156.601 10.7131C156.642 10.9201 156.744 11.1102 156.892 11.2594C157.041 11.4086 157.23 11.5102 157.436 11.5513C157.642 11.5925 157.856 11.5714 158.05 11.4906C158.244 11.4099 158.41 11.2731 158.527 11.0977C158.643 10.9223 158.706 10.716 158.706 10.505C158.706 10.2221 158.594 9.95071 158.395 9.75064C158.195 9.55058 157.925 9.43818 157.643 9.43818Z" fill="#F5F5F5"/>
</svg>
