<svg width="5" height="8" viewBox="0 0 5 8" fill="none" xmlns="http://www.w3.org/2000/svg">
<path d="M0.648437 -9.82018e-07C0.710937 -9.8475e-07 0.781249 0.0312495 0.828124 0.078124L4.46875 3.71875C4.51562 3.76562 4.54687 3.83594 4.54687 3.89844C4.54687 3.96094 4.51562 4.03125 4.46875 4.07812L0.828125 7.71875C0.78125 7.76563 0.710937 7.79687 0.648437 7.79687C0.585937 7.79687 0.515624 7.76563 0.46875 7.71875L0.0781245 7.32812C0.0312497 7.28125 -2.52706e-08 7.21875 -2.83441e-08 7.14844C-3.10761e-08 7.08594 0.0312497 7.01562 0.0781245 6.96875L3.14844 3.89844L0.0781242 0.828125C0.0312494 0.78125 -3.09736e-07 0.710937 -3.12468e-07 0.648437C-3.152e-07 0.585938 0.0312494 0.515625 0.0781242 0.46875L0.468749 0.078124C0.515624 0.0312495 0.585937 -9.79286e-07 0.648437 -9.82018e-07Z" fill="#94A3B8"/>
</svg>
