<svg width="158" height="70" viewBox="0 0 158 70" fill="none" xmlns="http://www.w3.org/2000/svg">
<path d="M60.9246 13.508V17.0349L64.2632 13.508H66.6085L63.2699 16.868L66.9315 22.014H64.5746L62.0017 18.1901L60.9246 19.274V22.014H59.046V13.508H60.9246Z" fill="black"/>
<path d="M67.7454 17.7494C67.7688 17.3525 67.8684 17.0226 68.0444 16.7612C68.2197 16.4984 68.4431 16.2877 68.7146 16.1289C68.9854 15.9701 69.2906 15.8579 69.6295 15.7895C69.9684 15.7224 70.31 15.6882 70.653 15.6882C70.9637 15.6882 71.2792 15.7101 71.5981 15.7539C71.917 15.7977 72.2085 15.8826 72.4717 16.0098C72.735 16.1371 72.9502 16.3137 73.1179 16.5409C73.2849 16.7667 73.3688 17.0664 73.3688 17.4401V20.644C73.3688 20.9219 73.3846 21.1888 73.4169 21.4419C73.4485 21.6965 73.5049 21.8868 73.5846 22.014H71.8614C71.8291 21.9182 71.8036 21.8211 71.7837 21.7225C71.7638 21.6226 71.7493 21.5213 71.7418 21.4187C71.4703 21.6965 71.1513 21.8909 70.7843 22.0017C70.4172 22.1126 70.0426 22.1687 69.6597 22.1687C69.3642 22.1687 69.0892 22.1331 68.8342 22.0619C68.5785 21.9908 68.3551 21.8785 68.164 21.728C67.9722 21.5774 67.8231 21.3872 67.7151 21.1559C67.6072 20.926 67.5536 20.6522 67.5536 20.3347C67.5536 19.9844 67.6155 19.6969 67.7392 19.4711C67.8629 19.2439 68.0224 19.0633 68.2176 18.9291C68.4128 18.7936 68.6362 18.6924 68.8878 18.6253C69.1394 18.5569 69.3923 18.5035 69.6473 18.4638C69.903 18.4241 70.1539 18.3926 70.4014 18.3694C70.6488 18.3447 70.8681 18.3091 71.0599 18.2612C71.251 18.2133 71.4022 18.1449 71.5142 18.0532C71.6256 17.9615 71.6778 17.8288 71.6696 17.6536C71.6696 17.4715 71.64 17.3265 71.5802 17.2197C71.5204 17.1116 71.4407 17.0281 71.341 16.9692C71.2407 16.909 71.1252 16.8693 70.9939 16.8502C70.8619 16.8297 70.7203 16.8201 70.5691 16.8201C70.2337 16.8201 69.9704 16.8912 69.7793 17.0349C69.5875 17.1773 69.4762 17.4154 69.4446 17.7494H67.7454ZM71.6696 19.0003C71.5981 19.0633 71.5081 19.1139 71.4008 19.1495C71.2929 19.1851 71.1774 19.2152 71.0537 19.2384C70.93 19.2617 70.8001 19.2822 70.6647 19.2973C70.5292 19.3137 70.3932 19.3343 70.2577 19.3575C70.1299 19.3808 70.0048 19.4136 69.8811 19.4533C69.7573 19.493 69.6494 19.5464 69.558 19.6135C69.4659 19.6819 69.3923 19.7667 69.3367 19.8694C69.281 19.9734 69.2528 20.1048 69.2528 20.2636C69.2528 20.4141 69.281 20.5414 69.3367 20.644C69.3923 20.7481 69.4679 20.8288 69.5642 20.8877C69.6597 20.9479 69.7711 20.9889 69.8989 21.0136C70.0268 21.0368 70.1581 21.0492 70.2935 21.0492C70.6289 21.0492 70.8881 20.993 71.0716 20.8822C71.2551 20.7713 71.3905 20.6386 71.4785 20.4839C71.5658 20.3279 71.6201 20.1719 71.64 20.0131C71.66 19.8543 71.6696 19.7271 71.6696 19.6312V19.0003Z" fill="black"/>
<path d="M76.6833 15.8552V16.7133H76.719C76.9349 16.3561 77.2139 16.0961 77.5569 15.9332C77.8999 15.7703 78.2512 15.6882 78.61 15.6882C79.0643 15.6882 79.4376 15.7498 79.7283 15.873C80.0198 15.9962 80.2493 16.1672 80.4164 16.3848C80.5841 16.6038 80.7016 16.8693 80.7697 17.1841C80.837 17.4975 80.8714 17.8452 80.8714 18.2257V22.014H79.1722V18.535C79.1722 18.0272 79.0925 17.6481 78.933 17.3976C78.7736 17.1472 78.4904 17.0226 78.0834 17.0226C77.6208 17.0226 77.2854 17.1595 77.0785 17.4332C76.8709 17.7083 76.7671 18.1586 76.7671 18.7854V22.014H75.0679V15.8552H76.6833Z" fill="black"/>
<path d="M85.8968 15.8552V16.987H84.6519V20.0364C84.6519 20.3224 84.7001 20.5126 84.7956 20.6085C84.8918 20.7043 85.0829 20.7508 85.3703 20.7508C85.4658 20.7508 85.5572 20.7481 85.6452 20.7398C85.7332 20.7316 85.817 20.7193 85.8968 20.7043V22.014C85.7531 22.0373 85.5936 22.0537 85.4184 22.0619C85.2424 22.0702 85.0712 22.0743 84.9035 22.0743C84.6403 22.0743 84.3908 22.0551 84.1557 22.0195C83.9206 21.9839 83.713 21.9155 83.5336 21.8115C83.3542 21.7088 83.2126 21.561 83.1088 21.3708C83.005 21.1805 82.9535 20.9301 82.9535 20.6208V16.987H81.9238V15.8552H82.9535V14.0089H84.6519V15.8552H85.8968Z" fill="black"/>
<path d="M87.0096 17.6002C87.1615 17.1992 87.3767 16.8584 87.6558 16.5765C87.9348 16.2945 88.2703 16.0755 88.6614 15.9209C89.0518 15.7662 89.4903 15.6882 89.977 15.6882C90.4637 15.6882 90.905 15.7662 91.2995 15.9209C91.6941 16.0755 92.0315 16.2945 92.3106 16.5765C92.5897 16.8584 92.8048 17.1992 92.9567 17.6002C93.108 18.0012 93.1843 18.4487 93.1843 18.9401C93.1843 19.4328 93.108 19.8776 92.9567 20.2745C92.8048 20.6714 92.5897 21.0122 92.3106 21.2928C92.0315 21.5747 91.6941 21.7923 91.2995 21.9429C90.905 22.0934 90.4637 22.1687 89.977 22.1687C89.4903 22.1687 89.0518 22.0934 88.6614 21.9429C88.2703 21.7923 87.9348 21.5747 87.6558 21.2928C87.3767 21.0122 87.1615 20.6714 87.0096 20.2745C86.8584 19.8776 86.7828 19.4328 86.7828 18.9401C86.7828 18.4487 86.8584 18.0012 87.0096 17.6002ZM88.5535 19.6614C88.6016 19.8954 88.6827 20.1062 88.7988 20.2923C88.9143 20.4798 89.0676 20.6276 89.2594 20.7398C89.4505 20.8507 89.6904 20.9068 89.977 20.9068C90.2643 20.9068 90.5056 20.8507 90.7015 20.7398C90.8967 20.6276 91.052 20.4798 91.1682 20.2923C91.2837 20.1062 91.3655 19.8954 91.4129 19.6614C91.461 19.4273 91.4851 19.1864 91.4851 18.9401C91.4851 18.6951 91.461 18.4529 91.4129 18.2133C91.3655 17.9752 91.2837 17.7658 91.1682 17.5824C91.052 17.4004 90.8967 17.2512 90.7015 17.1362C90.5056 17.0213 90.2643 16.9638 89.977 16.9638C89.6904 16.9638 89.4505 17.0213 89.2594 17.1362C89.0676 17.2512 88.9143 17.4004 88.7988 17.5824C88.6827 17.7658 88.6016 17.9752 88.5535 18.2133C88.5053 18.4529 88.4813 18.6951 88.4813 18.9401C88.4813 19.1864 88.5053 19.4273 88.5535 19.6614Z" fill="black"/>
<path d="M96.2348 15.8552V16.7133H96.2706C96.4864 16.3561 96.7655 16.0961 97.1085 15.9332C97.4515 15.7703 97.8027 15.6882 98.1615 15.6882C98.6159 15.6882 98.9891 15.7498 99.2799 15.873C99.5713 15.9962 99.8009 16.1672 99.9679 16.3848C100.136 16.6038 100.253 16.8693 100.321 17.1841C100.389 17.4975 100.423 17.8452 100.423 18.2257V22.014H98.7238V18.535C98.7238 18.0272 98.6441 17.6481 98.4846 17.3976C98.3251 17.1472 98.0419 17.0226 97.635 17.0226C97.1724 17.0226 96.837 17.1595 96.6301 17.4332C96.4225 17.7083 96.3187 18.1586 96.3187 18.7854V22.014H94.6195V15.8552H96.2348Z" fill="black"/>
<path d="M109.469 13.508C109.876 13.508 110.247 13.5436 110.582 13.6161C110.917 13.6873 111.204 13.805 111.444 13.9665C111.683 14.1293 111.868 14.3469 112 14.6166C112.132 14.8862 112.197 15.2201 112.197 15.617C112.197 16.0454 112.099 16.4026 111.904 16.6887C111.708 16.9747 111.42 17.2088 111.037 17.3922C111.563 17.5427 111.956 17.8069 112.215 18.1846C112.474 18.561 112.604 19.0167 112.604 19.5478C112.604 19.9775 112.52 20.3484 112.353 20.6618C112.185 20.9752 111.96 21.2325 111.677 21.431C111.393 21.6295 111.07 21.7759 110.707 21.8717C110.344 21.9661 109.971 22.014 109.588 22.014H105.448V13.508H109.469ZM109.23 16.9515C109.565 16.9515 109.84 16.8721 110.055 16.7133C110.271 16.5546 110.378 16.2959 110.378 15.9387C110.378 15.7402 110.342 15.5773 110.271 15.4501C110.199 15.3228 110.103 15.2242 109.984 15.1517C109.864 15.0805 109.727 15.0313 109.57 15.0039C109.415 14.9752 109.254 14.9615 109.086 14.9615H107.327V16.9515H109.23ZM109.337 20.5605C109.521 20.5605 109.696 20.5428 109.864 20.5072C110.031 20.4716 110.179 20.4114 110.307 20.3279C110.434 20.2444 110.536 20.1322 110.612 19.9885C110.687 19.8461 110.725 19.6627 110.725 19.441C110.725 19.0044 110.602 18.6924 110.354 18.5062C110.107 18.3187 109.78 18.2257 109.373 18.2257H107.327V20.5605H109.337Z" fill="black"/>
<path d="M115.87 20.5373C116.125 20.7836 116.492 20.9068 116.971 20.9068C117.314 20.9068 117.609 20.8206 117.857 20.6495C118.103 20.4798 118.255 20.2991 118.311 20.1075H119.807C119.568 20.8466 119.201 21.3749 118.706 21.6924C118.211 22.0099 117.613 22.1687 116.912 22.1687C116.425 22.1687 115.986 22.0921 115.595 21.936C115.204 21.7814 114.873 21.561 114.602 21.275C114.331 20.9889 114.121 20.6481 113.974 20.2512C113.826 19.8543 113.752 19.4177 113.752 18.9401C113.752 18.4802 113.828 18.0518 113.98 17.6536C114.131 17.2567 114.346 16.9131 114.626 16.623C114.905 16.3342 115.238 16.1056 115.625 15.9387C116.012 15.7717 116.441 15.6882 116.912 15.6882C117.437 15.6882 117.897 15.7895 118.287 15.992C118.678 16.1946 118.999 16.467 119.251 16.8078C119.502 17.1499 119.683 17.5386 119.795 17.9752C119.906 18.4132 119.946 18.8689 119.915 19.3452H115.452C115.476 19.894 115.615 20.2909 115.87 20.5373ZM117.791 17.2964C117.587 17.0746 117.278 16.9638 116.863 16.9638C116.592 16.9638 116.367 17.0089 116.187 17.1006C116.008 17.191 115.864 17.3046 115.757 17.4401C115.649 17.5742 115.573 17.7179 115.529 17.8684C115.485 18.019 115.459 18.1545 115.452 18.2736H118.216C118.136 17.8452 117.994 17.5194 117.791 17.2964Z" fill="black"/>
<path d="M122.906 15.8552V16.9994H122.93C123.01 16.8078 123.117 16.6312 123.253 16.4683C123.389 16.3055 123.544 16.1672 123.72 16.0523C123.895 15.9373 124.083 15.847 124.282 15.784C124.482 15.7197 124.689 15.6882 124.904 15.6882C125.016 15.6882 125.139 15.7087 125.276 15.7484V17.321C125.196 17.3046 125.1 17.2909 124.988 17.2786C124.876 17.2662 124.769 17.2608 124.665 17.2608C124.354 17.2608 124.091 17.3128 123.875 17.4154C123.66 17.5194 123.486 17.6604 123.355 17.8383C123.223 18.0176 123.13 18.2257 123.074 18.4638C123.018 18.7019 122.99 18.9606 122.99 19.2384V22.014H121.291V15.8552H122.906Z" fill="black"/>
<path d="M127.967 15.8552V16.7133H128.003C128.219 16.3561 128.498 16.0961 128.841 15.9332C129.184 15.7703 129.535 15.6882 129.894 15.6882C130.348 15.6882 130.722 15.7498 131.012 15.873C131.304 15.9962 131.533 16.1672 131.7 16.3848C131.868 16.6038 131.986 16.8693 132.054 17.1841C132.121 17.4975 132.155 17.8452 132.155 18.2257V22.014H130.456V18.535C130.456 18.0272 130.376 17.6481 130.217 17.3976C130.058 17.1472 129.774 17.0226 129.367 17.0226C128.905 17.0226 128.569 17.1595 128.362 17.4332C128.155 17.7083 128.051 18.1586 128.051 18.7854V22.014H126.352V15.8552H127.967Z" fill="black"/>
<path d="M64.5264 30.8691C64.4144 30.6912 64.2749 30.5338 64.1078 30.3997C63.9401 30.2642 63.7504 30.1588 63.5394 30.0835C63.3277 30.0082 63.1063 29.9699 62.8754 29.9699C62.452 29.9699 62.0932 30.052 61.7983 30.2149C61.5034 30.3778 61.2635 30.5954 61.0807 30.8691C60.8964 31.1442 60.7631 31.4549 60.6792 31.8053C60.5954 32.1543 60.5541 32.5156 60.5541 32.8892C60.5541 33.2464 60.5954 33.5941 60.6792 33.9307C60.7631 34.2688 60.8964 34.5726 61.0807 34.8423C61.2635 35.1132 61.5034 35.3295 61.7983 35.4924C62.0932 35.6552 62.452 35.736 62.8754 35.736C63.4493 35.736 63.8982 35.5608 64.2213 35.2118C64.5443 34.8628 64.7416 34.4016 64.8138 33.8295H66.6325C66.5844 34.3619 66.4607 34.8423 66.2614 35.272C66.062 35.7004 65.7988 36.0658 65.4716 36.3669C65.1444 36.6694 64.7615 36.8993 64.323 37.0581C63.8844 37.2168 63.4019 37.2962 62.8754 37.2962C62.221 37.2962 61.6326 37.184 61.1102 36.9568C60.5878 36.731 60.1472 36.4189 59.7877 36.022C59.4289 35.6251 59.154 35.1584 58.9622 34.6219C58.7711 34.0868 58.6756 33.5078 58.6756 32.8892C58.6756 32.2542 58.7711 31.6643 58.9622 31.1196C59.154 30.5762 59.4289 30.1013 59.7877 29.6962C60.1472 29.2911 60.5878 28.9735 61.1102 28.7436C61.6326 28.5137 62.221 28.3974 62.8754 28.3974C63.3455 28.3974 63.7903 28.4658 64.2096 28.5999C64.6282 28.7354 65.0028 28.9325 65.3341 29.1898C65.6647 29.4485 65.9383 29.7674 66.1541 30.1492C66.3693 30.5297 66.5047 30.9676 66.5604 31.459H64.7416C64.71 31.2455 64.6378 31.0484 64.5264 30.8691Z" fill="black"/>
<path d="M67.9248 32.8413C67.9482 32.4444 68.0478 32.1146 68.2238 31.8532C68.3991 31.5904 68.6225 31.3796 68.894 31.2208C69.1648 31.0621 69.47 30.9499 69.8089 30.8814C70.1478 30.8144 70.4894 30.7801 70.8324 30.7801C71.1431 30.7801 71.4586 30.802 71.7775 30.8458C72.0965 30.8896 72.3879 30.9745 72.6512 31.1018C72.9144 31.2291 73.1296 31.4056 73.2973 31.6328C73.4643 31.8586 73.5482 32.1584 73.5482 32.532V35.736C73.5482 36.0138 73.564 36.2807 73.5963 36.5339C73.6279 36.7885 73.6843 36.9787 73.764 37.106H72.0408C72.0085 37.0102 71.983 36.913 71.9631 36.8145C71.9432 36.7146 71.9287 36.6133 71.9212 36.5106C71.6497 36.7885 71.3307 36.9828 70.9637 37.0937C70.5966 37.2045 70.222 37.2606 69.8391 37.2606C69.5436 37.2606 69.2686 37.225 69.0136 37.1539C68.7579 37.0827 68.5345 36.9705 68.3434 36.8199C68.1516 36.6694 68.0025 36.4791 67.8946 36.2478C67.7866 36.0179 67.733 35.7442 67.733 35.4267C67.733 35.0763 67.7949 34.7889 67.9186 34.5631C68.0423 34.3359 68.2018 34.1552 68.397 34.0211C68.5922 33.8856 68.8156 33.7843 69.0672 33.7172C69.3188 33.6488 69.5717 33.5954 69.8268 33.5557C70.0825 33.516 70.3334 33.4846 70.5808 33.4613C70.8283 33.4367 71.0475 33.4011 71.2393 33.3532C71.4304 33.3053 71.5816 33.2368 71.6936 33.1451C71.805 33.0534 71.8572 32.9207 71.849 32.7455C71.849 32.5635 71.8194 32.4184 71.7596 32.3116C71.6998 32.2035 71.6201 32.12 71.5204 32.0612C71.4201 32.001 71.3046 31.9613 71.1733 31.9421C71.0413 31.9216 70.8997 31.912 70.7485 31.912C70.4131 31.912 70.1498 31.9832 69.9587 32.1269C69.767 32.2692 69.6556 32.5074 69.624 32.8413H67.9248ZM71.849 34.0922C71.7775 34.1552 71.6875 34.2058 71.5802 34.2414C71.4723 34.277 71.3568 34.3071 71.2331 34.3304C71.1094 34.3536 70.9795 34.3742 70.8441 34.3892C70.7086 34.4057 70.5725 34.4262 70.4371 34.4495C70.3093 34.4727 70.1842 34.5056 70.0605 34.5453C69.9367 34.5849 69.8288 34.6383 69.7374 34.7054C69.6453 34.7738 69.5717 34.8587 69.5161 34.9613C69.4604 35.0653 69.4322 35.1967 69.4322 35.3555C69.4322 35.506 69.4604 35.6333 69.5161 35.736C69.5717 35.84 69.6474 35.9207 69.7436 35.9796C69.8391 36.0398 69.9505 36.0809 70.0783 36.1055C70.2062 36.1288 70.3375 36.1411 70.4729 36.1411C70.8083 36.1411 71.0675 36.085 71.251 35.9741C71.4345 35.8633 71.5699 35.7305 71.6579 35.5758C71.7452 35.4198 71.7995 35.2638 71.8194 35.105C71.8394 34.9463 71.849 34.819 71.849 34.7232V34.0922Z" fill="black"/>
<path d="M76.8627 30.9471V31.8053H76.8984C77.1143 31.448 77.3933 31.188 77.7363 31.0251C78.0793 30.8623 78.4306 30.7801 78.7894 30.7801C79.2437 30.7801 79.617 30.8417 79.9077 30.9649C80.1992 31.0881 80.4288 31.2592 80.5958 31.4768C80.7635 31.6958 80.881 31.9613 80.9491 32.2761C81.0164 32.5895 81.0508 32.9371 81.0508 33.3176V37.106H79.3516V33.6269C79.3516 33.1191 79.2719 32.74 79.1124 32.4896C78.953 32.2391 78.6698 32.1146 78.2628 32.1146C77.8002 32.1146 77.4648 32.2514 77.2579 32.5252C77.0503 32.8003 76.9465 33.2505 76.9465 33.8774V37.106H75.2474V30.9471H76.8627Z" fill="black"/>
<path d="M86.0762 30.9471V32.079H84.8314V35.1283C84.8314 35.4143 84.8795 35.6046 84.975 35.7004C85.0712 35.7962 85.2623 35.8427 85.5497 35.8427C85.6452 35.8427 85.7366 35.84 85.8246 35.8318C85.9126 35.8236 85.9964 35.8112 86.0762 35.7962V37.106C85.9325 37.1292 85.7731 37.1457 85.5978 37.1539C85.4218 37.1621 85.2507 37.1662 85.0829 37.1662C84.8197 37.1662 84.5702 37.147 84.3351 37.1115C84.1 37.0759 83.8924 37.0074 83.713 36.9034C83.5336 36.8008 83.392 36.653 83.2882 36.4627C83.1844 36.2725 83.1329 36.022 83.1329 35.7127V32.079H82.1032V30.9471H83.1329V29.1008H84.8314V30.9471H86.0762Z" fill="black"/>
<path d="M87.189 32.6921C87.3409 32.2911 87.5561 31.9503 87.8352 31.6684C88.1142 31.3865 88.4497 31.1675 88.8408 31.0128C89.2312 30.8582 89.6697 30.7801 90.1564 30.7801C90.6431 30.7801 91.0844 30.8582 91.4789 31.0128C91.8735 31.1675 92.211 31.3865 92.49 31.6684C92.7691 31.9503 92.9843 32.2911 93.1362 32.6921C93.2874 33.0931 93.3637 33.5407 93.3637 34.032C93.3637 34.5247 93.2874 34.9695 93.1362 35.3664C92.9843 35.7633 92.7691 36.1041 92.49 36.3847C92.211 36.6666 91.8735 36.8843 91.4789 37.0348C91.0844 37.1854 90.6431 37.2606 90.1564 37.2606C89.6697 37.2606 89.2312 37.1854 88.8408 37.0348C88.4497 36.8843 88.1142 36.6666 87.8352 36.3847C87.5561 36.1041 87.3409 35.7633 87.189 35.3664C87.0378 34.9695 86.9622 34.5247 86.9622 34.032C86.9622 33.5407 87.0378 33.0931 87.189 32.6921ZM88.7329 34.7533C88.781 34.9873 88.8621 35.1981 88.9783 35.3842C89.0937 35.5717 89.247 35.7195 89.4388 35.8318C89.6299 35.9426 89.8698 35.9987 90.1564 35.9987C90.4437 35.9987 90.685 35.9426 90.8809 35.8318C91.0761 35.7195 91.2315 35.5717 91.3476 35.3842C91.4631 35.1981 91.5449 34.9873 91.5923 34.7533C91.6404 34.5193 91.6645 34.2784 91.6645 34.032C91.6645 33.787 91.6404 33.5448 91.5923 33.3053C91.5449 33.0671 91.4631 32.8577 91.3476 32.6743C91.2315 32.4923 91.0761 32.3431 90.8809 32.2282C90.685 32.1132 90.4437 32.0557 90.1564 32.0557C89.8698 32.0557 89.6299 32.1132 89.4388 32.2282C89.247 32.3431 89.0937 32.4923 88.9783 32.6743C88.8621 32.8577 88.781 33.0671 88.7329 33.3053C88.6848 33.5448 88.6607 33.787 88.6607 34.032C88.6607 34.2784 88.6848 34.5193 88.7329 34.7533Z" fill="black"/>
<path d="M96.4025 30.9471V31.8053H96.4383C96.6541 31.448 96.9332 31.188 97.2762 31.0251C97.6192 30.8623 97.9704 30.7801 98.3292 30.7801C98.7836 30.7801 99.1568 30.8417 99.4476 30.9649C99.739 31.0881 99.9686 31.2592 100.136 31.4768C100.303 31.6958 100.421 31.9613 100.489 32.2761C100.556 32.5895 100.591 32.9371 100.591 33.3176V37.106H98.8915V33.6269C98.8915 33.1191 98.8118 32.74 98.6523 32.4896C98.4928 32.2391 98.2096 32.1146 97.8027 32.1146C97.3401 32.1146 97.0047 32.2514 96.7978 32.5252C96.5902 32.8003 96.4864 33.2505 96.4864 33.8774V37.106H94.7872V30.9471H96.4025Z" fill="black"/>
<path d="M109.84 36.3204C109.641 36.653 109.379 36.8938 109.056 37.0403C108.733 37.1867 108.368 37.2606 107.961 37.2606C107.499 37.2606 107.092 37.1717 106.741 36.9924C106.389 36.8145 106.101 36.5722 105.873 36.2656C105.646 35.9604 105.474 35.6087 105.358 35.2118C105.243 34.8149 105.185 34.4016 105.185 33.9732C105.185 33.5598 105.243 33.1616 105.358 32.7756C105.474 32.391 105.646 32.0516 105.873 31.7574C106.101 31.4631 106.386 31.2277 106.729 31.0484C107.072 30.8691 107.471 30.7801 107.925 30.7801C108.292 30.7801 108.641 30.8582 108.972 31.0128C109.303 31.1675 109.564 31.396 109.756 31.6971H109.78V28.5999H111.479V37.106H109.864V36.3204H109.84ZM109.768 33.2765C109.72 33.0425 109.639 32.8358 109.522 32.6565C109.407 32.4773 109.257 32.3335 109.074 32.2213C108.891 32.1105 108.659 32.0557 108.38 32.0557C108.101 32.0557 107.865 32.1105 107.674 32.2213C107.482 32.3335 107.329 32.48 107.213 32.662C107.097 32.8454 107.013 33.0534 106.962 33.2875C106.91 33.5229 106.884 33.7665 106.884 34.0211C106.884 34.2592 106.912 34.4974 106.968 34.7355C107.024 34.9736 107.113 35.1858 107.238 35.3733C107.361 35.5594 107.517 35.71 107.704 35.8249C107.891 35.9413 108.117 35.9988 108.38 35.9988C108.659 35.9988 108.893 35.9426 109.08 35.8318C109.267 35.7196 109.417 35.5717 109.529 35.3842C109.641 35.1981 109.72 34.986 109.768 34.7478C109.816 34.5097 109.84 34.2633 109.84 34.0088C109.84 33.7542 109.816 33.5106 109.768 33.2765Z" fill="black"/>
<path d="M114.962 35.6292C115.217 35.8756 115.584 35.9987 116.063 35.9987C116.405 35.9987 116.701 35.9125 116.948 35.7414C117.195 35.5717 117.347 35.3911 117.402 35.1995H118.898C118.659 35.9385 118.292 36.4668 117.798 36.7843C117.303 37.1019 116.705 37.2606 116.003 37.2606C115.516 37.2606 115.077 37.184 114.687 37.028C114.295 36.8733 113.964 36.653 113.693 36.3669C113.422 36.0809 113.212 35.7401 113.065 35.3432C112.917 34.9463 112.844 34.5097 112.844 34.032C112.844 33.5722 112.919 33.1438 113.071 32.7455C113.222 32.3486 113.438 32.0051 113.717 31.7149C113.996 31.4261 114.329 31.1976 114.716 31.0306C115.103 30.8636 115.532 30.7801 116.003 30.7801C116.529 30.7801 116.988 30.8814 117.378 31.084C117.769 31.2865 118.09 31.5589 118.342 31.8997C118.593 32.2418 118.774 32.6305 118.886 33.0671C118.998 33.5051 119.038 33.9609 119.006 34.4371H114.543C114.567 34.986 114.706 35.3829 114.962 35.6292ZM116.882 32.3883C116.679 32.1666 116.369 32.0557 115.955 32.0557C115.683 32.0557 115.458 32.1009 115.278 32.1926C115.099 32.2829 114.955 32.3965 114.848 32.532C114.74 32.6661 114.665 32.8098 114.621 32.9604C114.577 33.1109 114.55 33.2464 114.543 33.3655H117.307C117.227 32.9371 117.085 32.6114 116.882 32.3883Z" fill="black"/>
<path d="M127.776 28.5999C128.183 28.5999 128.554 28.6355 128.889 28.708C129.224 28.7792 129.511 28.8969 129.751 29.0584C129.99 29.2213 130.176 29.4389 130.307 29.7085C130.439 29.9781 130.504 30.3121 130.504 30.709C130.504 31.1374 130.407 31.4946 130.212 31.7806C130.016 32.0667 129.727 32.3007 129.344 32.4841C129.871 32.6346 130.263 32.8988 130.522 33.2765C130.781 33.6529 130.911 34.1087 130.911 34.6397C130.911 35.0695 130.827 35.4403 130.66 35.7538C130.493 36.0672 130.267 36.3245 129.984 36.5229C129.701 36.7214 129.378 36.8678 129.015 36.9636C128.652 37.0581 128.279 37.106 127.896 37.106H123.756V28.5999H127.776ZM127.537 32.0434C127.872 32.0434 128.147 31.964 128.362 31.8053C128.578 31.6465 128.686 31.3878 128.686 31.0306C128.686 30.8322 128.65 30.6693 128.578 30.542C128.506 30.4147 128.411 30.3162 128.291 30.2436C128.171 30.1725 128.034 30.1232 127.878 30.0958C127.723 30.0671 127.561 30.0534 127.393 30.0534H125.634V32.0434H127.537ZM127.645 35.6525C127.828 35.6525 128.004 35.6347 128.171 35.5991C128.338 35.5635 128.486 35.5033 128.614 35.4198C128.741 35.3363 128.843 35.2241 128.919 35.0804C128.995 34.9381 129.033 34.7547 129.033 34.5329C129.033 34.0964 128.909 33.7843 128.661 33.5982C128.415 33.4107 128.088 33.3176 127.681 33.3176H125.634V35.6525H127.645Z" fill="black"/>
<path d="M134.178 35.6292C134.433 35.8756 134.8 35.9987 135.279 35.9987C135.621 35.9987 135.917 35.9125 136.164 35.7414C136.411 35.5717 136.563 35.3911 136.618 35.1995H138.114C137.875 35.9385 137.508 36.4668 137.014 36.7843C136.519 37.1019 135.921 37.2606 135.219 37.2606C134.732 37.2606 134.293 37.184 133.903 37.028C133.512 36.8733 133.18 36.653 132.909 36.3669C132.638 36.0809 132.428 35.7401 132.281 35.3432C132.133 34.9463 132.06 34.5097 132.06 34.032C132.06 33.5722 132.135 33.1438 132.287 32.7455C132.439 32.3486 132.654 32.0051 132.933 31.7149C133.213 31.4261 133.545 31.1976 133.932 31.0306C134.319 30.8636 134.748 30.7801 135.219 30.7801C135.745 30.7801 136.204 30.8814 136.594 31.084C136.986 31.2865 137.307 31.5589 137.558 31.8997C137.809 32.2418 137.99 32.6305 138.103 33.0671C138.214 33.5051 138.254 33.9609 138.222 34.4371H133.759C133.783 34.986 133.922 35.3829 134.178 35.6292ZM136.098 32.3883C135.895 32.1666 135.585 32.0557 135.171 32.0557C134.899 32.0557 134.674 32.1009 134.495 32.1926C134.315 32.2829 134.171 32.3965 134.064 32.532C133.956 32.6661 133.881 32.8098 133.837 32.9604C133.793 33.1109 133.767 33.2464 133.759 33.3655H136.523C136.443 32.9371 136.302 32.6114 136.098 32.3883Z" fill="black"/>
<path d="M141.214 30.9471V32.0913H141.238C141.317 31.8997 141.425 31.7231 141.561 31.5603C141.696 31.3974 141.851 31.2592 142.027 31.1442C142.203 31.0292 142.39 30.9389 142.59 30.8759C142.789 30.8116 142.997 30.7801 143.212 30.7801C143.324 30.7801 143.447 30.8007 143.583 30.8404V32.4129C143.503 32.3965 143.407 32.3828 143.296 32.3705C143.184 32.3582 143.076 32.3527 142.973 32.3527C142.661 32.3527 142.399 32.4047 142.183 32.5074C141.968 32.6114 141.794 32.7523 141.662 32.9303C141.53 33.1096 141.437 33.3176 141.381 33.5557C141.325 33.7939 141.297 34.0526 141.297 34.3304V37.106H139.598V30.9471H141.214Z" fill="black"/>
<path d="M146.275 30.9471V31.8053H146.311C146.527 31.448 146.806 31.188 147.149 31.0251C147.492 30.8623 147.843 30.7801 148.202 30.7801C148.656 30.7801 149.03 30.8417 149.32 30.9649C149.612 31.0881 149.841 31.2592 150.008 31.4768C150.176 31.6958 150.294 31.9613 150.362 32.2761C150.429 32.5895 150.463 32.9371 150.463 33.3176V37.106H148.764V33.6269C148.764 33.1191 148.685 32.74 148.525 32.4896C148.366 32.2391 148.082 32.1146 147.676 32.1146C147.213 32.1146 146.877 32.2514 146.671 32.5252C146.463 32.8003 146.359 33.2505 146.359 33.8774V37.106H144.66V30.9471H146.275Z" fill="black"/>
<path d="M153.945 35.6292C154.2 35.8756 154.567 35.9987 155.046 35.9987C155.389 35.9987 155.684 35.9125 155.932 35.7414C156.178 35.5717 156.33 35.3911 156.386 35.1995H157.882C157.642 35.9385 157.275 36.4668 156.781 36.7843C156.286 37.1019 155.688 37.2606 154.986 37.2606C154.5 37.2606 154.061 37.184 153.67 37.028C153.279 36.8733 152.948 36.653 152.677 36.3669C152.405 36.0809 152.196 35.7401 152.049 35.3432C151.901 34.9463 151.827 34.5097 151.827 34.032C151.827 33.5722 151.903 33.1438 152.055 32.7455C152.206 32.3486 152.421 32.0051 152.701 31.7149C152.98 31.4261 153.313 31.1976 153.7 31.0306C154.087 30.8636 154.516 30.7801 154.986 30.7801C155.512 30.7801 155.971 30.8814 156.362 31.084C156.753 31.2865 157.074 31.5589 157.326 31.8997C157.576 32.2418 157.758 32.6305 157.87 33.0671C157.981 33.5051 158.021 33.9609 157.99 34.4371H153.526C153.55 34.986 153.689 35.3829 153.945 35.6292ZM155.866 32.3883C155.662 32.1666 155.353 32.0557 154.938 32.0557C154.667 32.0557 154.441 32.1009 154.262 32.1926C154.083 32.2829 153.939 32.3965 153.832 32.532C153.724 32.6661 153.648 32.8098 153.604 32.9604C153.56 33.1109 153.534 33.2464 153.526 33.3655H156.29C156.211 32.9371 156.069 32.6114 155.866 32.3883Z" fill="black"/>
<path d="M8.98275 7.29471C8.98275 7.74459 8.59421 8.10337 8.16486 8.10337C7.72142 8.10337 7.34555 7.7516 7.34555 7.28911C7.34555 6.84484 7.71438 6.47345 8.16767 6.47345C8.63926 6.47345 8.98275 6.87707 8.98275 7.29471ZM16.4761 4.72299C16.3283 5.14204 16.0834 5.55408 15.7131 5.84839C16.0834 5.7671 16.5718 5.58351 17.0082 5.75168C17.5629 5.89884 18.126 6.44261 18.2442 7.00881C18.354 7.74179 18.133 8.44813 17.5108 8.8882C17.0533 9.20353 16.3649 9.28482 15.8469 9.05638L15.4105 8.7929C15.5428 9.6436 16.3579 10.4158 17.142 10.8419C18.095 11.303 19.4563 11.2679 20.3741 10.7396C21.0034 10.4088 21.558 9.74731 21.8396 9.12365C22.1577 9.99677 23.1713 10.9007 24.1989 11.0395C25.4349 11.1726 26.6174 10.8349 27.3283 9.74731C27.4846 9.46141 27.6901 9.19653 27.7943 8.8882C27.4691 9.03535 26.9736 9.1741 26.5667 9.01994C26.0262 8.88119 25.5447 8.29958 25.4645 7.76561C25.3237 7.00881 25.6348 6.29546 26.2993 5.88482C26.6174 5.75168 27.0482 5.56949 27.3959 5.78111L27.4325 5.75168C26.9891 5.37748 26.8849 4.8267 26.9947 4.26051C27.2622 3.32852 28.1716 2.7413 28.7924 1.94666C28.2307 3.3061 28.3644 4.95144 28.2983 6.50848V13.4865H1.73151V6.11887C1.68787 4.50857 1.59778 2.71887 1.22754 1.9845C2.04966 2.94592 3.35885 3.74756 3.06323 5.12102C2.90838 5.34805 2.84925 5.60453 2.59727 5.78111C2.98158 5.64937 3.54467 5.71524 3.89238 5.97872C4.49771 6.4356 4.72013 7.184 4.55824 7.89595C4.40902 8.43272 3.89238 8.99051 3.32929 9.08581C2.93794 9.12365 2.59727 9.05638 2.2932 8.8882C2.36781 9.24838 2.62683 9.61557 2.86333 9.94632C3.53623 10.9007 4.61737 11.1138 5.69006 11.0689C6.75431 10.9442 7.83544 10.1663 8.19019 9.12365C8.72373 10.4004 10.0906 11.2105 11.4815 11.202C12.8948 11.181 14.2125 10.1593 14.6784 8.85877C14.6855 8.83074 14.663 8.81532 14.6489 8.7929C14.2195 9.10963 13.686 9.28482 13.1173 9.15308C12.5176 9.0788 11.9854 8.47757 11.8151 7.93379C11.6532 7.21343 11.8672 6.45663 12.5176 6.01656C13.0145 5.68581 13.7831 5.64096 14.3152 5.84839C13.5973 5.28219 13.3608 4.43709 13.5818 3.56958C13.7606 2.77774 14.6249 2.26339 15.0107 1.55144C15.7722 2.46941 16.8745 3.38598 16.4761 4.72299ZM30.0579 0C28.6671 0.867517 27.1735 1.89621 26.1965 3.33553C25.8784 3.79802 25.8122 4.52539 25.9966 5.02431C25.6644 5.06215 25.3899 5.23734 25.1309 5.45036C24.3918 6.12728 24.244 7.16858 24.4368 8.09496C24.5692 8.81532 25.2421 9.63799 25.9966 9.78375C25.5532 10.0837 24.9619 10.1299 24.3988 10.05C23.733 9.95333 23.1488 9.39273 22.8011 8.82233C23.3487 8.56446 23.7851 7.96322 23.8006 7.33816C23.8301 6.7145 23.4824 6.21417 23.0376 5.81895C22.3942 5.36207 21.4623 5.39991 20.8035 5.78111C20.1968 6.21417 19.9307 6.84484 19.9757 7.5666C20.0489 8.06413 20.3601 8.55044 20.8401 8.7929C20.6557 9.1685 20.2643 9.5497 19.9082 9.85102C19.1987 10.2687 18.1105 10.364 17.408 9.88045C17.6882 9.8286 17.9472 9.71788 18.2062 9.61557C19.0283 9.09422 19.338 8.24912 19.376 7.33816C19.3972 6.38375 18.82 5.47279 17.9402 5.09158C17.7557 5.0173 17.5488 5.00889 17.3785 4.92201C17.5629 4.66413 17.5995 4.34179 17.6741 4.03206C17.6966 2.32926 15.8314 1.36784 15.0107 0.0294307V0.0672713C14.3307 1.29357 12.8512 2.02794 12.45 3.37196C12.3191 3.90173 12.3838 4.50857 12.6513 4.95844C12.3698 5.0173 12.1107 5.12802 11.8517 5.22333C10.9648 5.78952 10.5946 6.72151 10.6819 7.69834C10.7565 8.54204 11.2309 9.43197 12.0812 9.74731C12.26 9.79916 12.4444 9.84261 12.6133 9.91689C12.2811 10.1159 11.9038 10.2098 11.4815 10.2098C10.4764 10.3345 9.66268 9.60015 9.21784 8.7929C9.79642 8.52802 10.0104 7.93379 10.0836 7.36759C10.0906 6.73552 9.75841 6.21417 9.25585 5.81895C8.63363 5.45877 7.70875 5.34805 7.08653 5.78111C6.56285 6.20717 6.17713 6.74393 6.25878 7.43346C6.27427 8.0361 6.72474 8.6023 7.22027 8.85877C6.99081 9.20353 6.68814 9.58614 6.32495 9.81318C5.66613 10.1453 4.65397 10.2687 4.06131 9.78375C4.39494 9.66742 4.72013 9.52728 4.99464 9.25539C5.79282 8.507 5.85336 7.16858 5.4606 6.21417C5.22269 5.64937 4.623 5.13643 4.02612 5.02431C4.3499 4.34179 4.03175 3.59901 3.66292 3.04121C2.59727 1.80791 1.22051 0.713353 0 0.0672716C0.502561 1.95507 0.665859 4.31937 0.665859 6.78878V14.5418H29.4287V7.69834C29.4076 5.03272 29.4822 2.35028 30.0579 0ZM22.7236 7.2863C22.7236 7.73618 22.3379 8.09356 21.9057 8.09356C21.4623 8.09356 21.0864 7.74179 21.0864 7.2793C21.0864 6.83783 21.4553 6.46644 21.91 6.46644C22.3816 6.46644 22.7236 6.86867 22.7236 7.2863Z" fill="black"/>
<path d="M1.76051 32.4582V35.257C1.95337 40.1481 4.69845 45.1052 9.38761 47.1625C13.2124 49.1386 18.749 48.6789 22.2121 46.2992L1.76051 32.4582ZM10.2984 16.6074L28.3132 28.691V16.6074H10.2984ZM29.4506 36.2632C29.0734 41.2357 25.7455 46.1254 20.9733 48.1912C16.5051 50.3495 10.2984 49.6291 6.45812 46.6342C2.90781 43.8859 0.939803 40.1117 0.687819 35.8302L0.696265 15.5647H29.4295L29.4506 36.2632ZM8.37545 16.6074H1.75488L1.76333 31.0987L23.2073 45.6573C26.759 42.682 28.3132 38.2393 28.3132 36.0348V30.0112L8.37545 16.6074Z" fill="black"/>
<path d="M9.55091 21.0221C9.56639 20.8749 9.6762 20.7292 9.81697 20.6549L10.121 20.6913L11.5865 21.4832L11.7188 21.6836C11.8005 21.4117 11.785 21.0655 12.1186 20.9198C12.4142 20.8175 12.8436 20.8091 13.0787 21.0501C13.2955 21.2702 13.4208 21.5743 13.3166 21.8826C13.2504 22.0494 13.0576 22.2049 12.9182 22.3073C13.9233 22.5721 14.782 23.2112 15.714 23.6653C15.973 23.8195 16.0237 24.1082 15.9434 24.3562L15.8097 24.5258C15.9209 24.6505 16.1363 24.6716 16.2757 24.7907L23.9985 29.9734C25.2049 30.6054 25.0796 31.8906 25.302 32.9865C24.9839 32.9725 24.5475 32.9053 24.1998 32.7875C24.2251 32.9095 24.2434 33.0314 24.2659 33.1491L24.8656 39.0311C24.7981 39.6408 24.28 40.0584 23.9323 40.5517L22.7343 42.0429L20.1751 40.3892C20.6255 39.8328 21.2112 39.2974 21.9727 39.3339C22.3571 39.3044 22.7414 39.3759 23.068 39.3997C22.6611 39.2526 22.2008 39.076 21.9727 38.6345C21.2027 37.233 20.1525 35.9395 19.6049 34.4399C19.3544 33.5808 19.5599 32.7707 19.9667 32.049C19.9006 32.0293 19.8457 32.0574 19.7373 32.0251C18.9461 31.9144 18.162 31.7084 17.3779 31.6958L19.139 32.7231C18.7687 34.0138 19.2868 35.271 19.9752 36.2912L18.9391 38.7368C18.7842 39.0536 18.3619 38.9653 18.0733 38.9358L15.714 38.6065C15.6394 37.5918 15.8238 36.601 15.8097 35.5653C16.6529 35.7937 17.4441 36.409 17.9396 37.1812V37.048L15.714 33.4785C15.3212 32.7665 15.6422 31.9985 16.0856 31.4169C16.0856 31.4169 15.5873 31.4393 15.3367 31.2725C15.0734 31.5514 12.5846 34.9038 12.5846 34.9038C12.3776 35.0719 12.0299 34.9991 11.785 34.9696L9.35242 34.6025L9.48334 31.5612C10.3055 31.7813 11.1346 32.3993 11.5485 33.1491C11.3106 31.4968 11.578 29.665 11.4528 27.9272C11.3049 27.4493 11.1121 26.9868 10.7193 26.6042L6.62142 23.7326V22.7683C7.21266 23.1439 7.7828 23.9456 8.52326 23.5616C8.78229 23.3415 8.83296 22.9982 8.75272 22.6744L8.61899 22.439L6.65802 21.088C6.52569 20.5007 6.8002 19.7523 6.42152 19.2646C7.48013 19.8112 8.51482 20.4265 9.55091 21.0221ZM4.75617 19.7285C4.55768 19.9359 4.48307 20.1924 4.52812 20.4937C4.5802 20.8007 4.87583 21.0501 5.1264 21.2505L8.19104 23.3345V23.0052C7.36751 22.3521 6.51161 21.8069 5.6895 21.1552C5.3798 20.9618 5.34882 20.6549 5.2897 20.3592C5.33475 20.0088 5.49664 19.6416 5.85842 19.4636C5.4896 19.458 5.04616 19.4496 4.75617 19.7285ZM5.02364 24.0255C5.22213 24.3478 5.40936 24.7024 5.6895 24.9518L5.99216 24.687C5.77818 24.2693 5.3263 24.2974 5.02364 24.0255ZM4.49152 24.4585L5.1264 25.3849C5.26718 25.3485 5.36431 25.2083 5.4896 25.12C5.28266 24.7304 4.83922 24.6435 4.49152 24.4585ZM4.02556 24.8846L4.66044 25.811L4.99408 25.4802C4.76462 25.1284 4.35778 25.0556 4.02556 24.8846ZM6.32438 25.085C5.53465 25.6778 4.76462 26.3477 3.99459 26.9714C4.49152 27.7562 5.06165 28.5144 5.59377 29.2838C5.75707 29.5795 6.08085 29.7771 6.39195 29.8781C7.90245 30.1738 9.49178 30.3644 10.9868 30.6054C10.8826 29.2992 11.3852 27.7212 10.2168 26.8382L6.92549 27.595C6.78471 27.6469 6.64253 27.7786 6.52569 27.7646C6.77627 27.1185 6.89592 26.2889 6.62142 25.6133L6.32438 25.085ZM3.49202 25.2826C3.72852 25.5909 3.9059 25.9497 4.19448 26.2076L4.49152 25.9427C4.28317 25.5615 3.83973 25.4648 3.49202 25.2826ZM3.06267 25.7157L3.66236 26.6042C3.79609 26.5453 3.95095 26.4584 4.02556 26.3085C3.76653 25.9497 3.41038 25.846 3.06267 25.7157ZM8.98922 31.5332C8.55986 31.5094 8.2206 31.6706 7.85741 31.7967C8.2206 31.871 8.60351 31.9144 8.98922 31.9593V31.5332ZM7.85741 32.4876C8.25016 32.4722 8.61195 32.6572 8.98922 32.5899C8.97515 32.4442 9.01034 32.283 8.95121 32.1569C8.52326 32.1204 8.17555 32.3405 7.85741 32.4876ZM8.92165 32.7875C8.4937 32.7525 8.16711 32.9557 7.8194 33.1183L8.92165 33.2795V32.7875ZM8.92165 33.4504C8.47118 33.3748 8.15303 33.6116 7.78983 33.7419C8.16007 33.8008 8.55283 33.9115 8.92165 33.8765V33.4504ZM8.88505 34.0741C8.44021 33.9858 8.13051 34.2142 7.78983 34.374C8.13051 34.4707 8.55986 34.4637 8.88505 34.5086V34.0741ZM14.2119 35.8302C14.5667 35.9226 15.0101 35.917 15.3437 35.9619C15.3282 35.8133 15.3733 35.6522 15.3142 35.5288C14.9003 35.5148 14.4709 35.711 14.2119 35.8302ZM15.3142 36.1595C14.8707 36.1231 14.5371 36.3291 14.1824 36.4902C14.5526 36.5505 14.9439 36.6514 15.3142 36.622V36.1595ZM14.1458 37.1139C14.523 37.1672 14.9003 37.3045 15.2776 37.2456C15.2691 37.1083 15.3071 36.9457 15.248 36.8196C14.7891 36.7089 14.5146 37.0186 14.1458 37.1139ZM15.2114 37.4461C14.7666 37.3998 14.4484 37.6451 14.0796 37.774L15.248 37.9085L15.2114 37.4461ZM15.2114 38.0781C14.775 38.0473 14.3977 38.2323 14.0796 38.4075L15.2114 38.5392V38.0781ZM19.871 40.7872C19.619 41.0885 19.6725 41.6183 19.5754 41.8733C19.7908 41.5888 20.0639 41.3156 20.2708 41.0142C20.1525 40.9105 20.0118 40.8517 19.871 40.7872ZM20.4031 41.1165C20.1596 41.4263 20.1751 41.9476 20.1385 42.2405C20.382 41.9995 20.5214 41.7178 20.7748 41.4781C20.8635 41.2847 20.5298 41.2273 20.4031 41.1165ZM20.9733 41.4781C20.6706 41.771 20.7213 42.2125 20.6706 42.6007L21.3731 41.743C21.2323 41.6533 21.114 41.5356 20.9733 41.4781ZM21.5054 41.8453C21.2027 42.1382 21.2548 42.5713 21.2027 42.9693L21.9066 42.071C21.7799 41.97 21.6391 41.9112 21.5054 41.8453ZM22.0389 42.1761C21.8024 42.4914 21.7503 42.8866 21.7348 43.2986C21.9573 42.9987 22.2163 42.7184 22.4021 42.4031C22.2839 42.3302 22.1712 42.2195 22.0389 42.1761ZM10.114 22.254C10.3238 22.254 10.4927 22.0858 10.4927 21.8784C10.4927 21.671 10.3238 21.5014 10.114 21.5014C9.90284 21.5014 9.73391 21.671 9.73391 21.8784C9.73391 22.0858 9.90284 22.254 10.114 22.254Z" fill="black"/>
<path d="M58.2199 63.734H0.690071V70H58.2199V63.734Z" fill="#EA161F"/>
</svg>
