<svg width="136" height="50" viewBox="0 0 136 50" fill="none" xmlns="http://www.w3.org/2000/svg">
<path d="M0 13.0173C0.219353 12.8534 0.564268 12.7365 0.903131 12.738L10.7937 12.7745L10.7907 32.4086L10.7271 37.2777L5.26448 37.3035C5.13892 37.3035 4.82124 37.2397 4.70475 37.1957C4.58827 37.1517 4.50809 36.8406 4.50809 36.6599V17.4189L0.878926 17.4477C0.61419 17.4493 0.199687 17.2595 0 17.1123V13.0173Z" fill="#ED1C24"/>
<path d="M51.6464 37.5129C48.3621 36.2 47.2654 32.8989 47.4953 29.581C47.6708 27.0554 48.9506 24.9138 51.2001 23.7329C52.9686 22.8055 54.9246 22.2819 56.9502 22.1999L60.3948 22.0603C60.4024 20.6761 60.6293 18.0974 59.177 17.3506C56.8186 16.1409 53.4678 17.4128 51.1683 18.2916C50.831 18.4206 50.353 18.2491 50.2516 17.9349L49.0686 14.2482C49.3046 13.7383 49.9158 13.3102 50.4694 13.1266C54.7113 11.7166 63.3735 10.516 65.5337 15.6552C66.0012 16.7693 66.3007 17.9243 66.3083 19.1613L66.3839 31.1944C66.393 32.6302 66.8393 33.9021 67.3854 35.1755C67.5079 35.4624 67.5775 35.8722 67.5609 36.2258L62.7275 38.2051C61.9015 37.3566 61.5944 36.2744 61.31 35.1482C58.8941 38.0062 55.0774 38.8835 51.6464 37.5114V37.5129ZM60.4009 26.2206L58.9183 26.2039C57.3526 26.1857 55.6295 26.4877 54.4269 27.6063C52.8143 29.1044 53.1047 31.8759 54.9321 33.0582C56.5962 34.1343 59.3253 33.0962 60.3963 31.5465L60.4009 26.2206Z" fill="#ED1C24"/>
<path d="M111.156 34.7931C109.059 37.9546 105.733 38.3599 102.24 37.6556C100.768 37.3596 99.4851 36.6523 98.3399 35.5641L97.2114 37.6389C97.0586 37.9182 96.4943 37.9334 96.2659 37.7801L93.9226 36.2122C95.0451 34.5608 95.573 32.999 95.573 31.0426V2.10439L98.6364 1.3121C98.7726 1.27719 99.0751 1.31514 99.1659 1.35308C99.2567 1.39103 99.3262 1.66119 99.3262 1.79476L99.3323 15.1574C101.373 13.4468 103.865 12.5255 106.483 12.7335C109.102 12.9414 111.156 14.3697 112.276 16.7055C114.132 20.4089 113.841 26.5196 112.943 30.4749C112.586 32.0459 112.029 33.4741 111.156 34.7931ZM109.451 27.3255C109.63 24.6603 109.802 20.5972 108.761 18.2188C107.442 15.2044 103.273 15.7099 101.09 17.2732L99.3278 18.536V32.6864C100.713 33.7169 102.243 34.406 103.946 34.5745C108.214 34.998 109.227 30.651 109.451 27.3255Z" fill="black"/>
<path d="M35.7803 13.0097C36.2599 13.1919 35.8681 13.9447 35.744 14.2953L27.4903 37.7163L22.5132 37.7603C22.1093 37.7634 21.8627 37.3794 21.7205 36.9635L13.6468 13.4544C13.5878 13.2844 13.9463 12.8868 14.1097 12.8701L16.2987 12.6348C17.5937 12.4952 18.7328 12.31 20.0776 12.4451L23.5419 25.1809L24.9927 31.7362C25.7597 27.626 26.9366 23.7602 28.1438 19.7669L30.36 12.436C31.4886 12.3191 32.5127 12.4633 33.5838 12.6394C34.2721 12.7517 35.0557 12.7365 35.7818 13.0112L35.7803 13.0097Z" fill="#ED1C24"/>
<path d="M127.614 34.5851C131.03 34.7612 133.264 32.8533 134.141 32.5816C134.247 32.5482 134.462 32.8108 134.511 32.9338L135.506 35.5049C132.972 37.1517 130.074 37.9956 127.104 37.9121C123.175 37.7998 119.976 35.5155 118.443 31.9548C116.639 27.7566 116.776 21.825 118.871 17.7255C120.7 14.1465 124.263 12.3055 128.213 12.7502C133.524 13.3467 135.524 17.6906 135.892 22.5748C135.981 23.7572 136.085 24.8561 135.886 26.1113L121.287 26.1189C121.231 29.9847 122.968 34.3468 127.614 34.5866V34.5851ZM131.928 23.0287C131.931 21.1861 131.615 19.7138 130.892 18.2856C130.071 16.7131 128.573 15.7569 126.78 15.8009C122.836 15.7767 121.29 19.5423 121.254 23.0317L131.928 23.0287Z" fill="black"/>
<path d="M73.5893 36.6842V17.4341L69.5381 17.4052C69.2748 17.4037 69.0298 16.7587 69.0313 16.487L69.0373 13.4666C69.0419 13.2708 69.3096 12.7532 69.5774 12.7532L79.8371 12.7699L79.8492 34.9767C79.8492 35.7842 79.8068 36.4216 79.7539 37.2762L74.1702 37.3065C73.9342 37.3065 73.5893 37.0667 73.5893 36.6842Z" fill="#ED1C24"/>
<path d="M42.2429 48.2012C42.2429 48.9874 42.196 49.3396 42.1249 49.9953C41.2838 50.0059 40.6485 50.0089 39.8421 49.889V0.143402C40.6091 -0.0508757 41.2959 -0.0129309 42.0674 0.0553697C42.1537 0.415086 42.2384 0.793016 42.2384 1.23014L42.2444 48.2012H42.2429Z" fill="#ED1C24"/>
<path d="M6.96636 1.39254C9.24915 1.00702 11.302 2.64169 11.6303 4.7757C11.9767 7.02658 10.4896 9.1439 8.21895 9.48541C6.04054 9.81173 4.02098 8.37286 3.58378 6.13868C3.1723 4.0335 4.59281 1.79476 6.96787 1.39406L6.96636 1.39254Z" fill="#ED1C24"/>
<path d="M76.1504 1.38344C78.5315 1.07533 80.4861 2.76159 80.7357 4.90927C81.0034 7.21479 79.4891 9.15453 77.2306 9.47782C75.0234 9.79352 73.0023 8.24841 72.6544 6.08404C72.2943 3.85288 73.8041 1.687 76.1504 1.38344Z" fill="#ED1C24"/>
</svg>
