<svg width="30" height="30" viewBox="0 0 30 30" fill="none" xmlns="http://www.w3.org/2000/svg">
<path d="M15 0C6.70945 0 0 6.70881 0 15C0 23.2906 6.70881 30 15 30C23.2905 30 30 23.2912 30 15C30 6.70939 23.2912 0 15 0ZM15 27.6562C8.00484 27.6562 2.34375 21.9957 2.34375 15C2.34375 8.00479 8.00432 2.34375 15 2.34375C21.9952 2.34375 27.6562 8.00432 27.6562 15C27.6562 21.9952 21.9957 27.6562 15 27.6562Z" fill="#78ABAD"/>
<path d="M20.132 18.4747L16.6573 15L20.132 11.5253C20.5896 11.0677 20.5897 10.3257 20.1321 9.86801C19.6743 9.41033 18.9323 9.41039 18.4748 9.86801L15 13.3427L11.5252 9.86801C11.0677 9.41033 10.3256 9.41033 9.86795 9.86801C9.41033 10.3257 9.41033 11.0677 9.86801 11.5253L13.3427 15L9.86801 18.4747C9.41033 18.9324 9.41027 19.6744 9.86795 20.132C10.3257 20.5897 11.0677 20.5896 11.5252 20.132L15 16.6573L18.4748 20.132C18.9323 20.5896 19.6744 20.5897 20.1321 20.132C20.5897 19.6743 20.5897 18.9323 20.132 18.4747Z" fill="#78ABAD"/>
</svg>
