<svg width="217" height="207" viewBox="0 0 217 207" fill="none" xmlns="http://www.w3.org/2000/svg">
<g opacity="0.1">
<path d="M134.357 108.838C145.376 108.838 154.076 116.649 154.221 126.581C154.414 136.512 144.845 145.287 133.971 145.046C123.048 144.853 114.011 136.512 114.107 126.629C114.204 116.745 123.097 108.79 134.406 108.838" fill="#94A3B8"/>
<path d="M102.557 81.3085C103.813 90.5654 93.2775 99.533 83.1284 99.0509C71.3844 98.5688 63.9417 91.7225 63.3618 81.0192C62.8302 71.2802 73.1243 63.0357 83.2251 63.0357C93.3258 63.0357 103.91 71.3766 102.508 81.3085" fill="#94A3B8"/>
<path d="M169.831 88.8297C169.831 96.3028 162.34 103.583 154.365 103.728C146.44 103.872 138.175 96.1099 138.707 88.9262C139.722 80.3442 147.454 74.2212 156.057 75.2337C163.258 76.0533 168.961 81.7424 169.782 88.9262V88.8297H169.831Z" fill="#94A3B8"/>
<path d="M110.096 147.264C110.096 155.75 103.862 161.439 94.5824 161.39C85.3032 161.39 78.9238 155.267 78.9238 146.685C78.9238 139.309 86.3664 132.559 94.7757 132.752C103.958 132.993 110.918 139.646 110.096 147.264Z" fill="#94A3B8"/>
<path d="M48.3314 119.445C48.3314 111.635 55.0492 105.511 63.8451 105.608C72.5927 105.704 79.9387 112.117 79.5037 119.541C78.9721 128.123 73.6076 134.15 63.8451 134.198C55.9674 134.873 49.0564 129.039 48.3798 121.181C48.3798 120.602 48.3314 119.975 48.3798 119.397" fill="#94A3B8"/>
<path d="M123.773 47.2701C133.101 47.2701 139.432 53.0556 139.432 61.8304C139.432 69.3999 132.424 75.8122 123.918 75.9568C115.412 76.1015 108.115 69.2552 108.26 61.9751C108.26 53.2485 114.591 47.3183 123.773 47.3183" fill="#94A3B8"/>
<path d="M57.7073 143.793C63.2168 143.503 67.8564 147.746 68.1464 153.194V153.291C67.8564 158.546 63.5551 162.692 58.2389 162.789C53.0194 162.981 47.7998 158.449 47.7998 153.725C47.7998 148.276 52.1978 143.841 57.659 143.841L57.7073 143.793Z" fill="#94A3B8"/>
<path d="M159.15 63.3732C153.834 63.6143 149.339 59.5644 149.049 54.261C149.049 54.1163 149.049 53.9717 149.049 53.8753C149.049 49.1022 153.834 44.8112 159.343 44.8594C164.66 44.8594 169.106 48.8129 169.589 54.0681C169.347 59.468 164.805 63.6625 159.44 63.4214C159.343 63.4214 159.247 63.4214 159.198 63.4214" fill="#94A3B8"/>
<path d="M22.717 154.158C22.427 149.578 25.9067 145.625 30.5463 145.335C30.788 145.335 31.078 145.335 31.3196 145.335C37.6024 145.335 39.9222 148.759 40.5021 154.014C40.9854 158.208 36.1525 162.065 31.4163 162.065C26.8733 162.21 23.007 158.69 22.717 154.158Z" fill="#94A3B8"/>
<path d="M158.135 37.1935C153.254 37.29 149.194 33.5293 149.001 28.6598C149.243 24.0314 153.109 20.3672 157.749 20.319C162.436 20.0779 166.496 23.6457 166.786 28.3223C166.834 33.1436 162.968 37.1453 158.135 37.1935Z" fill="#94A3B8"/>
<path d="M196.315 55.4663C196.315 60.0947 192.545 63.8554 187.906 63.8554C182.88 63.8554 178.772 59.9019 178.578 54.8877C179.062 50.2111 183.218 46.8361 187.906 47.2218C192.304 46.9326 196.074 50.2593 196.363 54.6467C196.363 54.8877 196.363 55.177 196.363 55.4663" fill="#94A3B8"/>
<path d="M68.388 179.808C68.388 184.436 64.6667 188.197 60.0271 188.245C55.3392 188.245 51.4245 184.726 50.7962 180.145C50.6512 176.385 55.7741 171.467 59.8338 171.467C64.28 171.949 67.8081 175.42 68.388 179.856" fill="#94A3B8"/>
<path d="M0.00234771 151.7C0.0990059 148.084 3.14374 145.239 6.76842 145.384C6.86508 145.384 6.96174 145.384 7.0584 145.384C10.8281 145.384 13.8245 148.469 13.8245 152.182C13.8245 152.326 13.8245 152.471 13.8245 152.567C13.1479 156.039 10.1031 158.546 6.52678 158.546C2.80544 158.449 -0.0943105 155.412 0.00234771 151.7Z" fill="#94A3B8"/>
<path d="M157.652 13.0388C154.027 12.6531 151.176 9.8085 150.741 6.24073C150.692 2.86581 153.399 0.0694558 156.782 0.0212428C156.975 0.0212428 157.217 0.0212428 157.41 0.0212428C160.987 -0.268036 164.08 2.4319 164.37 5.99966C163.838 9.51922 161.132 12.3638 157.652 13.0388Z" fill="#94A3B8"/>
<path d="M217 54.8395C216.855 58.6966 213.617 61.734 209.751 61.5893C206.174 61.4447 203.275 58.6966 202.985 55.1288C203.275 51.6092 206.271 48.8611 209.799 48.9575C213.375 48.7647 216.468 51.32 217 54.8395Z" fill="#94A3B8"/>
<path d="M54.0343 200.829C54.0343 197.213 56.934 194.272 60.5587 194.224H60.7037C64.3284 194.465 67.2281 197.357 67.4214 201.022C67.4214 204.3 64.7633 207 61.477 207C61.187 207 60.897 207 60.607 206.952C57.4173 207.337 54.5176 205.12 54.0826 201.938C54.0826 201.552 54.0343 201.214 54.0826 200.829" fill="#94A3B8"/>
</g>
</svg>
