<svg width="20" height="20" viewBox="0 0 20 20" fill="none" xmlns="http://www.w3.org/2000/svg">
<path d="M10 0C4.47734 0 0 4.47734 0 10C0 15.5227 4.47734 20 10 20C15.5227 20 20 15.5227 20 10C20 4.47734 15.5227 0 10 0ZM15.2734 13.0891C15.2727 13.354 15.1672 13.6078 14.9799 13.7951C14.7926 13.9824 14.5387 14.088 14.2738 14.0887H5.72617C5.46128 14.088 5.20745 13.9824 5.02014 13.7951C4.83283 13.6078 4.72728 13.354 4.72656 13.0891V7.86406L9.99766 10.4938L15.2734 7.91914V13.0891ZM15.2734 6.93359L10.0023 9.50625L4.72656 6.875C4.73664 6.6166 4.8462 6.37209 5.03234 6.19257C5.21847 6.01306 5.46679 5.91243 5.72539 5.91172H14.2738C14.5387 5.91244 14.7924 6.01793 14.9797 6.20516C15.167 6.39238 15.2726 6.64611 15.2734 6.91094V6.93359Z" fill="#78ABAD"/>
</svg>
