<svg width="312" height="60" viewBox="0 0 312 60" fill="none" xmlns="http://www.w3.org/2000/svg">
<g clip-path="url(#clip0_3003_12226)">
<path d="M38.2484 31.5444C41.3853 31.5444 43.8618 33.8085 43.9031 36.6876C43.9581 39.5667 41.234 42.1104 38.1383 42.0405C35.0289 41.9846 32.4561 39.5667 32.4836 36.7016C32.5111 33.8365 35.0427 31.5304 38.2622 31.5444" fill="#78ABAD"/>
<path d="M29.1954 23.5639C29.5532 26.2474 26.5538 28.847 23.6646 28.7072C20.3213 28.5674 18.2025 26.5828 18.0374 23.4801C17.886 20.6569 20.8166 18.2669 23.6921 18.2669C26.5676 18.2669 29.5807 20.6848 29.1817 23.5639" fill="#A8BFD6"/>
<path d="M48.3473 25.7442C48.3473 27.9106 46.2148 30.021 43.9446 30.0629C41.6883 30.1048 39.3356 27.8546 39.4869 25.7722C39.7758 23.2844 41.9772 21.5094 44.4262 21.8029C46.4762 22.0405 48.0997 23.6897 48.3336 25.7722V25.7442H48.3473Z" fill="#78ABAD"/>
<path d="M31.3415 42.6834C31.3415 45.1433 29.5666 46.7925 26.925 46.7785C24.2834 46.7785 22.4673 45.0035 22.4673 42.5157C22.4673 40.3774 24.5861 38.4207 26.9801 38.4766C29.5942 38.5465 31.5754 40.4752 31.3415 42.6834Z" fill="#78ABAD"/>
<path d="M13.7583 34.6192C13.7583 32.355 15.6707 30.58 18.1748 30.608C20.665 30.6359 22.7563 32.4948 22.6325 34.6471C22.4811 37.1349 20.954 38.8819 18.1748 38.8959C15.9321 39.0915 13.9647 37.4004 13.7721 35.1223C13.7721 34.9546 13.7583 34.7729 13.7721 34.6052" fill="#A8BFD6"/>
<path d="M35.2354 13.6967C37.8908 13.6967 39.6932 15.3739 39.6932 17.9175C39.6932 20.1118 37.6982 21.9706 35.2767 22.0126C32.8552 22.0545 30.7777 20.0699 30.819 17.9595C30.819 15.4298 32.6213 13.7107 35.2354 13.7107" fill="#A8BFD6"/>
<path d="M16.4274 41.6771C17.9959 41.5933 19.3167 42.8232 19.3992 44.4025V44.4305C19.3167 45.9539 18.0922 47.1558 16.5788 47.1838C15.0928 47.2397 13.6069 45.9259 13.6069 44.5563C13.6069 42.9769 14.859 41.6911 16.4137 41.6911L16.4274 41.6771Z" fill="#78ABAD"/>
<path d="M45.3067 18.3648C43.7932 18.4347 42.5137 17.2607 42.4312 15.7233C42.4312 15.6813 42.4312 15.6394 42.4312 15.6115C42.4312 14.2278 43.7932 12.9839 45.3617 12.9979C46.8751 12.9979 48.1409 14.144 48.2785 15.6674C48.2097 17.2327 46.9164 18.4486 45.3892 18.3788C45.3617 18.3788 45.3342 18.3788 45.3204 18.3788" fill="#A8BFD6"/>
<path d="M6.46623 44.682C6.38368 43.3543 7.37429 42.2082 8.6951 42.1244C8.76389 42.1244 8.84644 42.1244 8.91523 42.1244C10.7038 42.1244 11.3642 43.1167 11.5293 44.6401C11.6669 45.856 10.2911 46.9741 8.94275 46.9741C7.64946 47.0161 6.54878 45.9958 6.46623 44.682Z" fill="#78ABAD"/>
<path d="M45.0178 10.7757C43.6282 10.8036 42.4725 9.71349 42.4175 8.30189C42.4863 6.96017 43.5869 5.89797 44.9078 5.884C46.2423 5.81412 47.398 6.84836 47.4806 8.20405C47.4943 9.60168 46.3937 10.7617 45.0178 10.7757Z" fill="#78ABAD"/>
<path d="M55.8867 16.0727C55.8867 17.4144 54.8136 18.5045 53.4928 18.5045C52.0619 18.5045 50.8924 17.3585 50.8374 15.905C50.975 14.5493 52.1582 13.5709 53.4928 13.6827C54.7448 13.5989 55.818 14.5632 55.9005 15.8351C55.9005 15.905 55.9005 15.9888 55.9005 16.0727" fill="#A8BFD6"/>
<path d="M19.4684 52.1174C19.4684 53.4591 18.409 54.5493 17.0882 54.5632C15.7536 54.5632 14.6392 53.543 14.4603 52.2152C14.4191 51.1251 15.8774 49.6995 17.0332 49.6995C18.2989 49.8393 19.3033 50.8456 19.4684 52.1314" fill="#A8BFD6"/>
<path d="M0.00018007 43.9693C0.0276969 42.921 0.894478 42.0964 1.92636 42.1384C1.95388 42.1384 1.98139 42.1384 2.00891 42.1384C3.08207 42.1384 3.93509 43.0328 3.93509 44.109C3.93509 44.1509 3.93509 44.1929 3.93509 44.2208C3.74247 45.2271 2.87569 45.9539 1.85757 45.9539C0.798169 45.9259 -0.0273368 45.0454 0.00018007 43.9693Z" fill="#78ABAD"/>
<path d="M44.8802 3.77368C43.8484 3.66187 43.0366 2.83727 42.9128 1.80303C42.899 0.824694 43.6695 0.0140726 44.6326 9.63989e-05C44.6876 9.63989e-05 44.7564 9.63989e-05 44.8114 9.63989e-05C45.8296 -0.083761 46.7101 0.698908 46.7927 1.73315C46.6413 2.75342 45.8708 3.57801 44.8802 3.77368Z" fill="#78ABAD"/>
<path d="M61.7756 15.891C61.7343 17.0091 60.8125 17.8896 59.7118 17.8477C58.6937 17.8057 57.8682 17.0091 57.7856 15.9748C57.8682 14.9546 58.7212 14.1579 59.7256 14.1859C60.7437 14.13 61.6242 14.8707 61.7756 15.891Z" fill="#A8BFD6"/>
<path d="M15.3818 58.211C15.3818 57.1628 16.2073 56.3103 17.2392 56.2963H17.2805C18.3124 56.3662 19.1379 57.2047 19.1929 58.2669C19.1929 59.2173 18.4362 60 17.5006 60C17.4181 60 17.3355 60 17.253 59.986C16.3449 60.0978 15.5194 59.4549 15.3956 58.5325C15.3956 58.4207 15.3818 58.3228 15.3956 58.211" fill="#A8BFD6"/>
<path d="M76.9236 40.9644C76.9236 40.601 76.8961 40.2795 76.8273 39.986C76.7585 39.7065 76.6209 39.427 76.4145 39.1754C76.2081 38.9238 75.9055 38.6723 75.5202 38.4347C75.135 38.1971 74.6122 37.9455 73.9655 37.6799C73.195 37.3864 72.4658 37.051 71.7642 36.6597C71.0625 36.2823 70.4571 35.8351 69.9205 35.318C69.3977 34.8008 68.9712 34.1999 68.6548 33.515C68.3383 32.8302 68.187 32.0475 68.187 31.1391C68.187 30.2306 68.3383 29.4759 68.6685 28.7631C68.985 28.0503 69.439 27.4354 70.0031 26.9322C70.5809 26.4291 71.2689 26.0377 72.0531 25.7582C72.8511 25.4787 73.7179 25.3389 74.681 25.3389C75.644 25.3389 76.5521 25.4927 77.3363 25.8141C78.1343 26.1356 78.8085 26.5828 79.3588 27.1419C79.9092 27.7149 80.3494 28.3857 80.6384 29.1684C80.941 29.9511 81.0924 30.8176 81.0924 31.754H76.9786C76.9786 31.3208 76.9373 30.9154 76.841 30.5521C76.7447 30.1887 76.6071 29.8672 76.4145 29.6017C76.2219 29.3361 75.9742 29.1405 75.6716 28.9867C75.3689 28.847 75.0112 28.7631 74.5846 28.7631C74.1856 28.7631 73.8554 28.819 73.5665 28.9448C73.2776 29.0706 73.0437 29.2383 72.8511 29.4479C72.6585 29.6576 72.5209 29.9092 72.4246 30.2166C72.3283 30.5101 72.287 30.8316 72.287 31.153C72.287 31.4745 72.3558 31.8099 72.5071 32.0755C72.6447 32.355 72.8648 32.6066 73.1263 32.8442C73.3877 33.0818 73.7179 33.3054 74.0893 33.515C74.4746 33.7247 74.8873 33.9343 75.3414 34.13C76.2907 34.4794 77.13 34.8707 77.8454 35.304C78.5608 35.7372 79.1524 36.2124 79.634 36.7575C80.1155 37.3026 80.4733 37.9175 80.7071 38.5884C80.941 39.2732 81.0649 40.0419 81.0649 40.8945C81.0649 41.8029 80.9135 42.6275 80.6246 43.3403C80.3357 44.0531 79.9092 44.6541 79.3588 45.1433C78.8085 45.6324 78.1481 46.0098 77.3638 46.2614C76.5934 46.5269 75.7128 46.6527 74.736 46.6527C73.8554 46.6527 72.9887 46.5129 72.1356 46.2474C71.2826 45.9818 70.5259 45.5625 69.8655 45.0035C69.2051 44.4444 68.6685 43.7317 68.2558 42.8791C67.843 42.0266 67.6504 41.0063 67.6504 39.8183H71.7917C71.7917 40.4472 71.8467 40.9783 71.9705 41.4116C72.0944 41.8449 72.2732 42.2082 72.5209 42.4738C72.7685 42.7393 73.0712 42.935 73.4427 43.0608C73.8004 43.1866 74.2269 43.2425 74.7222 43.2425C75.1212 43.2425 75.4514 43.1866 75.7266 43.0608C76.0018 42.949 76.2219 42.7813 76.4008 42.5716C76.5796 42.376 76.7034 42.1244 76.7722 41.8449C76.841 41.5514 76.8823 41.2439 76.8823 40.9224L76.9236 40.9644Z" fill="#78ABAD"/>
<path d="M97.1345 25.6184V39.8882C97.1345 41.1041 96.9694 42.1244 96.6392 42.9909C96.309 43.8435 95.8413 44.5563 95.2496 45.1013C94.658 45.6464 93.9426 46.0517 93.1171 46.3033C92.2916 46.5549 91.3973 46.6946 90.4204 46.6946C89.4436 46.6946 88.5218 46.5688 87.6825 46.3033C86.857 46.0517 86.1416 45.6464 85.5499 45.1013C84.9583 44.5563 84.4905 43.8574 84.1603 42.9909C83.8301 42.1384 83.665 41.1041 83.665 39.8882V25.6184H87.8201V39.8882C87.8201 40.573 87.8751 41.1321 87.9852 41.5653C88.0953 41.9986 88.2604 42.334 88.4805 42.5716C88.7006 42.8092 88.9758 42.9769 89.2922 43.0748C89.6224 43.1726 89.9939 43.2145 90.4067 43.2145C90.8194 43.2145 91.2047 43.1726 91.5211 43.0748C91.8375 42.9909 92.1127 42.8232 92.3329 42.5716C92.553 42.334 92.7181 41.9986 92.8282 41.5653C92.9382 41.1321 92.9933 40.587 92.9933 39.8882V25.6184H97.1208H97.1345Z" fill="#78ABAD"/>
<path d="M110.838 37.4144H104.399V42.921H112.021V46.4151H100.271V25.6184H111.994V29.1265H104.399V34.0321H110.838V37.4144Z" fill="#78ABAD"/>
<path d="M114.388 46.4151V25.6324H120.717C121.735 25.6324 122.657 25.7442 123.468 25.9818C124.28 26.2055 124.968 26.5549 125.532 27.0301C126.096 27.5052 126.523 28.0922 126.825 28.805C127.114 29.5178 127.266 30.3564 127.266 31.3347C127.266 31.8099 127.211 32.2711 127.114 32.7044C127.018 33.1377 126.867 33.557 126.646 33.9343C126.44 34.3117 126.165 34.6611 125.848 34.9686C125.532 35.276 125.133 35.5276 124.693 35.7372C125.216 35.891 125.656 36.1146 126.027 36.4361C126.399 36.7435 126.688 37.1069 126.908 37.5122C127.128 37.9175 127.293 38.3648 127.403 38.8539C127.499 39.3291 127.555 39.8323 127.555 40.3354C127.555 42.348 127.004 43.8714 125.917 44.9057C124.83 45.9259 123.248 46.443 121.171 46.443H114.401L114.388 46.4151ZM118.529 34.3256H120.675C121.501 34.3256 122.106 34.102 122.505 33.6688C122.904 33.2355 123.097 32.5926 123.097 31.768C123.097 30.8316 122.904 30.1468 122.533 29.7414C122.161 29.3361 121.542 29.1265 120.703 29.1265H118.515V34.3256H118.529ZM118.529 37.3725V42.921H121.171C121.57 42.921 121.914 42.8512 122.202 42.7254C122.491 42.5856 122.725 42.4039 122.904 42.1663C123.083 41.9287 123.221 41.6352 123.303 41.3138C123.386 40.9923 123.427 40.6289 123.427 40.2376C123.427 39.3571 123.262 38.6583 122.945 38.1412C122.629 37.624 122.079 37.3725 121.308 37.3725H118.529Z" fill="#78ABAD"/>
<path d="M144.945 37.8896C144.945 39.3431 144.766 40.6289 144.408 41.7331C144.051 42.8372 143.555 43.7596 142.909 44.4864C142.262 45.2131 141.492 45.7722 140.584 46.1495C139.675 46.5129 138.685 46.7086 137.584 46.7086C136.483 46.7086 135.493 46.5269 134.571 46.1495C133.663 45.7722 132.879 45.2271 132.232 44.4864C131.585 43.7456 131.076 42.8372 130.719 41.7331C130.361 40.6289 130.182 39.3431 130.182 37.8896V34.4375C130.182 32.942 130.361 31.6282 130.719 30.4962C131.076 29.3641 131.572 28.4137 132.218 27.645C132.865 26.8903 133.649 26.3173 134.557 25.9259C135.465 25.5486 136.47 25.3529 137.57 25.3529C138.671 25.3529 139.662 25.5486 140.57 25.9259C141.478 26.3173 142.248 26.8903 142.909 27.645C143.555 28.4137 144.064 29.3641 144.422 30.4962C144.78 31.6422 144.959 32.956 144.959 34.4375V37.8896H144.945ZM140.804 34.4095C140.804 33.4172 140.735 32.5786 140.597 31.8798C140.46 31.181 140.253 30.608 139.978 30.1607C139.703 29.7135 139.373 29.392 138.96 29.1824C138.547 28.9727 138.093 28.8609 137.57 28.8609C137.048 28.8609 136.566 28.9727 136.167 29.1824C135.768 29.392 135.424 29.7135 135.149 30.1607C134.874 30.608 134.667 31.181 134.53 31.8798C134.392 32.5786 134.323 33.4172 134.323 34.4095V37.8896C134.323 38.826 134.392 39.6366 134.53 40.3075C134.667 40.9783 134.874 41.5234 135.149 41.9567C135.424 42.3899 135.768 42.6974 136.181 42.8931C136.594 43.0887 137.061 43.1866 137.598 43.1866C138.135 43.1866 138.589 43.0887 138.988 42.8931C139.387 42.6974 139.717 42.376 139.992 41.9567C140.267 41.5234 140.473 40.9783 140.597 40.3075C140.735 39.6366 140.804 38.826 140.804 37.8896V34.4095Z" fill="#78ABAD"/>
<path d="M158.841 46.4151H154.713V25.6184H158.841V46.4151Z" fill="#78ABAD"/>
<path d="M165.761 30.9574L165.871 32.4808C166.312 31.8938 166.821 31.4465 167.412 31.1251C168.004 30.8176 168.664 30.6639 169.394 30.6639C169.985 30.6639 170.522 30.7617 171.017 30.9714C171.512 31.181 171.939 31.5164 172.297 31.9776C172.654 32.4389 172.93 33.0538 173.122 33.8085C173.315 34.5632 173.411 35.4857 173.411 36.5758V46.4011H169.421V36.5618C169.421 36.0587 169.38 35.6534 169.311 35.3319C169.242 35.0105 169.132 34.7589 168.981 34.5632C168.83 34.3676 168.651 34.2418 168.444 34.1579C168.224 34.0741 167.977 34.0461 167.688 34.0461C167.316 34.0461 166.986 34.144 166.697 34.3396C166.422 34.5353 166.188 34.8148 165.995 35.1642V46.3871H162.005V30.9434H165.748L165.761 30.9574Z" fill="#78ABAD"/>
<path d="M177.195 46.4151V34.0042H175.351V30.9574H177.195V29.6296C177.195 28.7491 177.305 27.9665 177.539 27.2956C177.773 26.6247 178.103 26.0517 178.529 25.5905C178.956 25.1293 179.479 24.7799 180.098 24.5423C180.717 24.3047 181.391 24.1789 182.161 24.1789C182.492 24.1789 182.794 24.2068 183.083 24.2628C183.372 24.3187 183.661 24.3885 183.95 24.4584L183.923 27.6869C183.647 27.6031 183.331 27.5611 182.959 27.5611C182.382 27.5611 181.955 27.7428 181.639 28.0922C181.336 28.4416 181.185 28.9588 181.185 29.6296V30.9574H183.565V34.0042H181.185V46.4151H177.195Z" fill="#78ABAD"/>
<path d="M185.257 38.1831C185.257 36.9811 185.395 35.905 185.698 34.9686C185.987 34.0321 186.399 33.2495 186.936 32.6205C187.472 31.9776 188.119 31.5024 188.876 31.167C189.633 30.8456 190.472 30.6778 191.407 30.6778C192.343 30.6778 193.21 30.8456 193.966 31.167C194.723 31.5024 195.37 31.9776 195.906 32.6205C196.443 33.2635 196.856 34.0461 197.145 34.9686C197.434 35.905 197.585 36.9672 197.585 38.1831V39.2034C197.585 40.4193 197.447 41.4955 197.158 42.4179C196.869 43.3543 196.457 44.137 195.934 44.7659C195.397 45.4088 194.751 45.884 193.994 46.2055C193.237 46.5269 192.384 46.6946 191.449 46.6946C190.513 46.6946 189.646 46.5269 188.89 46.2055C188.133 45.884 187.486 45.3948 186.95 44.7659C186.413 44.123 186 43.3403 185.711 42.4179C185.422 41.4955 185.271 40.4193 185.271 39.2034V38.1831H185.257ZM189.247 39.2034C189.247 40.6429 189.44 41.6911 189.825 42.348C190.21 43.0049 190.747 43.3403 191.421 43.3403C192.137 43.3403 192.687 43.0049 193.058 42.348C193.43 41.6911 193.609 40.6289 193.609 39.2034V38.1831C193.609 36.7715 193.416 35.7233 193.031 35.0524C192.646 34.3676 192.109 34.0321 191.407 34.0321C190.706 34.0321 190.21 34.3676 189.825 35.0524C189.44 35.7372 189.261 36.7855 189.261 38.1831V39.2034H189.247Z" fill="#78ABAD"/>
<path d="M207.546 34.8567C207.367 34.8428 207.147 34.8148 206.885 34.7869C206.624 34.7589 206.404 34.7449 206.225 34.7449C205.647 34.7449 205.193 34.8707 204.835 35.1223C204.478 35.3739 204.202 35.7372 204.024 36.2124V46.4151H200.034V30.9713H203.79L203.9 32.6345C204.202 32.0196 204.574 31.5304 205 31.195C205.441 30.8595 205.936 30.6778 206.5 30.6778C206.679 30.6778 206.872 30.6918 207.078 30.7338C207.284 30.7617 207.463 30.8176 207.587 30.8735L207.546 34.8707V34.8567Z" fill="#78ABAD"/>
<path d="M213.325 30.9574L213.435 32.383C213.861 31.8379 214.356 31.4186 214.948 31.1251C215.54 30.8176 216.2 30.6778 216.97 30.6778C217.672 30.6778 218.305 30.8456 218.855 31.181C219.406 31.5164 219.86 32.0475 220.176 32.7603C220.589 32.1034 221.098 31.5863 221.717 31.2229C222.336 30.8595 223.065 30.6778 223.905 30.6778C224.524 30.6778 225.088 30.7897 225.583 30.9993C226.079 31.2089 226.505 31.5444 226.863 32.0196C227.221 32.4808 227.496 33.0957 227.688 33.8505C227.881 34.6052 227.977 35.5136 227.977 36.6038V46.4291H224.001V36.5898C224.001 36.0727 223.96 35.6534 223.891 35.3319C223.822 35.0105 223.712 34.7449 223.575 34.5632C223.437 34.3816 223.258 34.2418 223.065 34.1719C222.873 34.102 222.639 34.0601 222.391 34.0601C221.992 34.0601 221.662 34.1859 221.387 34.4235C221.112 34.6751 220.892 35.0105 220.727 35.4437C220.727 35.5416 220.74 35.6534 220.754 35.7652C220.754 35.877 220.754 35.9888 220.754 36.1146V46.4151H216.778V36.6038C216.778 36.0867 216.75 35.6674 216.668 35.3459C216.599 35.0245 216.489 34.7589 216.365 34.5632C216.228 34.3676 216.062 34.2418 215.856 34.1719C215.65 34.102 215.43 34.0601 215.168 34.0601C214.797 34.0601 214.494 34.1579 214.219 34.3536C213.944 34.5493 213.723 34.8288 213.531 35.1782V46.4011H209.555V30.9574H213.283H213.325Z" fill="#78ABAD"/>
<path d="M238.158 46.4151C238.09 46.2474 238.021 46.0657 237.966 45.87C237.911 45.6604 237.87 45.4507 237.815 45.2271C237.512 45.6464 237.127 45.9958 236.659 46.2893C236.191 46.5688 235.613 46.7226 234.925 46.7226C234.306 46.7226 233.728 46.6108 233.192 46.4011C232.655 46.1775 232.187 45.87 231.788 45.4787C231.389 45.0734 231.073 44.5982 230.853 44.0252C230.619 43.4661 230.509 42.8232 230.509 42.1244C230.509 41.3417 230.633 40.6429 230.88 40C231.128 39.3711 231.499 38.826 232.008 38.3927C232.504 37.9455 233.137 37.6101 233.893 37.3725C234.65 37.1349 235.531 37.0091 236.549 37.0091H237.636V35.7652C237.636 35.0664 237.526 34.5772 237.278 34.2977C237.044 34.0042 236.7 33.8644 236.26 33.8644C235.737 33.8644 235.366 34.0182 235.132 34.3256C234.898 34.6331 234.774 35.0664 234.774 35.6254H230.798C230.798 34.9546 230.922 34.3117 231.183 33.7247C231.444 33.1237 231.816 32.6066 232.297 32.1593C232.779 31.7121 233.371 31.3627 234.058 31.0971C234.746 30.8316 235.517 30.7058 236.384 30.7058C237.14 30.7058 237.842 30.8036 238.475 30.9993C239.108 31.195 239.658 31.5024 240.14 31.9078C240.607 32.327 240.979 32.8581 241.24 33.501C241.502 34.144 241.639 34.9126 241.639 35.8211V42.6695C241.639 43.1167 241.639 43.522 241.681 43.8574C241.708 44.2068 241.736 44.5143 241.791 44.8078C241.832 45.0873 241.901 45.3389 241.97 45.5625C242.038 45.7862 242.121 45.9958 242.217 46.1915V46.4291H238.214L238.158 46.4151ZM235.806 43.522C236.246 43.522 236.618 43.4242 236.934 43.2565C237.237 43.0748 237.471 42.8651 237.622 42.6136V39.399H236.686C236.315 39.399 235.985 39.4549 235.723 39.5807C235.448 39.7065 235.228 39.8742 235.049 40.0978C234.87 40.3215 234.733 40.573 234.636 40.8665C234.554 41.16 234.499 41.4815 234.499 41.8029C234.499 42.362 234.609 42.7952 234.843 43.0748C235.077 43.3683 235.393 43.508 235.82 43.508L235.806 43.522Z" fill="#78ABAD"/>
<path d="M249.097 27.1698V30.9713H251.133V34.0182H249.097V41.6771C249.097 41.9986 249.124 42.2642 249.165 42.4738C249.207 42.6834 249.275 42.8512 249.372 42.963C249.468 43.0887 249.592 43.1586 249.743 43.2145C249.895 43.2565 250.073 43.2704 250.294 43.2704C250.486 43.2704 250.665 43.2704 250.83 43.2425C250.995 43.2285 251.133 43.2006 251.229 43.1726L251.202 46.3173C250.899 46.4291 250.582 46.5269 250.239 46.5968C249.895 46.6667 249.482 46.7086 249.014 46.7086C248.422 46.7086 247.886 46.6247 247.418 46.457C246.936 46.2893 246.537 46.0238 246.194 45.6604C245.85 45.297 245.588 44.8218 245.409 44.2348C245.23 43.6478 245.134 42.949 245.134 42.1384V34.0182H243.373V30.9713H245.134V27.1698H249.11H249.097Z" fill="#78ABAD"/>
<path d="M253.32 26.9602C253.32 26.6387 253.375 26.3592 253.472 26.0936C253.582 25.8281 253.719 25.6045 253.912 25.4228C254.105 25.2271 254.325 25.0874 254.6 24.9755C254.861 24.8777 255.164 24.8218 255.494 24.8218C255.824 24.8218 256.113 24.8777 256.388 24.9755C256.65 25.0874 256.884 25.2271 257.076 25.4228C257.269 25.6184 257.407 25.8421 257.517 26.0936C257.613 26.3592 257.668 26.6387 257.668 26.9602C257.668 27.2816 257.613 27.5611 257.517 27.8267C257.407 28.0922 257.269 28.3159 257.076 28.5115C256.884 28.7072 256.664 28.8609 256.388 28.9588C256.127 29.0706 255.824 29.1125 255.494 29.1125C255.164 29.1125 254.875 29.0566 254.6 28.9588C254.338 28.8609 254.105 28.7072 253.912 28.5115C253.719 28.3159 253.582 28.0922 253.472 27.8267C253.375 27.5611 253.32 27.2816 253.32 26.9602ZM257.489 46.4151H253.499V30.9713H257.489V46.4151Z" fill="#78ABAD"/>
<path d="M265.62 40.4612L264.547 41.6771V46.4151H260.571V24.4864H264.547V36.3382L265.042 35.5835L267.794 30.9574H272.527L268.11 37.3305L272.953 46.4151H268.399L265.62 40.4612Z" fill="#78ABAD"/>
<path d="M290.922 42.1523H285.281L284.18 46.4011H279.805L286.203 25.6184H289.986L296.425 46.4011H292.009L290.908 42.1523H290.922ZM286.189 38.6583H290.014L288.102 31.2509L286.189 38.6583Z" fill="#78ABAD"/>
<path d="M312 44.0531C311.78 44.2907 311.491 44.5563 311.133 44.8637C310.762 45.1712 310.308 45.4507 309.758 45.7303C309.207 45.9958 308.561 46.2334 307.831 46.4151C307.088 46.5968 306.235 46.6946 305.272 46.6946C304.13 46.6946 303.098 46.5129 302.177 46.1495C301.255 45.7862 300.471 45.2411 299.81 44.5143C299.15 43.7876 298.654 42.8512 298.297 41.7331C297.939 40.615 297.774 39.3012 297.774 37.7918V34.2837C297.774 32.7743 297.939 31.4605 298.283 30.3424C298.613 29.2243 299.095 28.2879 299.728 27.5472C300.347 26.8064 301.103 26.2474 301.998 25.898C302.892 25.5346 303.896 25.3529 305.011 25.3529C306.125 25.3529 307.171 25.5066 308.024 25.8001C308.863 26.0936 309.565 26.5409 310.129 27.1279C310.693 27.7149 311.12 28.4416 311.422 29.2942C311.725 30.1607 311.918 31.153 312 32.2711H307.983C307.928 31.6143 307.831 31.0692 307.708 30.6359C307.584 30.2027 307.405 29.8532 307.171 29.5877C306.937 29.3222 306.662 29.1405 306.332 29.0287C306.001 28.9168 305.602 28.8609 305.148 28.8609C304.612 28.8609 304.13 28.9588 303.731 29.1544C303.332 29.3501 302.988 29.6716 302.727 30.0908C302.466 30.5241 302.259 31.0832 302.135 31.768C301.998 32.4668 301.943 33.2914 301.943 34.2697V37.8057C301.943 38.798 302.012 39.6366 302.163 40.3215C302.314 41.0063 302.534 41.5653 302.823 41.9986C303.112 42.4319 303.484 42.7533 303.938 42.935C304.392 43.1307 304.915 43.2285 305.534 43.2285C305.905 43.2285 306.208 43.2006 306.469 43.1447C306.731 43.0888 306.951 43.0189 307.13 42.935C307.309 42.8512 307.46 42.7673 307.584 42.6834C307.694 42.5996 307.804 42.5297 307.886 42.4738V38.6583H304.997V35.4857H312.041V44.0671L312 44.0531Z" fill="#78ABAD"/>
</g>
<defs>
<clipPath id="clip0_3003_12226">
<rect width="312" height="60" fill="white"/>
</clipPath>
</defs>
</svg>
