<svg width="312" height="60" viewBox="0 0 312 60" fill="none" xmlns="http://www.w3.org/2000/svg">
<g clip-path="url(#clip0_1640_7460)">
<path d="M38.2484 31.5444C41.3853 31.5444 43.8618 33.8085 43.9031 36.6876C43.9581 39.5667 41.234 42.1104 38.1383 42.0405C35.0289 41.9846 32.4561 39.5667 32.4836 36.7016C32.5111 33.8365 35.0427 31.5304 38.2622 31.5444" fill="#78ABAD"/>
<path d="M29.1954 23.5639C29.5532 26.2474 26.5538 28.847 23.6646 28.7072C20.3213 28.5674 18.2025 26.5828 18.0374 23.4801C17.886 20.6569 20.8166 18.2669 23.6921 18.2669C26.5676 18.2669 29.5807 20.6848 29.1817 23.5639" fill="#A8BFD6"/>
<path d="M48.3473 25.7442C48.3473 27.9106 46.2148 30.021 43.9446 30.0629C41.6883 30.1048 39.3356 27.8546 39.4869 25.7722C39.7758 23.2844 41.9772 21.5094 44.4262 21.8029C46.4762 22.0405 48.0997 23.6897 48.3336 25.7722V25.7442H48.3473Z" fill="#78ABAD"/>
<path d="M31.3415 42.6834C31.3415 45.1433 29.5666 46.7925 26.925 46.7785C24.2834 46.7785 22.4673 45.0035 22.4673 42.5157C22.4673 40.3774 24.5861 38.4207 26.9801 38.4766C29.5942 38.5465 31.5754 40.4752 31.3415 42.6834Z" fill="#78ABAD"/>
<path d="M13.7583 34.6192C13.7583 32.355 15.6707 30.58 18.1748 30.608C20.665 30.6359 22.7563 32.4948 22.6325 34.6471C22.4811 37.1349 20.954 38.8819 18.1748 38.8959C15.9321 39.0915 13.9647 37.4004 13.7721 35.1223C13.7721 34.9546 13.7583 34.7729 13.7721 34.6052" fill="#A8BFD6"/>
<path d="M35.2354 13.6967C37.8908 13.6967 39.6932 15.3739 39.6932 17.9175C39.6932 20.1118 37.6982 21.9706 35.2767 22.0126C32.8552 22.0545 30.7777 20.0699 30.819 17.9595C30.819 15.4298 32.6213 13.7107 35.2354 13.7107" fill="#A8BFD6"/>
<path d="M16.4274 41.6771C17.9959 41.5933 19.3167 42.8232 19.3992 44.4025V44.4305C19.3167 45.9539 18.0922 47.1558 16.5788 47.1838C15.0928 47.2397 13.6069 45.9259 13.6069 44.5563C13.6069 42.9769 14.859 41.6911 16.4137 41.6911L16.4274 41.6771Z" fill="#78ABAD"/>
<path d="M45.3067 18.3648C43.7932 18.4347 42.5137 17.2607 42.4312 15.7233C42.4312 15.6813 42.4312 15.6394 42.4312 15.6115C42.4312 14.2278 43.7932 12.9839 45.3617 12.9979C46.8751 12.9979 48.1409 14.144 48.2785 15.6674C48.2097 17.2327 46.9164 18.4486 45.3892 18.3788C45.3617 18.3788 45.3342 18.3788 45.3204 18.3788" fill="#A8BFD6"/>
<path d="M6.46623 44.682C6.38368 43.3543 7.37429 42.2082 8.6951 42.1244C8.76389 42.1244 8.84644 42.1244 8.91523 42.1244C10.7038 42.1244 11.3642 43.1167 11.5293 44.6401C11.6669 45.856 10.2911 46.9741 8.94275 46.9741C7.64946 47.0161 6.54878 45.9958 6.46623 44.682Z" fill="#78ABAD"/>
<path d="M45.0178 10.7757C43.6282 10.8036 42.4725 9.71349 42.4175 8.30189C42.4863 6.96017 43.5869 5.89797 44.9078 5.884C46.2423 5.81412 47.398 6.84836 47.4806 8.20405C47.4943 9.60168 46.3937 10.7617 45.0178 10.7757Z" fill="#78ABAD"/>
<path d="M55.8867 16.0727C55.8867 17.4144 54.8136 18.5045 53.4928 18.5045C52.0619 18.5045 50.8924 17.3585 50.8374 15.905C50.975 14.5493 52.1582 13.5709 53.4928 13.6827C54.7448 13.5989 55.818 14.5632 55.9005 15.8351C55.9005 15.905 55.9005 15.9888 55.9005 16.0727" fill="#A8BFD6"/>
<path d="M19.4684 52.1174C19.4684 53.4591 18.409 54.5493 17.0882 54.5632C15.7536 54.5632 14.6392 53.543 14.4603 52.2152C14.4191 51.1251 15.8774 49.6995 17.0332 49.6995C18.2989 49.8393 19.3033 50.8456 19.4684 52.1314" fill="#A8BFD6"/>
<path d="M0.00018007 43.9693C0.0276969 42.921 0.894478 42.0964 1.92636 42.1384C1.95388 42.1384 1.98139 42.1384 2.00891 42.1384C3.08207 42.1384 3.93509 43.0328 3.93509 44.109C3.93509 44.1509 3.93509 44.1929 3.93509 44.2208C3.74247 45.2271 2.87569 45.9539 1.85757 45.9539C0.798169 45.9259 -0.0273368 45.0454 0.00018007 43.9693Z" fill="#78ABAD"/>
<path d="M44.8802 3.77368C43.8484 3.66187 43.0366 2.83727 42.9128 1.80303C42.899 0.824694 43.6695 0.0140726 44.6326 9.63989e-05C44.6876 9.63989e-05 44.7564 9.63989e-05 44.8114 9.63989e-05C45.8296 -0.083761 46.7101 0.698908 46.7927 1.73315C46.6413 2.75342 45.8708 3.57801 44.8802 3.77368Z" fill="#78ABAD"/>
<path d="M61.7756 15.891C61.7343 17.0091 60.8125 17.8896 59.7118 17.8477C58.6937 17.8057 57.8682 17.0091 57.7856 15.9748C57.8682 14.9546 58.7212 14.1579 59.7256 14.1859C60.7437 14.13 61.6242 14.8707 61.7756 15.891Z" fill="#A8BFD6"/>
<path d="M15.3818 58.211C15.3818 57.1628 16.2073 56.3103 17.2392 56.2963H17.2805C18.3124 56.3662 19.1379 57.2047 19.1929 58.2669C19.1929 59.2173 18.4362 60 17.5006 60C17.4181 60 17.3355 60 17.253 59.986C16.3449 60.0978 15.5194 59.4549 15.3956 58.5325C15.3956 58.4207 15.3818 58.3228 15.3956 58.211" fill="#A8BFD6"/>
<path d="M71.8295 44.4545C71.7784 44.0227 71.571 43.6875 71.2074 43.4489C70.8438 43.2102 70.3977 43.0909 69.8693 43.0909C69.483 43.0909 69.1449 43.1534 68.8551 43.2784C68.5682 43.4034 68.3438 43.5753 68.1818 43.794C68.0227 44.0128 67.9432 44.2614 67.9432 44.5398C67.9432 44.7727 67.9986 44.973 68.1094 45.1406C68.223 45.3054 68.3679 45.4432 68.544 45.554C68.7202 45.6619 68.9048 45.7514 69.098 45.8224C69.2912 45.8906 69.4688 45.946 69.6307 45.9886L70.517 46.2273C70.7443 46.2869 70.9972 46.3693 71.2756 46.4744C71.5568 46.5795 71.8253 46.723 72.081 46.9048C72.3395 47.0838 72.5526 47.3139 72.7202 47.5952C72.8878 47.8764 72.9716 48.2216 72.9716 48.6307C72.9716 49.1023 72.848 49.5284 72.6009 49.9091C72.3565 50.2898 71.9986 50.5923 71.527 50.8168C71.0582 51.0412 70.4886 51.1534 69.8182 51.1534C69.1932 51.1534 68.652 51.0526 68.1946 50.8509C67.7401 50.6491 67.3821 50.3679 67.1207 50.0071C66.8622 49.6463 66.7159 49.2273 66.6818 48.75H67.7727C67.8011 49.0795 67.9119 49.3523 68.1051 49.5682C68.3011 49.7813 68.5483 49.9403 68.8466 50.0455C69.1477 50.1477 69.4716 50.1989 69.8182 50.1989C70.2216 50.1989 70.5838 50.1335 70.9048 50.0028C71.2259 49.8693 71.4801 49.6847 71.6676 49.4489C71.8551 49.2102 71.9489 48.9318 71.9489 48.6136C71.9489 48.3239 71.8679 48.0881 71.706 47.9063C71.544 47.7244 71.331 47.5767 71.0668 47.4631C70.8026 47.3494 70.517 47.25 70.2102 47.1648L69.1364 46.858C68.4545 46.6619 67.9148 46.3821 67.517 46.0185C67.1193 45.6548 66.9205 45.179 66.9205 44.5909C66.9205 44.1023 67.0526 43.6761 67.3168 43.3125C67.5838 42.946 67.9418 42.6619 68.3906 42.4602C68.8423 42.2557 69.3466 42.1534 69.9034 42.1534C70.4659 42.1534 70.9659 42.2543 71.4034 42.456C71.8409 42.6548 72.1875 42.9276 72.4432 43.2741C72.7017 43.6207 72.8381 44.0142 72.8523 44.4545H71.8295ZM75.8038 51L73.8094 44.4545H74.8663L76.281 49.4659H76.3492L77.7469 44.4545H78.8208L80.2015 49.4489H80.2697L81.6844 44.4545H82.7413L80.7469 51H79.7583L78.3265 45.9716H78.2242L76.7924 51H75.8038ZM83.8188 51V44.4545H84.8245V51H83.8188ZM84.3302 43.3636C84.1341 43.3636 83.9651 43.2969 83.8231 43.1634C83.6839 43.0298 83.6143 42.8693 83.6143 42.6818C83.6143 42.4943 83.6839 42.3338 83.8231 42.2003C83.9651 42.0668 84.1341 42 84.3302 42C84.5262 42 84.6938 42.0668 84.833 42.2003C84.975 42.3338 85.0461 42.4943 85.0461 42.6818C85.0461 42.8693 84.975 43.0298 84.833 43.1634C84.6938 43.2969 84.5262 43.3636 84.3302 43.3636ZM91.0508 45.9205L90.1474 46.1761C90.0906 46.0256 90.0068 45.8793 89.896 45.7372C89.788 45.5923 89.6403 45.473 89.4528 45.3793C89.2653 45.2855 89.0252 45.2386 88.7326 45.2386C88.3321 45.2386 87.9983 45.331 87.7312 45.5156C87.467 45.6974 87.3349 45.929 87.3349 46.2102C87.3349 46.4602 87.4258 46.6577 87.6076 46.8026C87.7895 46.9474 88.0735 47.0682 88.4599 47.1648L89.4315 47.4034C90.0167 47.5455 90.4528 47.7628 90.7397 48.0554C91.0267 48.3452 91.1701 48.7188 91.1701 49.1761C91.1701 49.5511 91.0622 49.8864 90.8463 50.1818C90.6332 50.4773 90.3349 50.7102 89.9514 50.8807C89.5679 51.0511 89.1218 51.1364 88.6133 51.1364C87.9457 51.1364 87.3931 50.9915 86.9556 50.7017C86.5181 50.4119 86.2412 49.9886 86.1247 49.4318L87.0792 49.1932C87.1701 49.5455 87.342 49.8097 87.5949 49.9858C87.8505 50.1619 88.1843 50.25 88.5963 50.25C89.065 50.25 89.4372 50.1506 89.7127 49.9517C89.9912 49.75 90.1304 49.5085 90.1304 49.2273C90.1304 49 90.0508 48.8097 89.8917 48.6563C89.7326 48.5 89.4883 48.3835 89.1588 48.3068L88.0679 48.0511C87.4684 47.9091 87.0281 47.6889 86.7468 47.3906C86.4684 47.0895 86.3292 46.7131 86.3292 46.2614C86.3292 45.892 86.4329 45.5653 86.6403 45.2813C86.8505 44.9972 87.136 44.7741 87.4968 44.6122C87.8605 44.4503 88.2724 44.3693 88.7326 44.3693C89.3804 44.3693 89.8889 44.5114 90.2582 44.7955C90.6304 45.0795 90.8946 45.4545 91.0508 45.9205ZM97.0684 45.9205L96.1649 46.1761C96.1081 46.0256 96.0243 45.8793 95.9135 45.7372C95.8056 45.5923 95.6578 45.473 95.4703 45.3793C95.2828 45.2855 95.0428 45.2386 94.7502 45.2386C94.3496 45.2386 94.0158 45.331 93.7487 45.5156C93.4845 45.6974 93.3524 45.929 93.3524 46.2102C93.3524 46.4602 93.4434 46.6577 93.6252 46.8026C93.807 46.9474 94.0911 47.0682 94.4774 47.1648L95.449 47.4034C96.0343 47.5455 96.4703 47.7628 96.7573 48.0554C97.0442 48.3452 97.1877 48.7188 97.1877 49.1761C97.1877 49.5511 97.0797 49.8864 96.8638 50.1818C96.6507 50.4773 96.3524 50.7102 95.9689 50.8807C95.5854 51.0511 95.1394 51.1364 94.6309 51.1364C93.9632 51.1364 93.4107 50.9915 92.9732 50.7017C92.5357 50.4119 92.2587 49.9886 92.1422 49.4318L93.0968 49.1932C93.1877 49.5455 93.3595 49.8097 93.6124 49.9858C93.8681 50.1619 94.2019 50.25 94.6138 50.25C95.0826 50.25 95.4547 50.1506 95.7303 49.9517C96.0087 49.75 96.1479 49.5085 96.1479 49.2273C96.1479 49 96.0684 48.8097 95.9093 48.6563C95.7502 48.5 95.5059 48.3835 95.1763 48.3068L94.0854 48.0511C93.486 47.9091 93.0456 47.6889 92.7644 47.3906C92.486 47.0895 92.3468 46.7131 92.3468 46.2614C92.3468 45.892 92.4505 45.5653 92.6578 45.2813C92.8681 44.9972 93.1536 44.7741 93.5144 44.6122C93.878 44.4503 94.2899 44.3693 94.7502 44.3693C95.3979 44.3693 95.9064 44.5114 96.2757 44.7955C96.6479 45.0795 96.9121 45.4545 97.0684 45.9205ZM107.436 42.2727H108.493V48.0511C108.493 48.6477 108.352 49.1804 108.071 49.6491C107.793 50.1151 107.399 50.483 106.891 50.7528C106.382 51.0199 105.786 51.1534 105.101 51.1534C104.416 51.1534 103.82 51.0199 103.311 50.7528C102.803 50.483 102.408 50.1151 102.126 49.6491C101.848 49.1804 101.709 48.6477 101.709 48.0511V42.2727H102.766V47.9659C102.766 48.392 102.859 48.7713 103.047 49.1037C103.234 49.4332 103.501 49.6932 103.848 49.8835C104.198 50.071 104.615 50.1648 105.101 50.1648C105.587 50.1648 106.004 50.071 106.354 49.8835C106.703 49.6932 106.97 49.4332 107.155 49.1037C107.342 48.7713 107.436 48.392 107.436 47.9659V42.2727ZM111.221 47.0625V51H110.215V44.4545H111.187V45.4773H111.272C111.425 45.1449 111.658 44.8778 111.971 44.6761C112.283 44.4716 112.687 44.3693 113.181 44.3693C113.624 44.3693 114.012 44.4602 114.344 44.642C114.677 44.821 114.935 45.0938 115.12 45.4602C115.305 45.8239 115.397 46.2841 115.397 46.8409V51H114.391V46.9091C114.391 46.3949 114.258 45.9943 113.991 45.7074C113.724 45.4176 113.357 45.2727 112.891 45.2727C112.57 45.2727 112.283 45.3423 112.03 45.4815C111.78 45.6207 111.583 45.8239 111.438 46.0909C111.293 46.358 111.221 46.6818 111.221 47.0625ZM116.983 51V44.4545H117.988V51H116.983ZM117.494 43.3636C117.298 43.3636 117.129 43.2969 116.987 43.1634C116.848 43.0298 116.778 42.8693 116.778 42.6818C116.778 42.4943 116.848 42.3338 116.987 42.2003C117.129 42.0668 117.298 42 117.494 42C117.69 42 117.858 42.0668 117.997 42.2003C118.139 42.3338 118.21 42.4943 118.21 42.6818C118.21 42.8693 118.139 43.0298 117.997 43.1634C117.858 43.2969 117.69 43.3636 117.494 43.3636ZM122.493 44.4545V45.3068H118.965V44.4545H122.493ZM120.021 51V43.5511C120.021 43.1761 120.109 42.8636 120.286 42.6136C120.462 42.3636 120.69 42.1761 120.972 42.0511C121.253 41.9261 121.55 41.8636 121.862 41.8636C122.109 41.8636 122.311 41.8835 122.467 41.9233C122.624 41.9631 122.74 42 122.817 42.0341L122.527 42.9034C122.476 42.8864 122.405 42.8651 122.314 42.8395C122.226 42.8139 122.109 42.8011 121.965 42.8011C121.632 42.8011 121.392 42.8849 121.244 43.0526C121.1 43.2202 121.027 43.4659 121.027 43.7898V51H120.021ZM123.65 51V44.4545H124.656V51H123.65ZM124.162 43.3636C123.966 43.3636 123.797 43.2969 123.655 43.1634C123.516 43.0298 123.446 42.8693 123.446 42.6818C123.446 42.4943 123.516 42.3338 123.655 42.2003C123.797 42.0668 123.966 42 124.162 42C124.358 42 124.525 42.0668 124.665 42.2003C124.807 42.3338 124.878 42.4943 124.878 42.6818C124.878 42.8693 124.807 43.0298 124.665 43.1634C124.525 43.2969 124.358 43.3636 124.162 43.3636ZM128.99 51.1364C128.36 51.1364 127.816 50.9972 127.358 50.7188C126.904 50.4375 126.553 50.0455 126.306 49.5426C126.061 49.0369 125.939 48.4489 125.939 47.7784C125.939 47.108 126.061 46.517 126.306 46.0057C126.553 45.4915 126.897 45.0909 127.337 44.804C127.78 44.5142 128.297 44.3693 128.888 44.3693C129.229 44.3693 129.566 44.4261 129.898 44.5398C130.23 44.6534 130.533 44.8381 130.806 45.0938C131.078 45.3466 131.296 45.6818 131.458 46.0994C131.62 46.517 131.701 47.0313 131.701 47.642V48.0682H126.655V47.1989H130.678C130.678 46.8295 130.604 46.5 130.456 46.2102C130.311 45.9205 130.104 45.6918 129.834 45.5241C129.567 45.3565 129.252 45.2727 128.888 45.2727C128.488 45.2727 128.141 45.3722 127.848 45.571C127.559 45.767 127.336 46.0227 127.179 46.3381C127.023 46.6534 126.945 46.9915 126.945 47.3523V47.9318C126.945 48.4261 127.03 48.8452 127.201 49.1889C127.374 49.5298 127.614 49.7898 127.921 49.9688C128.228 50.1449 128.584 50.233 128.99 50.233C129.255 50.233 129.493 50.196 129.706 50.1222C129.922 50.0455 130.108 49.9318 130.265 49.7813C130.421 49.6278 130.542 49.4375 130.627 49.2102L131.598 49.483C131.496 49.8125 131.324 50.1023 131.083 50.3523C130.841 50.5994 130.543 50.7926 130.188 50.9318C129.833 51.0682 129.434 51.1364 128.99 51.1364ZM135.45 51.1364C134.905 51.1364 134.423 50.9986 134.005 50.723C133.588 50.4446 133.261 50.0526 133.025 49.5469C132.79 49.0384 132.672 48.4375 132.672 47.7443C132.672 47.0568 132.79 46.4602 133.025 45.9545C133.261 45.4489 133.589 45.0582 134.01 44.7827C134.43 44.5071 134.916 44.3693 135.467 44.3693C135.893 44.3693 136.23 44.4403 136.477 44.5824C136.727 44.7216 136.917 44.8807 137.048 45.0597C137.182 45.2358 137.285 45.3807 137.359 45.4943H137.444V42.2727H138.45V51H137.478V49.9943H137.359C137.285 50.1136 137.18 50.2642 137.044 50.446C136.907 50.625 136.713 50.7855 136.46 50.9276C136.207 51.0668 135.871 51.1364 135.45 51.1364ZM135.586 50.233C135.99 50.233 136.331 50.1278 136.609 49.9176C136.888 49.7045 137.099 49.4105 137.244 49.0355C137.389 48.6577 137.461 48.2216 137.461 47.7273C137.461 47.2386 137.39 46.8111 137.248 46.4446C137.106 46.0753 136.896 45.7884 136.618 45.5838C136.339 45.3764 135.996 45.2727 135.586 45.2727C135.16 45.2727 134.805 45.3821 134.521 45.6009C134.24 45.8168 134.028 46.1108 133.886 46.483C133.747 46.8523 133.677 47.267 133.677 47.7273C133.677 48.1932 133.748 48.6165 133.89 48.9972C134.035 49.375 134.248 49.6761 134.53 49.9006C134.814 50.1222 135.166 50.233 135.586 50.233ZM143.439 51V42.2727H148.706V43.2102H144.496V46.1591H148.433V47.0966H144.496V50.0625H148.774V51H143.439ZM151.228 47.0625V51H150.222V44.4545H151.194V45.4773H151.279C151.433 45.1449 151.666 44.8778 151.978 44.6761C152.291 44.4716 152.694 44.3693 153.188 44.3693C153.632 44.3693 154.019 44.4602 154.352 44.642C154.684 44.821 154.943 45.0938 155.127 45.4602C155.312 45.8239 155.404 46.2841 155.404 46.8409V51H154.399V46.9091C154.399 46.3949 154.265 45.9943 153.998 45.7074C153.731 45.4176 153.365 45.2727 152.899 45.2727C152.578 45.2727 152.291 45.3423 152.038 45.4815C151.788 45.6207 151.59 45.8239 151.445 46.0909C151.301 46.358 151.228 46.6818 151.228 47.0625ZM159.837 44.4545V45.3068H156.445V44.4545H159.837ZM157.433 42.8864H158.439V49.125C158.439 49.4091 158.48 49.6222 158.562 49.7642C158.648 49.9034 158.756 49.9972 158.886 50.0455C159.02 50.0909 159.16 50.1136 159.308 50.1136C159.419 50.1136 159.51 50.108 159.581 50.0966C159.652 50.0824 159.709 50.071 159.751 50.0625L159.956 50.9659C159.888 50.9915 159.793 51.017 159.67 51.0426C159.548 51.071 159.393 51.0852 159.206 51.0852C158.922 51.0852 158.643 51.0241 158.371 50.902C158.101 50.7798 157.876 50.5938 157.697 50.3438C157.521 50.0938 157.433 49.7784 157.433 49.3977V42.8864ZM163.771 51.1364C163.141 51.1364 162.597 50.9972 162.139 50.7188C161.685 50.4375 161.334 50.0455 161.087 49.5426C160.842 49.0369 160.72 48.4489 160.72 47.7784C160.72 47.108 160.842 46.517 161.087 46.0057C161.334 45.4915 161.678 45.0909 162.118 44.804C162.561 44.5142 163.078 44.3693 163.669 44.3693C164.01 44.3693 164.347 44.4261 164.679 44.5398C165.011 44.6534 165.314 44.8381 165.587 45.0938C165.859 45.3466 166.077 45.6818 166.239 46.0994C166.401 46.517 166.482 47.0313 166.482 47.642V48.0682H161.436V47.1989H165.459C165.459 46.8295 165.385 46.5 165.237 46.2102C165.092 45.9205 164.885 45.6918 164.615 45.5241C164.348 45.3565 164.033 45.2727 163.669 45.2727C163.269 45.2727 162.922 45.3722 162.629 45.571C162.34 45.767 162.117 46.0227 161.96 46.3381C161.804 46.6534 161.726 46.9915 161.726 47.3523V47.9318C161.726 48.4261 161.811 48.8452 161.982 49.1889C162.155 49.5298 162.395 49.7898 162.702 49.9688C163.009 50.1449 163.365 50.233 163.771 50.233C164.036 50.233 164.274 50.196 164.487 50.1222C164.703 50.0455 164.889 49.9318 165.046 49.7813C165.202 49.6278 165.323 49.4375 165.408 49.2102L166.379 49.483C166.277 49.8125 166.105 50.1023 165.864 50.3523C165.622 50.5994 165.324 50.7926 164.969 50.9318C164.614 51.0682 164.215 51.1364 163.771 51.1364ZM167.759 51V44.4545H168.731V45.4432H168.799C168.919 45.1193 169.134 44.8565 169.447 44.6548C169.759 44.4531 170.112 44.3523 170.504 44.3523C170.578 44.3523 170.67 44.3537 170.781 44.3565C170.892 44.3594 170.975 44.3636 171.032 44.3693V45.392C170.998 45.3835 170.92 45.3707 170.798 45.3537C170.678 45.3338 170.552 45.3239 170.419 45.3239C170.1 45.3239 169.816 45.3906 169.566 45.5241C169.319 45.6548 169.123 45.8366 168.978 46.0696C168.836 46.2997 168.765 46.5625 168.765 46.858V51H167.759ZM171.972 53.4545V44.4545H172.944V45.4943H173.063C173.137 45.3807 173.239 45.2358 173.37 45.0597C173.504 44.8807 173.694 44.7216 173.941 44.5824C174.191 44.4403 174.529 44.3693 174.955 44.3693C175.506 44.3693 175.992 44.5071 176.413 44.7827C176.833 45.0582 177.161 45.4489 177.397 45.9545C177.633 46.4602 177.751 47.0568 177.751 47.7443C177.751 48.4375 177.633 49.0384 177.397 49.5469C177.161 50.0526 176.835 50.4446 176.417 50.723C175.999 50.9986 175.518 51.1364 174.972 51.1364C174.552 51.1364 174.215 51.0668 173.962 50.9276C173.71 50.7855 173.515 50.625 173.379 50.446C173.242 50.2642 173.137 50.1136 173.063 49.9943H172.978V53.4545H171.972ZM172.961 47.7273C172.961 48.2216 173.033 48.6577 173.178 49.0355C173.323 49.4105 173.535 49.7045 173.813 49.9176C174.092 50.1278 174.433 50.233 174.836 50.233C175.256 50.233 175.607 50.1222 175.888 49.9006C176.173 49.6761 176.386 49.375 176.528 48.9972C176.673 48.6165 176.745 48.1932 176.745 47.7273C176.745 47.267 176.674 46.8523 176.532 46.483C176.393 46.1108 176.181 45.8168 175.897 45.6009C175.616 45.3821 175.262 45.2727 174.836 45.2727C174.427 45.2727 174.083 45.3764 173.805 45.5838C173.526 45.7884 173.316 46.0753 173.174 46.4446C173.032 46.8111 172.961 47.2386 172.961 47.7273ZM179.033 51V44.4545H180.004V45.4432H180.073C180.192 45.1193 180.408 44.8565 180.72 44.6548C181.033 44.4531 181.385 44.3523 181.777 44.3523C181.851 44.3523 181.943 44.3537 182.054 44.3565C182.165 44.3594 182.249 44.3636 182.306 44.3693V45.392C182.271 45.3835 182.193 45.3707 182.071 45.3537C181.952 45.3338 181.825 45.3239 181.692 45.3239C181.374 45.3239 181.09 45.3906 180.84 45.5241C180.592 45.6548 180.396 45.8366 180.252 46.0696C180.11 46.2997 180.038 46.5625 180.038 46.858V51H179.033ZM183.246 51V44.4545H184.251V51H183.246ZM183.757 43.3636C183.561 43.3636 183.392 43.2969 183.25 43.1634C183.111 43.0298 183.041 42.8693 183.041 42.6818C183.041 42.4943 183.111 42.3338 183.25 42.2003C183.392 42.0668 183.561 42 183.757 42C183.953 42 184.121 42.0668 184.26 42.2003C184.402 42.3338 184.473 42.4943 184.473 42.6818C184.473 42.8693 184.402 43.0298 184.26 43.1634C184.121 43.2969 183.953 43.3636 183.757 43.3636ZM190.478 45.9205L189.574 46.1761C189.517 46.0256 189.434 45.8793 189.323 45.7372C189.215 45.5923 189.067 45.473 188.88 45.3793C188.692 45.2855 188.452 45.2386 188.159 45.2386C187.759 45.2386 187.425 45.331 187.158 45.5156C186.894 45.6974 186.762 45.929 186.762 46.2102C186.762 46.4602 186.853 46.6577 187.034 46.8026C187.216 46.9474 187.5 47.0682 187.887 47.1648L188.858 47.4034C189.444 47.5455 189.88 47.7628 190.167 48.0554C190.454 48.3452 190.597 48.7188 190.597 49.1761C190.597 49.5511 190.489 49.8864 190.273 50.1818C190.06 50.4773 189.762 50.7102 189.378 50.8807C188.995 51.0511 188.549 51.1364 188.04 51.1364C187.373 51.1364 186.82 50.9915 186.382 50.7017C185.945 50.4119 185.668 49.9886 185.552 49.4318L186.506 49.1932C186.597 49.5455 186.769 49.8097 187.022 49.9858C187.277 50.1619 187.611 50.25 188.023 50.25C188.492 50.25 188.864 50.1506 189.14 49.9517C189.418 49.75 189.557 49.5085 189.557 49.2273C189.557 49 189.478 48.8097 189.319 48.6563C189.159 48.5 188.915 48.3835 188.586 48.3068L187.495 48.0511C186.895 47.9091 186.455 47.6889 186.174 47.3906C185.895 47.0895 185.756 46.7131 185.756 46.2614C185.756 45.892 185.86 45.5653 186.067 45.2813C186.277 44.9972 186.563 44.7741 186.924 44.6122C187.287 44.4503 187.699 44.3693 188.159 44.3693C188.807 44.3693 189.316 44.5114 189.685 44.7955C190.057 45.0795 190.321 45.4545 190.478 45.9205ZM194.603 51.1364C193.972 51.1364 193.428 50.9972 192.971 50.7188C192.517 50.4375 192.166 50.0455 191.918 49.5426C191.674 49.0369 191.552 48.4489 191.552 47.7784C191.552 47.108 191.674 46.517 191.918 46.0057C192.166 45.4915 192.509 45.0909 192.95 44.804C193.393 44.5142 193.91 44.3693 194.501 44.3693C194.842 44.3693 195.178 44.4261 195.511 44.5398C195.843 44.6534 196.146 44.8381 196.418 45.0938C196.691 45.3466 196.909 45.6818 197.07 46.0994C197.232 46.517 197.313 47.0313 197.313 47.642V48.0682H192.268V47.1989H196.291C196.291 46.8295 196.217 46.5 196.069 46.2102C195.924 45.9205 195.717 45.6918 195.447 45.5241C195.18 45.3565 194.865 45.2727 194.501 45.2727C194.1 45.2727 193.754 45.3722 193.461 45.571C193.171 45.767 192.948 46.0227 192.792 46.3381C192.636 46.6534 192.558 46.9915 192.558 47.3523V47.9318C192.558 48.4261 192.643 48.8452 192.813 49.1889C192.987 49.5298 193.227 49.7898 193.534 49.9688C193.84 50.1449 194.197 50.233 194.603 50.233C194.867 50.233 195.106 50.196 195.319 50.1222C195.535 50.0455 195.721 49.9318 195.877 49.7813C196.034 49.6278 196.154 49.4375 196.24 49.2102L197.211 49.483C197.109 49.8125 196.937 50.1023 196.695 50.3523C196.454 50.5994 196.156 50.7926 195.801 50.9318C195.445 51.0682 195.046 51.1364 194.603 51.1364ZM201.851 51V42.2727H204.902C205.51 42.2727 206.011 42.3778 206.406 42.5881C206.801 42.7955 207.095 43.0753 207.288 43.4276C207.481 43.777 207.578 44.1648 207.578 44.5909C207.578 44.9659 207.511 45.2756 207.378 45.5199C207.247 45.7642 207.074 45.9574 206.858 46.0994C206.645 46.2415 206.413 46.3466 206.163 46.4148V46.5C206.43 46.517 206.699 46.6108 206.968 46.7813C207.238 46.9517 207.464 47.196 207.646 47.5142C207.828 47.8324 207.919 48.2216 207.919 48.6818C207.919 49.1193 207.819 49.5128 207.62 49.8622C207.422 50.2116 207.108 50.4886 206.679 50.6932C206.25 50.8977 205.691 51 205.004 51H201.851ZM202.907 50.0625H205.004C205.694 50.0625 206.184 49.929 206.474 49.6619C206.767 49.392 206.913 49.0653 206.913 48.6818C206.913 48.3864 206.838 48.1136 206.687 47.8636C206.537 47.6108 206.322 47.4091 206.044 47.2585C205.765 47.1051 205.436 47.0284 205.055 47.0284H202.907V50.0625ZM202.907 46.108H204.868C205.186 46.108 205.473 46.0455 205.728 45.9205C205.987 45.7955 206.191 45.6193 206.342 45.392C206.495 45.1648 206.572 44.8977 206.572 44.5909C206.572 44.2074 206.439 43.8821 206.172 43.6151C205.905 43.3452 205.481 43.2102 204.902 43.2102H202.907V46.108ZM213.392 48.3239V44.4545H214.398V51H213.392V49.892H213.324C213.17 50.2244 212.932 50.5071 212.608 50.7401C212.284 50.9702 211.875 51.0852 211.381 51.0852C210.971 51.0852 210.608 50.9957 210.29 50.8168C209.971 50.6349 209.721 50.3622 209.54 49.9986C209.358 49.6321 209.267 49.1705 209.267 48.6136V44.4545H210.273V48.5455C210.273 49.0227 210.406 49.4034 210.673 49.6875C210.943 49.9716 211.287 50.1136 211.704 50.1136C211.954 50.1136 212.209 50.0497 212.467 49.9219C212.729 49.794 212.947 49.598 213.123 49.3338C213.302 49.0696 213.392 48.733 213.392 48.3239ZM220.624 45.9205L219.721 46.1761C219.664 46.0256 219.58 45.8793 219.469 45.7372C219.361 45.5923 219.213 45.473 219.026 45.3793C218.838 45.2855 218.598 45.2386 218.306 45.2386C217.905 45.2386 217.571 45.331 217.304 45.5156C217.04 45.6974 216.908 45.929 216.908 46.2102C216.908 46.4602 216.999 46.6577 217.181 46.8026C217.363 46.9474 217.647 47.0682 218.033 47.1648L219.005 47.4034C219.59 47.5455 220.026 47.7628 220.313 48.0554C220.6 48.3452 220.743 48.7188 220.743 49.1761C220.743 49.5511 220.635 49.8864 220.419 50.1818C220.206 50.4773 219.908 50.7102 219.524 50.8807C219.141 51.0511 218.695 51.1364 218.186 51.1364C217.519 51.1364 216.966 50.9915 216.529 50.7017C216.091 50.4119 215.814 49.9886 215.698 49.4318L216.652 49.1932C216.743 49.5455 216.915 49.8097 217.168 49.9858C217.424 50.1619 217.757 50.25 218.169 50.25C218.638 50.25 219.01 50.1506 219.286 49.9517C219.564 49.75 219.703 49.5085 219.703 49.2273C219.703 49 219.624 48.8097 219.465 48.6563C219.306 48.5 219.061 48.3835 218.732 48.3068L217.641 48.0511C217.042 47.9091 216.601 47.6889 216.32 47.3906C216.042 47.0895 215.902 46.7131 215.902 46.2614C215.902 45.892 216.006 45.5653 216.213 45.2813C216.424 44.9972 216.709 44.7741 217.07 44.6122C217.434 44.4503 217.846 44.3693 218.306 44.3693C218.953 44.3693 219.462 44.5114 219.831 44.7955C220.203 45.0795 220.468 45.4545 220.624 45.9205ZM222.005 51V44.4545H223.011V51H222.005ZM222.516 43.3636C222.32 43.3636 222.151 43.2969 222.009 43.1634C221.87 43.0298 221.801 42.8693 221.801 42.6818C221.801 42.4943 221.87 42.3338 222.009 42.2003C222.151 42.0668 222.32 42 222.516 42C222.712 42 222.88 42.0668 223.019 42.2003C223.161 42.3338 223.232 42.4943 223.232 42.6818C223.232 42.8693 223.161 43.0298 223.019 43.1634C222.88 43.2969 222.712 43.3636 222.516 43.3636ZM225.606 47.0625V51H224.601V44.4545H225.572V45.4773H225.658C225.811 45.1449 226.044 44.8778 226.356 44.6761C226.669 44.4716 227.072 44.3693 227.567 44.3693C228.01 44.3693 228.398 44.4602 228.73 44.642C229.062 44.821 229.321 45.0938 229.506 45.4602C229.69 45.8239 229.783 46.2841 229.783 46.8409V51H228.777V46.9091C228.777 46.3949 228.643 45.9943 228.376 45.7074C228.109 45.4176 227.743 45.2727 227.277 45.2727C226.956 45.2727 226.669 45.3423 226.416 45.4815C226.166 45.6207 225.969 45.8239 225.824 46.0909C225.679 46.358 225.606 46.6818 225.606 47.0625ZM234.113 51.1364C233.482 51.1364 232.938 50.9972 232.48 50.7188C232.026 50.4375 231.675 50.0455 231.428 49.5426C231.184 49.0369 231.061 48.4489 231.061 47.7784C231.061 47.108 231.184 46.517 231.428 46.0057C231.675 45.4915 232.019 45.0909 232.459 44.804C232.902 44.5142 233.419 44.3693 234.01 44.3693C234.351 44.3693 234.688 44.4261 235.02 44.5398C235.353 44.6534 235.655 44.8381 235.928 45.0938C236.201 45.3466 236.418 45.6818 236.58 46.0994C236.742 46.517 236.823 47.0313 236.823 47.642V48.0682H231.777V47.1989H235.8C235.8 46.8295 235.726 46.5 235.578 46.2102C235.434 45.9205 235.226 45.6918 234.956 45.5241C234.689 45.3565 234.374 45.2727 234.01 45.2727C233.61 45.2727 233.263 45.3722 232.971 45.571C232.681 45.767 232.458 46.0227 232.302 46.3381C232.145 46.6534 232.067 46.9915 232.067 47.3523V47.9318C232.067 48.4261 232.152 48.8452 232.323 49.1889C232.496 49.5298 232.736 49.7898 233.043 49.9688C233.35 50.1449 233.706 50.233 234.113 50.233C234.377 50.233 234.615 50.196 234.828 50.1222C235.044 50.0455 235.23 49.9318 235.387 49.7813C235.543 49.6278 235.664 49.4375 235.749 49.2102L236.721 49.483C236.618 49.8125 236.446 50.1023 236.205 50.3523C235.963 50.5994 235.665 50.7926 235.31 50.9318C234.955 51.0682 234.556 51.1364 234.113 51.1364ZM242.737 45.9205L241.834 46.1761C241.777 46.0256 241.693 45.8793 241.582 45.7372C241.474 45.5923 241.326 45.473 241.139 45.3793C240.951 45.2855 240.711 45.2386 240.419 45.2386C240.018 45.2386 239.684 45.331 239.417 45.5156C239.153 45.6974 239.021 45.929 239.021 46.2102C239.021 46.4602 239.112 46.6577 239.294 46.8026C239.476 46.9474 239.76 47.0682 240.146 47.1648L241.118 47.4034C241.703 47.5455 242.139 47.7628 242.426 48.0554C242.713 48.3452 242.856 48.7188 242.856 49.1761C242.856 49.5511 242.748 49.8864 242.532 50.1818C242.319 50.4773 242.021 50.7102 241.638 50.8807C241.254 51.0511 240.808 51.1364 240.3 51.1364C239.632 51.1364 239.079 50.9915 238.642 50.7017C238.204 50.4119 237.927 49.9886 237.811 49.4318L238.765 49.1932C238.856 49.5455 239.028 49.8097 239.281 49.9858C239.537 50.1619 239.871 50.25 240.282 50.25C240.751 50.25 241.123 50.1506 241.399 49.9517C241.677 49.75 241.817 49.5085 241.817 49.2273C241.817 49 241.737 48.8097 241.578 48.6563C241.419 48.5 241.175 48.3835 240.845 48.3068L239.754 48.0511C239.155 47.9091 238.714 47.6889 238.433 47.3906C238.155 47.0895 238.015 46.7131 238.015 46.2614C238.015 45.892 238.119 45.5653 238.326 45.2813C238.537 44.9972 238.822 44.7741 239.183 44.6122C239.547 44.4503 239.959 44.3693 240.419 44.3693C241.067 44.3693 241.575 44.5114 241.944 44.7955C242.317 45.0795 242.581 45.4545 242.737 45.9205ZM248.755 45.9205L247.851 46.1761C247.794 46.0256 247.711 45.8793 247.6 45.7372C247.492 45.5923 247.344 45.473 247.157 45.3793C246.969 45.2855 246.729 45.2386 246.436 45.2386C246.036 45.2386 245.702 45.331 245.435 45.5156C245.171 45.6974 245.039 45.929 245.039 46.2102C245.039 46.4602 245.13 46.6577 245.311 46.8026C245.493 46.9474 245.777 47.0682 246.164 47.1648L247.135 47.4034C247.72 47.5455 248.157 47.7628 248.443 48.0554C248.73 48.3452 248.874 48.7188 248.874 49.1761C248.874 49.5511 248.766 49.8864 248.55 50.1818C248.337 50.4773 248.039 50.7102 247.655 50.8807C247.272 51.0511 246.826 51.1364 246.317 51.1364C245.649 51.1364 245.097 50.9915 244.659 50.7017C244.222 50.4119 243.945 49.9886 243.828 49.4318L244.783 49.1932C244.874 49.5455 245.046 49.8097 245.299 49.9858C245.554 50.1619 245.888 50.25 246.3 50.25C246.769 50.25 247.141 50.1506 247.416 49.9517C247.695 49.75 247.834 49.5085 247.834 49.2273C247.834 49 247.755 48.8097 247.595 48.6563C247.436 48.5 247.192 48.3835 246.862 48.3068L245.772 48.0511C245.172 47.9091 244.732 47.6889 244.451 47.3906C244.172 47.0895 244.033 46.7131 244.033 46.2614C244.033 45.892 244.137 45.5653 244.344 45.2813C244.554 44.9972 244.84 44.7741 245.201 44.6122C245.564 44.4503 245.976 44.3693 246.436 44.3693C247.084 44.3693 247.593 44.5114 247.962 44.7955C248.334 45.0795 248.598 45.4545 248.755 45.9205ZM260.759 46.6364C260.759 47.5568 260.593 48.3523 260.26 49.0227C259.928 49.6932 259.472 50.2102 258.892 50.5739C258.313 50.9375 257.651 51.1193 256.906 51.1193C256.162 51.1193 255.5 50.9375 254.921 50.5739C254.341 50.2102 253.885 49.6932 253.553 49.0227C253.22 48.3523 253.054 47.5568 253.054 46.6364C253.054 45.7159 253.22 44.9205 253.553 44.25C253.885 43.5795 254.341 43.0625 254.921 42.6989C255.5 42.3352 256.162 42.1534 256.906 42.1534C257.651 42.1534 258.313 42.3352 258.892 42.6989C259.472 43.0625 259.928 43.5795 260.26 44.25C260.593 44.9205 260.759 45.7159 260.759 46.6364ZM259.736 46.6364C259.736 45.8807 259.61 45.2429 259.357 44.723C259.107 44.2031 258.767 43.8097 258.338 43.5426C257.912 43.2756 257.435 43.142 256.906 43.142C256.378 43.142 255.899 43.2756 255.47 43.5426C255.044 43.8097 254.705 44.2031 254.452 44.723C254.202 45.2429 254.077 45.8807 254.077 46.6364C254.077 47.392 254.202 48.0298 254.452 48.5497C254.705 49.0696 255.044 49.4631 255.47 49.7301C255.899 49.9972 256.378 50.1307 256.906 50.1307C257.435 50.1307 257.912 49.9972 258.338 49.7301C258.767 49.4631 259.107 49.0696 259.357 48.5497C259.61 48.0298 259.736 47.392 259.736 46.6364ZM262.147 53.4545V44.4545H263.119V45.4943H263.238C263.312 45.3807 263.414 45.2358 263.545 45.0597C263.679 44.8807 263.869 44.7216 264.116 44.5824C264.366 44.4403 264.704 44.3693 265.13 44.3693C265.681 44.3693 266.167 44.5071 266.588 44.7827C267.008 45.0582 267.336 45.4489 267.572 45.9545C267.808 46.4602 267.926 47.0568 267.926 47.7443C267.926 48.4375 267.808 49.0384 267.572 49.5469C267.336 50.0526 267.01 50.4446 266.592 50.723C266.174 50.9986 265.693 51.1364 265.147 51.1364C264.727 51.1364 264.39 51.0668 264.137 50.9276C263.885 50.7855 263.69 50.625 263.554 50.446C263.417 50.2642 263.312 50.1136 263.238 49.9943H263.153V53.4545H262.147ZM263.136 47.7273C263.136 48.2216 263.208 48.6577 263.353 49.0355C263.498 49.4105 263.71 49.7045 263.988 49.9176C264.267 50.1278 264.608 50.233 265.011 50.233C265.431 50.233 265.782 50.1222 266.064 49.9006C266.348 49.6761 266.561 49.375 266.703 48.9972C266.848 48.6165 266.92 48.1932 266.92 47.7273C266.92 47.267 266.849 46.8523 266.707 46.483C266.568 46.1108 266.356 45.8168 266.072 45.6009C265.791 45.3821 265.437 45.2727 265.011 45.2727C264.602 45.2727 264.258 45.3764 263.98 45.5838C263.701 45.7884 263.491 46.0753 263.349 46.4446C263.207 46.8111 263.136 47.2386 263.136 47.7273ZM271.952 51.1364C271.321 51.1364 270.777 50.9972 270.32 50.7188C269.865 50.4375 269.515 50.0455 269.267 49.5426C269.023 49.0369 268.901 48.4489 268.901 47.7784C268.901 47.108 269.023 46.517 269.267 46.0057C269.515 45.4915 269.858 45.0909 270.299 44.804C270.742 44.5142 271.259 44.3693 271.85 44.3693C272.191 44.3693 272.527 44.4261 272.86 44.5398C273.192 44.6534 273.495 44.8381 273.767 45.0938C274.04 45.3466 274.258 45.6818 274.419 46.0994C274.581 46.517 274.662 47.0313 274.662 47.642V48.0682H269.617V47.1989H273.64C273.64 46.8295 273.566 46.5 273.418 46.2102C273.273 45.9205 273.066 45.6918 272.796 45.5241C272.529 45.3565 272.214 45.2727 271.85 45.2727C271.449 45.2727 271.103 45.3722 270.81 45.571C270.52 45.767 270.297 46.0227 270.141 46.3381C269.985 46.6534 269.907 46.9915 269.907 47.3523V47.9318C269.907 48.4261 269.992 48.8452 270.162 49.1889C270.336 49.5298 270.576 49.7898 270.883 49.9688C271.189 50.1449 271.546 50.233 271.952 50.233C272.216 50.233 272.455 50.196 272.668 50.1222C272.884 50.0455 273.07 49.9318 273.226 49.7813C273.383 49.6278 273.503 49.4375 273.589 49.2102L274.56 49.483C274.458 49.8125 274.286 50.1023 274.044 50.3523C273.803 50.5994 273.505 50.7926 273.15 50.9318C272.794 51.0682 272.395 51.1364 271.952 51.1364ZM275.94 51V44.4545H276.912V45.4432H276.98C277.099 45.1193 277.315 44.8565 277.628 44.6548C277.94 44.4531 278.292 44.3523 278.685 44.3523C278.758 44.3523 278.851 44.3537 278.962 44.3565C279.072 44.3594 279.156 44.3636 279.213 44.3693V45.392C279.179 45.3835 279.101 45.3707 278.979 45.3537C278.859 45.3338 278.733 45.3239 278.599 45.3239C278.281 45.3239 277.997 45.3906 277.747 45.5241C277.5 45.6548 277.304 45.8366 277.159 46.0696C277.017 46.2997 276.946 46.5625 276.946 46.858V51H275.94ZM282.079 51.1534C281.664 51.1534 281.288 51.0753 280.95 50.919C280.612 50.7599 280.343 50.5313 280.145 50.233C279.946 49.9318 279.846 49.5682 279.846 49.142C279.846 48.767 279.92 48.4631 280.068 48.2301C280.216 47.9943 280.413 47.8097 280.66 47.6761C280.907 47.5426 281.18 47.4432 281.478 47.3778C281.779 47.3097 282.082 47.2557 282.386 47.2159C282.784 47.1648 283.106 47.1264 283.353 47.1009C283.603 47.0724 283.785 47.0256 283.899 46.9602C284.015 46.8949 284.073 46.7813 284.073 46.6193V46.5852C284.073 46.1648 283.958 45.8381 283.728 45.6051C283.501 45.3722 283.156 45.2557 282.693 45.2557C282.213 45.2557 281.836 45.3608 281.564 45.571C281.291 45.7813 281.099 46.0057 280.988 46.2443L280.034 45.9034C280.204 45.5057 280.431 45.196 280.716 44.9744C281.002 44.75 281.315 44.5938 281.653 44.5057C281.994 44.4148 282.329 44.3693 282.659 44.3693C282.869 44.3693 283.11 44.3949 283.383 44.446C283.659 44.4943 283.924 44.5952 284.18 44.7486C284.439 44.902 284.653 45.1335 284.823 45.4432C284.994 45.7528 285.079 46.1676 285.079 46.6875V51H284.073V50.1136H284.022C283.954 50.2557 283.841 50.4077 283.681 50.5696C283.522 50.7315 283.311 50.8693 283.047 50.983C282.782 51.0966 282.46 51.1534 282.079 51.1534ZM282.233 50.25C282.63 50.25 282.966 50.1719 283.238 50.0156C283.514 49.8594 283.721 49.6577 283.86 49.4105C284.002 49.1634 284.073 48.9034 284.073 48.6307V47.7102C284.031 47.7614 283.937 47.8082 283.792 47.8509C283.65 47.8906 283.485 47.9261 283.298 47.9574C283.113 47.9858 282.933 48.0114 282.757 48.0341C282.583 48.054 282.443 48.071 282.335 48.0852C282.073 48.1193 281.829 48.1747 281.602 48.2514C281.377 48.3253 281.196 48.4375 281.056 48.5881C280.92 48.7358 280.852 48.9375 280.852 49.1932C280.852 49.5426 280.981 49.8068 281.24 49.9858C281.501 50.1619 281.832 50.25 282.233 50.25ZM289.509 44.4545V45.3068H286.117V44.4545H289.509ZM287.106 42.8864H288.112V49.125C288.112 49.4091 288.153 49.6222 288.235 49.7642C288.32 49.9034 288.428 49.9972 288.559 50.0455C288.693 50.0909 288.833 50.1136 288.981 50.1136C289.092 50.1136 289.183 50.108 289.254 50.0966C289.325 50.0824 289.382 50.071 289.424 50.0625L289.629 50.9659C289.56 50.9915 289.465 51.017 289.343 51.0426C289.221 51.071 289.066 51.0852 288.879 51.0852C288.595 51.0852 288.316 51.0241 288.043 50.902C287.774 50.7798 287.549 50.5938 287.37 50.3438C287.194 50.0938 287.106 49.7784 287.106 49.3977V42.8864ZM290.77 51V44.4545H291.776V51H290.77ZM291.282 43.3636C291.085 43.3636 290.916 43.2969 290.774 43.1634C290.635 43.0298 290.566 42.8693 290.566 42.6818C290.566 42.4943 290.635 42.3338 290.774 42.2003C290.916 42.0668 291.085 42 291.282 42C291.478 42 291.645 42.0668 291.784 42.2003C291.926 42.3338 291.997 42.4943 291.997 42.6818C291.997 42.8693 291.926 43.0298 291.784 43.1634C291.645 43.2969 291.478 43.3636 291.282 43.3636ZM296.025 51.1364C295.434 51.1364 294.916 50.9957 294.469 50.7145C294.026 50.4332 293.68 50.0398 293.43 49.5341C293.183 49.0284 293.059 48.4375 293.059 47.7614C293.059 47.0795 293.183 46.4844 293.43 45.9759C293.68 45.4673 294.026 45.0724 294.469 44.7912C294.916 44.5099 295.434 44.3693 296.025 44.3693C296.616 44.3693 297.133 44.5099 297.576 44.7912C298.022 45.0724 298.369 45.4673 298.616 45.9759C298.866 46.4844 298.991 47.0795 298.991 47.7614C298.991 48.4375 298.866 49.0284 298.616 49.5341C298.369 50.0398 298.022 50.4332 297.576 50.7145C297.133 50.9957 296.616 51.1364 296.025 51.1364ZM296.025 50.233C296.474 50.233 296.843 50.1179 297.133 49.8878C297.423 49.6577 297.637 49.3551 297.776 48.9801C297.916 48.6051 297.985 48.1989 297.985 47.7614C297.985 47.3239 297.916 46.9162 297.776 46.5384C297.637 46.1605 297.423 45.8551 297.133 45.6222C296.843 45.3892 296.474 45.2727 296.025 45.2727C295.576 45.2727 295.207 45.3892 294.917 45.6222C294.627 45.8551 294.413 46.1605 294.273 46.5384C294.134 46.9162 294.065 47.3239 294.065 47.7614C294.065 48.1989 294.134 48.6051 294.273 48.9801C294.413 49.3551 294.627 49.6577 294.917 49.8878C295.207 50.1179 295.576 50.233 296.025 50.233ZM301.28 47.0625V51H300.274V44.4545H301.246V45.4773H301.331C301.484 45.1449 301.717 44.8778 302.03 44.6761C302.342 44.4716 302.746 44.3693 303.24 44.3693C303.683 44.3693 304.071 44.4602 304.403 44.642C304.736 44.821 304.994 45.0938 305.179 45.4602C305.363 45.8239 305.456 46.2841 305.456 46.8409V51H304.45V46.9091C304.45 46.3949 304.317 45.9943 304.05 45.7074C303.782 45.4176 303.416 45.2727 302.95 45.2727C302.629 45.2727 302.342 45.3423 302.089 45.4815C301.839 45.6207 301.642 45.8239 301.497 46.0909C301.352 46.358 301.28 46.6818 301.28 47.0625ZM311.678 45.9205L310.774 46.1761C310.718 46.0256 310.634 45.8793 310.523 45.7372C310.415 45.5923 310.267 45.473 310.08 45.3793C309.892 45.2855 309.652 45.2386 309.36 45.2386C308.959 45.2386 308.625 45.331 308.358 45.5156C308.094 45.6974 307.962 45.929 307.962 46.2102C307.962 46.4602 308.053 46.6577 308.235 46.8026C308.416 46.9474 308.701 47.0682 309.087 47.1648L310.059 47.4034C310.644 47.5455 311.08 47.7628 311.367 48.0554C311.654 48.3452 311.797 48.7188 311.797 49.1761C311.797 49.5511 311.689 49.8864 311.473 50.1818C311.26 50.4773 310.962 50.7102 310.578 50.8807C310.195 51.0511 309.749 51.1364 309.24 51.1364C308.573 51.1364 308.02 50.9915 307.583 50.7017C307.145 50.4119 306.868 49.9886 306.752 49.4318L307.706 49.1932C307.797 49.5455 307.969 49.8097 308.222 49.9858C308.478 50.1619 308.811 50.25 309.223 50.25C309.692 50.25 310.064 50.1506 310.34 49.9517C310.618 49.75 310.757 49.5085 310.757 49.2273C310.757 49 310.678 48.8097 310.519 48.6563C310.36 48.5 310.115 48.3835 309.786 48.3068L308.695 48.0511C308.095 47.9091 307.655 47.6889 307.374 47.3906C307.095 47.0895 306.956 46.7131 306.956 46.2614C306.956 45.892 307.06 45.5653 307.267 45.2813C307.478 44.9972 307.763 44.7741 308.124 44.6122C308.488 44.4503 308.899 44.3693 309.36 44.3693C310.007 44.3693 310.516 44.5114 310.885 44.7955C311.257 45.0795 311.522 45.4545 311.678 45.9205Z" fill="#A8BFD6"/>
<path d="M76.9236 30.9644C76.9236 30.601 76.8961 30.2795 76.8273 29.986C76.7585 29.7065 76.6209 29.427 76.4145 29.1754C76.2081 28.9238 75.9055 28.6723 75.5202 28.4347C75.135 28.1971 74.6122 27.9455 73.9655 27.6799C73.195 27.3864 72.4658 27.051 71.7642 26.6597C71.0625 26.2823 70.4571 25.8351 69.9205 25.318C69.3977 24.8008 68.9712 24.1999 68.6548 23.515C68.3383 22.8302 68.187 22.0475 68.187 21.1391C68.187 20.2306 68.3383 19.4759 68.6685 18.7631C68.985 18.0503 69.439 17.4354 70.0031 16.9322C70.5809 16.4291 71.2689 16.0377 72.0531 15.7582C72.8511 15.4787 73.7179 15.3389 74.681 15.3389C75.644 15.3389 76.5521 15.4927 77.3363 15.8141C78.1343 16.1356 78.8085 16.5828 79.3588 17.1419C79.9092 17.7149 80.3494 18.3858 80.6384 19.1684C80.941 19.9511 81.0924 20.8176 81.0924 21.754H76.9786C76.9786 21.3208 76.9373 20.9155 76.841 20.5521C76.7447 20.1887 76.6071 19.8672 76.4145 19.6017C76.2219 19.3361 75.9742 19.1405 75.6716 18.9867C75.3689 18.847 75.0112 18.7631 74.5846 18.7631C74.1856 18.7631 73.8554 18.819 73.5665 18.9448C73.2776 19.0706 73.0437 19.2383 72.8511 19.4479C72.6585 19.6576 72.5209 19.9092 72.4246 20.2166C72.3283 20.5101 72.287 20.8316 72.287 21.153C72.287 21.4745 72.3558 21.8099 72.5071 22.0755C72.6447 22.355 72.8648 22.6066 73.1263 22.8442C73.3877 23.0818 73.7179 23.3054 74.0893 23.515C74.4746 23.7247 74.8873 23.9343 75.3414 24.13C76.2907 24.4794 77.13 24.8707 77.8454 25.304C78.5608 25.7373 79.1524 26.2124 79.634 26.7575C80.1155 27.3026 80.4733 27.9175 80.7071 28.5884C80.941 29.2732 81.0649 30.0419 81.0649 30.8945C81.0649 31.8029 80.9135 32.6275 80.6246 33.3403C80.3357 34.0531 79.9092 34.6541 79.3588 35.1433C78.8085 35.6324 78.1481 36.0098 77.3638 36.2614C76.5934 36.5269 75.7128 36.6527 74.736 36.6527C73.8554 36.6527 72.9887 36.5129 72.1356 36.2474C71.2826 35.9818 70.5259 35.5626 69.8655 35.0035C69.2051 34.4445 68.6685 33.7317 68.2558 32.8791C67.843 32.0266 67.6504 31.0063 67.6504 29.8183H71.7917C71.7917 30.4472 71.8467 30.9783 71.9705 31.4116C72.0944 31.8449 72.2732 32.2083 72.5209 32.4738C72.7685 32.7393 73.0712 32.935 73.4427 33.0608C73.8004 33.1866 74.2269 33.2425 74.7222 33.2425C75.1212 33.2425 75.4514 33.1866 75.7266 33.0608C76.0018 32.949 76.2219 32.7813 76.4008 32.5716C76.5796 32.376 76.7034 32.1244 76.7722 31.8449C76.841 31.5514 76.8823 31.2439 76.8823 30.9224L76.9236 30.9644Z" fill="#78ABAD"/>
<path d="M97.1345 15.6184V29.8882C97.1345 31.1041 96.9694 32.1244 96.6392 32.9909C96.309 33.8435 95.8413 34.5562 95.2496 35.1013C94.658 35.6464 93.9426 36.0517 93.1171 36.3033C92.2916 36.5548 91.3973 36.6946 90.4204 36.6946C89.4436 36.6946 88.5218 36.5688 87.6825 36.3033C86.857 36.0517 86.1416 35.6464 85.5499 35.1013C84.9583 34.5562 84.4905 33.8574 84.1603 32.9909C83.8301 32.1384 83.665 31.1041 83.665 29.8882V15.6184H87.8201V29.8882C87.8201 30.573 87.8751 31.1321 87.9852 31.5653C88.0953 31.9986 88.2604 32.334 88.4805 32.5716C88.7006 32.8092 88.9758 32.9769 89.2922 33.0748C89.6224 33.1726 89.9939 33.2145 90.4067 33.2145C90.8194 33.2145 91.2047 33.1726 91.5211 33.0748C91.8375 32.9909 92.1127 32.8232 92.3329 32.5716C92.553 32.334 92.7181 31.9986 92.8282 31.5653C92.9382 31.1321 92.9933 30.587 92.9933 29.8882V15.6184H97.1208H97.1345Z" fill="#78ABAD"/>
<path d="M110.838 27.4144H104.399V32.921H112.021V36.4151H100.271V15.6184H111.994V19.1265H104.399V24.0321H110.838V27.4144Z" fill="#78ABAD"/>
<path d="M114.388 36.4151V15.6324H120.717C121.735 15.6324 122.657 15.7442 123.468 15.9818C124.28 16.2054 124.968 16.5548 125.532 17.03C126.096 17.5052 126.523 18.0922 126.825 18.805C127.114 19.5178 127.266 20.3564 127.266 21.3347C127.266 21.8099 127.211 22.2711 127.114 22.7044C127.018 23.1377 126.867 23.5569 126.646 23.9343C126.44 24.3117 126.165 24.6611 125.848 24.9685C125.532 25.276 125.133 25.5276 124.693 25.7372C125.216 25.891 125.656 26.1146 126.027 26.436C126.399 26.7435 126.688 27.1069 126.908 27.5122C127.128 27.9175 127.293 28.3648 127.403 28.8539C127.499 29.3291 127.555 29.8323 127.555 30.3354C127.555 32.348 127.004 33.8714 125.917 34.9057C124.83 35.9259 123.248 36.443 121.171 36.443H114.401L114.388 36.4151ZM118.529 24.3256H120.675C121.501 24.3256 122.106 24.102 122.505 23.6688C122.904 23.2355 123.097 22.5926 123.097 21.768C123.097 20.8316 122.904 20.1467 122.533 19.7414C122.161 19.3361 121.542 19.1265 120.703 19.1265H118.515V24.3256H118.529ZM118.529 27.3725V32.921H121.171C121.57 32.921 121.914 32.8511 122.202 32.7254C122.491 32.5856 122.725 32.4039 122.904 32.1663C123.083 31.9287 123.221 31.6352 123.303 31.3138C123.386 30.9923 123.427 30.6289 123.427 30.2376C123.427 29.3571 123.262 28.6583 122.945 28.1412C122.629 27.624 122.079 27.3725 121.308 27.3725H118.529Z" fill="#78ABAD"/>
<path d="M144.945 27.8896C144.945 29.3431 144.766 30.6289 144.408 31.7331C144.051 32.8372 143.555 33.7596 142.909 34.4864C142.262 35.2131 141.492 35.7722 140.584 36.1496C139.675 36.5129 138.685 36.7086 137.584 36.7086C136.483 36.7086 135.493 36.5269 134.571 36.1496C133.663 35.7722 132.879 35.2271 132.232 34.4864C131.585 33.7456 131.076 32.8372 130.719 31.7331C130.361 30.6289 130.182 29.3431 130.182 27.8896V24.4375C130.182 22.942 130.361 21.6282 130.719 20.4962C131.076 19.3641 131.572 18.4137 132.218 17.645C132.865 16.8903 133.649 16.3173 134.557 15.9259C135.465 15.5486 136.47 15.3529 137.57 15.3529C138.671 15.3529 139.662 15.5486 140.57 15.9259C141.478 16.3173 142.248 16.8903 142.909 17.645C143.555 18.4137 144.064 19.3641 144.422 20.4962C144.78 21.6422 144.959 22.956 144.959 24.4375V27.8896H144.945ZM140.804 24.4095C140.804 23.4172 140.735 22.5786 140.597 21.8798C140.46 21.181 140.253 20.608 139.978 20.1607C139.703 19.7135 139.373 19.392 138.96 19.1824C138.547 18.9728 138.093 18.8609 137.57 18.8609C137.048 18.8609 136.566 18.9728 136.167 19.1824C135.768 19.392 135.424 19.7135 135.149 20.1607C134.874 20.608 134.667 21.181 134.53 21.8798C134.392 22.5786 134.323 23.4172 134.323 24.4095V27.8896C134.323 28.826 134.392 29.6366 134.53 30.3075C134.667 30.9783 134.874 31.5234 135.149 31.9567C135.424 32.3899 135.768 32.6974 136.181 32.8931C136.594 33.0888 137.061 33.1866 137.598 33.1866C138.135 33.1866 138.589 33.0888 138.988 32.8931C139.387 32.6974 139.717 32.376 139.992 31.9567C140.267 31.5234 140.473 30.9783 140.597 30.3075C140.735 29.6366 140.804 28.826 140.804 27.8896V24.4095Z" fill="#78ABAD"/>
<path d="M158.841 36.4151H154.713V15.6184H158.841V36.4151Z" fill="#78ABAD"/>
<path d="M165.761 20.9574L165.871 22.4808C166.312 21.8938 166.821 21.4465 167.412 21.1251C168.004 20.8176 168.664 20.6639 169.394 20.6639C169.985 20.6639 170.522 20.7617 171.017 20.9714C171.512 21.181 171.939 21.5164 172.297 21.9776C172.654 22.4389 172.93 23.0538 173.122 23.8085C173.315 24.5633 173.411 25.4857 173.411 26.5758V36.4011H169.421V26.5619C169.421 26.0587 169.38 25.6534 169.311 25.3319C169.242 25.0105 169.132 24.7589 168.981 24.5633C168.83 24.3676 168.651 24.2418 168.444 24.1579C168.224 24.0741 167.977 24.0461 167.688 24.0461C167.316 24.0461 166.986 24.144 166.697 24.3396C166.422 24.5353 166.188 24.8148 165.995 25.1642V36.3871H162.005V20.9434H165.748L165.761 20.9574Z" fill="#78ABAD"/>
<path d="M177.195 36.4151V24.0042H175.351V20.9574H177.195V19.6296C177.195 18.7491 177.305 17.9665 177.539 17.2956C177.773 16.6247 178.103 16.0517 178.529 15.5905C178.956 15.1293 179.479 14.7799 180.098 14.5423C180.717 14.3047 181.391 14.1789 182.161 14.1789C182.492 14.1789 182.794 14.2068 183.083 14.2628C183.372 14.3187 183.661 14.3885 183.95 14.4584L183.923 17.6869C183.647 17.6031 183.331 17.5611 182.959 17.5611C182.382 17.5611 181.955 17.7428 181.639 18.0922C181.336 18.4416 181.185 18.9588 181.185 19.6296V20.9574H183.565V24.0042H181.185V36.4151H177.195Z" fill="#78ABAD"/>
<path d="M185.257 28.1831C185.257 26.9811 185.395 25.905 185.698 24.9686C185.987 24.0322 186.399 23.2495 186.936 22.6206C187.472 21.9776 188.119 21.5025 188.876 21.167C189.633 20.8456 190.472 20.6779 191.407 20.6779C192.343 20.6779 193.21 20.8456 193.966 21.167C194.723 21.5025 195.37 21.9776 195.906 22.6206C196.443 23.2635 196.856 24.0461 197.145 24.9686C197.434 25.905 197.585 26.9672 197.585 28.1831V29.2034C197.585 30.4193 197.447 31.4955 197.158 32.4179C196.869 33.3543 196.457 34.137 195.934 34.7659C195.397 35.4088 194.751 35.884 193.994 36.2055C193.237 36.5269 192.384 36.6946 191.449 36.6946C190.513 36.6946 189.646 36.5269 188.89 36.2055C188.133 35.884 187.486 35.3948 186.95 34.7659C186.413 34.123 186 33.3403 185.711 32.4179C185.422 31.4955 185.271 30.4193 185.271 29.2034V28.1831H185.257ZM189.247 29.2034C189.247 30.6429 189.44 31.6911 189.825 32.348C190.21 33.0049 190.747 33.3403 191.421 33.3403C192.137 33.3403 192.687 33.0049 193.058 32.348C193.43 31.6911 193.609 30.6289 193.609 29.2034V28.1831C193.609 26.7715 193.416 25.7233 193.031 25.0524C192.646 24.3676 192.109 24.0322 191.407 24.0322C190.706 24.0322 190.21 24.3676 189.825 25.0524C189.44 25.7373 189.261 26.7855 189.261 28.1831V29.2034H189.247Z" fill="#78ABAD"/>
<path d="M207.546 24.8568C207.367 24.8428 207.147 24.8148 206.885 24.7869C206.624 24.7589 206.404 24.7449 206.225 24.7449C205.647 24.7449 205.193 24.8707 204.835 25.1223C204.478 25.3739 204.202 25.7373 204.024 26.2124V36.4151H200.034V20.9714H203.79L203.9 22.6345C204.202 22.0196 204.574 21.5304 205 21.195C205.441 20.8595 205.936 20.6779 206.5 20.6779C206.679 20.6779 206.872 20.6918 207.078 20.7338C207.284 20.7617 207.463 20.8176 207.587 20.8735L207.546 24.8707V24.8568Z" fill="#78ABAD"/>
<path d="M213.325 20.9574L213.435 22.383C213.861 21.8379 214.356 21.4186 214.948 21.1251C215.54 20.8176 216.2 20.6779 216.97 20.6779C217.672 20.6779 218.305 20.8456 218.855 21.181C219.406 21.5164 219.86 22.0475 220.176 22.7603C220.589 22.1034 221.098 21.5863 221.717 21.2229C222.336 20.8595 223.065 20.6779 223.905 20.6779C224.524 20.6779 225.088 20.7897 225.583 20.9993C226.079 21.209 226.505 21.5444 226.863 22.0196C227.221 22.4808 227.496 23.0957 227.688 23.8505C227.881 24.6052 227.977 25.5136 227.977 26.6038V36.4291H224.001V26.5898C224.001 26.0727 223.96 25.6534 223.891 25.3319C223.822 25.0105 223.712 24.7449 223.575 24.5633C223.437 24.3816 223.258 24.2418 223.065 24.1719C222.873 24.102 222.639 24.0601 222.391 24.0601C221.992 24.0601 221.662 24.1859 221.387 24.4235C221.112 24.6751 220.892 25.0105 220.727 25.4438C220.727 25.5416 220.74 25.6534 220.754 25.7652C220.754 25.877 220.754 25.9888 220.754 26.1146V36.4151H216.778V26.6038C216.778 26.0867 216.75 25.6674 216.668 25.3459C216.599 25.0245 216.489 24.7589 216.365 24.5633C216.228 24.3676 216.062 24.2418 215.856 24.1719C215.65 24.102 215.43 24.0601 215.168 24.0601C214.797 24.0601 214.494 24.1579 214.219 24.3536C213.944 24.5493 213.723 24.8288 213.531 25.1782V36.4011H209.555V20.9574H213.283H213.325Z" fill="#78ABAD"/>
<path d="M238.158 36.4151C238.09 36.2474 238.021 36.0657 237.966 35.87C237.911 35.6604 237.87 35.4507 237.815 35.2271C237.512 35.6464 237.127 35.9958 236.659 36.2893C236.191 36.5688 235.613 36.7226 234.925 36.7226C234.306 36.7226 233.728 36.6108 233.192 36.4011C232.655 36.1775 232.187 35.87 231.788 35.4787C231.389 35.0734 231.073 34.5982 230.853 34.0252C230.619 33.4661 230.509 32.8232 230.509 32.1244C230.509 31.3417 230.633 30.6429 230.88 30C231.128 29.3711 231.499 28.826 232.008 28.3927C232.504 27.9455 233.137 27.6101 233.893 27.3725C234.65 27.1349 235.531 27.0091 236.549 27.0091H237.636V25.7652C237.636 25.0664 237.526 24.5772 237.278 24.2977C237.044 24.0042 236.7 23.8644 236.26 23.8644C235.737 23.8644 235.366 24.0182 235.132 24.3257C234.898 24.6331 234.774 25.0664 234.774 25.6254H230.798C230.798 24.9546 230.922 24.3117 231.183 23.7247C231.444 23.1237 231.816 22.6066 232.297 22.1593C232.779 21.7121 233.371 21.3627 234.058 21.0971C234.746 20.8316 235.517 20.7058 236.384 20.7058C237.14 20.7058 237.842 20.8036 238.475 20.9993C239.108 21.195 239.658 21.5025 240.14 21.9078C240.607 22.3271 240.979 22.8582 241.24 23.5011C241.502 24.144 241.639 24.9127 241.639 25.8211V32.6695C241.639 33.1167 241.639 33.522 241.681 33.8575C241.708 34.2069 241.736 34.5143 241.791 34.8078C241.832 35.0874 241.901 35.3389 241.97 35.5626C242.038 35.7862 242.121 35.9958 242.217 36.1915V36.4291H238.214L238.158 36.4151ZM235.806 33.522C236.246 33.522 236.618 33.4242 236.934 33.2565C237.237 33.0748 237.471 32.8651 237.622 32.6136V29.399H236.686C236.315 29.399 235.985 29.4549 235.723 29.5807C235.448 29.7065 235.228 29.8742 235.049 30.0978C234.87 30.3215 234.733 30.573 234.636 30.8665C234.554 31.16 234.499 31.4815 234.499 31.8029C234.499 32.362 234.609 32.7953 234.843 33.0748C235.077 33.3683 235.393 33.508 235.82 33.508L235.806 33.522Z" fill="#78ABAD"/>
<path d="M249.097 17.1698V20.9713H251.133V24.0182H249.097V31.6771C249.097 31.9986 249.124 32.2641 249.165 32.4738C249.207 32.6834 249.275 32.8511 249.372 32.963C249.468 33.0887 249.592 33.1586 249.743 33.2145C249.895 33.2565 250.073 33.2704 250.294 33.2704C250.486 33.2704 250.665 33.2704 250.83 33.2425C250.995 33.2285 251.133 33.2005 251.229 33.1726L251.202 36.3173C250.899 36.4291 250.582 36.5269 250.239 36.5968C249.895 36.6667 249.482 36.7086 249.014 36.7086C248.422 36.7086 247.886 36.6247 247.418 36.457C246.936 36.2893 246.537 36.0237 246.194 35.6604C245.85 35.297 245.588 34.8218 245.409 34.2348C245.23 33.6478 245.134 32.949 245.134 32.1384V24.0182H243.373V20.9713H245.134V17.1698H249.11H249.097Z" fill="#78ABAD"/>
<path d="M253.32 16.9602C253.32 16.6387 253.375 16.3592 253.472 16.0936C253.582 15.8281 253.719 15.6045 253.912 15.4228C254.105 15.2271 254.325 15.0874 254.6 14.9755C254.861 14.8777 255.164 14.8218 255.494 14.8218C255.824 14.8218 256.113 14.8777 256.388 14.9755C256.65 15.0874 256.884 15.2271 257.076 15.4228C257.269 15.6185 257.407 15.8421 257.517 16.0936C257.613 16.3592 257.668 16.6387 257.668 16.9602C257.668 17.2816 257.613 17.5612 257.517 17.8267C257.407 18.0922 257.269 18.3159 257.076 18.5115C256.884 18.7072 256.664 18.8609 256.388 18.9588C256.127 19.0706 255.824 19.1125 255.494 19.1125C255.164 19.1125 254.875 19.0566 254.6 18.9588C254.338 18.8609 254.105 18.7072 253.912 18.5115C253.719 18.3159 253.582 18.0922 253.472 17.8267C253.375 17.5612 253.32 17.2816 253.32 16.9602ZM257.489 36.4151H253.499V20.9714H257.489V36.4151Z" fill="#78ABAD"/>
<path d="M265.62 30.4612L264.547 31.6772V36.4151H260.571V14.4864H264.547V26.3382L265.042 25.5835L267.794 20.9574H272.527L268.11 27.3306L272.953 36.4151H268.399L265.62 30.4612Z" fill="#78ABAD"/>
<path d="M290.922 32.1523H285.281L284.18 36.4011H279.805L286.203 15.6184H289.986L296.425 36.4011H292.009L290.908 32.1523H290.922ZM286.189 28.6583H290.014L288.102 21.2509L286.189 28.6583Z" fill="#78ABAD"/>
<path d="M312 34.0531C311.78 34.2907 311.491 34.5563 311.133 34.8637C310.762 35.1712 310.308 35.4507 309.758 35.7303C309.207 35.9958 308.561 36.2334 307.831 36.4151C307.088 36.5968 306.235 36.6946 305.272 36.6946C304.13 36.6946 303.098 36.5129 302.177 36.1496C301.255 35.7862 300.471 35.2411 299.81 34.5143C299.15 33.7876 298.654 32.8512 298.297 31.7331C297.939 30.615 297.774 29.3012 297.774 27.7918V24.2837C297.774 22.7743 297.939 21.4605 298.283 20.3424C298.613 19.2243 299.095 18.2879 299.728 17.5472C300.347 16.8064 301.103 16.2474 301.998 15.898C302.892 15.5346 303.896 15.3529 305.011 15.3529C306.125 15.3529 307.171 15.5066 308.024 15.8001C308.863 16.0936 309.565 16.5409 310.129 17.1279C310.693 17.7149 311.12 18.4417 311.422 19.2942C311.725 20.1607 311.918 21.153 312 22.2711H307.983C307.928 21.6143 307.831 21.0692 307.708 20.6359C307.584 20.2027 307.405 19.8533 307.171 19.5877C306.937 19.3222 306.662 19.1405 306.332 19.0287C306.001 18.9168 305.602 18.8609 305.148 18.8609C304.612 18.8609 304.13 18.9588 303.731 19.1544C303.332 19.3501 302.988 19.6716 302.727 20.0909C302.466 20.5241 302.259 21.0832 302.135 21.768C301.998 22.4668 301.943 23.2914 301.943 24.2697V27.8057C301.943 28.798 302.012 29.6366 302.163 30.3215C302.314 31.0063 302.534 31.5653 302.823 31.9986C303.112 32.4319 303.484 32.7533 303.938 32.935C304.392 33.1307 304.915 33.2285 305.534 33.2285C305.905 33.2285 306.208 33.2006 306.469 33.1447C306.731 33.0888 306.951 33.0189 307.13 32.935C307.309 32.8512 307.46 32.7673 307.584 32.6834C307.694 32.5996 307.804 32.5297 307.886 32.4738V28.6583H304.997V25.4857H312.041V34.0671L312 34.0531Z" fill="#78ABAD"/>
</g>
<defs>
<clipPath id="clip0_1640_7460">
<rect width="312" height="60" fill="white"/>
</clipPath>
</defs>
</svg>
