<svg width="21" height="21" viewBox="0 0 21 21" fill="none" xmlns="http://www.w3.org/2000/svg">
<path d="M10.4769 20.9524C4.68968 20.9524 0.000743866 16.2634 0.000743866 10.4762C0.000743866 4.68894 4.68968 0 10.4769 0C16.2642 0 20.9531 4.68894 20.9531 10.4762C20.9531 16.2634 16.2642 20.9524 10.4769 20.9524ZM15.3771 8.61751H10.4769V5.6225C10.4769 5.17051 9.92778 4.9424 9.61096 5.26344L4.78262 10.1171C4.58408 10.3157 4.58408 10.6325 4.78262 10.831L9.61096 15.6847C9.932 16.0058 10.4769 15.7776 10.4769 15.3257L10.4769 12.3349H15.3771C15.6559 12.3349 15.884 12.1068 15.884 11.828V9.12442C15.884 8.84562 15.6559 8.61751 15.3771 8.61751Z" fill="white"/>
</svg>
