<svg width="221" height="212" viewBox="0 0 221 212" fill="none" xmlns="http://www.w3.org/2000/svg">
<g opacity="0.3">
<path d="M136.834 111.467C148.056 111.467 156.916 119.466 157.063 129.638C157.26 139.81 147.515 148.797 136.44 148.55C125.316 148.352 116.112 139.81 116.211 129.687C116.309 119.565 125.366 111.418 136.883 111.467" fill="black"/>
<path d="M104.447 83.2725C105.727 92.753 94.9969 101.937 84.6607 101.443C72.7003 100.95 65.1204 93.938 64.5298 82.9762C63.9883 73.0019 74.4722 64.5583 84.7592 64.5583C95.0461 64.5583 105.825 73.1007 104.398 83.2725" fill="black"/>
<path d="M172.961 90.9754C172.961 98.6289 165.332 106.085 157.211 106.233C149.139 106.381 140.722 98.4314 141.264 91.0742C142.297 82.2849 150.172 76.014 158.934 77.0509C166.267 77.8903 172.075 83.7169 172.912 91.0742V90.9754H172.961Z" fill="black"/>
<path d="M112.125 150.821C112.125 159.512 105.776 165.338 96.3258 165.289C86.8756 165.289 80.3786 159.018 80.3786 150.229C80.3786 142.674 87.9585 135.761 96.5227 135.958C105.875 136.205 112.962 143.019 112.125 150.821Z" fill="black"/>
<path d="M49.2223 122.33C49.2223 114.331 56.0639 108.06 65.022 108.159C73.9308 108.258 81.4122 114.825 80.9692 122.429C80.4278 131.218 74.9644 137.39 65.022 137.44C56.9991 138.131 49.9607 132.156 49.2716 124.108C49.2716 123.515 49.2224 122.873 49.2716 122.281" fill="black"/>
<path d="M126.055 48.4119C135.554 48.4119 142.002 54.3372 142.002 63.3239C142.002 71.0762 134.865 77.6434 126.202 77.7916C117.54 77.9397 110.107 70.9281 110.255 63.472C110.255 54.5347 116.703 48.4612 126.055 48.4612" fill="black"/>
<path d="M58.771 147.266C64.3821 146.97 69.1072 151.315 69.4025 156.895V156.993C69.1072 162.375 64.7266 166.622 59.3124 166.721C53.9967 166.918 48.6809 162.277 48.6809 157.438C48.6809 151.858 53.1599 147.315 58.7218 147.315L58.771 147.266Z" fill="black"/>
<path d="M162.084 64.904C156.67 65.1509 152.092 61.0032 151.797 55.5716C151.797 55.4235 151.797 55.2753 151.797 55.1766C151.797 50.2882 156.67 45.8936 162.281 45.943C167.695 45.943 172.223 49.9919 172.715 55.3741C172.469 60.9044 167.842 65.2002 162.379 64.9534C162.281 64.9534 162.182 64.9534 162.133 64.9534" fill="black"/>
<path d="M23.1358 157.882C22.8405 153.191 26.3843 149.142 31.1094 148.846C31.3555 148.846 31.6508 148.846 31.8969 148.846C38.2955 148.846 40.6581 152.352 41.2487 157.734C41.7409 162.03 36.8189 165.98 31.9954 165.98C27.3687 166.128 23.4311 162.524 23.1358 157.882Z" fill="black"/>
<path d="M161.05 38.0919C156.079 38.1907 151.944 34.3392 151.748 29.3521C151.994 24.6118 155.931 20.8591 160.656 20.8097C165.431 20.5629 169.565 24.2168 169.86 29.0064C169.91 33.9442 165.972 38.0425 161.05 38.0919Z" fill="black"/>
<path d="M199.934 56.8061C199.934 61.5463 196.095 65.3978 191.37 65.3978C186.251 65.3978 182.067 61.3488 181.87 56.2135C182.362 51.4239 186.595 47.9674 191.37 48.3625C195.849 48.0662 199.688 51.4733 199.983 55.9666C199.983 56.2135 199.983 56.5098 199.983 56.8061" fill="black"/>
<path d="M69.6486 184.151C69.6486 188.891 65.8587 192.743 61.1336 192.792C56.3592 192.792 52.3724 189.188 51.7326 184.497C51.5849 180.645 56.8022 175.609 60.9367 175.609C65.4649 176.102 69.058 179.658 69.6486 184.2" fill="black"/>
<path d="M0.00239099 155.364C0.100831 151.661 3.20169 148.747 6.89318 148.895C6.99162 148.895 7.09006 148.895 7.1885 148.895C11.0277 148.895 14.0793 152.056 14.0793 155.858C14.0793 156.006 14.0793 156.154 14.0793 156.253C13.3902 159.808 10.2894 162.375 6.64709 162.375C2.85715 162.277 -0.0960489 159.166 0.00239099 155.364Z" fill="black"/>
<path d="M160.558 13.3537C156.866 12.9587 153.962 10.0454 153.519 6.39147C153.47 2.93504 156.227 0.0711335 159.672 0.0217559C159.869 0.0217559 160.115 0.0217559 160.312 0.0217559C163.954 -0.27451 167.104 2.49064 167.399 6.14458C166.858 9.74915 164.102 12.6624 160.558 13.3537Z" fill="black"/>
<path d="M221 56.1641C220.852 60.1144 217.555 63.2251 213.617 63.077C209.975 62.9289 207.022 60.1144 206.726 56.4604C207.022 52.8558 210.073 50.0413 213.666 50.1401C217.309 49.9426 220.459 52.5596 221 56.1641Z" fill="black"/>
<path d="M55.0303 205.68C55.0303 201.976 57.9835 198.964 61.675 198.915H61.8227C65.5142 199.162 68.4674 202.124 68.6642 205.877C68.6642 209.235 65.9571 212 62.6102 212C62.3149 212 62.0195 212 61.7242 211.951C58.4757 212.346 55.5225 210.074 55.0795 206.815C55.0795 206.42 55.0303 206.075 55.0795 205.68" fill="black"/>
</g>
</svg>
