<svg width="184" height="184" viewBox="0 0 184 184" fill="none" xmlns="http://www.w3.org/2000/svg">
<g opacity="0.3">
<path d="M181.365 156.688H174.168V46.8625C174.168 41.4 169.85 37.0875 164.38 37.0875H147.107V42.55H164.38C166.683 42.55 168.41 44.275 168.41 46.575V156.4H13.8183V46.8625C13.8183 44.5625 15.5456 42.8375 17.8486 42.8375H35.1215V37.375H17.8486C12.3789 37.375 8.06067 41.6875 8.06067 47.15V156.975H2.87881C1.4394 156.975 0 158.125 0 159.85C0 173.075 10.9395 184 24.4699 184H159.486C173.016 184 183.956 173.075 183.956 159.562C184.244 157.837 183.092 156.688 181.365 156.688ZM103.061 173.075H81.1824C79.743 173.075 78.3036 171.925 78.3036 170.2C78.3036 168.475 79.4551 167.325 81.1824 167.325H103.061C104.501 167.325 105.94 168.475 105.94 170.2C105.94 171.925 104.501 173.075 103.061 173.075Z" fill="black"/>
<path d="M88.3794 107.237L83.7734 105.513C83.1976 103.5 82.3339 101.487 81.4703 99.475L83.4855 95.1625C84.0612 94.3 83.7733 92.8625 82.9097 92.2875L78.0157 87.4C77.1521 86.5375 76.0006 86.5375 75.1369 86.825L71.1066 88.8375C69.0914 87.6875 67.0763 86.825 64.7732 86.25L63.3338 82.225C63.0459 81.075 61.8944 80.5 61.0308 80.5H54.1216C52.9701 80.5 52.1064 81.075 51.8186 82.225L50.0913 86.25C47.7882 86.825 45.7731 87.6875 44.0458 88.8375L40.0154 86.825C39.1518 86.25 37.7124 86.5375 37.1366 87.4L32.2427 92.2875C31.379 93.15 31.379 94.3 31.6669 95.1625L33.6821 99.475C32.5305 101.487 31.6669 103.5 31.379 105.513L26.7729 107.237C25.6214 107.525 25.0456 108.675 25.0456 109.537V116.438C25.0456 117.588 25.6214 118.45 26.7729 118.737L31.379 120.463C31.9548 122.475 32.8184 124.2 33.6821 125.925L31.6669 130.525C31.0911 131.387 31.379 132.825 32.2427 133.4L37.1366 138.287C38.0003 139.15 39.1518 139.15 40.0154 138.863L44.9094 136.562C46.6367 137.425 48.364 138.287 50.0913 138.863L51.8186 143.75C52.1064 144.9 53.258 145.475 54.1216 145.475H61.0308C62.1823 145.475 63.0459 144.9 63.3338 143.75L65.0611 138.863C66.7884 138.287 68.8035 137.712 70.5308 136.562L75.1369 138.863C76.0006 139.438 77.44 139.15 78.0157 138.287L82.9097 133.4C83.7733 132.538 83.7733 131.387 83.4855 130.525L81.1824 125.925C82.0461 124.2 82.9097 122.188 83.4855 120.463L88.3794 118.737C89.531 118.45 90.1067 117.3 90.1067 116.438V109.537C90.1067 108.387 89.531 107.525 88.3794 107.237ZM57.5762 124.775C50.9549 124.775 45.4852 119.312 45.4852 112.7C45.4852 106.088 50.9549 100.625 57.5762 100.625C64.1974 100.625 69.6672 106.088 69.6672 112.7C69.6672 119.312 64.1974 124.775 57.5762 124.775Z" fill="black"/>
<path d="M104.501 76.475H119.471V94.0125H104.501V76.475Z" fill="black"/>
<path d="M124.077 29.9C117.168 29.9 111.698 24.4375 111.698 17.5375V0H49.2276C44.6215 0 40.8791 3.7375 40.8791 8.3375V81.3625C41.4549 81.3625 42.0306 81.65 42.6064 81.9375L44.0458 82.8C44.6215 82.5125 45.1973 82.225 46.0609 81.9375L46.6367 80.2125C47.7882 77.05 50.9549 74.75 54.4095 74.75H61.3186C64.7732 74.75 67.9399 77.05 69.0914 80.2125L69.6672 81.9375C70.243 82.225 71.1066 82.5125 71.6824 82.8L73.4096 81.9375C74.5612 81.3625 75.7127 81.075 76.8642 81.075C79.1673 81.075 81.1824 81.9375 82.6218 83.375L87.5158 88.2625C89.8189 90.5625 90.6825 94.3 89.2431 97.4625L88.3794 99.475C88.6673 100.05 88.9552 100.625 88.9552 101.2L90.9704 101.775C94.1371 102.925 96.4401 106.087 96.4401 109.537V116.438C96.4401 119.887 94.1371 123.05 90.9704 124.2L88.6673 125.062C88.3794 125.35 88.3794 125.925 88.0916 126.213H133.865C138.471 126.213 142.213 122.475 142.213 117.875V29.9H124.077ZM60.1671 16.675H100.47C101.91 16.675 103.349 17.825 103.349 19.55C103.349 21.275 102.198 22.425 100.47 22.425H60.1671C58.7277 22.425 57.2883 21.275 57.2883 19.55C57.2883 17.825 58.7277 16.675 60.1671 16.675ZM60.1671 34.7875H100.47C101.91 34.7875 103.349 35.9375 103.349 37.6625C103.349 39.1 102.198 40.5375 100.47 40.5375H60.1671C58.7277 40.5375 57.2883 39.3875 57.2883 37.6625C57.5762 35.9375 58.7277 34.7875 60.1671 34.7875ZM124.94 96.6C124.94 98.0375 123.789 99.475 122.062 99.475H101.622C100.183 99.475 98.7432 98.325 98.7432 96.6V73.6C98.7432 72.1625 99.8947 70.725 101.622 70.725H122.062C123.501 70.725 124.94 71.875 124.94 73.6V96.6ZM122.062 58.3625H60.1671C58.7277 58.3625 57.2883 57.2125 57.2883 55.4875C57.2883 53.7625 58.4398 52.6125 60.1671 52.6125H122.062C123.501 52.6125 124.94 53.7625 124.94 55.4875C124.94 57.2125 123.789 58.3625 122.062 58.3625Z" fill="black"/>
<path d="M124.077 24.4375H140.198L117.455 1.725V17.825C117.168 21.275 120.334 24.4375 124.077 24.4375Z" fill="black"/>
</g>
</svg>
