<svg width="58" height="34" viewBox="0 0 58 34" fill="none" xmlns="http://www.w3.org/2000/svg">
<path d="M16.5919 33.7733H13.7836C13.7025 33.7733 13.6367 33.7052 13.6367 33.621V21.1821C13.6367 21.098 13.7025 21.0298 13.7836 21.0298H16.5919C16.673 21.0298 16.7388 21.098 16.7388 21.1821V33.6211C16.7388 33.7052 16.673 33.7733 16.5919 33.7733Z" fill="#F5F5F5"/>
<path d="M41.748 24.4302C41.748 24.5427 41.6347 24.6169 41.5373 24.5672C41.1515 24.3704 40.2911 23.9999 39.1382 23.9999C37.1338 23.9999 35.7426 25.448 35.7426 27.4C35.7426 29.2938 37.0733 30.8014 39.1382 30.8014C40.2787 30.8014 41.1479 30.4344 41.538 30.2382C41.6352 30.1894 41.748 30.2636 41.748 30.3756V33.4308C41.748 33.4988 41.7047 33.5585 41.6416 33.5772C41.1866 33.7117 40.1895 33.9999 38.9222 33.9999C35.4328 33.9999 32.3708 31.5061 32.3708 27.4C32.3708 23.5937 35.1415 20.8032 38.9222 20.8032C40.2389 20.8032 41.2474 21.104 41.6441 21.2278C41.7062 21.2472 41.748 21.3063 41.748 21.3735V24.4302Z" fill="#F5F5F5"/>
<path d="M9.37312 24.4295C9.37312 24.5421 9.25972 24.6163 9.16219 24.5664C8.77714 24.3693 7.91881 23.9999 6.76754 23.9999C4.75849 23.9999 3.36819 25.448 3.36819 27.4C3.36819 29.2938 4.70072 30.8014 6.76754 30.8014C7.9059 30.8014 8.77375 30.4355 9.16298 30.2392C9.26029 30.1901 9.37312 30.2644 9.37312 30.3766V33.4312C9.37312 33.4991 9.32996 33.5587 9.26709 33.5774C8.81543 33.712 7.81867 33.9999 6.54494 33.9999C3.05837 33.9999 0 31.5061 0 27.4001C0 23.5938 2.77041 20.8034 6.54494 20.8034C7.86568 20.8034 8.874 21.1039 9.26947 21.2278C9.33143 21.2473 9.37323 21.3063 9.37323 21.3735L9.37312 24.4295Z" fill="#F5F5F5"/>
<path d="M58 27.4001C58 31.0456 55.2854 34 51.5056 34C47.7254 34 45.0142 31.0456 45.0142 27.4001C45.0142 23.7599 47.7254 20.8034 51.5056 20.8034C55.2853 20.8032 58 23.7598 58 27.4001ZM51.5056 24.0482C49.6656 24.0482 48.2989 25.5493 48.2989 27.4001C48.2989 29.2548 49.6656 30.7545 51.5056 30.7545C53.3435 30.7545 54.7139 29.2548 54.7139 27.4001C54.7138 25.5493 53.3435 24.0482 51.5056 24.0482Z" fill="#F5F5F5"/>
<path d="M28.5016 23.7282C28.5016 23.8275 28.412 23.9002 28.3191 23.8759C27.9162 23.7703 26.9234 23.5372 26.0764 23.5372C24.8333 23.5372 24.1584 23.9688 24.1584 24.582C24.1584 25.3582 25.0695 25.6277 25.5804 25.7952L26.4355 26.0779C28.449 26.7415 29.3658 28.1711 29.3658 29.7234C29.3658 32.9245 26.651 34 24.2773 34C22.8323 34 21.4682 33.7589 21.0487 33.6764C20.9795 33.6628 20.9295 33.6 20.9295 33.5269V30.9173C20.9295 30.8174 21.0206 30.7443 21.1137 30.77C21.5866 30.9009 22.7027 31.1938 23.8587 31.1938C25.4015 31.1938 26.1113 30.7248 26.1113 30.0034C26.1113 29.3574 25.4973 28.9844 24.7284 28.7338C24.54 28.6689 24.258 28.5773 24.0658 28.5125C22.3379 27.9458 20.8984 26.8935 20.8984 24.7842C20.8984 22.4005 22.6189 20.7995 25.4782 20.7995C26.7795 20.7995 28.0143 21.0816 28.3903 21.1765C28.4561 21.1931 28.5017 21.254 28.5017 21.3243L28.5016 23.7282Z" fill="#F5F5F5"/>
<path d="M16.3405 33.6211V21.1821C16.3405 21.098 16.4063 21.0298 16.4874 21.0298H13.7836C13.7025 21.0298 13.6369 21.098 13.6369 21.1821V33.6211C13.6369 33.7052 13.7027 33.7734 13.7837 33.7734H16.4874C16.4062 33.7733 16.3405 33.7052 16.3405 33.6211Z" fill="#F5F5F5"/>
<path d="M41.5373 24.5672C41.6347 24.6169 41.748 24.5427 41.748 24.4302V24.0021C41.3384 24.0115 40.955 24.0812 40.6056 24.2043C41.0224 24.3227 41.3413 24.4673 41.5373 24.5672Z" fill="#F5F5F5"/>
<path d="M35.0745 27.4001C35.0745 24.0419 37.2319 21.4758 40.3361 20.9178C39.9269 20.8519 39.4499 20.8032 38.9222 20.8032C35.1415 20.8032 32.3708 23.5937 32.3708 27.4C32.3708 31.5061 35.4328 33.9999 38.9222 33.9999C39.446 33.9999 39.9226 33.9503 40.3348 33.8831C37.4148 33.3468 35.0745 30.9897 35.0745 27.4001Z" fill="#F5F5F5"/>
<path d="M41.748 30.3756C41.748 30.2636 41.6353 30.1892 41.538 30.2382C41.3403 30.3376 41.0191 30.4809 40.6024 30.598C40.9503 30.7204 41.3341 30.7899 41.748 30.7993V30.3756Z" fill="#F5F5F5"/>
<path d="M2.70368 27.4001C2.70368 24.0416 4.86112 21.4754 7.96141 20.9176C7.55189 20.8519 7.07407 20.8032 6.54482 20.8032C2.77041 20.8032 0 23.5937 0 27.4001C0 31.5062 3.05837 34 6.54494 34C7.07056 34 7.54804 33.9507 7.9605 33.8836C5.04215 33.3479 2.70368 30.9905 2.70368 27.4001Z" fill="#F5F5F5"/>
<path d="M47.7179 27.4001C47.7179 24.2107 49.7993 21.5462 52.8575 20.9353C52.4252 20.8489 51.9737 20.8034 51.5056 20.8034C47.7254 20.8034 45.0141 23.7598 45.0141 27.4C45.0141 31.0455 47.7253 33.9999 51.5056 33.9999C51.9737 33.9999 52.4252 33.9543 52.8575 33.868C49.7993 33.2573 47.7179 30.5941 47.7179 27.4001Z" fill="#F5F5F5"/>
<path d="M28.3191 23.8759C28.412 23.9002 28.5016 23.8275 28.5016 23.7282V23.5458C28.1497 23.5657 27.8511 23.6236 27.6095 23.7131C27.9076 23.7724 28.1598 23.8341 28.3191 23.8759Z" fill="#F5F5F5"/>
<path d="M2.52515 9.83092C2.52515 9.11023 1.95852 8.52613 1.26275 8.52613C0.567879 8.52601 0 9.11023 0 9.83092V12.5733C0 13.2978 0.567879 13.8819 1.26275 13.8819C1.95841 13.8819 2.52515 13.2978 2.52515 12.5733V9.83092Z" fill="#F5F5F5"/>
<path d="M9.46057 6.23028C9.46057 5.51018 8.8936 4.92491 8.19816 4.92491C7.5025 4.92491 6.93542 5.51018 6.93542 6.23028V12.5732C6.93542 13.2977 7.50262 13.8817 8.19816 13.8817C8.8936 13.8817 9.46057 13.2977 9.46057 12.5732V6.23028Z" fill="#F5F5F5"/>
<path d="M16.3961 1.30431C16.3961 0.584327 15.8287 0 15.1332 0C14.4379 0 13.8705 0.584327 13.8705 1.30431V15.1802C13.8705 15.904 14.4379 16.4887 15.1332 16.4887C15.8287 16.4887 16.3961 15.9042 16.3961 15.1802V1.30431Z" fill="#F5F5F5"/>
<path d="M1.41998 12.5733V9.83092C1.41998 9.38272 1.63975 8.98772 1.97291 8.7527C1.77036 8.60988 1.5259 8.52602 1.26286 8.52602C0.567879 8.52602 0 9.11023 0 9.83092V12.5733C0 13.2978 0.567766 13.8819 1.26275 13.8819C1.5259 13.8819 1.77047 13.7981 1.97291 13.6551C1.63975 13.4198 1.41998 13.0238 1.41998 12.5733Z" fill="#F5F5F5"/>
<path d="M8.35529 12.5733V6.2304C8.35529 5.78255 8.57482 5.38709 8.90798 5.15195C8.70544 5.00901 8.46109 4.92491 8.19816 4.92491C7.5025 4.92491 6.9353 5.5103 6.9353 6.2304V12.5733C6.9353 13.2978 7.5025 13.8817 8.19816 13.8817C8.46109 13.8817 8.70555 13.7981 8.90798 13.6551C8.57482 13.4198 8.35529 13.0238 8.35529 12.5733Z" fill="#F5F5F5"/>
<path d="M15.2904 15.1802V1.30431C15.2904 0.856583 15.51 0.461472 15.8433 0.226567C15.6406 0.0837439 15.3962 0 15.1332 0C14.4379 0 13.8705 0.584327 13.8705 1.30431V15.1802C13.8705 15.904 14.4379 16.4887 15.1332 16.4887C15.3962 16.4887 15.6406 16.405 15.8433 16.2619C15.51 16.0266 15.2904 15.6304 15.2904 15.1802Z" fill="#F5F5F5"/>
<path d="M30.2627 9.83092C30.2627 9.11023 29.6961 8.52613 29.0003 8.52613C28.3055 8.52613 27.7376 9.11023 27.7376 9.83092V12.5733C27.7376 13.2978 28.3055 13.8819 29.0003 13.8819C29.696 13.8819 30.2627 13.2978 30.2627 12.5733V9.83092Z" fill="#F5F5F5"/>
<path d="M29.1575 12.5733V9.83092C29.1575 9.38272 29.3772 8.98772 29.7104 8.7527C29.5078 8.60988 29.2634 8.52613 29.0003 8.52613C28.3055 8.52613 27.7375 9.11011 27.7375 9.8308V12.5732C27.7375 13.2977 28.3054 13.8819 29.0003 13.8819C29.2635 13.8819 29.508 13.798 29.7104 13.6549C29.3772 13.4198 29.1575 13.0238 29.1575 12.5733Z" fill="#F5F5F5"/>
<path d="M23.3295 6.23028C23.3295 5.51018 22.7625 4.92491 22.0671 4.92491C21.3714 4.92491 20.8043 5.51018 20.8043 6.23028V12.5732C20.8043 13.2977 21.3715 13.8817 22.0671 13.8817C22.7625 13.8817 23.3295 13.2977 23.3295 12.5732V6.23028Z" fill="#F5F5F5"/>
<path d="M22.2242 12.5733V6.2304C22.2242 5.78255 22.4437 5.38709 22.7769 5.15195C22.5743 5.00901 22.33 4.92491 22.0671 4.92491C21.3714 4.92491 20.8042 5.5103 20.8042 6.2304V12.5733C20.8042 13.2978 21.3714 13.8817 22.0671 13.8817C22.33 13.8817 22.5745 13.7981 22.7769 13.6551C22.4437 13.4198 22.2242 13.0238 22.2242 12.5733Z" fill="#F5F5F5"/>
<path d="M37.196 6.23028C37.196 5.51018 36.629 4.92491 35.9336 4.92491C35.2379 4.92491 34.6709 5.51018 34.6709 6.23028V12.5732C34.6709 13.2977 35.2381 13.8817 35.9336 13.8817C36.629 13.8817 37.196 13.2977 37.196 12.5732V6.23028Z" fill="#F5F5F5"/>
<path d="M44.1315 1.30431C44.1315 0.584327 43.5641 0 42.8687 0C42.1734 0 41.6059 0.584327 41.6059 1.30431V15.1802C41.6059 15.904 42.1734 16.4887 42.8687 16.4887C43.5641 16.4887 44.1315 15.9042 44.1315 15.1802V1.30431Z" fill="#F5F5F5"/>
<path d="M36.0907 12.5733V6.2304C36.0907 5.78255 36.3103 5.38709 36.6434 5.15195C36.4409 5.00901 36.1965 4.92491 35.9336 4.92491C35.2379 4.92491 34.6707 5.5103 34.6707 6.2304V12.5733C34.6707 13.2978 35.2379 13.8817 35.9336 13.8817C36.1965 13.8817 36.441 13.7981 36.6434 13.6551C36.3103 13.4198 36.0907 13.0238 36.0907 12.5733Z" fill="#F5F5F5"/>
<path d="M43.0258 15.1802V1.30431C43.0258 0.856583 43.2455 0.461472 43.5787 0.226567C43.3761 0.0837439 43.1316 0 42.8687 0C42.1734 0 41.6058 0.584327 41.6058 1.30431V15.1802C41.6058 15.904 42.1733 16.4887 42.8687 16.4887C43.1316 16.4887 43.3761 16.405 43.5787 16.2619C43.2455 16.0266 43.0258 15.6304 43.0258 15.1802Z" fill="#F5F5F5"/>
<path d="M57.9981 9.83092C57.9981 9.11023 57.4314 8.52613 56.7357 8.52613C56.0408 8.52613 55.4729 9.11023 55.4729 9.83092V12.5733C55.4729 13.2978 56.0408 13.8819 56.7357 13.8819C57.4313 13.8819 57.9981 13.2978 57.9981 12.5733V9.83092Z" fill="#F5F5F5"/>
<path d="M56.8929 12.5733V9.83092C56.8929 9.38272 57.1127 8.98772 57.4458 8.7527C57.2433 8.60988 56.9988 8.52602 56.7358 8.52602C56.0409 8.52602 55.4729 9.11011 55.4729 9.8308V12.5732C55.4729 13.2977 56.0408 13.8817 56.7358 13.8817C56.9989 13.8817 57.2434 13.798 57.4458 13.6549C57.1127 13.4198 56.8929 13.0238 56.8929 12.5733Z" fill="#F5F5F5"/>
<path d="M51.0648 6.23028C51.0648 5.51018 50.4978 4.92491 49.8024 4.92491C49.1067 4.92491 48.5397 5.51018 48.5397 6.23028V12.5732C48.5397 13.2977 49.1069 13.8817 49.8024 13.8817C50.4978 13.8817 51.0648 13.2977 51.0648 12.5732V6.23028Z" fill="#F5F5F5"/>
<path d="M49.9596 12.5733V6.2304C49.9596 5.78255 50.1792 5.38709 50.5123 5.15195C50.3098 5.00901 50.0654 4.92503 49.8025 4.92503C49.1069 4.92503 48.5397 5.5103 48.5397 6.2304V12.5733C48.5397 13.2978 49.1069 13.8819 49.8025 13.8819C50.0654 13.8819 50.3099 13.7981 50.5123 13.6551C50.1792 13.4198 49.9596 13.0238 49.9596 12.5733Z" fill="#F5F5F5"/>
<path d="M25.2689 28.9469C21.9348 25.6773 24.2081 22.6068 24.2081 22.6068L24.2082 22.607C24.7737 21.7396 25.7173 21.1386 26.9674 20.9065C26.5161 20.8454 26.003 20.7992 25.478 20.7992C22.6186 20.7992 20.8981 22.4002 20.8981 24.7839C20.8981 26.8933 22.3377 27.9457 24.0656 28.5122C24.2578 28.5771 24.5398 28.6687 24.7282 28.7335C24.9205 28.7964 25.1031 28.8667 25.2689 28.9469Z" fill="#F5F5F5"/>
<path d="M23.6332 31.1899C22.5598 31.156 21.5557 30.8923 21.1137 30.77C21.0206 30.7443 20.9295 30.8174 20.9295 30.9173V33.5269C20.9295 33.6 20.9795 33.6628 21.0487 33.6764C21.4103 33.7475 22.4743 33.936 23.6865 33.9868C23.3566 32.6573 23.6332 31.1899 23.6332 31.1899Z" fill="#F5F5F5"/>
</svg>
