<svg width="156" height="34" viewBox="0 0 156 34" fill="none" xmlns="http://www.w3.org/2000/svg">
<path d="M64.8768 6.8V27.2H61.4111V11.1917H61.3649L55.173 27.2H52.8626L46.532 11.1917H46.4858V27.2H43.2974V6.8H48.2879L54.0178 21.9111H54.1102L60.1635 6.8H64.8768ZM67.7417 8.35833C67.7417 7.79167 67.9265 7.31944 68.3424 6.94167C68.7583 6.56389 69.2204 6.375 69.7749 6.375C70.3756 6.375 70.8839 6.56389 71.2536 6.94167C71.6232 7.31944 71.8543 7.79167 71.8543 8.35833C71.8543 8.925 71.6694 9.39722 71.2536 9.775C70.8377 10.1528 70.3756 10.3417 69.7749 10.3417C69.1742 10.3417 68.7121 10.1528 68.3424 9.775C67.9727 9.35 67.7417 8.87778 67.7417 8.35833ZM71.4846 12.5611V27.2H68.1114V12.5611H71.4846ZM81.6967 24.6972C82.205 24.6972 82.7595 24.6028 83.3602 24.3194C83.9609 24.0833 84.5154 23.7528 85.0237 23.375V26.5861C84.4692 26.9167 83.8685 27.1528 83.1754 27.2944C82.4822 27.4361 81.7429 27.5306 80.9111 27.5306C78.7855 27.5306 77.0758 26.8694 75.782 25.5C74.4419 24.1306 73.795 22.3833 73.795 20.3056C73.795 17.9444 74.4882 16.0083 75.8282 14.4972C77.1683 12.9861 79.0628 12.2306 81.5581 12.2306C82.205 12.2306 82.8519 12.325 83.4526 12.4667C84.0995 12.6083 84.6078 12.8444 84.9775 13.0333V16.3389C84.4692 15.9611 83.9147 15.6306 83.4064 15.4417C82.8519 15.2528 82.2974 15.1111 81.7429 15.1111C80.4028 15.1111 79.34 15.5361 78.5083 16.4333C77.6765 17.3306 77.3069 18.5111 77.3069 20.0222C77.3069 21.4861 77.7227 22.6667 78.5083 23.4694C79.2938 24.2722 80.3566 24.6972 81.6967 24.6972ZM94.5889 12.325C94.8661 12.325 95.0972 12.325 95.3282 12.3722C95.5592 12.4194 95.7441 12.4667 95.8827 12.5139V16.0083C95.6979 15.8667 95.4668 15.725 95.0972 15.6306C94.7275 15.5361 94.3578 15.4417 93.8495 15.4417C93.0178 15.4417 92.3246 15.8194 91.7701 16.5278C91.2156 17.2361 90.8922 18.3222 90.8922 19.8333V27.2H87.519V12.5611H90.8922V14.875H90.9384C91.2618 14.0722 91.7239 13.4583 92.3246 12.9861C92.9716 12.5611 93.7109 12.325 94.5889 12.325ZM96.0675 20.1167C96.0675 17.7083 96.7607 15.7722 98.0545 14.3556C99.3945 12.9389 101.243 12.2306 103.6 12.2306C105.818 12.2306 107.573 12.8917 108.821 14.2611C110.069 15.6306 110.716 17.4722 110.716 19.7861C110.716 22.1472 110.023 24.0361 108.729 25.4528C107.389 26.8694 105.586 27.5778 103.276 27.5778C101.058 27.5778 99.3021 26.9167 98.0083 25.5944C96.7145 24.225 96.0675 22.3833 96.0675 20.1167ZM99.5794 19.975C99.5794 21.4861 99.9028 22.6667 100.596 23.4694C101.289 24.2722 102.259 24.6972 103.507 24.6972C104.709 24.6972 105.679 24.3194 106.326 23.4694C106.973 22.6667 107.296 21.4861 107.296 19.8806C107.296 18.3222 106.973 17.1417 106.326 16.2917C105.679 15.4889 104.709 15.0639 103.553 15.0639C102.306 15.0639 101.382 15.4889 100.688 16.3389C99.9028 17.2361 99.5794 18.4167 99.5794 19.975ZM115.752 16.4333C115.752 16.9056 115.891 17.3306 116.214 17.6139C116.538 17.8972 117.185 18.2278 118.248 18.6528C119.588 19.2194 120.558 19.8333 121.066 20.4944C121.621 21.2028 121.898 22.0056 121.898 22.9972C121.898 24.3667 121.39 25.4528 120.327 26.3028C119.31 27.1528 117.878 27.5306 116.122 27.5306C115.521 27.5306 114.874 27.4361 114.135 27.2944C113.396 27.1528 112.795 26.9639 112.287 26.7278V23.3278C112.887 23.7528 113.581 24.1306 114.274 24.3667C114.967 24.6028 115.614 24.7444 116.214 24.7444C116.954 24.7444 117.555 24.65 117.878 24.4139C118.248 24.1778 118.432 23.8472 118.432 23.3278C118.432 22.8556 118.248 22.4778 117.878 22.1C117.508 21.7694 116.769 21.3917 115.752 20.9667C114.505 20.4472 113.627 19.8333 113.118 19.1722C112.61 18.5111 112.333 17.6611 112.333 16.6222C112.333 15.3 112.841 14.2139 113.858 13.3639C114.874 12.5139 116.214 12.0889 117.832 12.0889C118.34 12.0889 118.895 12.1361 119.495 12.2778C120.096 12.4194 120.65 12.5611 121.066 12.7028V16.0556C120.604 15.7722 120.096 15.4889 119.495 15.2528C118.895 15.0167 118.294 14.9222 117.739 14.9222C117.092 14.9222 116.584 15.0639 116.261 15.3C115.937 15.6306 115.752 15.9611 115.752 16.4333ZM123.331 20.1167C123.331 17.7083 124.024 15.7722 125.318 14.3556C126.658 12.9389 128.506 12.2306 130.863 12.2306C133.081 12.2306 134.836 12.8917 136.084 14.2611C137.332 15.6306 137.979 17.4722 137.979 19.7861C137.979 22.1472 137.286 24.0361 135.992 25.4528C134.652 26.8694 132.85 27.5778 130.539 27.5778C128.321 27.5778 126.565 26.9167 125.271 25.5944C124.024 24.225 123.331 22.3833 123.331 20.1167ZM126.842 19.975C126.842 21.4861 127.166 22.6667 127.859 23.4694C128.552 24.2722 129.523 24.6972 130.77 24.6972C131.972 24.6972 132.942 24.3194 133.589 23.4694C134.236 22.6667 134.559 21.4861 134.559 19.8806C134.559 18.3222 134.236 17.1417 133.589 16.2917C132.942 15.4889 131.972 15.0639 130.816 15.0639C129.569 15.0639 128.645 15.4889 127.951 16.3389C127.212 17.2361 126.842 18.4167 126.842 19.975ZM149.207 15.3944H144.171V27.2H140.751V15.3944H138.348V12.5611H140.751V10.5306C140.751 9.01944 141.259 7.74444 142.23 6.75278C143.2 5.76111 144.448 5.28889 145.973 5.28889C146.389 5.28889 146.758 5.33611 147.082 5.33611C147.405 5.33611 147.682 5.43056 147.914 5.525V8.5C147.821 8.45278 147.59 8.35833 147.313 8.26389C147.036 8.16944 146.712 8.12222 146.342 8.12222C145.649 8.12222 145.095 8.35833 144.725 8.78333C144.355 9.20833 144.171 9.91667 144.171 10.7667V12.5139H149.207V9.20833L152.581 8.16944V12.5139H156V15.3472H152.581V22.1944C152.581 23.0917 152.765 23.7056 153.043 24.0833C153.366 24.4611 153.874 24.65 154.568 24.65C154.752 24.65 154.983 24.6028 155.261 24.5083C155.538 24.4139 155.769 24.3194 155.954 24.1778V27.0111C155.723 27.1528 155.399 27.2472 154.891 27.3417C154.383 27.4361 153.921 27.4833 153.412 27.4833C151.98 27.4833 150.917 27.1056 150.224 26.35C149.531 25.5944 149.161 24.4139 149.161 22.8556L149.207 15.3944Z" fill="#F5F5F5"/>
<path d="M15.8033 0H0V16.15H15.8033V0Z" fill="#F5F5F5"/>
<path d="M33.2701 0H17.4668V16.15H33.2701V0Z" fill="#F5F5F5"/>
<path d="M15.8033 17.85H0V34H15.8033V17.85Z" fill="#F5F5F5"/>
<path d="M33.2701 17.85H17.4668V34H33.2701V17.85Z" fill="#F5F5F5"/>
</svg>
