<svg width="160" height="30" viewBox="0 0 160 30" fill="none" xmlns="http://www.w3.org/2000/svg">
<path d="M68.0003 5.50375C65.9333 5.50375 63.7859 6.08138 61.1283 7.54057L62.6048 11.2836C64.9128 9.96246 66.8192 9.38484 68.2153 9.38484C69.7992 9.38484 70.4973 9.99031 70.4973 10.7883V10.8428C70.4973 11.3938 70.0674 11.6965 69.0209 11.8067L67.196 11.9993C62.6319 12.4945 60.7527 14.5314 60.7527 17.3383V17.5309C60.7527 20.201 62.9001 22.2923 65.9333 22.2923C67.9306 22.2923 69.6658 21.4277 70.7205 19.9019L71.0607 22.0174H75.1948V12.4122C75.1948 7.87115 72.6447 5.50375 68.0003 5.50375ZM67.5975 18.6304C66.0679 18.6304 65.3427 18.0249 65.3427 17.0889V17.0344C65.3427 16.2085 65.7986 15.6031 67.4629 15.356L68.1881 15.2458C69.2476 15.0945 69.8985 14.8946 70.4973 14.5229V15.7411C70.4973 17.5854 69.3693 18.6304 67.5975 18.6304Z" fill="#F5F5F5"/>
<path d="M15.8638 19.2056L29.1282 5.61395L23.8366 0.192541L18.545 5.61395L21.179 8.31194L7.92043 21.906L13.2061 27.3311L18.4978 21.906L15.8638 19.2056Z" fill="#F5F5F5"/>
<path d="M13.263 0.190932L0 13.7883L5.28849 19.2102L18.5515 5.61277L13.263 0.190932Z" fill="#F5F5F5"/>
<path d="M31.7579 8.31764L18.4949 21.9151L23.7834 27.3369L37.0463 13.7395L31.7579 8.31764Z" fill="#F5F5F5"/>
<path d="M82.5724 0H77.8749V22.015H82.5724V0Z" fill="#F5F5F5"/>
<path d="M52.8578 5.50375C50.7223 5.50375 49.0072 6.47251 48.0635 7.98983L47.7044 5.77864H43.5703V27.5151H48.2678V19.9794C49.162 21.3926 50.8534 22.2863 52.8578 22.2863C56.6163 22.2863 59.6767 18.8738 59.6767 14.1669V13.6159C59.6767 8.91257 56.6163 5.49891 52.8578 5.49891M54.8445 14.0312C54.8445 16.5076 53.5831 18.2974 51.4888 18.2974C49.3946 18.2974 48.1332 16.5088 48.1332 14.0312V13.7564C48.1332 11.2788 49.3946 9.49019 51.4888 9.49019C53.5831 9.49019 54.8445 11.2788 54.8445 13.7564V14.0312Z" fill="#F5F5F5"/>
<path d="M145.993 5.50375C141.188 5.50375 137.805 8.9162 137.805 13.6232V14.1741C137.805 18.8799 141.188 22.2935 145.993 22.2935C150.798 22.2935 154.18 18.8811 154.18 14.1741V13.6232C154.18 8.91741 150.798 5.50375 145.993 5.50375ZM149.348 14.0361C149.348 16.5125 148.087 18.3023 145.993 18.3023C143.898 18.3023 142.637 16.5137 142.637 14.0361V13.7612C142.637 11.2836 143.898 9.49504 145.993 9.49504C148.087 9.49504 149.348 11.2836 149.348 13.7612V14.0361Z" fill="#F5F5F5"/>
<path d="M158.513 6.49552V6.41317C158.513 5.94575 158.164 5.61516 157.547 5.61516H156.473V8.14725H156.983V7.29353H157.55L157.977 8.14725H158.54L158.016 7.1458C158.335 7.04529 158.513 6.80068 158.513 6.49552ZM156.982 6.08259H157.546C157.868 6.08259 158.001 6.19278 158.001 6.44103V6.46888C158.001 6.68927 157.867 6.82611 157.546 6.82611H156.982V6.08259Z" fill="#F5F5F5"/>
<path d="M157.45 4.26617C156.001 4.26617 154.9 5.39477 154.9 6.8806C154.9 8.36643 156.001 9.49504 157.45 9.49504C158.899 9.49504 160 8.36643 160 6.8806C160 5.39477 158.899 4.26617 157.45 4.26617ZM157.45 9.13659C156.188 9.13659 155.275 8.20053 155.275 6.87939C155.275 5.55825 156.188 4.62218 157.45 4.62218C158.711 4.62218 159.624 5.55825 159.624 6.87939C159.624 8.20053 158.711 9.13659 157.45 9.13659Z" fill="#F5F5F5"/>
<path d="M123.996 0H119.298V22.015H123.996V0Z" fill="#F5F5F5"/>
<path d="M133.236 18.2974C131.867 18.2974 131.357 17.6096 131.357 16.1238V9.49019H136.887V5.77501H131.357V2.05861L126.659 2.77428V16.5912C126.659 20.3621 128.539 22.2887 132.297 22.2887C133.961 22.2887 135.921 21.7656 137.532 20.8295L136.19 17.417C135.249 17.9402 133.934 18.2986 133.236 18.2986" fill="#F5F5F5"/>
<path d="M109.365 5.50375C107.298 5.50375 105.15 6.08138 102.493 7.54057L103.969 11.2836C106.277 9.96246 108.184 9.38484 109.58 9.38484C111.164 9.38484 111.862 9.99031 111.862 10.7883V10.8428C111.862 11.3938 111.432 11.6965 110.385 11.8067L108.56 11.9993C103.996 12.4945 102.117 14.5314 102.117 17.3383V17.5309C102.117 20.201 104.264 22.2923 107.298 22.2923C109.294 22.2923 111.03 21.4277 112.085 19.9019L112.425 22.0174H116.559V12.4122C116.559 7.87115 114.009 5.50375 109.365 5.50375ZM108.962 18.6304C107.431 18.6304 106.707 18.0249 106.707 17.0889V17.0344C106.707 16.2085 107.163 15.6031 108.827 15.356L109.552 15.2458C110.612 15.0945 111.263 14.8946 111.86 14.5229V15.7411C111.86 17.5854 110.734 18.6304 108.962 18.6304Z" fill="#F5F5F5"/>
<path d="M92.852 5.50375C88.047 5.50375 84.6642 8.9162 84.6642 13.6232V14.1741C84.6642 18.8799 88.047 22.2935 92.852 22.2935C97.657 22.2935 101.04 18.8811 101.04 14.1741V13.6232C101.039 8.91741 97.657 5.50375 92.852 5.50375ZM96.2065 14.0361C96.2065 16.5125 94.945 18.3023 92.8508 18.3023C90.7566 18.3023 89.4952 16.5137 89.4952 14.0361V13.7612C89.4952 11.2836 90.7566 9.49504 92.8508 9.49504C94.945 9.49504 96.2065 11.2836 96.2065 13.7612V14.0361Z" fill="#F5F5F5"/>
<path d="M114.904 29.8862L113.203 27.5854H113.192V29.8862H112.081V25.9264H113.286L114.952 28.1666H114.963V25.9264H116.074V29.8862H114.904Z" fill="#F5F5F5"/>
<path d="M118.708 28.2998V28.9174H121.07L120.952 29.8862H117.538V25.9264H120.952V26.883H118.708V27.4279H120.479V28.2998H118.708Z" fill="#F5F5F5"/>
<path d="M123.432 29.8862V26.9436H122.015V25.9264H125.795L125.913 26.9436H124.495V29.8862H123.432Z" fill="#F5F5F5"/>
<path d="M131.582 28.6752L132.173 25.9264H133.354L132.291 29.8862H130.874L130.165 27.4885H130.047L129.338 29.8862H127.803L126.858 25.9264H128.039L128.748 28.6752L129.574 25.9264H130.756L131.464 28.6752H131.582Z" fill="#F5F5F5"/>
<path d="M134.181 27.9002C134.181 26.6093 135.036 25.8004 136.389 25.8004C137.741 25.8004 138.597 26.6093 138.597 27.9002C138.597 29.1911 137.742 30 136.389 30C135.036 30 134.181 29.1899 134.181 27.9002ZM137.443 27.9002C137.443 27.216 137.057 26.8079 136.389 26.8079C135.72 26.8079 135.334 27.216 135.334 27.9002C135.334 28.5856 135.72 28.9925 136.383 28.9925C137.051 28.9925 137.443 28.5844 137.443 27.9002Z" fill="#F5F5F5"/>
<path d="M139.851 25.9264H142.103C143.129 25.9264 143.633 26.4241 143.633 27.3468C143.633 27.9801 143.379 28.4112 142.881 28.6147L143.798 29.8886H142.485L141.772 28.8472H141.01V29.8886H139.851V25.9264ZM141.953 27.9184C142.339 27.9184 142.477 27.698 142.477 27.3977C142.477 27.0974 142.339 26.883 141.953 26.883H141.009V27.9184H141.953Z" fill="#F5F5F5"/>
<path d="M147.764 27.8276L149.3 29.8741V29.8862H148.001L146.819 28.3604H146.347V29.8862H145.166V25.9264H146.347V27.3795H146.819L147.882 25.9264H149.3L147.764 27.8276Z" fill="#F5F5F5"/>
<path d="M150.245 29.6198V28.5335H150.251C150.897 28.8678 151.526 29.0312 152.072 29.0312C152.487 29.0312 152.696 28.9295 152.696 28.7309C152.696 28.5323 152.557 28.4815 151.729 28.3458C150.825 28.1993 150.222 27.9208 150.222 27.1228C150.222 26.3817 150.858 25.8101 152.099 25.8101C152.596 25.8101 153.115 25.9179 153.596 26.1274V27.2027L153.59 27.2088C153.132 26.9375 152.514 26.7668 152.017 26.7668C151.575 26.7668 151.399 26.8745 151.399 27.055C151.399 27.2875 151.669 27.3093 152.348 27.4292C153.253 27.5878 153.856 27.8481 153.856 28.6861C153.856 29.3364 153.381 29.9879 152.018 29.9879C151.344 29.9879 150.808 29.8462 150.245 29.6198Z" fill="#F5F5F5"/>
</svg>
