<svg width="120" height="22" viewBox="0 0 120 22" fill="none" xmlns="http://www.w3.org/2000/svg">
<g opacity="0.8">
<path d="M0.951 17.9949H9.9918C11.5674 17.9949 12.4302 17.8321 12.936 17.4744C13.5606 17.0503 13.9176 16.3367 13.9176 15.4905C13.9176 14.4815 13.4412 13.6025 12.639 13.1791C12.2232 12.9192 11.4486 12.7885 10.497 12.7885H6.8388C4.4604 12.7885 2.9136 12.3329 1.8732 11.3568C0.6834 10.2172 0 8.46048 0 6.57381C0 3.80813 1.3974 1.40023 3.4494 0.619043C4.3416 0.260615 5.382 0.164115 7.7022 0.164115H17.5158V4.03593H8.6532C6.7794 4.06809 6.6306 4.06809 6.0066 4.2309C5.1744 4.45803 4.6686 5.30421 4.6686 6.44251C4.6686 7.41999 5.0844 8.20052 5.799 8.55829C6.3936 8.85173 6.8694 8.91606 8.2974 8.91606H11.4792C14.394 8.91606 15.9696 9.40447 17.13 10.7062C18.0222 11.6817 18.6174 13.6025 18.6174 15.4905C18.6174 17.8006 17.6358 19.9472 16.0896 20.989C15.1086 21.6718 13.86 21.8667 10.9146 21.8667H0.951V17.9949Z" fill="#F5F5F5"/>
<path d="M29.9472 0C27.1518 0 24.7128 0.749023 23.1666 2.11578C21.204 3.80813 20.1636 6.96506 20.1636 11.1303C20.1636 14.0253 20.727 16.4024 21.888 18.1912C23.4342 20.6326 26.439 22 30.2454 22C32.922 22 35.1828 21.2825 36.6702 19.9814C38.6328 18.2582 39.735 15.1314 39.735 11.324L39.726 10.703L39.702 10.0918L39.6624 9.49703L39.609 8.91344L39.5394 8.34428L39.453 7.79286L39.354 7.25915L39.2394 6.74252L39.177 6.49044L39.1104 6.24426L39.0408 6.00072L38.9682 5.76636L38.8932 5.53266L38.8128 5.30618L38.7288 5.08692L38.6412 4.86898L38.553 4.66153L38.46 4.45672L38.3634 4.25781L38.2638 4.06678L38.1594 3.87969L38.0544 3.69785L37.9446 3.52454L37.8318 3.3578C36.3138 1.20526 33.4866 0 29.9472 0ZM29.976 3.67553C33.5154 3.67553 35.0916 5.95542 35.0916 11.0305C35.0916 16.042 33.4854 18.352 29.976 18.352C26.4078 18.352 24.801 16.0406 24.801 10.9655L24.8058 10.5401L24.8088 10.3327L24.8166 10.1279L24.8334 9.72876L24.8442 9.53511L24.8574 9.34408L24.873 9.15567L24.8892 8.97383L24.9078 8.79593L24.9288 8.62L24.9504 8.44669L24.9744 8.27601L25.0284 7.94778L25.0584 7.79023L25.1232 7.48563L25.1586 7.33858L25.1958 7.19416L25.233 7.05302L25.2726 6.91845L25.3158 6.7865L25.3614 6.65783L25.407 6.53179L25.4556 6.41166L25.5066 6.29153L25.557 6.1773L25.6104 6.06833L25.6668 5.96198L25.7232 5.86023C26.5266 4.45934 28.0434 3.67553 29.976 3.67553Z" fill="#F5F5F5"/>
<path d="M41.994 0.164115V21.8681H46.2144V14.2833H52.998C55.2582 14.2833 56.3256 13.9603 57.486 12.8863C58.854 11.6181 59.6874 9.50294 59.6874 7.22436C59.6874 5.30487 59.0634 3.51404 57.9036 2.14729C56.5956 0.552741 55.3746 0.164115 51.8952 0.164115H41.994ZM52.0434 4.03658C52.7274 4.03658 53.2632 4.10026 53.5902 4.2309C54.513 4.58867 55.0488 5.62982 55.0488 7.0609C55.0488 8.26551 54.7206 9.30731 54.186 9.79572L54.1434 9.83642L54.1002 9.87647L54.0546 9.9152L54.0096 9.95393L53.961 9.98872L53.913 10.0215L53.862 10.0537L53.8086 10.0839L53.6982 10.1417L53.6418 10.166L53.583 10.1916L53.5206 10.2152L53.4588 10.2342L53.3946 10.2552L53.3274 10.2756L53.2584 10.292L53.1162 10.3202L53.0412 10.3347L52.9638 10.3465L52.8858 10.3583L52.8024 10.3675L52.719 10.3793L52.6332 10.3859L52.542 10.3918L52.4508 10.3984L52.3572 10.4043L52.26 10.4062L52.1604 10.4095H52.0584L51.9534 10.4121H46.2132V4.03658H52.0434Z" fill="#F5F5F5"/>
<path d="M77.7396 21.8654H73.5162V12.9185H65.8734V21.8654H61.65V0.164115H65.8734V9.0467H73.5162V0.164115H77.7396V21.8654Z" fill="#F5F5F5"/>
<path d="M90.0528 0C87.258 0 84.819 0.749023 83.2722 2.11578C81.3096 3.80813 80.2662 6.96506 80.2662 11.1303C80.2662 14.0253 80.832 16.4024 81.9936 18.1912C83.538 20.6326 86.5428 22 90.3504 22C93.0282 22 95.2866 21.2825 96.7722 19.9814C98.7348 18.2582 99.8364 15.1314 99.8364 11.324L99.828 10.703L99.8046 10.0918L99.765 9.49703L99.711 8.91344L99.6408 8.34428L99.555 7.79286L99.4554 7.25915L99.3426 6.74252L99.2784 6.49044L99.2142 6.24426L99.1452 6.00072L98.9952 5.53266L98.9142 5.30618L98.8308 5.08692L98.745 4.86898L98.6538 4.66153L98.5602 4.45672L98.4642 4.25781L98.3646 4.06678L98.2602 3.87969L98.1558 3.69785L98.0442 3.52454L97.9314 3.3578C96.4158 1.20526 93.5928 0 90.0528 0ZM90.0834 3.67553C93.621 3.67553 95.1984 5.95542 95.1984 11.0305C95.1984 16.042 93.5916 18.352 90.0834 18.352C86.5152 18.352 84.9084 16.0406 84.9084 10.9655V10.7515L84.9108 10.5401L84.9168 10.3327L84.9216 10.1279L84.93 9.92767L84.942 9.72876L84.9528 9.53511L84.9654 9.34408L84.978 9.15567L84.9942 8.97383L85.0152 8.79593L85.0338 8.62L85.0548 8.44669L85.0794 8.27601L85.1052 8.1119L85.1334 7.94778L85.1628 7.79023L85.1946 7.63793L85.2276 7.48563L85.263 7.33858L85.3002 7.19416L85.3374 7.05302L85.3794 6.91845L85.4214 6.7865L85.4646 6.65783L85.5102 6.53179L85.5582 6.41166L85.6098 6.29153L85.6602 6.1773L85.7142 6.06833L85.7706 5.96198L85.8306 5.86023C86.6322 4.45934 88.1496 3.67553 90.0834 3.67553Z" fill="#F5F5F5"/>
<path d="M111.376 17.9949C112.951 17.9949 113.813 17.8321 114.32 17.4744C114.943 17.0503 115.301 16.3367 115.301 15.4905C115.301 14.4815 114.825 13.6025 114.022 13.1791C113.605 12.9192 112.833 12.7885 111.881 12.7885H108.223C105.844 12.7885 104.297 12.3329 103.256 11.3568C102.067 10.2172 101.383 8.46048 101.383 6.57381C101.383 3.80813 102.779 1.40023 104.833 0.619043C105.724 0.260615 106.766 0.164115 109.085 0.164115H118.9V4.03593H110.037C108.163 4.06809 108.014 4.06809 107.391 4.2309C106.558 4.45803 106.052 5.30421 106.052 6.44251C106.052 7.41999 106.469 8.20052 107.184 8.55829C107.777 8.85173 108.253 8.91606 109.681 8.91606H112.863C115.777 8.91606 117.353 9.40447 118.515 10.7062C119.406 11.6817 120 13.6019 120 15.4899C120 17.8 119.019 19.9466 117.472 20.9884C116.491 21.6711 115.242 21.8661 112.297 21.8661H102.335V17.9949H111.376Z" fill="#F5F5F5"/>
</g>
</svg>
