<svg width="126" height="34" viewBox="0 0 126 34" fill="none" xmlns="http://www.w3.org/2000/svg">
<path d="M11.0462 20.0224L15.4263 7.48023H21.7531L11.0898 34H4.41191L7.46273 26.7337L0 7.47949H6.46019L11.0462 20.0224Z" fill="#F5F5F5"/>
<path d="M44.0807 26.8821H37.9115V24.7409C36.9399 25.5106 35.8939 26.179 34.7893 26.736C33.8444 27.1915 32.7179 27.4187 31.41 27.4174C29.2935 27.4174 27.6664 26.8018 26.5288 25.5704C25.391 24.3391 24.8191 22.5187 24.8128 20.1092V7.47991H30.9763V17.1039C30.9763 18.0834 31.0076 18.8983 31.0701 19.5488C31.1084 20.1111 31.2564 20.6601 31.5057 21.1642C31.7143 21.5821 32.062 21.9122 32.4877 22.0962C32.9269 22.2924 33.5396 22.3904 34.3257 22.3904C34.9174 22.379 35.5044 22.2798 36.0678 22.0962C36.719 21.8946 37.3399 21.604 37.9134 21.2326V7.48023H44.0807V26.8821Z" fill="#F5F5F5"/>
<path d="M68.9004 16.9155C68.9004 19.9679 68.0668 22.4558 66.3997 24.3794C64.7326 26.3029 62.6536 27.2646 60.1629 27.2646C59.213 27.2796 58.2656 27.1633 57.3468 26.9192C56.5393 26.6874 55.7649 26.3505 55.0433 25.9169L54.786 26.8832H48.876V0H55.0452V9.50255C55.9359 8.77573 56.9067 8.15537 57.9382 7.65364C59.0061 7.16323 60.1692 6.92127 61.3419 6.9456C63.765 6.9456 65.6312 7.83144 66.9404 9.6031C68.2496 11.3748 68.9029 13.8125 68.9004 16.9155ZM62.5623 17.0446C62.5623 15.3184 62.272 13.9897 61.6911 13.0583C61.1104 12.1269 60.0766 11.6612 58.5897 11.6612C57.9832 11.6651 57.3803 11.7552 56.7986 11.9288C56.1835 12.104 55.5933 12.3592 55.0433 12.6881V22.4166C55.4516 22.5693 55.8744 22.6793 56.3048 22.745C56.7798 22.8075 57.2584 22.8367 57.7373 22.8322C59.3644 22.8322 60.5748 22.3489 61.3682 21.3821C62.1617 20.4152 62.5604 18.9694 62.5642 17.0446H62.5623Z" fill="#F5F5F5"/>
<path d="M79.3009 4.71712H72.7901V0H79.3009V4.71712ZM79.1301 26.8826H72.961V7.48076H79.1301V26.8826Z" fill="#F5F5F5"/>
<path d="M94.8834 27.4006C93.336 27.4168 91.7941 27.2135 90.3025 26.797C88.9853 26.4289 87.7558 25.7941 86.6885 24.9311C85.6635 24.0759 84.8552 22.9859 84.3305 21.7515C83.7735 20.4747 83.4944 18.9776 83.4931 17.2603C83.4931 15.4507 83.7923 13.8898 84.3906 12.5774C84.9581 11.3046 85.8157 10.1858 86.8931 9.31246C87.9603 8.47922 89.1804 7.86827 90.4827 7.51487C91.8575 7.13256 93.2774 6.94099 94.7032 6.94541C95.9235 6.93479 97.1402 7.07956 98.3246 7.3763C99.3893 7.64963 100.425 8.02595 101.419 8.50003V13.8037H100.548C100.31 13.596 100.022 13.3544 99.6858 13.0785C99.3002 12.7682 98.8858 12.4961 98.4486 12.2661C97.9598 12.0039 97.4458 11.7928 96.9148 11.6359C96.279 11.4594 95.6214 11.3763 94.9622 11.3891C93.3226 11.3891 92.0622 11.9162 91.1812 12.9703C90.3 14.0245 89.862 15.4557 89.8669 17.2641C89.8669 19.1307 90.3188 20.5473 91.2225 21.5143C92.1261 22.4811 93.409 22.9645 95.0711 22.9645C95.7766 22.9734 96.4798 22.8833 97.1607 22.6969C97.6994 22.5517 98.2183 22.3401 98.7058 22.0666C99.0667 21.8549 99.409 21.6123 99.729 21.3415C100.026 21.0871 100.292 20.8404 100.548 20.5974H101.419V25.9124C100.44 26.3701 99.4214 26.7331 98.3754 26.9963C97.2323 27.2764 96.0595 27.4122 94.8834 27.4006Z" fill="#F5F5F5"/>
<path d="M126 17.1907C126 20.3823 125.08 22.8961 123.24 24.7324C121.4 26.5685 118.817 27.4873 115.49 27.4886C112.164 27.4886 109.58 26.5698 107.741 24.7324C105.901 22.8948 104.981 20.381 104.981 17.1907C104.981 13.9763 105.907 11.4542 107.759 9.62432C109.612 7.79443 112.188 6.87884 115.49 6.87756C118.839 6.87756 121.429 7.79883 123.257 9.64143C125.086 11.484 126 14.0004 126 17.1907ZM118.431 21.9077C118.846 21.379 119.15 20.7707 119.326 20.1197C119.528 19.4224 119.627 18.4575 119.626 17.2248C119.645 16.26 119.542 15.2967 119.318 14.3585C119.161 13.689 118.868 13.0596 118.459 12.5096C118.122 12.0579 117.667 11.7107 117.144 11.5074C116.615 11.3083 116.052 11.2087 115.487 11.2131C114.95 11.2052 114.416 11.2867 113.906 11.4542C113.393 11.6568 112.94 11.9904 112.592 12.4224C112.167 12.9677 111.861 13.5978 111.694 14.2712C111.451 15.2358 111.338 16.2296 111.36 17.2248C111.345 18.1521 111.443 19.0778 111.651 19.981C111.799 20.6611 112.091 21.3007 112.506 21.8565C112.853 22.2924 113.306 22.6314 113.819 22.8417C114.892 23.2458 116.071 23.2545 117.151 22.8664C117.656 22.6724 118.099 22.3407 118.431 21.9077Z" fill="#F5F5F5"/>
</svg>
