<svg width="20" height="20" viewBox="0 0 20 20" fill="none" xmlns="http://www.w3.org/2000/svg">
<path fill-rule="evenodd" clip-rule="evenodd" d="M10 0C15.5229 0 20 4.47715 20 10C20 15.5229 15.5229 20 10 20C4.47715 20 0 15.5229 0 10C0 4.47715 4.47715 0 10 0ZM15.8711 14.6264C16.014 14.4828 16.0942 14.2884 16.0942 14.0858C16.0942 13.8832 16.014 13.6889 15.8711 13.5452L13.9136 11.5882C13.7699 11.4452 13.5755 11.365 13.3728 11.365C13.1701 11.365 12.9757 11.4452 12.832 11.5882L12.3001 12.1204C12.1234 12.2985 11.894 12.4148 11.6459 12.4519C11.3978 12.4891 11.1444 12.4451 10.9233 12.3266C9.53908 11.5934 8.40694 10.4614 7.67359 9.07723C7.555 8.85611 7.51098 8.60262 7.54807 8.35447C7.58516 8.10631 7.70139 7.87677 7.87945 7.7L8.41238 7.16797C8.55527 7.02428 8.63548 6.82988 8.63548 6.62725C8.63548 6.42461 8.55527 6.23021 8.41238 6.08652L6.45492 4.12969C6.31124 3.98671 6.11678 3.90645 5.91408 3.90645C5.71138 3.90645 5.51693 3.98671 5.37324 4.12969C5.29234 4.21035 5.19 4.30781 5.08055 4.41094C4.80684 4.66965 4.46535 4.99164 4.3273 5.19406C3.60023 6.25809 3.94891 7.6816 4.36777 8.68855C4.92109 10.0158 5.94086 11.462 7.24027 12.7605C8.53852 14.0589 9.98426 15.0787 11.3122 15.6321C12.3189 16.0515 13.7419 16.3993 14.8059 15.6724C15.0082 15.5343 15.3307 15.1936 15.5889 14.9195C15.6924 14.8103 15.79 14.707 15.8711 14.6264Z" fill="#78ABAD"/>
</svg>
