<svg width="180" height="212" viewBox="0 0 180 212" fill="none" xmlns="http://www.w3.org/2000/svg">
<g opacity="0.3" filter="url(#filter0_i_1460_56624)">
<path d="M176.565 21.6544C130.568 20.3256 101.866 6.37876 91.6596 0.45402C91.1523 0.156295 90.581 0 90 0C89.419 0 88.8477 0.156295 88.3404 0.45402C78.1201 6.37876 49.4319 20.3256 3.43496 21.6544C2.49976 21.7052 1.61963 22.135 0.979284 22.8536C0.33894 23.5721 -0.0118305 24.5236 0.000587516 25.5083V78.3578C-0.0702123 103.298 6.25912 127.796 18.3213 149.27C30.3835 170.744 47.7317 188.397 68.5369 200.37L87.84 211.42C88.5025 211.801 89.2452 212 90 212C90.7548 212 91.4975 211.801 92.16 211.42L111.47 200.37C132.274 188.396 149.62 170.742 161.681 149.269C173.742 127.795 180.071 103.297 179.999 78.3578V25.5083C180.012 24.5236 179.661 23.5721 179.021 22.8536C178.38 22.135 177.5 21.7052 176.565 21.6544ZM172.799 78.3578C172.838 111.612 160.902 143.648 139.392 168.024L139.291 168.137C130.247 178.375 119.689 187.008 108.025 193.703L95.166 201.062C93.5821 201.974 91.8056 202.452 90 202.452C88.1944 202.452 86.4179 201.974 84.834 201.062L71.9749 193.703C60.3111 187.008 49.7529 178.375 40.7091 168.137L40.6083 168.024C19.0981 143.648 7.16197 111.612 7.20054 78.3578V36.241C7.2118 34.3221 7.91274 32.4787 9.16269 31.0806C10.4126 29.6826 12.1191 28.8334 13.9397 28.7035C39.1683 27.3309 63.9159 20.9062 86.8536 9.7746C87.8321 9.2665 88.9087 9.0022 90 9.0022C91.0913 9.0022 92.1679 9.2665 93.1464 9.7746C116.084 20.9062 140.832 27.3309 166.06 28.7035C167.881 28.8334 169.587 29.6826 170.837 31.0806C172.087 32.4787 172.788 34.3221 172.799 36.241V78.3578Z" fill="black"/>
<path d="M129.6 56.7788C131.588 56.7788 133.2 55.0839 133.2 52.993C133.2 50.9022 131.588 49.2073 129.6 49.2073C127.612 49.2073 126 50.9022 126 52.993C126 55.0839 127.612 56.7788 129.6 56.7788Z" fill="black"/>
<path d="M140.4 109.78C142.388 109.78 144 108.085 144 105.994C144 103.903 142.388 102.208 140.4 102.208C138.411 102.208 136.8 103.903 136.8 105.994C136.8 108.085 138.411 109.78 140.4 109.78Z" fill="black"/>
<path d="M90 41.6357C91.9882 41.6357 93.6 39.9408 93.6 37.8499C93.6 35.7591 91.9882 34.0642 90 34.0642C88.0118 34.0642 86.4 35.7591 86.4 37.8499C86.4 39.9408 88.0118 41.6357 90 41.6357Z" fill="black"/>
<path d="M75.6001 71.9219C77.5883 71.9219 79.2001 70.227 79.2001 68.1362C79.2001 66.0453 77.5883 64.3504 75.6001 64.3504C73.6119 64.3504 72.0001 66.0453 72.0001 68.1362C72.0001 70.227 73.6119 71.9219 75.6001 71.9219Z" fill="black"/>
<path d="M158.4 62.4953C158.398 66.5108 156.888 70.3631 154.198 73.2129L146.113 81.7157C145.442 82.4166 144.91 83.2502 144.548 84.1683C144.185 85.0864 143.999 86.0709 144 87.065V95.3332C146.402 96.2262 148.426 97.9835 149.715 100.294C151.004 102.605 151.475 105.321 151.044 107.962C150.613 110.602 149.309 112.997 147.361 114.724C145.413 116.451 142.947 117.398 140.4 117.398C137.852 117.398 135.386 116.451 133.439 114.724C131.491 112.997 130.186 110.602 129.755 107.962C129.324 105.321 129.795 102.605 131.084 100.294C132.373 97.9835 134.398 96.2262 136.8 95.3332V87.065C136.796 85.0771 137.167 83.1081 137.891 81.2718C138.615 79.4355 139.678 77.7682 141.019 76.3664L149.086 67.8825C150.436 66.4484 151.195 64.5132 151.2 62.4953V34.7645C131.334 32.3233 111.922 26.7951 93.6 18.3608V27.1892C96.0019 28.0822 98.0263 29.8395 99.3154 32.1504C100.604 34.4612 101.075 37.177 100.644 39.8175C100.214 42.4581 98.909 44.8535 96.9611 46.5803C95.0133 48.3072 92.5477 49.2543 90 49.2543C87.4523 49.2543 84.9867 48.3072 83.0389 46.5803C81.091 44.8535 79.7864 42.4581 79.3556 39.8175C78.9248 37.177 79.3955 34.4612 80.6846 32.1504C81.9737 29.8395 83.9981 28.0822 86.4 27.1892V18.3532C68.0791 26.7965 48.6676 32.3323 28.8004 34.7797V62.4953C28.806 64.523 29.5733 66.4661 30.9352 67.9014L38.9775 76.3626C40.3188 77.7647 41.3826 79.4324 42.1074 81.2694C42.8322 83.1064 43.2037 85.0762 43.2003 87.065V95.3332C45.6023 96.2262 47.6267 97.9835 48.9157 100.294C50.2048 102.605 50.6755 105.321 50.2447 107.962C49.8139 110.602 48.5093 112.997 46.5615 114.724C44.6136 116.451 42.148 117.398 39.6003 117.398C37.0527 117.398 34.587 116.451 32.6392 114.724C30.6914 112.997 29.3867 110.602 28.9559 107.962C28.5251 105.321 28.9958 102.605 30.2849 100.294C31.574 97.9835 33.5984 96.2262 36.0003 95.3332V87.065C36.001 86.07 35.8142 85.0847 35.4509 84.1659C35.0876 83.2472 34.5549 82.4131 33.8836 81.7119L25.8232 73.2356C23.1216 70.3828 21.6035 66.5215 21.6004 62.4953V35.6163C19.2605 35.8561 16.8713 36.0643 14.4329 36.241L14.4005 78.3578C14.366 106.222 23.2414 133.289 39.6003 155.209V132.494C39.6003 131.49 39.9796 130.527 40.6547 129.817C41.3299 129.107 42.2455 128.709 43.2003 128.709C44.1551 128.709 45.0707 129.107 45.7459 129.817C46.421 130.527 46.8003 131.49 46.8003 132.494V163.886C50.1849 167.634 53.7921 171.153 57.6002 174.422V99.6717C57.5979 97.2147 56.8402 94.8243 55.4402 92.8573L50.4003 85.8233C48.0649 82.546 46.8018 78.5614 46.8003 74.466V63.6538C44.3983 62.7607 42.3739 61.0035 41.0848 58.6926C39.7958 56.3817 39.3251 53.666 39.7559 51.0254C40.1867 48.3849 41.4913 45.9895 43.4391 44.2626C45.387 42.5358 47.8526 41.5887 50.4003 41.5887C52.9479 41.5887 55.4135 42.5358 57.3614 44.2626C59.3092 45.9895 60.6138 48.3849 61.0446 51.0254C61.4755 53.666 61.0047 56.3817 59.7157 58.6926C58.4266 61.0035 56.4022 62.7607 54.0002 63.6538V74.4584C54.0026 76.9154 54.7602 79.3057 56.1602 81.2728L61.2002 88.3068C63.5356 91.5841 64.7986 95.5687 64.8002 99.6641V180.101C67.1329 181.804 69.5329 183.419 72.0001 184.946V78.7969C69.5982 77.9039 67.5737 76.1466 66.2847 73.8357C64.9956 71.5248 64.5249 68.8091 64.9557 66.1686C65.3865 63.528 66.6911 61.1326 68.639 59.4058C70.5868 57.6789 73.0524 56.7318 75.6001 56.7318C78.1477 56.7318 80.6134 57.6789 82.5612 59.4058C84.5091 61.1326 85.8137 63.528 86.2445 66.1686C86.6753 68.8091 86.2046 71.5248 84.9155 73.8357C83.6264 76.1466 81.602 77.9039 79.2001 78.7969V189.228L86.4 193.351V128.709C86.4 127.705 86.7793 126.742 87.4544 126.032C88.1295 125.322 89.0452 124.923 90 124.923C90.9548 124.923 91.8704 125.322 92.5456 126.032C93.2207 126.742 93.6 127.705 93.6 128.709V193.351L100.8 189.228V78.7969C98.398 77.9039 96.3736 76.1466 95.0845 73.8357C93.7954 71.5248 93.3247 68.8091 93.7555 66.1686C94.1863 63.528 95.4909 61.1326 97.4388 59.4058C99.3866 57.6789 101.852 56.7318 104.4 56.7318C106.948 56.7318 109.413 57.6789 111.361 59.4058C113.309 61.1326 114.613 63.528 115.044 66.1686C115.475 68.8091 115.004 71.5248 113.715 73.8357C112.426 76.1466 110.402 77.9039 108 78.7969V184.946C110.467 183.417 112.867 181.802 115.2 180.101V99.6717C115.2 95.576 116.463 91.5909 118.8 88.3143L123.84 81.2539C125.242 79.288 126 76.8969 126 74.4395V63.6538C123.598 62.7607 121.573 61.0035 120.284 58.6926C118.995 56.3817 118.525 53.666 118.955 51.0254C119.386 48.3849 120.691 45.9895 122.639 44.2626C124.586 42.5358 127.052 41.5887 129.6 41.5887C132.147 41.5887 134.613 42.5358 136.561 44.2626C138.509 45.9895 139.813 48.3849 140.244 51.0254C140.675 53.666 140.204 56.3817 138.915 58.6926C137.626 61.0035 135.602 62.7607 133.2 63.6538V74.4584C133.2 78.554 131.937 82.5392 129.6 85.8157L124.56 92.8762C123.158 94.8421 122.4 97.2332 122.4 99.6906V174.422C126.208 171.153 129.815 167.634 133.2 163.886V132.494C133.2 131.49 133.579 130.527 134.254 129.817C134.929 129.107 135.845 128.709 136.8 128.709C137.754 128.709 138.67 129.107 139.345 129.817C140.02 130.527 140.4 131.49 140.4 132.494V155.236C156.759 133.316 165.634 106.249 165.599 78.3843V36.241C163.149 36.0668 160.749 35.8586 158.4 35.6163V62.4953Z" fill="black"/>
<path d="M50.4003 56.7788C52.3885 56.7788 54.0002 55.0839 54.0002 52.993C54.0002 50.9022 52.3885 49.2073 50.4003 49.2073C48.412 49.2073 46.8003 50.9022 46.8003 52.993C46.8003 55.0839 48.412 56.7788 50.4003 56.7788Z" fill="black"/>
<path d="M39.6003 109.78C41.5885 109.78 43.2003 108.085 43.2003 105.994C43.2003 103.903 41.5885 102.208 39.6003 102.208C37.6121 102.208 36.0004 103.903 36.0004 105.994C36.0004 108.085 37.6121 109.78 39.6003 109.78Z" fill="black"/>
<path d="M104.4 71.9219C106.388 71.9219 108 70.227 108 68.1362C108 66.0453 106.388 64.3504 104.4 64.3504C102.412 64.3504 100.8 66.0453 100.8 68.1362C100.8 70.227 102.412 71.9219 104.4 71.9219Z" fill="black"/>
</g>
<defs>
<filter id="filter0_i_1460_56624" x="0" y="0" width="180" height="216" filterUnits="userSpaceOnUse" color-interpolation-filters="sRGB">
<feFlood flood-opacity="0" result="BackgroundImageFix"/>
<feBlend mode="normal" in="SourceGraphic" in2="BackgroundImageFix" result="shape"/>
<feColorMatrix in="SourceAlpha" type="matrix" values="0 0 0 0 0 0 0 0 0 0 0 0 0 0 0 0 0 0 127 0" result="hardAlpha"/>
<feOffset dy="4"/>
<feGaussianBlur stdDeviation="2"/>
<feComposite in2="hardAlpha" operator="arithmetic" k2="-1" k3="1"/>
<feColorMatrix type="matrix" values="0 0 0 0 0.470588 0 0 0 0 0.670588 0 0 0 0 0.678431 0 0 0 1 0"/>
<feBlend mode="normal" in2="shape" result="effect1_innerShadow_1460_56624"/>
</filter>
</defs>
</svg>
