<svg xmlns="http://www.w3.org/2000/svg" viewBox="0 0 83.18 79.49"><defs><style>.cls-1{fill:#75aaab;}.cls-2{fill:#a6bdd4;}.cls-3{fill:#76aaab;}.cls-4{fill:#a7bdd4;}.cls-5{fill:#77abac;}.cls-6{fill:#a8bed5;}.cls-7{fill:#78abac;}.cls-8{fill:#79acad;}.cls-9{fill:#a8bed4;}.cls-10{fill:#a9bed5;}</style></defs><g id="Ebene_2" data-name="Ebene 2"><g id="Ebene_1-2" data-name="Ebene 1"><path class="cls-1" d="M51.5,41.79c4.22,0,7.55,3,7.62,6.81s-3.59,7.18-7.77,7.1-7.65-3.27-7.62-7.07S47.17,41.78,51.5,41.79Z"/><path class="cls-2" d="M39.3,31.22c.48,3.55-3.55,7-7.44,6.81-4.5-.18-7.35-2.81-7.58-6.92-.21-3.74,3.74-6.92,7.62-6.92C35.59,24.19,39.83,27.39,39.3,31.22Z"/><path class="cls-3" d="M65.09,34.11c0,2.87-2.88,5.67-5.92,5.73s-6.2-2.93-6-5.69a6,6,0,0,1,11.92,0Z"/><path class="cls-1" d="M42.2,56.57c0,3.27-2.39,5.44-5.94,5.43s-6-2.36-6-5.65c0-2.84,2.86-5.43,6.07-5.35C39.86,51.09,42.52,53.64,42.2,56.57Z"/><path class="cls-4" d="M18.53,45.87c0-3,2.58-5.35,5.94-5.31s6.17,2.51,6,5.36c-.21,3.29-2.26,5.61-6,5.64A5.48,5.48,0,0,1,18.53,45.87Z"/><path class="cls-4" d="M47.44,18.14c3.58,0,6,2.23,6,5.59,0,2.91-2.68,5.37-5.94,5.42s-6.06-2.58-6-5.38C41.5,20.42,43.92,18.14,47.44,18.14Z"/><path class="cls-5" d="M22.11,55.22a3.81,3.81,0,0,1,4,3.64,3.87,3.87,0,0,1-3.79,3.65c-2,.07-4-1.67-4-3.49A3.79,3.79,0,0,1,22.11,55.22Z"/><path class="cls-6" d="M61,24.33a3.69,3.69,0,0,1-3.87-3.66c0-1.83,1.83-3.48,3.94-3.47A3.91,3.91,0,0,1,65,20.74,3.75,3.75,0,0,1,61,24.33Z"/><path class="cls-7" d="M8.71,59.21A3.2,3.2,0,0,1,12,55.81c2.41,0,3.3,1.31,3.52,3.34.18,1.61-1.66,3.1-3.48,3.09A3.24,3.24,0,0,1,8.71,59.21Z"/><path class="cls-8" d="M60.61,14.28A3.42,3.42,0,0,1,57.11,11a3.4,3.4,0,0,1,3.36-3.21,3.29,3.29,0,0,1,3.46,3.08A3.37,3.37,0,0,1,60.61,14.28Z"/><path class="cls-9" d="M75.24,21.3A3.23,3.23,0,0,1,72,24.53a3.57,3.57,0,0,1-3.57-3.44A3.31,3.31,0,0,1,72,18.14,3.05,3.05,0,0,1,75.24,21.3Z"/><path class="cls-6" d="M26.21,69.06A3.22,3.22,0,0,1,23,72.3a3.6,3.6,0,0,1-3.54-3.12c-.06-1.45,1.9-3.34,3.47-3.34A3.73,3.73,0,0,1,26.21,69.06Z"/><path class="cls-8" d="M0,58.26a2.52,2.52,0,0,1,2.72-2.43A2.6,2.6,0,0,1,5.3,58.6a2.84,2.84,0,0,1-2.79,2.3A2.57,2.57,0,0,1,0,58.26Z"/><path class="cls-7" d="M60.42,5a3,3,0,0,1-2.65-2.62A2.35,2.35,0,0,1,60.33,0,2.49,2.49,0,0,1,63,2.3,3.24,3.24,0,0,1,60.42,5Z"/><path class="cls-6" d="M83.18,21.06a2.69,2.69,0,0,1-5.37.12,2.59,2.59,0,0,1,2.62-2.38A2.64,2.64,0,0,1,83.18,21.06Z"/><path class="cls-10" d="M20.7,77.14a2.52,2.52,0,0,1,2.55-2.54,2.75,2.75,0,0,1,2.57,2.61,2.29,2.29,0,0,1-2.61,2.28A2.23,2.23,0,0,1,20.7,77.14Z"/></g></g></svg>